<?xml version="1.0" standalone="no"?>
<!DOCTYPE svg PUBLIC "-//W3C//DTD SVG 20001102//EN"
"http://www.w3.org/TR/2000/CR-SVG-20001102/DTD/svg-20001102.dtd">
<svg width="352" height="512"
	xmlns:sodipodi="http://sodipodi.sourceforge.net/DTD/sodipodi-0.dtd">
<desc>wmf2svg</desc>
<polygon points="21.410311,488.816315 
	134.630920,159.020401 123.744331,156.408157 10.523708,486.204071 "
	style="fill-opacity:1.0; fill-rule:evenodd; fill:black; stroke:none" />
<ellipse cx="16.692779" cy="487.836716" rx="6.169070" ry="5.551010" 
	style="fill-opacity:1.0; fill-rule:evenodd; fill:black; stroke:none" />
<polygon points="135.356705,157.714279 
	138.259796,134.204086 125.921646,133.551010 123.018555,157.061234 123.744331,156.408157 
	134.630920,159.020401 "
	style="fill-opacity:1.0; fill-rule:evenodd; fill:black; stroke:none" />
<polygon points="137.534027,134.857147 
	142.614426,113.306114 131.002060,111.346931 125.921646,132.897949 125.921646,133.551010 
	138.259796,134.204086 "
	style="fill-opacity:1.0; fill-rule:evenodd; fill:black; stroke:none" />
<polygon points="142.614426,113.959183 
	149.146393,93.714279 138.259796,91.102036 131.727829,111.346931 131.002060,111.346931 
	142.614426,113.306114 "
	style="fill-opacity:1.0; fill-rule:evenodd; fill:black; stroke:none" />
<ellipse cx="128.824749" cy="157.714279" rx="6.531956" ry="5.877548" 
	style="fill-opacity:1.0; fill-rule:evenodd; fill:black; stroke:none" />
<polygon points="148.420624,95.020409 
	159.307220,79.346931 149.872177,74.122444 138.985565,89.795921 138.259796,91.102036 
	149.146393,93.714279 "
	style="fill-opacity:1.0; fill-rule:evenodd; fill:black; stroke:none" />
<polygon points="158.581436,79.346931 
	169.468033,66.285713 160.758774,60.408165 149.872177,73.469383 149.872177,74.122444 
	159.307220,79.346931 "
	style="fill-opacity:1.0; fill-rule:evenodd; fill:black; stroke:none" />
<polygon points="169.468033,66.938774 
	192.692795,44.081635 183.983505,36.897961 160.758774,59.755100 160.758774,60.408165 
	169.468033,66.285713 "
	style="fill-opacity:1.0; fill-rule:evenodd; fill:black; stroke:none" />
<ellipse cx="188.701035" cy="41.142859" rx="6.169067" ry="5.551020" 
	style="fill-opacity:1.0; fill-rule:evenodd; fill:black; stroke:none" />
<polygon points="183.983505,40.816322 
	180.354630,57.142853 191.967010,59.102043 195.595886,42.775509 "
	style="fill-opacity:1.0; fill-rule:evenodd; fill:black; stroke:none" />
<ellipse cx="190.152580" cy="42.448982" rx="6.169075" ry="5.551022" 
	style="fill-opacity:1.0; fill-rule:evenodd; fill:black; stroke:none" />
<polygon points="180.354630,57.795921 
	177.451553,73.469383 189.063919,74.775513 191.967010,59.102043 191.967010,59.102043 
	180.354630,57.142853 "
	style="fill-opacity:1.0; fill-rule:evenodd; fill:black; stroke:none" />
<polygon points="177.451553,72.816330 
	173.822693,89.795921 185.435059,91.755096 189.063919,74.775513 189.063919,74.775513 
	177.451553,73.469383 "
	style="fill-opacity:1.0; fill-rule:evenodd; fill:black; stroke:none" />
<polygon points="173.822693,89.795921 
	171.645370,98.285706 182.531967,100.897949 185.435059,91.755096 "
	style="fill-opacity:1.0; fill-rule:evenodd; fill:black; stroke:none" />
<polygon points="171.645370,98.285706 
	167.290726,104.816330 177.451553,109.387756 182.531967,100.897949 "
	style="fill-opacity:1.0; fill-rule:evenodd; fill:black; stroke:none" />
<polygon points="167.290726,104.816330 
	165.839188,109.387756 176.725784,112.653069 177.451553,109.387756 "
	style="fill-opacity:1.0; fill-rule:evenodd; fill:black; stroke:none" />
<polygon points="165.839188,109.387756 
	165.113403,110.040817 174.548462,115.918358 176.725784,112.653069 "
	style="fill-opacity:1.0; fill-rule:evenodd; fill:black; stroke:none" />
<polygon points="165.113403,110.040817 
	163.661865,110.693871 172.371124,118.530609 174.548462,115.918358 "
	style="fill-opacity:1.0; fill-rule:evenodd; fill:black; stroke:none" />
<polygon points="163.661865,110.693871 
	159.307220,118.530609 168.742279,123.755096 172.371124,118.530609 "
	style="fill-opacity:1.0; fill-rule:evenodd; fill:black; stroke:none" />
<polygon points="159.307220,117.877556 
	147.694839,130.285721 156.404129,136.816330 168.016495,124.408165 168.742279,123.755096 
	159.307220,118.530609 "
	style="fill-opacity:1.0; fill-rule:evenodd; fill:black; stroke:none" />
<polygon points="147.694839,129.632660 
	136.082489,141.387756 144.791748,148.571426 156.404129,136.816330 156.404129,136.816330 
	147.694839,130.285721 "
	style="fill-opacity:1.0; fill-rule:evenodd; fill:black; stroke:none" />
<polygon points="136.082489,142.040817 
	124.470108,154.448975 133.179398,160.979584 144.791748,148.571426 144.791748,148.571426 
	136.082489,141.387756 "
	style="fill-opacity:1.0; fill-rule:evenodd; fill:black; stroke:none" />
<ellipse cx="129.187630" cy="158.040817" rx="6.169075" ry="5.551010" 
	style="fill-opacity:1.0; fill-rule:evenodd; fill:black; stroke:none" />
<polygon points="157.855682,120.489784 
	132.453613,159.020401 141.888657,164.244904 167.290726,125.714279 "
	style="fill-opacity:1.0; fill-rule:evenodd; fill:black; stroke:none" />
<ellipse cx="163.298965" cy="123.428570" rx="6.169067" ry="5.551014" 
	style="fill-opacity:1.0; fill-rule:evenodd; fill:black; stroke:none" />
<polygon points="131.727829,159.020401 
	120.115456,178.612244 130.276291,183.183670 141.888657,163.591827 141.888657,164.244904 
	132.453613,159.020401 "
	style="fill-opacity:1.0; fill-rule:evenodd; fill:black; stroke:none" />
<polygon points="120.115456,179.265305 
	110.680420,200.163254 120.841240,204.081635 130.276291,183.183670 130.276291,183.183670 
	120.115456,178.612244 "
	style="fill-opacity:1.0; fill-rule:evenodd; fill:black; stroke:none" />
<ellipse cx="116.123714" cy="202.448982" rx="6.169079" ry="5.551018" 
	style="fill-opacity:1.0; fill-rule:evenodd; fill:black; stroke:none" />
<polygon points="133.905151,101.551018 
	121.567017,150.530609 133.179398,152.489807 145.517532,103.510193 "
	style="fill-opacity:1.0; fill-rule:evenodd; fill:black; stroke:none" />
<ellipse cx="140.074226" cy="103.183670" rx="6.169075" ry="5.551018" 
	style="fill-opacity:1.0; fill-rule:evenodd; fill:black; stroke:none" />
<polygon points="121.567017,150.530609 
	115.760826,176.000000 127.373199,177.959183 133.179398,152.489807 133.179398,152.489807 
	121.567017,150.530609 "
	style="fill-opacity:1.0; fill-rule:evenodd; fill:black; stroke:none" />
<polygon points="116.486603,176.000000 
	108.503098,200.816330 119.389702,203.428574 127.373199,178.612244 127.373199,177.959183 
	115.760826,176.000000 "
	style="fill-opacity:1.0; fill-rule:evenodd; fill:black; stroke:none" />
<ellipse cx="114.672169" cy="202.448982" rx="6.169071" ry="5.551018" 
	style="fill-opacity:1.0; fill-rule:evenodd; fill:black; stroke:none" />
<polygon points="115.760826,185.795914 
	103.422676,221.061218 114.309273,223.673477 126.647423,188.408157 "
	style="fill-opacity:1.0; fill-rule:evenodd; fill:black; stroke:none" />
<ellipse cx="121.929897" cy="187.428566" rx="6.169071" ry="5.551018" 
	style="fill-opacity:1.0; fill-rule:evenodd; fill:black; stroke:none" />
<polygon points="103.422676,220.408157 
	90.358757,255.673447 101.245354,258.938751 114.309273,223.673477 114.309273,223.673477 
	103.422676,221.061218 "
	style="fill-opacity:1.0; fill-rule:evenodd; fill:black; stroke:none" />
<ellipse cx="96.527836" cy="257.959183" rx="6.169079" ry="5.551010" 
	style="fill-opacity:1.0; fill-rule:evenodd; fill:black; stroke:none" />
<polyline points="305.913422,496.000000 
	297.929901,446.367340 286.317535,398.040833 275.430908,349.714264 267.447418,300.734711 "
	style="stroke-width:8.273006; stroke-linecap:round; stroke-linejoin:round; stroke-dasharray:none; stroke:black" />
<polyline points="305.187653,398.693878 
	297.204102,351.020386 285.591766,305.959198 275.430908,260.897949 267.447418,213.224487 "
	style="stroke-width:8.273006; stroke-linecap:round; stroke-linejoin:round; stroke-dasharray:none; stroke:black" />
<polyline points="302.284546,441.142853 
	295.026794,392.816345 284.865967,345.795898 273.979401,298.775513 265.270111,249.142868 "
	style="stroke-width:8.273006; stroke-linecap:round; stroke-linejoin:round; stroke-dasharray:none; stroke:black" />
<polyline points="305.187653,354.285706 
	297.204102,307.918365 287.043304,265.469391 276.882477,223.673477 269.624725,177.959183 "
	style="stroke-width:8.273006; stroke-linecap:round; stroke-linejoin:round; stroke-dasharray:none; stroke:black" />
<polyline points="304.461853,307.918365 
	297.929901,266.122437 289.946411,233.469391 282.688660,202.122437 276.882477,160.326523 "
	style="stroke-width:8.273006; stroke-linecap:round; stroke-linejoin:round; stroke-dasharray:none; stroke:black" />
<polygon points="272.527832,299.428558 
	241.319595,187.755096 231.884552,189.714294 263.092773,301.387756 "
	style="fill-opacity:1.0; fill-rule:evenodd; fill:black; stroke:none" />
<ellipse cx="268.536087" cy="301.061218" rx="4.717514" ry="4.244873" 
	style="fill-opacity:1.0; fill-rule:evenodd; fill:black; stroke:none" />
<polygon points="239.142273,185.795914 
	150.597931,119.836739 144.791748,126.367340 233.336090,192.326523 231.884552,189.714294 
	241.319595,187.755096 "
	style="fill-opacity:1.0; fill-rule:evenodd; fill:black; stroke:none" />
<polygon points="241.319595,187.102051 
	239.142273,185.795914 231.884552,189.714294 233.336090,192.326523 241.319595,187.755096 "
	style="fill-opacity:1.0; fill-rule:evenodd; fill:black; stroke:none" />
<polygon points="148.420624,118.530609 
	12.701029,99.591835 11.249482,108.081642 146.969086,127.020409 144.791748,126.367340 
	150.597931,119.836739 "
	style="fill-opacity:1.0; fill-rule:evenodd; fill:black; stroke:none" />
<ellipse cx="12.338142" cy="104.489796" rx="4.717527" ry="4.244892" 
	style="fill-opacity:1.0; fill-rule:evenodd; fill:black; stroke:none" />
<polygon points="149.146393,118.530609 
	148.420624,118.530609 144.791748,126.367340 146.969086,127.020409 150.597931,119.836739 "
	style="fill-opacity:1.0; fill-rule:evenodd; fill:black; stroke:none" />
<polygon points="270.350525,247.836731 
	253.657745,182.530609 244.222687,184.489807 260.915466,249.795914 "
	style="fill-opacity:1.0; fill-rule:evenodd; fill:black; stroke:none" />
<ellipse cx="266.358765" cy="249.469391" rx="4.717529" ry="4.244888" 
	style="fill-opacity:1.0; fill-rule:evenodd; fill:black; stroke:none" />
<polygon points="251.480423,180.571426 
	154.226807,106.775505 148.420624,113.306114 245.674240,187.102051 244.222687,184.489807 
	253.657745,182.530609 "
	style="fill-opacity:1.0; fill-rule:evenodd; fill:black; stroke:none" />
<polygon points="253.657745,181.877548 
	251.480423,180.571426 244.222687,184.489807 245.674240,187.102051 253.657745,182.530609 "
	style="fill-opacity:1.0; fill-rule:evenodd; fill:black; stroke:none" />
<polygon points="152.775253,106.122444 
	20.684532,63.020405 17.781439,70.857140 149.872177,113.959183 148.420624,113.306114 
	154.226807,106.775505 "
	style="fill-opacity:1.0; fill-rule:evenodd; fill:black; stroke:none" />
<ellipse cx="19.595870" cy="67.265306" rx="4.717525" ry="4.244902" 
	style="fill-opacity:1.0; fill-rule:evenodd; fill:black; stroke:none" />
<polygon points="153.501022,106.775505 
	152.775253,106.122444 148.420624,113.306114 149.872177,113.959183 154.226807,106.775505 "
	style="fill-opacity:1.0; fill-rule:evenodd; fill:black; stroke:none" />
<polygon points="272.527832,210.612244 
	263.092773,172.734680 253.657745,174.693878 263.092773,212.571426 "
	style="fill-opacity:1.0; fill-rule:evenodd; fill:black; stroke:none" />
<ellipse cx="268.536087" cy="212.244896" rx="4.717514" ry="4.244896" 
	style="fill-opacity:1.0; fill-rule:evenodd; fill:black; stroke:none" />
<polygon points="260.915466,170.775513 
	160.032990,93.714279 154.226807,100.244904 255.109283,177.306122 253.657745,174.693878 
	263.092773,172.734680 "
	style="fill-opacity:1.0; fill-rule:evenodd; fill:black; stroke:none" />
<polygon points="263.092773,172.081635 
	260.915466,170.775513 253.657745,174.693878 255.109283,177.306122 263.092773,172.734680 "
	style="fill-opacity:1.0; fill-rule:evenodd; fill:black; stroke:none" />
<polygon points="159.307220,93.061234 
	36.651539,36.897961 32.296909,44.081635 154.952591,100.244904 154.226807,100.244904 
	160.032990,93.714279 "
	style="fill-opacity:1.0; fill-rule:evenodd; fill:black; stroke:none" />
<ellipse cx="34.837109" cy="41.142859" rx="4.717525" ry="4.244898" 
	style="fill-opacity:1.0; fill-rule:evenodd; fill:black; stroke:none" />
<polygon points="159.307220,93.061234 
	159.307220,93.061234 154.226807,100.244904 154.952591,100.244904 160.032990,93.714279 "
	style="fill-opacity:1.0; fill-rule:evenodd; fill:black; stroke:none" />
<polyline points="303.010315,272.000000 
	300.832977,233.469391 297.204102,209.959183 292.849487,187.102051 287.769104,149.224487 "
	style="stroke-width:8.273006; stroke-linecap:round; stroke-linejoin:round; stroke-dasharray:none; stroke:black" />
<polygon points="296.478363,147.918365 
	313.896912,94.367348 304.461853,92.408165 287.043304,145.959183 "
	style="fill-opacity:1.0; fill-rule:evenodd; fill:black; stroke:none" />
<ellipse cx="292.486603" cy="147.591835" rx="4.717499" ry="4.244896" 
	style="fill-opacity:1.0; fill-rule:evenodd; fill:black; stroke:none" />
<polygon points="313.171173,95.673477 
	350.185577,34.285717 342.202057,30.367348 305.187653,91.755096 304.461853,92.408165 
	313.896912,94.367348 "
	style="fill-opacity:1.0; fill-rule:evenodd; fill:black; stroke:none" />
<ellipse cx="346.919586" cy="32.653060" rx="4.717529" ry="4.244901" 
	style="fill-opacity:1.0; fill-rule:evenodd; fill:black; stroke:none" />
<polygon points="303.736084,93.714279 
	305.187653,91.755096 313.896912,94.367348 313.171173,95.673477 304.461853,92.408165 "
	style="fill-opacity:1.0; fill-rule:evenodd; fill:black; stroke:none" />
<polygon points="281.962891,160.326523 
	284.140228,90.448982 273.979401,90.448982 271.802094,160.326523 "
	style="fill-opacity:1.0; fill-rule:evenodd; fill:black; stroke:none" />
<ellipse cx="277.245361" cy="160.653061" rx="4.717529" ry="4.244904" 
	style="fill-opacity:1.0; fill-rule:evenodd; fill:black; stroke:none" />
<polygon points="283.414429,91.755096 
	309.542297,15.999995 300.832977,13.387758 274.705170,89.142853 273.979401,90.448982 
	284.140228,90.448982 "
	style="fill-opacity:1.0; fill-rule:evenodd; fill:black; stroke:none" />
<ellipse cx="305.550507" cy="15.020409" rx="4.717529" ry="4.244897" 
	style="fill-opacity:1.0; fill-rule:evenodd; fill:black; stroke:none" />
<polygon points="273.979401,91.102036 
	274.705170,89.142853 284.140228,90.448982 283.414429,91.755096 273.979401,90.448982 "
	style="fill-opacity:1.0; fill-rule:evenodd; fill:black; stroke:none" />
<polygon points="276.156708,177.306122 
	256.560822,83.265312 247.125778,84.571426 266.721649,178.612244 "
	style="fill-opacity:1.0; fill-rule:evenodd; fill:black; stroke:none" />
<ellipse cx="272.164948" cy="178.285713" rx="4.717529" ry="4.244896" 
	style="fill-opacity:1.0; fill-rule:evenodd; fill:black; stroke:none" />
<polygon points="256.560822,84.571426 
	269.624725,4.897959 260.189697,3.591836 247.125778,83.265312 247.125778,84.571426 
	256.560822,83.265312 "
	style="fill-opacity:1.0; fill-rule:evenodd; fill:black; stroke:none" />
<ellipse cx="265.632996" cy="4.571426" rx="4.717529" ry="4.244897" 
	style="fill-opacity:1.0; fill-rule:evenodd; fill:black; stroke:none" />
<polygon points="247.125778,83.918358 
	247.125778,83.265312 256.560822,83.265312 256.560822,84.571426 247.125778,84.571426 "
	style="fill-opacity:1.0; fill-rule:evenodd; fill:black; stroke:none" />
<polyline points="301.558777,502.530609 
	295.026794,460.734680 285.591766,428.734680 276.156708,397.387756 268.898956,356.244904 "
	style="stroke-width:8.273006; stroke-linecap:round; stroke-linejoin:round; stroke-dasharray:none; stroke:black" />
<polyline points="293.575287,503.836731 
	287.769104,467.265320 281.962891,448.979584 275.430908,433.959198 268.173218,405.224487 "
	style="stroke-width:8.273006; stroke-linecap:round; stroke-linejoin:round; stroke-dasharray:none; stroke:black" />
<polyline points="285.591766,503.836731 
	276.882477,471.836731 276.156708,462.693878 276.882477,460.081635 271.802094,445.061218 "
	style="stroke-width:8.273006; stroke-linecap:round; stroke-linejoin:round; stroke-dasharray:none; stroke:black" />
<polygon points="25.039173,490.775513 
	123.744331,202.122437 112.857735,199.510208 14.152575,488.163239 "
	style="fill-opacity:1.0; fill-rule:evenodd; fill:black; stroke:none" />
<ellipse cx="20.321648" cy="489.795898" rx="6.169073" ry="5.551025" 
	style="fill-opacity:1.0; fill-rule:evenodd; fill:black; stroke:none" />
<polygon points="112.857735,198.857147 
	5.443294,487.510193 16.329891,490.775513 123.744331,202.122437 112.857735,199.510208 
	123.744331,202.122437 "
	style="fill-opacity:1.0; fill-rule:evenodd; fill:black; stroke:none" />
<polygon points="16.329891,490.775513 
	117.212364,200.816330 106.325768,198.204071 5.443294,488.163239 16.329891,490.775513 
	5.443294,487.510193 "
	style="fill-opacity:1.0; fill-rule:evenodd; fill:black; stroke:none" />
<polygon points="117.212364,200.816330 
	126.647423,172.734680 115.760826,170.122437 106.325768,198.204071 106.325768,198.204071 
	117.212364,200.816330 "
	style="fill-opacity:1.0; fill-rule:evenodd; fill:black; stroke:none" />
<ellipse cx="121.929897" cy="171.755104" rx="6.169071" ry="5.551018" 
	style="fill-opacity:1.0; fill-rule:evenodd; fill:black; stroke:none" />
<polygon points="117.212364,200.816330 
	117.212364,200.816330 106.325768,198.204071 106.325768,198.204071 117.212364,200.816330 "
	style="fill-opacity:1.0; fill-rule:evenodd; fill:black; stroke:none" />
<ellipse cx="15.604123" cy="497.959167" rx="15.241239" ry="13.714294" 
	style="fill-opacity:1.0; fill-rule:evenodd; fill:black; stroke:none" />
<ellipse cx="15.604120" cy="497.959183" rx="14.515463" ry="13.061203" 
	style="fill-opacity:1.0; fill-rule:evenodd; fill:black; stroke:none" />
<ellipse cx="15.604120" cy="497.959183" rx="14.515463" ry="13.061203" 
	style="fill-opacity:1.0; fill-rule:evenodd; fill:black; stroke:none" />
<ellipse cx="15.604123" cy="497.959183" rx="13.789691" ry="12.408157" 
	style="fill-opacity:1.0; fill-rule:evenodd; fill:black; stroke:none" />
<ellipse cx="15.604123" cy="497.959183" rx="13.789691" ry="12.408157" 
	style="fill-opacity:1.0; fill-rule:evenodd; fill:black; stroke:none" />
<ellipse cx="15.604120" cy="497.959183" rx="13.063915" ry="11.755112" 
	style="fill-opacity:1.0; fill-rule:evenodd; fill:black; stroke:none" />
<ellipse cx="15.604120" cy="497.959183" rx="13.063915" ry="11.755112" 
	style="fill-opacity:1.0; fill-rule:evenodd; fill:black; stroke:none" />
<ellipse cx="15.604121" cy="497.959183" rx="12.338147" ry="11.102036" 
	style="fill-opacity:1.0; fill-rule:evenodd; fill:black; stroke:none" />
<ellipse cx="15.604121" cy="497.959183" rx="12.338147" ry="11.102036" 
	style="fill-opacity:1.0; fill-rule:evenodd; fill:black; stroke:none" />
<ellipse cx="15.604118" cy="497.959183" rx="11.612371" ry="10.448990" 
	style="fill-opacity:1.0; fill-rule:evenodd; fill:black; stroke:none" />
<ellipse cx="15.604118" cy="497.959183" rx="11.612371" ry="10.448990" 
	style="fill-opacity:1.0; fill-rule:evenodd; fill:black; stroke:none" />
<ellipse cx="15.604121" cy="497.959152" rx="10.886600" ry="9.795914" 
	style="fill-opacity:1.0; fill-rule:evenodd; fill:black; stroke:none" />
<ellipse cx="15.604121" cy="497.959152" rx="10.886600" ry="9.795914" 
	style="fill-opacity:1.0; fill-rule:evenodd; fill:black; stroke:none" />
<ellipse cx="15.604118" cy="497.959167" rx="10.160824" ry="9.142853" 
	style="fill-opacity:1.0; fill-rule:evenodd; fill:black; stroke:none" />
<ellipse cx="15.604118" cy="497.959167" rx="10.160824" ry="9.142853" 
	style="fill-opacity:1.0; fill-rule:evenodd; fill:black; stroke:none" />
<ellipse cx="15.604120" cy="497.959183" rx="9.435053" ry="8.489792" 
	style="fill-opacity:1.0; fill-rule:evenodd; fill:black; stroke:none" />
<ellipse cx="15.604120" cy="497.959183" rx="9.435053" ry="8.489792" 
	style="fill-opacity:1.0; fill-rule:evenodd; fill:black; stroke:none" />
<ellipse cx="15.604118" cy="497.959183" rx="8.709276" ry="7.836716" 
	style="fill-opacity:1.0; fill-rule:evenodd; fill:black; stroke:none" />
<ellipse cx="15.604118" cy="497.959183" rx="8.709276" ry="7.836716" 
	style="fill-opacity:1.0; fill-rule:evenodd; fill:black; stroke:none" />
<ellipse cx="15.604121" cy="497.959183" rx="7.983506" ry="7.183670" 
	style="fill-opacity:1.0; fill-rule:evenodd; fill:black; stroke:none" />
<ellipse cx="15.604121" cy="497.959183" rx="7.983506" ry="7.183670" 
	style="fill-opacity:1.0; fill-rule:evenodd; fill:black; stroke:none" />
<ellipse cx="15.604118" cy="497.959183" rx="7.257730" ry="6.530624" 
	style="fill-opacity:1.0; fill-rule:evenodd; fill:black; stroke:none" />
<ellipse cx="15.604118" cy="497.959183" rx="7.257730" ry="6.530624" 
	style="fill-opacity:1.0; fill-rule:evenodd; fill:black; stroke:none" />
<ellipse cx="15.604121" cy="497.959183" rx="6.531959" ry="5.877548" 
	style="fill-opacity:1.0; fill-rule:evenodd; fill:black; stroke:none" />
<ellipse cx="15.604121" cy="497.959183" rx="6.531959" ry="5.877548" 
	style="fill-opacity:1.0; fill-rule:evenodd; fill:black; stroke:none" />
<ellipse cx="15.604123" cy="497.959183" rx="5.806188" ry="5.224503" 
	style="fill-opacity:1.0; fill-rule:evenodd; fill:black; stroke:none" />
<ellipse cx="15.604123" cy="497.959183" rx="5.806188" ry="5.224503" 
	style="fill-opacity:1.0; fill-rule:evenodd; fill:black; stroke:none" />
<ellipse cx="15.604120" cy="497.959167" rx="5.080412" ry="4.571442" 
	style="fill-opacity:1.0; fill-rule:evenodd; fill:black; stroke:none" />
<ellipse cx="15.604120" cy="497.959167" rx="5.080412" ry="4.571442" 
	style="fill-opacity:1.0; fill-rule:evenodd; fill:black; stroke:none" />
<ellipse cx="15.604123" cy="497.959183" rx="4.354640" ry="3.918350" 
	style="fill-opacity:1.0; fill-rule:evenodd; fill:black; stroke:none" />
<ellipse cx="15.604123" cy="497.959183" rx="4.354640" ry="3.918350" 
	style="fill-opacity:1.0; fill-rule:evenodd; fill:black; stroke:none" />
<ellipse cx="15.604121" cy="497.959183" rx="3.628866" ry="3.265305" 
	style="fill-opacity:1.0; fill-rule:evenodd; fill:black; stroke:none" />
<ellipse cx="15.604121" cy="497.959183" rx="3.628866" ry="3.265305" 
	style="fill-opacity:1.0; fill-rule:evenodd; fill:black; stroke:none" />
<ellipse cx="15.604123" cy="497.959167" rx="2.903094" ry="2.612244" 
	style="fill-opacity:1.0; fill-rule:evenodd; fill:black; stroke:none" />
<ellipse cx="15.604123" cy="497.959167" rx="2.903094" ry="2.612244" 
	style="fill-opacity:1.0; fill-rule:evenodd; fill:black; stroke:none" />
<ellipse cx="15.604118" cy="497.959183" rx="2.177320" ry="1.959183" 
	style="fill-opacity:1.0; fill-rule:evenodd; fill:black; stroke:none" />
<ellipse cx="15.604118" cy="497.959183" rx="2.177320" ry="1.959183" 
	style="fill-opacity:1.0; fill-rule:evenodd; fill:black; stroke:none" />
<ellipse cx="15.604123" cy="497.959183" rx="1.451547" ry="1.306137" 
	style="fill-opacity:1.0; fill-rule:evenodd; fill:black; stroke:none" />
<ellipse cx="15.604123" cy="497.959183" rx="1.451547" ry="1.306137" 
	style="fill-opacity:1.0; fill-rule:evenodd; fill:black; stroke:none" />
<ellipse cx="15.604118" cy="497.959183" rx="0.725773" ry="0.653061" 
	style="fill-opacity:1.0; fill-rule:evenodd; fill:black; stroke:none" />
<ellipse cx="15.604118" cy="497.959183" rx="0.725773" ry="0.653061" 
	style="fill-opacity:1.0; fill-rule:evenodd; fill:black; stroke:none" />
<polygon points="9.072162,506.448975 
	9.072162,488.816315 22.136080,490.775513 9.072162,506.448975 "
	style="fill-opacity:1.0; fill-rule:evenodd; fill:black; stroke:none" />
<ellipse cx="15.604123" cy="497.959167" rx="15.241239" ry="13.714294" 
	style="fill-opacity:1.0; fill-rule:evenodd; fill:black; stroke:none" />
<ellipse cx="15.604120" cy="497.959183" rx="14.515463" ry="13.061203" 
	style="fill-opacity:1.0; fill-rule:evenodd; fill:black; stroke:none" />
<ellipse cx="15.604120" cy="497.959183" rx="14.515463" ry="13.061203" 
	style="fill-opacity:1.0; fill-rule:evenodd; fill:black; stroke:none" />
<ellipse cx="15.604123" cy="497.959183" rx="13.789691" ry="12.408157" 
	style="fill-opacity:1.0; fill-rule:evenodd; fill:black; stroke:none" />
<ellipse cx="15.604123" cy="497.959183" rx="13.789691" ry="12.408157" 
	style="fill-opacity:1.0; fill-rule:evenodd; fill:black; stroke:none" />
<ellipse cx="15.604120" cy="497.959183" rx="13.063915" ry="11.755112" 
	style="fill-opacity:1.0; fill-rule:evenodd; fill:black; stroke:none" />
<ellipse cx="15.604120" cy="497.959183" rx="13.063915" ry="11.755112" 
	style="fill-opacity:1.0; fill-rule:evenodd; fill:black; stroke:none" />
<ellipse cx="15.604121" cy="497.959183" rx="12.338147" ry="11.102036" 
	style="fill-opacity:1.0; fill-rule:evenodd; fill:black; stroke:none" />
<ellipse cx="15.604121" cy="497.959183" rx="12.338147" ry="11.102036" 
	style="fill-opacity:1.0; fill-rule:evenodd; fill:black; stroke:none" />
<ellipse cx="15.604118" cy="497.959183" rx="11.612371" ry="10.448990" 
	style="fill-opacity:1.0; fill-rule:evenodd; fill:black; stroke:none" />
<ellipse cx="15.604118" cy="497.959183" rx="11.612371" ry="10.448990" 
	style="fill-opacity:1.0; fill-rule:evenodd; fill:black; stroke:none" />
<ellipse cx="15.604121" cy="497.959152" rx="10.886600" ry="9.795914" 
	style="fill-opacity:1.0; fill-rule:evenodd; fill:black; stroke:none" />
<ellipse cx="15.604121" cy="497.959152" rx="10.886600" ry="9.795914" 
	style="fill-opacity:1.0; fill-rule:evenodd; fill:black; stroke:none" />
<ellipse cx="15.604118" cy="497.959167" rx="10.160824" ry="9.142853" 
	style="fill-opacity:1.0; fill-rule:evenodd; fill:black; stroke:none" />
<ellipse cx="15.604118" cy="497.959167" rx="10.160824" ry="9.142853" 
	style="fill-opacity:1.0; fill-rule:evenodd; fill:black; stroke:none" />
<ellipse cx="15.604120" cy="497.959183" rx="9.435053" ry="8.489792" 
	style="fill-opacity:1.0; fill-rule:evenodd; fill:black; stroke:none" />
<ellipse cx="15.604120" cy="497.959183" rx="9.435053" ry="8.489792" 
	style="fill-opacity:1.0; fill-rule:evenodd; fill:black; stroke:none" />
<ellipse cx="15.604118" cy="497.959183" rx="8.709276" ry="7.836716" 
	style="fill-opacity:1.0; fill-rule:evenodd; fill:black; stroke:none" />
<ellipse cx="15.604118" cy="497.959183" rx="8.709276" ry="7.836716" 
	style="fill-opacity:1.0; fill-rule:evenodd; fill:black; stroke:none" />
<ellipse cx="15.604121" cy="497.959183" rx="7.983506" ry="7.183670" 
	style="fill-opacity:1.0; fill-rule:evenodd; fill:black; stroke:none" />
<ellipse cx="15.604121" cy="497.959183" rx="7.983506" ry="7.183670" 
	style="fill-opacity:1.0; fill-rule:evenodd; fill:black; stroke:none" />
<ellipse cx="15.604118" cy="497.959183" rx="7.257730" ry="6.530624" 
	style="fill-opacity:1.0; fill-rule:evenodd; fill:black; stroke:none" />
<ellipse cx="15.604118" cy="497.959183" rx="7.257730" ry="6.530624" 
	style="fill-opacity:1.0; fill-rule:evenodd; fill:black; stroke:none" />
<ellipse cx="15.604121" cy="497.959183" rx="6.531959" ry="5.877548" 
	style="fill-opacity:1.0; fill-rule:evenodd; fill:black; stroke:none" />
<ellipse cx="15.604121" cy="497.959183" rx="6.531959" ry="5.877548" 
	style="fill-opacity:1.0; fill-rule:evenodd; fill:black; stroke:none" />
<ellipse cx="15.604123" cy="497.959183" rx="5.806188" ry="5.224503" 
	style="fill-opacity:1.0; fill-rule:evenodd; fill:black; stroke:none" />
<ellipse cx="15.604123" cy="497.959183" rx="5.806188" ry="5.224503" 
	style="fill-opacity:1.0; fill-rule:evenodd; fill:black; stroke:none" />
<ellipse cx="15.604120" cy="497.959167" rx="5.080412" ry="4.571442" 
	style="fill-opacity:1.0; fill-rule:evenodd; fill:black; stroke:none" />
<ellipse cx="15.604120" cy="497.959167" rx="5.080412" ry="4.571442" 
	style="fill-opacity:1.0; fill-rule:evenodd; fill:black; stroke:none" />
<ellipse cx="15.604123" cy="497.959183" rx="4.354640" ry="3.918350" 
	style="fill-opacity:1.0; fill-rule:evenodd; fill:black; stroke:none" />
<ellipse cx="15.604123" cy="497.959183" rx="4.354640" ry="3.918350" 
	style="fill-opacity:1.0; fill-rule:evenodd; fill:black; stroke:none" />
<ellipse cx="15.604121" cy="497.959183" rx="3.628866" ry="3.265305" 
	style="fill-opacity:1.0; fill-rule:evenodd; fill:black; stroke:none" />
<ellipse cx="15.604121" cy="497.959183" rx="3.628866" ry="3.265305" 
	style="fill-opacity:1.0; fill-rule:evenodd; fill:black; stroke:none" />
<ellipse cx="15.604123" cy="497.959167" rx="2.903094" ry="2.612244" 
	style="fill-opacity:1.0; fill-rule:evenodd; fill:black; stroke:none" />
<ellipse cx="15.604123" cy="497.959167" rx="2.903094" ry="2.612244" 
	style="fill-opacity:1.0; fill-rule:evenodd; fill:black; stroke:none" />
<ellipse cx="15.604118" cy="497.959183" rx="2.177320" ry="1.959183" 
	style="fill-opacity:1.0; fill-rule:evenodd; fill:black; stroke:none" />
<ellipse cx="15.604118" cy="497.959183" rx="2.177320" ry="1.959183" 
	style="fill-opacity:1.0; fill-rule:evenodd; fill:black; stroke:none" />
<ellipse cx="15.604123" cy="497.959183" rx="1.451547" ry="1.306137" 
	style="fill-opacity:1.0; fill-rule:evenodd; fill:black; stroke:none" />
<ellipse cx="15.604123" cy="497.959183" rx="1.451547" ry="1.306137" 
	style="fill-opacity:1.0; fill-rule:evenodd; fill:black; stroke:none" />
<ellipse cx="15.604118" cy="497.959183" rx="0.725773" ry="0.653061" 
	style="fill-opacity:1.0; fill-rule:evenodd; fill:black; stroke:none" />
<ellipse cx="15.604118" cy="497.959183" rx="0.725773" ry="0.653061" 
	style="fill-opacity:1.0; fill-rule:evenodd; fill:black; stroke:none" />
<polyline points="9.072162,506.448975 
	9.072162,488.816315 22.136080,490.775513 9.072162,506.448975 "
	style="stroke-width:4.825921; stroke-linecap:round; stroke-linejoin:round; stroke-dasharray:none; stroke:black" />
<polygon points="122.292793,208.000000 
	183.257721,96.326523 173.096909,91.755096 112.131958,203.428574 "
	style="fill-opacity:1.0; fill-rule:evenodd; fill:black; stroke:none" />
<ellipse cx="117.575264" cy="206.367348" rx="6.169067" ry="5.551018" 
	style="fill-opacity:1.0; fill-rule:evenodd; fill:black; stroke:none" />
<polygon points="183.983505,95.020409 
	197.047424,38.857143 185.435059,36.897961 172.371124,93.061234 173.096909,91.755096 
	183.257721,96.326523 "
	style="fill-opacity:1.0; fill-rule:evenodd; fill:black; stroke:none" />
<ellipse cx="178.177330" cy="94.367344" rx="6.531960" ry="5.877560" 
	style="fill-opacity:1.0; fill-rule:evenodd; fill:black; stroke:none" />
<polygon points="186.886597,34.938774 
	137.534027,93.714279 146.969086,99.591835 196.321655,40.816322 185.435059,36.897961 
	197.047424,38.857143 "
	style="fill-opacity:1.0; fill-rule:evenodd; fill:black; stroke:none" />
<ellipse cx="191.241241" cy="38.204081" rx="6.531952" ry="5.877554" 
	style="fill-opacity:1.0; fill-rule:evenodd; fill:black; stroke:none" />
<polygon points="136.808243,95.673477 
	106.325768,198.204071 117.212364,200.816330 147.694839,98.285706 146.969086,99.591835 
	137.534027,93.714279 "
	style="fill-opacity:1.0; fill-rule:evenodd; fill:black; stroke:none" />
<ellipse cx="112.494843" cy="199.836739" rx="6.169075" ry="5.551018" 
	style="fill-opacity:1.0; fill-rule:evenodd; fill:black; stroke:none" />
<ellipse cx="141.888664" cy="96.979591" rx="6.531960" ry="5.877556" 
	style="fill-opacity:1.0; fill-rule:evenodd; fill:black; stroke:none" />
</svg>
