<?xml version="1.0" standalone="no"?>
<!DOCTYPE svg PUBLIC "-//W3C//DTD SVG 20001102//EN"
"http://www.w3.org/TR/2000/CR-SVG-20001102/DTD/svg-20001102.dtd">
<svg width="694" height="512"
	xmlns:sodipodi="http://sodipodi.sourceforge.net/DTD/sodipodi-0.dtd">
<desc>wmf2svg</desc>
<polyline points="157.608856,24.934147 
	149.272507,12.467077 142.499237,3.400112 165.945175,22.667404 "
	style="stroke-width:6.526237; stroke-linecap:round; stroke-linejoin:round; stroke-dasharray:none; stroke:black" />
<polygon points="193.038269,72.535698 
	398.320526,329.244049 406.656860,321.877136 201.374603,65.168785 "
	style="fill-opacity:1.0; fill-rule:evenodd; fill:black; stroke:none" />
<polygon points="397.799530,328.110657 
	399.883606,332.644135 409.261993,327.544006 407.177917,323.010498 406.656860,321.877136 
	398.320526,329.244049 "
	style="fill-opacity:1.0; fill-rule:evenodd; fill:black; stroke:none" />
<polygon points="399.883606,332.644135 
	405.093811,343.977875 414.472198,338.877686 409.261993,327.544006 409.261993,327.544006 
	399.883606,332.644135 "
	style="fill-opacity:1.0; fill-rule:evenodd; fill:black; stroke:none" />
<polygon points="405.093811,343.977875 
	412.388092,358.711670 421.766449,353.611511 414.472198,338.877686 414.472198,338.877686 
	405.093811,343.977875 "
	style="fill-opacity:1.0; fill-rule:evenodd; fill:black; stroke:none" />
<polygon points="412.388092,358.711670 
	417.077301,366.078583 425.934662,359.845032 421.766449,353.611511 "
	style="fill-opacity:1.0; fill-rule:evenodd; fill:black; stroke:none" />
<polygon points="417.077301,366.078583 
	422.287537,372.878815 430.102814,366.078583 425.934662,359.845032 "
	style="fill-opacity:1.0; fill-rule:evenodd; fill:black; stroke:none" />
<polygon points="422.287537,372.878815 
	429.581787,379.679016 435.834015,370.612061 430.102814,366.078583 "
	style="fill-opacity:1.0; fill-rule:evenodd; fill:black; stroke:none" />
<polygon points="429.581787,379.679016 
	436.876099,384.212494 442.086334,374.578857 435.834015,370.612061 "
	style="fill-opacity:1.0; fill-rule:evenodd; fill:black; stroke:none" />
<polygon points="437.397125,384.779175 
	451.985687,392.146088 456.153900,381.945740 441.565247,374.578857 442.086334,374.578857 
	436.876099,384.212494 "
	style="fill-opacity:1.0; fill-rule:evenodd; fill:black; stroke:none" />
<polygon points="400.404633,328.110657 
	419.161407,340.011047 423.850555,330.944092 405.093811,319.043732 "
	style="fill-opacity:1.0; fill-rule:evenodd; fill:black; stroke:none" />
<ellipse cx="403.270233" cy="323.860535" rx="4.949707" ry="5.383514" 
	style="fill-opacity:1.0; fill-rule:evenodd; fill:black; stroke:none" />
<polygon points="418.119324,339.444397 
	425.934662,346.244598 432.186890,337.744324 424.371582,330.944092 423.850555,330.944092 
	419.161407,340.011047 "
	style="fill-opacity:1.0; fill-rule:evenodd; fill:black; stroke:none" />
<polygon points="425.934662,346.244598 
	431.665894,353.044830 438.960205,345.111206 432.186890,337.744324 "
	style="fill-opacity:1.0; fill-rule:evenodd; fill:black; stroke:none" />
<polygon points="431.665894,351.911469 
	438.439148,362.678467 446.254456,357.011627 439.481201,346.244598 438.960205,345.111206 
	431.665894,353.044830 "
	style="fill-opacity:1.0; fill-rule:evenodd; fill:black; stroke:none" />
<polygon points="437.918121,362.111786 
	443.128357,371.745453 451.464691,366.645264 446.254456,357.011627 446.254456,357.011627 
	438.439148,362.678467 "
	style="fill-opacity:1.0; fill-rule:evenodd; fill:black; stroke:none" />
<polygon points="443.128357,371.178741 
	449.901611,388.746002 458.759003,384.779175 451.985687,367.211945 451.464691,366.645264 
	443.128357,371.745453 "
	style="fill-opacity:1.0; fill-rule:evenodd; fill:black; stroke:none" />
<ellipse cx="454.851318" cy="387.329254" rx="4.949707" ry="5.383514" 
	style="fill-opacity:1.0; fill-rule:evenodd; fill:black; stroke:none" />
<polygon points="437.397125,344.544556 
	421.245453,328.110657 416.035217,333.777527 432.186890,350.211395 "
	style="fill-opacity:1.0; fill-rule:evenodd; fill:black; stroke:none" />
<ellipse cx="435.052536" cy="347.661316" rx="3.907669" ry="4.250153" 
	style="fill-opacity:1.0; fill-rule:evenodd; fill:black; stroke:none" />
<polygon points="421.245453,327.544006 
	412.388092,319.610413 407.698914,325.843933 416.556305,333.777527 416.035217,333.777527 
	421.245453,328.110657 "
	style="fill-opacity:1.0; fill-rule:evenodd; fill:black; stroke:none" />
<polygon points="412.388092,319.610413 
	401.446686,309.410065 396.757477,315.643585 407.698914,325.843933 407.698914,325.843933 
	412.388092,319.610413 "
	style="fill-opacity:1.0; fill-rule:evenodd; fill:black; stroke:none" />
<polygon points="401.446686,309.976776 
	392.589294,300.909790 387.379120,306.576630 396.236450,315.643585 396.757477,315.643585 
	401.446686,309.410065 "
	style="fill-opacity:1.0; fill-rule:evenodd; fill:black; stroke:none" />
<polygon points="392.589294,300.909790 
	384.774017,292.409515 379.563782,298.076385 387.379120,306.576630 387.379120,306.576630 
	392.589294,300.909790 "
	style="fill-opacity:1.0; fill-rule:evenodd; fill:black; stroke:none" />
<ellipse cx="382.429398" cy="295.526291" rx="3.907669" ry="4.250137" 
	style="fill-opacity:1.0; fill-rule:evenodd; fill:black; stroke:none" />
<polygon points="423.329559,359.845032 
	411.346069,341.711121 405.614807,346.244598 417.598328,364.378540 "
	style="fill-opacity:1.0; fill-rule:evenodd; fill:black; stroke:none" />
<ellipse cx="420.984970" cy="362.395126" rx="3.907669" ry="4.250137" 
	style="fill-opacity:1.0; fill-rule:evenodd; fill:black; stroke:none" />
<polygon points="411.346069,341.711121 
	403.530762,330.377411 397.799530,334.910919 405.614807,346.244598 405.614807,346.244598 
	411.346069,341.711121 "
	style="fill-opacity:1.0; fill-rule:evenodd; fill:black; stroke:none" />
<polygon points="403.530762,330.377411 
	379.042786,294.109558 373.311554,298.643036 397.799530,334.910919 397.799530,334.910919 
	403.530762,330.377411 "
	style="fill-opacity:1.0; fill-rule:evenodd; fill:black; stroke:none" />
<ellipse cx="376.698166" cy="296.659653" rx="3.907669" ry="4.250137" 
	style="fill-opacity:1.0; fill-rule:evenodd; fill:black; stroke:none" />
<polygon points="388.421143,296.942993 
	165.945175,19.267302 156.566803,28.334259 379.042786,306.009949 "
	style="fill-opacity:1.0; fill-rule:evenodd; fill:black; stroke:none" />
<ellipse cx="383.992462" cy="301.759827" rx="6.512756" ry="7.083557" 
	style="fill-opacity:1.0; fill-rule:evenodd; fill:black; stroke:none" />
<ellipse cx="161.516502" cy="24.084120" rx="6.512764" ry="7.083561" 
	style="fill-opacity:1.0; fill-rule:evenodd; fill:black; stroke:none" />
<polygon points="420.203430,376.845581 
	433.750000,366.078583 428.018768,357.578308 414.472198,368.345337 "
	style="fill-opacity:1.0; fill-rule:evenodd; fill:white; stroke:none" />
<ellipse cx="417.858826" cy="373.162155" rx="5.470734" ry="5.950211" 
	style="fill-opacity:1.0; fill-rule:evenodd; fill:white; stroke:none" />
<ellipse cx="431.405380" cy="362.395142" rx="5.470718" ry="5.950195" 
	style="fill-opacity:1.0; fill-rule:evenodd; fill:white; stroke:none" />
<polygon points="232.635864,132.037628 
	335.277008,256.708344 351.428650,240.841187 248.787521,116.170456 "
	style="fill-opacity:1.0; fill-rule:evenodd; fill:white; stroke:none" />
<polyline points="629.653870,435.780853 
	645.805542,461.848358 657.268005,475.448822 672.377563,487.349182 "
	style="stroke-width:5.982384; stroke-linecap:round; stroke-linejoin:round; stroke-dasharray:none; stroke:black" />
<polyline points="618.712402,440.880981 
	629.132874,469.781982 633.301025,487.349182 635.385071,508.883209 "
	style="stroke-width:5.982384; stroke-linecap:round; stroke-linejoin:round; stroke-dasharray:none; stroke:black" />
<polyline points="628.611816,447.681274 
	657.789001,505.483093 "
	style="stroke-width:5.982384; stroke-linecap:round; stroke-linejoin:round; stroke-dasharray:none; stroke:black" />
<polyline points="289.948181,130.904266 
	297.763489,172.838959 302.973694,190.406204 308.704926,204.573318 315.478210,216.473709 
	322.251495,224.407303 329.545776,229.507462 337.361084,230.640839 345.176422,228.374115 
	351.949677,223.840622 358.722931,216.473709 363.933167,206.273376 369.143372,192.672928 
	373.311554,175.672394 376.958679,155.271713 379.042786,130.904266 "
	style="stroke-width:5.982384; stroke-linecap:round; stroke-linejoin:round; stroke-dasharray:none; stroke:black" />
<polyline points="275.359589,130.904266 
	279.006744,155.838409 284.216949,180.772552 294.116364,209.673508 300.889618,222.707245 
	308.704926,233.474274 319.125336,241.407852 332.150879,245.941330 345.697418,245.941330 
	351.949677,243.674606 357.159882,240.274475 364.454163,232.907593 371.227448,222.140579 
	377.479706,211.940231 380.605835,204.006653 387.379120,173.972336 391.026245,152.438293 
	392.589294,129.204208 "
	style="stroke-width:5.982384; stroke-linecap:round; stroke-linejoin:round; stroke-dasharray:none; stroke:black" />
<polygon points="137.289032,129.770889 
	142.499237,162.638626 149.272507,161.505249 144.062302,128.637527 "
	style="fill-opacity:1.0; fill-rule:evenodd; fill:black; stroke:none" />
<polygon points="142.499237,162.638626 
	143.541290,167.172119 150.314545,165.472061 149.272507,160.938583 149.272507,161.505249 
	142.499237,162.638626 "
	style="fill-opacity:1.0; fill-rule:evenodd; fill:black; stroke:none" />
<polygon points="149.272507,190.406204 
	153.440689,203.439941 159.692932,201.173218 155.524765,188.139465 "
	style="fill-opacity:1.0; fill-rule:evenodd; fill:black; stroke:none" />
<polygon points="153.961700,204.006653 
	159.171906,215.907043 165.424164,213.073608 160.213943,201.173218 159.692932,201.173218 
	153.440689,203.439941 "
	style="fill-opacity:1.0; fill-rule:evenodd; fill:black; stroke:none" />
<polygon points="159.692932,216.473709 
	164.382111,224.407303 170.113342,220.440521 165.424164,212.506912 165.424164,213.073608 
	159.171906,215.907043 "
	style="fill-opacity:1.0; fill-rule:evenodd; fill:black; stroke:none" />
<polygon points="182.617859,240.274475 
	186.786026,240.841187 187.828079,233.474274 183.659897,232.907593 "
	style="fill-opacity:1.0; fill-rule:evenodd; fill:black; stroke:none" />
<polygon points="186.786026,240.841187 
	193.559296,241.974564 193.559296,233.474274 187.828079,233.474274 "
	style="fill-opacity:1.0; fill-rule:evenodd; fill:black; stroke:none" />
<polygon points="193.559296,241.974564 
	200.332550,240.841187 199.811539,233.474274 193.559296,233.474274 "
	style="fill-opacity:1.0; fill-rule:evenodd; fill:black; stroke:none" />
<polygon points="200.332550,240.841187 
	207.105835,239.141129 205.542770,232.340897 199.811539,233.474274 "
	style="fill-opacity:1.0; fill-rule:evenodd; fill:black; stroke:none" />
<polygon points="207.105835,239.141129 
	212.837067,236.874374 210.752991,230.074158 205.542770,232.340897 "
	style="fill-opacity:1.0; fill-rule:evenodd; fill:black; stroke:none" />
<polygon points="212.837067,236.874374 
	215.963211,234.607651 212.837067,228.940781 210.752991,230.074158 "
	style="fill-opacity:1.0; fill-rule:evenodd; fill:black; stroke:none" />
<polygon points="215.963211,234.607651 
	219.089325,232.340897 213.879105,226.674057 212.837067,228.940781 "
	style="fill-opacity:1.0; fill-rule:evenodd; fill:black; stroke:none" />
<polygon points="232.114853,211.940231 
	234.198914,206.273376 227.946686,204.006653 225.862610,209.673508 "
	style="fill-opacity:1.0; fill-rule:evenodd; fill:black; stroke:none" />
<polygon points="234.719955,205.706696 
	237.325073,198.339783 231.072800,196.073059 228.467697,203.439941 227.946686,204.006653 
	234.198914,206.273376 "
	style="fill-opacity:1.0; fill-rule:evenodd; fill:black; stroke:none" />
<polygon points="237.846085,197.773117 
	239.409134,190.406204 232.635864,188.706146 231.072800,196.073059 231.072800,196.073059 
	237.325073,198.339783 "
	style="fill-opacity:1.0; fill-rule:evenodd; fill:black; stroke:none" />
<polygon points="238.888123,190.406204 
	240.451187,183.605988 234.198914,181.905914 232.635864,188.706146 232.635864,188.706146 
	239.409134,190.406204 "
	style="fill-opacity:1.0; fill-rule:evenodd; fill:black; stroke:none" />
<polygon points="240.972198,183.605988 
	242.014252,175.672394 235.240967,174.539017 234.198914,182.472610 234.198914,181.905914 
	240.451187,183.605988 "
	style="fill-opacity:1.0; fill-rule:evenodd; fill:black; stroke:none" />
<polygon points="245.140366,151.304916 
	246.703430,128.070831 239.409134,127.504150 237.846085,150.738251 "
	style="fill-opacity:1.0; fill-rule:evenodd; fill:black; stroke:none" />
<polyline points="327.982727,215.907043 
	331.108826,210.240173 334.234955,206.840073 337.882111,205.706696 341.008240,206.273376 
	343.613342,208.540131 345.176422,211.940231 345.697418,215.907043 344.134369,220.440521 
	334.755981,244.807953 327.461670,268.608734 320.688416,302.609863 317.562286,334.910919 
	318.604340,348.511353 322.772491,359.845032 330.587799,369.478668 339.966187,377.412262 
	351.949677,383.079132 365.496216,384.212494 380.084808,382.512451 392.589294,378.545654 
	404.051758,372.878815 413.951202,366.078583 437.918121,347.944641 451.464691,338.877686 
	467.616364,330.377411 488.978180,324.710571 516.592285,324.710571 537.954163,329.244049 
	556.710938,337.744324 573.383606,349.644714 587.972168,362.678467 600.476685,379.112366 
	609.334045,395.546204 619.754456,413.680115 634.343079,432.380768 655.704895,453.914795 
	679.150818,473.748749 "
	style="stroke-width:5.982384; stroke-linecap:round; stroke-linejoin:round; stroke-dasharray:none; stroke:black" />
<polyline points="327.982727,215.907043 
	318.083313,244.807953 309.225952,281.642487 304.015747,317.910339 303.494720,345.677917 
	305.057770,357.578308 309.225952,367.778625 318.083313,379.679016 335.277008,392.712769 
	342.571289,396.679565 349.344574,398.946289 363.933167,400.079681 378.521729,397.812958 
	392.589294,394.412811 403.530762,390.446045 413.951202,384.212494 434.270996,368.912018 
	456.153900,353.044830 468.137360,346.811310 481.683929,342.277832 505.650848,339.444397 
	527.012756,341.711121 546.290466,348.511353 563.484192,358.711670 578.593811,372.878815 
	590.577271,389.312653 600.997742,408.013275 607.770996,427.847260 618.712402,470.348633 
	622.359558,489.615936 622.359558,504.349762 "
	style="stroke-width:5.982384; stroke-linecap:round; stroke-linejoin:round; stroke-dasharray:none; stroke:black" />
<polygon points="328.503723,221.007202 
	317.041260,256.708344 327.461670,260.675171 338.924133,224.973984 "
	style="fill-opacity:1.0; fill-rule:evenodd; fill:white; stroke:none" />
<ellipse cx="333.974457" cy="223.557274" rx="5.991730" ry="6.516884" 
	style="fill-opacity:1.0; fill-rule:evenodd; fill:white; stroke:none" />
<ellipse cx="322.511993" cy="259.258438" rx="5.991730" ry="6.516891" 
	style="fill-opacity:1.0; fill-rule:evenodd; fill:white; stroke:none" />
<polygon points="0.260509,129.204208 
	5.470721,162.071945 12.243996,160.938583 7.033784,128.070831 "
	style="fill-opacity:1.0; fill-rule:evenodd; fill:black; stroke:none" />
<polygon points="5.470721,162.071945 
	6.512760,166.605423 13.286032,164.905365 12.243996,160.371887 12.243996,160.938583 
	5.470721,162.071945 "
	style="fill-opacity:1.0; fill-rule:evenodd; fill:black; stroke:none" />
<polygon points="12.243996,189.839523 
	16.412159,202.873260 22.664413,200.606537 18.496243,187.572769 "
	style="fill-opacity:1.0; fill-rule:evenodd; fill:black; stroke:none" />
<polygon points="16.933184,203.439941 
	22.143389,215.340332 28.395641,212.506912 23.185431,200.606537 22.664413,200.606537 
	16.412159,202.873260 "
	style="fill-opacity:1.0; fill-rule:evenodd; fill:black; stroke:none" />
<polygon points="22.664413,215.907043 
	27.353600,223.840622 33.084827,219.873825 28.395641,211.940231 28.395641,212.506912 
	22.143389,215.340332 "
	style="fill-opacity:1.0; fill-rule:evenodd; fill:black; stroke:none" />
<polygon points="45.589336,239.707809 
	49.757507,240.274475 50.799541,232.907593 46.631378,232.340897 "
	style="fill-opacity:1.0; fill-rule:evenodd; fill:black; stroke:none" />
<polygon points="49.757507,240.274475 
	56.530777,241.407852 56.530777,232.907593 50.799541,232.907593 "
	style="fill-opacity:1.0; fill-rule:evenodd; fill:black; stroke:none" />
<polygon points="56.530777,241.407852 
	63.304050,240.274475 62.783028,232.907593 56.530777,232.907593 "
	style="fill-opacity:1.0; fill-rule:evenodd; fill:black; stroke:none" />
<polygon points="63.304050,240.274475 
	70.077324,238.574417 68.514259,231.774216 62.783028,232.907593 "
	style="fill-opacity:1.0; fill-rule:evenodd; fill:black; stroke:none" />
<polygon points="70.077324,238.574417 
	75.808556,236.307693 73.724464,229.507462 68.514259,231.774216 "
	style="fill-opacity:1.0; fill-rule:evenodd; fill:black; stroke:none" />
<polygon points="75.808556,236.307693 
	78.934669,234.040939 75.808556,228.374115 73.724464,229.507462 "
	style="fill-opacity:1.0; fill-rule:evenodd; fill:black; stroke:none" />
<polygon points="78.934669,234.040939 
	82.060806,231.774216 76.850601,226.107361 75.808556,228.374115 "
	style="fill-opacity:1.0; fill-rule:evenodd; fill:black; stroke:none" />
<polygon points="95.086327,211.373566 
	97.170410,205.706696 90.918152,203.439941 88.834068,209.106796 "
	style="fill-opacity:1.0; fill-rule:evenodd; fill:black; stroke:none" />
<polygon points="97.691437,205.140030 
	100.296547,197.773117 94.044289,195.506348 91.439178,202.873260 90.918152,203.439941 
	97.170410,205.706696 "
	style="fill-opacity:1.0; fill-rule:evenodd; fill:black; stroke:none" />
<polygon points="100.817558,197.206406 
	102.380630,189.839523 95.607353,188.139465 94.044289,195.506348 94.044289,195.506348 
	100.296547,197.773117 "
	style="fill-opacity:1.0; fill-rule:evenodd; fill:black; stroke:none" />
<polygon points="101.859604,189.839523 
	103.422661,183.039291 97.170410,181.339233 95.607353,188.139465 95.607353,188.139465 
	102.380630,189.839523 "
	style="fill-opacity:1.0; fill-rule:evenodd; fill:black; stroke:none" />
<polygon points="103.943687,183.039291 
	104.985725,175.105698 98.212456,173.972336 97.170410,181.905914 97.170410,181.339233 
	103.422661,183.039291 "
	style="fill-opacity:1.0; fill-rule:evenodd; fill:black; stroke:none" />
<polygon points="108.111855,150.738251 
	109.674919,127.504150 102.380630,126.937469 100.817558,150.171555 "
	style="fill-opacity:1.0; fill-rule:evenodd; fill:black; stroke:none" />
<polyline points="442.086334,127.504150 
	449.901611,169.438858 455.111816,187.006088 460.843048,201.173218 467.616364,213.073608 
	474.389618,221.007202 481.683929,226.107361 489.499207,227.240738 497.314514,224.973984 
	504.087830,220.440521 510.861084,213.073608 516.071289,202.873260 521.281494,189.272827 
	525.449646,172.272263 529.096802,151.871613 531.180908,127.504150 "
	style="stroke-width:5.982384; stroke-linecap:round; stroke-linejoin:round; stroke-dasharray:none; stroke:black" />
<polyline points="427.497681,127.504150 
	431.144867,152.438293 436.355103,177.372437 446.254456,206.273376 453.027710,219.307144 
	460.843048,230.074158 471.263489,238.007751 484.289032,242.541229 497.835541,242.541229 
	504.087830,240.274475 509.298004,236.874374 516.592285,229.507462 523.365540,218.740448 
	529.617859,208.540131 532.743958,200.606537 539.517212,170.572220 543.164368,149.038177 
	544.727417,125.804092 "
	style="stroke-width:5.982384; stroke-linecap:round; stroke-linejoin:round; stroke-dasharray:none; stroke:black" />
<polyline points="588.493164,123.537354 
	596.308533,165.472061 601.518738,183.039291 607.249939,197.206406 614.023193,209.106796 
	620.796509,217.040390 628.090759,222.140579 635.906128,223.273926 643.721436,221.007202 
	650.494690,216.473709 657.268005,209.106796 662.478149,198.906494 667.688354,185.306046 
	671.856567,168.305481 675.503723,147.904816 677.587830,123.537354 "
	style="stroke-width:5.982384; stroke-linecap:round; stroke-linejoin:round; stroke-dasharray:none; stroke:black" />
<polyline points="573.904602,123.537354 
	577.551758,148.471512 582.761963,173.405640 592.661377,202.306595 599.434631,215.340332 
	607.249939,226.107361 617.670410,234.040939 630.695862,238.574417 644.242432,238.574417 
	650.494690,236.307693 655.704895,232.907593 662.999207,225.540680 669.772461,214.773666 
	676.024719,204.573318 679.150818,196.639740 685.924133,166.605423 689.571289,145.071381 
	691.134338,121.837303 "
	style="stroke-width:5.982384; stroke-linecap:round; stroke-linejoin:round; stroke-dasharray:none; stroke:black" />
<polygon points="626.527771,207.973419 
	624.964661,227.240738 628.090759,248.208099 629.653870,251.608200 632.258972,253.308243 
	639.553223,254.441635 646.847534,252.174866 648.931641,249.341446 649.452637,246.508011 
	648.410583,226.674057 648.931641,209.106796 647.889587,205.706696 645.284485,202.873260 
	637.990234,201.739883 630.695862,203.439941 626.527771,207.973419 "
	style="fill:none; stroke-width:6.526237; stroke-linecap:round; stroke-linejoin:round; stroke-dasharray:none; stroke:black" />
<polyline points="626.527771,207.973419 
	624.964661,227.240738 628.090759,248.208099 629.653870,251.608200 632.258972,253.308243 
	639.553223,254.441635 646.847534,252.174866 648.931641,249.341446 649.452637,246.508011 
	648.410583,226.674057 648.931641,209.106796 647.889587,205.706696 645.284485,202.873260 
	637.990234,201.739883 630.695862,203.439941 626.527771,207.973419 "
	style="stroke-width:6.526237; stroke-linecap:round; stroke-linejoin:round; stroke-dasharray:none; stroke:black" />
<polygon points="628.090759,215.340332 
	628.090759,241.974564 646.847534,241.974564 646.847534,215.340332 "
	style="fill-opacity:1.0; fill-rule:evenodd; fill:white; stroke:none" />
<ellipse cx="637.729675" cy="215.623688" rx="9.117859" ry="9.916992" 
	style="fill-opacity:1.0; fill-rule:evenodd; fill:white; stroke:none" />
<ellipse cx="637.729675" cy="242.257881" rx="9.117859" ry="9.916985" 
	style="fill-opacity:1.0; fill-rule:evenodd; fill:white; stroke:none" />
<polygon points="480.641846,215.340332 
	479.078796,234.607651 482.204926,255.574982 483.767975,258.975098 486.373077,260.675171 
	493.667389,261.808502 500.961639,259.541779 503.045746,256.708344 503.566772,253.874924 
	502.524750,234.040939 503.045746,216.473709 502.003723,213.073608 499.398621,210.240173 
	492.104309,209.106796 484.810028,210.806854 480.641846,215.340332 "
	style="fill:none; stroke-width:6.526237; stroke-linecap:round; stroke-linejoin:round; stroke-dasharray:none; stroke:black" />
<polyline points="480.641846,215.340332 
	479.078796,234.607651 482.204926,255.574982 483.767975,258.975098 486.373077,260.675171 
	493.667389,261.808502 500.961639,259.541779 503.045746,256.708344 503.566772,253.874924 
	502.524750,234.040939 503.045746,216.473709 502.003723,213.073608 499.398621,210.240173 
	492.104309,209.106796 484.810028,210.806854 480.641846,215.340332 "
	style="stroke-width:6.526237; stroke-linecap:round; stroke-linejoin:round; stroke-dasharray:none; stroke:black" />
<polygon points="482.204926,222.707245 
	482.204926,249.341446 500.961639,249.341446 500.961639,222.707245 "
	style="fill-opacity:1.0; fill-rule:evenodd; fill:white; stroke:none" />
<ellipse cx="491.843796" cy="222.990601" rx="9.117844" ry="9.916992" 
	style="fill-opacity:1.0; fill-rule:evenodd; fill:white; stroke:none" />
<ellipse cx="491.843796" cy="249.624794" rx="9.117844" ry="9.916985" 
	style="fill-opacity:1.0; fill-rule:evenodd; fill:white; stroke:none" />
</svg>
