<?xml version="1.0" standalone="no"?>
<!DOCTYPE svg PUBLIC "-//W3C//DTD SVG 20001102//EN"
"http://www.w3.org/TR/2000/CR-SVG-20001102/DTD/svg-20001102.dtd">
<svg width="750" height="512"
	xmlns:sodipodi="http://sodipodi.sourceforge.net/DTD/sodipodi-0.dtd">
<desc>wmf2svg</desc>
<polygon points="316.370575,187.527695 
	314.847717,189.995193 312.563446,190.817657 306.472076,189.995193 301.142151,186.705231 
	300.380707,180.947800 309.517792,151.338150 314.086304,148.048187 320.177673,148.870682 
	324.746216,152.983124 325.507599,158.740570 316.370575,187.527695 "
	style="fill:none; stroke-width:3.959778; stroke-linecap:round; stroke-linejoin:round; stroke-dasharray:none; stroke:black" />
<polyline points="316.370575,187.527695 
	314.847717,189.995193 312.563446,190.817657 306.472076,189.995193 301.142151,186.705231 
	300.380707,180.947800 309.517792,151.338150 314.086304,148.048187 320.177673,148.870682 
	324.746216,152.983124 325.507599,158.740570 316.370575,187.527695 "
	style="stroke-width:3.959778; stroke-linecap:round; stroke-linejoin:round; stroke-dasharray:none; stroke:black" />
<polygon points="328.553314,136.533340 
	328.553314,139.000809 326.269043,141.468262 320.939087,143.113266 314.847717,141.468262 
	311.802063,137.355835 307.994934,98.698799 310.279205,94.586342 315.609161,92.118874 
	321.700531,93.763855 324.746216,97.053818 328.553314,136.533340 "
	style="fill:none; stroke-width:7.919557; stroke-linecap:round; stroke-linejoin:round; stroke-dasharray:none; stroke:black" />
<polyline points="328.553314,136.533340 
	328.553314,139.000809 326.269043,141.468262 320.939087,143.113266 314.847717,141.468262 
	311.802063,137.355835 307.994934,98.698799 310.279205,94.586342 315.609161,92.118874 
	321.700531,93.763855 324.746216,97.053818 328.553314,136.533340 "
	style="stroke-width:7.919557; stroke-linecap:round; stroke-linejoin:round; stroke-dasharray:none; stroke:black" />
<polygon points="315.609161,72.379120 
	316.370575,78.136543 311.802063,83.071487 306.472076,85.538956 301.903564,83.071487 
	280.583771,50.994373 280.583771,46.059444 284.390900,41.124500 290.482239,38.657024 
	295.050781,40.302006 315.609161,72.379120 "
	style="fill:none; stroke-width:7.919557; stroke-linecap:round; stroke-linejoin:round; stroke-dasharray:none; stroke:black" />
<polyline points="315.609161,72.379120 
	316.370575,78.136543 311.802063,83.071487 306.472076,85.538956 301.903564,83.071487 
	280.583771,50.994373 280.583771,46.059444 284.390900,41.124500 290.482239,38.657024 
	295.050781,40.302006 315.609161,72.379120 "
	style="stroke-width:7.919557; stroke-linecap:round; stroke-linejoin:round; stroke-dasharray:none; stroke:black" />
<polygon points="275.253815,28.787153 
	277.538086,30.432135 278.299530,32.899601 276.015228,39.479523 272.208160,44.414463 
	267.639587,45.236946 235.659912,26.319677 233.375656,22.207232 234.898483,15.627310 
	239.467026,10.692368 244.035538,10.692368 275.253815,28.787153 "
	style="fill:none; stroke-width:7.919557; stroke-linecap:round; stroke-linejoin:round; stroke-dasharray:none; stroke:black" />
<polyline points="275.253815,28.787153 
	277.538086,30.432135 278.299530,32.899601 276.015228,39.479523 272.208160,44.414463 
	267.639587,45.236946 235.659912,26.319677 233.375656,22.207232 234.898483,15.627310 
	239.467026,10.692368 244.035538,10.692368 275.253815,28.787153 "
	style="stroke-width:7.919557; stroke-linecap:round; stroke-linejoin:round; stroke-dasharray:none; stroke:black" />
<polygon points="218.908646,4.112451 
	223.477158,6.579922 225.000015,12.337348 223.477158,18.917271 221.954330,21.384735 
	219.670044,22.207232 183.883255,24.674696 181.598999,24.674696 180.076141,22.207232 
	177.791885,16.449804 179.314713,9.869883 183.121826,6.579922 218.908646,4.112451 "
	style="fill:none; stroke-width:7.919557; stroke-linecap:round; stroke-linejoin:round; stroke-dasharray:none; stroke:black" />
<polyline points="218.908646,4.112451 
	223.477158,6.579922 225.000015,12.337348 223.477158,18.917271 221.954330,21.384735 
	219.670044,22.207232 183.883255,24.674696 181.598999,24.674696 180.076141,22.207232 
	177.791885,16.449804 179.314713,9.869883 183.121826,6.579922 218.908646,4.112451 "
	style="stroke-width:7.919557; stroke-linecap:round; stroke-linejoin:round; stroke-dasharray:none; stroke:black" />
<polygon points="159.517761,13.982328 
	164.086304,13.982328 168.654831,18.917271 170.939087,25.497192 168.654831,29.609638 
	138.197983,50.171890 133.629440,50.171890 129.060928,45.236946 126.776665,39.479523 
	129.060928,34.544579 159.517761,13.982328 "
	style="fill:none; stroke-width:7.919557; stroke-linecap:round; stroke-linejoin:round; stroke-dasharray:none; stroke:black" />
<polyline points="159.517761,13.982328 
	164.086304,13.982328 168.654831,18.917271 170.939087,25.497192 168.654831,29.609638 
	138.197983,50.171890 133.629440,50.171890 129.060928,45.236946 126.776665,39.479523 
	129.060928,34.544579 159.517761,13.982328 "
	style="stroke-width:7.919557; stroke-linecap:round; stroke-linejoin:round; stroke-dasharray:none; stroke:black" />
<polygon points="110.786804,51.816868 
	115.355347,49.349403 121.446716,51.816868 126.015236,55.929314 126.015236,60.864258 
	109.263969,95.408836 104.695427,97.876305 98.604057,96.231323 94.035538,92.118874 
	94.035538,86.361450 110.786804,51.816868 "
	style="fill:none; stroke-width:7.919557; stroke-linecap:round; stroke-linejoin:round; stroke-dasharray:none; stroke:black" />
<polyline points="110.786804,51.816868 
	115.355347,49.349403 121.446716,51.816868 126.015236,55.929314 126.015236,60.864258 
	109.263969,95.408836 104.695427,97.876305 98.604057,96.231323 94.035538,92.118874 
	94.035538,86.361450 110.786804,51.816868 "
	style="stroke-width:7.919557; stroke-linecap:round; stroke-linejoin:round; stroke-dasharray:none; stroke:black" />
<polygon points="106.218285,138.178314 
	111.548233,171.077911 125.253807,200.687546 135.152298,213.024887 146.573608,223.717270 
	159.517761,232.764664 173.223373,239.344589 193.020325,244.279510 212.817276,245.102005 
	231.852798,240.989548 250.126907,233.587158 266.878174,222.072281 274.492401,215.492355 
	281.345184,207.267471 293.527924,189.172699 301.903564,167.787964 206.725891,132.420883 
	106.218285,138.178314 "
	style="fill-opacity:1.0; fill-rule:evenodd; fill:black; stroke-width:0.791956; stroke-linecap:round; stroke-linejoin:round; stroke-dasharray:none; stroke:black" />
<polyline points="106.218285,138.178314 
	111.548233,171.077911 125.253807,200.687546 135.152298,213.024887 146.573608,223.717270 
	159.517761,232.764664 173.223373,239.344589 193.020325,244.279510 212.817276,245.102005 
	231.852798,240.989548 250.126907,233.587158 266.878174,222.072281 274.492401,215.492355 
	281.345184,207.267471 293.527924,189.172699 301.903564,167.787964 206.725891,132.420883 
	106.218285,138.178314 "
	style="stroke-width:0.791956; stroke-linecap:round; stroke-linejoin:round; stroke-dasharray:none; stroke:black" />
<polyline points="173.223373,16.449804 
	206.725891,131.598389 280.583771,38.657024 "
	style="stroke-width:7.127601; stroke-linecap:round; stroke-linejoin:round; stroke-dasharray:none; stroke:black" />
<polygon points="183.121826,244.279510 
	176.269058,280.469086 189.974625,282.936554 196.827408,246.746979 "
	style="fill-opacity:1.0; fill-rule:evenodd; fill:white; stroke:none" />
<ellipse cx="190.355331" cy="246.335739" rx="7.233505" ry="7.813660" 
	style="fill-opacity:1.0; fill-rule:evenodd; fill:white; stroke:none" />
<ellipse cx="183.502556" cy="282.525299" rx="7.233498" ry="7.813660" 
	style="fill-opacity:1.0; fill-rule:evenodd; fill:white; stroke:none" />
<polygon points="164.086304,240.167084 
	151.903564,274.711639 164.847733,279.646576 177.030457,245.102005 "
	style="fill-opacity:1.0; fill-rule:evenodd; fill:white; stroke:none" />
<ellipse cx="171.319809" cy="243.045784" rx="7.233505" ry="7.813652" 
	style="fill-opacity:1.0; fill-rule:evenodd; fill:white; stroke:none" />
<ellipse cx="159.137062" cy="277.590347" rx="7.233498" ry="7.813644" 
	style="fill-opacity:1.0; fill-rule:evenodd; fill:white; stroke:none" />
<polygon points="148.096451,227.829712 
	129.060928,258.261841 140.482239,266.486755 159.517761,236.054626 "
	style="fill-opacity:1.0; fill-rule:evenodd; fill:white; stroke:none" />
<ellipse cx="154.568542" cy="232.353424" rx="7.233505" ry="7.813660" 
	style="fill-opacity:1.0; fill-rule:evenodd; fill:white; stroke:none" />
<ellipse cx="135.532997" cy="262.785553" rx="7.233498" ry="7.813660" 
	style="fill-opacity:1.0; fill-rule:evenodd; fill:white; stroke:none" />
<polygon points="132.868042,213.847397 
	109.263969,239.344589 119.162437,250.036942 142.766495,224.539764 "
	style="fill-opacity:1.0; fill-rule:evenodd; fill:white; stroke:none" />
<ellipse cx="138.578690" cy="220.016052" rx="7.233505" ry="7.813660" 
	style="fill-opacity:1.0; fill-rule:evenodd; fill:white; stroke:none" />
<ellipse cx="114.974621" cy="245.513245" rx="7.233501" ry="7.813660" 
	style="fill-opacity:1.0; fill-rule:evenodd; fill:white; stroke:none" />
<polygon points="103.934021,157.918076 
	74.238586,165.320496 77.284271,180.125305 106.979713,172.722885 "
	style="fill-opacity:1.0; fill-rule:evenodd; fill:white; stroke:none" />
<ellipse cx="105.837559" cy="165.731728" rx="7.233501" ry="7.813652" 
	style="fill-opacity:1.0; fill-rule:evenodd; fill:white; stroke:none" />
<ellipse cx="76.142143" cy="173.134148" rx="7.233505" ry="7.813652" 
	style="fill-opacity:1.0; fill-rule:evenodd; fill:white; stroke:none" />
<polygon points="109.263969,179.302811 
	81.852791,194.107620 87.944168,207.267471 115.355347,192.462646 "
	style="fill-opacity:1.0; fill-rule:evenodd; fill:white; stroke:none" />
<ellipse cx="112.690361" cy="186.293968" rx="7.233505" ry="7.813652" 
	style="fill-opacity:1.0; fill-rule:evenodd; fill:white; stroke:none" />
<ellipse cx="85.279202" cy="201.098808" rx="7.233501" ry="7.813652" 
	style="fill-opacity:1.0; fill-rule:evenodd; fill:white; stroke:none" />
<polygon points="119.923866,199.042572 
	94.796967,216.314850 102.411171,228.652206 127.538071,211.379929 "
	style="fill-opacity:1.0; fill-rule:evenodd; fill:white; stroke:none" />
<ellipse cx="124.111679" cy="206.033737" rx="7.233505" ry="7.813660" 
	style="fill-opacity:1.0; fill-rule:evenodd; fill:white; stroke:none" />
<ellipse cx="98.984779" cy="223.306015" rx="7.233505" ry="7.813660" 
	style="fill-opacity:1.0; fill-rule:evenodd; fill:white; stroke:none" />
<polygon points="224.238586,247.569473 
	230.329956,279.646576 244.796967,277.179108 238.705597,245.102005 "
	style="fill-opacity:1.0; fill-rule:evenodd; fill:white; stroke:none" />
<ellipse cx="232.233521" cy="247.158241" rx="7.233505" ry="7.813652" 
	style="fill-opacity:1.0; fill-rule:evenodd; fill:white; stroke:none" />
<ellipse cx="238.324890" cy="279.235321" rx="7.233505" ry="7.813660" 
	style="fill-opacity:1.0; fill-rule:evenodd; fill:white; stroke:none" />
<polygon points="243.274109,241.812042 
	256.979706,271.421661 269.162445,264.841766 255.456879,235.232132 "
	style="fill-opacity:1.0; fill-rule:evenodd; fill:white; stroke:none" />
<ellipse cx="249.746208" cy="238.933327" rx="7.233498" ry="7.813652" 
	style="fill-opacity:1.0; fill-rule:evenodd; fill:white; stroke:none" />
<ellipse cx="263.451797" cy="268.542969" rx="7.233505" ry="7.813660" 
	style="fill-opacity:1.0; fill-rule:evenodd; fill:white; stroke:none" />
<polygon points="202.157379,246.746979 
	202.157379,282.936554 218.147217,282.936554 218.147217,246.746979 "
	style="fill-opacity:1.0; fill-rule:evenodd; fill:white; stroke:none" />
<ellipse cx="210.913712" cy="247.158241" rx="7.233505" ry="7.813652" 
	style="fill-opacity:1.0; fill-rule:evenodd; fill:white; stroke:none" />
<ellipse cx="210.913712" cy="283.347778" rx="7.233505" ry="7.813660" 
	style="fill-opacity:1.0; fill-rule:evenodd; fill:white; stroke:none" />
<polygon points="260.786804,232.764664 
	278.299530,259.906830 289.720825,251.681931 272.208160,224.539764 "
	style="fill-opacity:1.0; fill-rule:evenodd; fill:white; stroke:none" />
<ellipse cx="267.258896" cy="229.063461" rx="7.233505" ry="7.813660" 
	style="fill-opacity:1.0; fill-rule:evenodd; fill:white; stroke:none" />
<ellipse cx="284.771576" cy="256.205627" rx="7.233490" ry="7.813660" 
	style="fill-opacity:1.0; fill-rule:evenodd; fill:white; stroke:none" />
<polygon points="272.208160,219.604813 
	271.446686,214.669891 273.730957,208.912460 279.060913,205.622498 283.629456,206.444977 
	311.040619,231.942169 312.563446,236.877121 309.517792,242.634537 304.949219,246.746979 
	299.619293,245.924500 272.208160,219.604813 "
	style="fill:none; stroke-width:6.335645; stroke-linecap:round; stroke-linejoin:round; stroke-dasharray:none; stroke:black" />
<polyline points="272.208160,219.604813 
	271.446686,214.669891 273.730957,208.912460 279.060913,205.622498 283.629456,206.444977 
	311.040619,231.942169 312.563446,236.877121 309.517792,242.634537 304.949219,246.746979 
	299.619293,245.924500 272.208160,219.604813 "
	style="stroke-width:6.335645; stroke-linecap:round; stroke-linejoin:round; stroke-dasharray:none; stroke:black" />
<polygon points="275.253815,220.427307 
	298.096466,241.812042 307.233521,230.297195 284.390900,208.912460 "
	style="fill-opacity:1.0; fill-rule:evenodd; fill:white; stroke:none" />
<ellipse cx="280.203049" cy="215.081123" rx="7.233505" ry="7.813652" 
	style="fill-opacity:1.0; fill-rule:evenodd; fill:white; stroke:none" />
<ellipse cx="303.045700" cy="236.465858" rx="7.233505" ry="7.813652" 
	style="fill-opacity:1.0; fill-rule:evenodd; fill:white; stroke:none" />
<polygon points="288.197968,205.622498 
	314.847717,221.249802 320.939087,208.089966 294.289337,192.462646 "
	style="fill-opacity:1.0; fill-rule:evenodd; fill:white; stroke:none" />
<ellipse cx="291.624405" cy="199.453812" rx="7.233505" ry="7.813660" 
	style="fill-opacity:1.0; fill-rule:evenodd; fill:white; stroke:none" />
<ellipse cx="318.274109" cy="215.081123" rx="7.233490" ry="7.813652" 
	style="fill-opacity:1.0; fill-rule:evenodd; fill:white; stroke:none" />
<polygon points="298.857910,186.705231 
	327.791901,197.397583 332.360443,183.415268 303.426422,172.722885 "
	style="fill-opacity:1.0; fill-rule:evenodd; fill:white; stroke:none" />
<ellipse cx="301.522842" cy="180.536545" rx="7.233505" ry="7.813660" 
	style="fill-opacity:1.0; fill-rule:evenodd; fill:white; stroke:none" />
<ellipse cx="330.456863" cy="191.228920" rx="7.233505" ry="7.813652" 
	style="fill-opacity:1.0; fill-rule:evenodd; fill:white; stroke:none" />
<polyline points="74.238586,151.338150 
	76.522842,147.225693 77.284271,143.113266 75.761429,139.000809 71.192902,135.710846 
	55.203049,137.355835 33.883255,144.758224 24.746195,152.983124 17.893406,162.030533 
	9.517773,184.237747 7.233503,208.089966 7.994929,231.942169 13.324876,268.131744 
	17.893406,291.161438 25.507622,315.836151 36.167515,342.978302 51.395947,371.765442 
	71.192902,401.375092 96.319794,431.807220 119.162437,451.546997 148.857880,469.641754 
	183.121826,486.091553 221.192902,498.428925 260.786804,506.653778 279.822327,508.298767 
	298.857910,507.476318 334.644684,500.896393 350.634552,493.493988 365.101562,483.624084 
	384.898499,465.529297 401.649750,447.434540 416.878204,428.517273 429.060913,408.777527 
	475.507629,328.995972 500.634521,288.693970 526.522888,250.859436 540.989868,233.587158 
	556.218323,218.782318 573.730957,205.622498 592.766541,194.930115 621.700562,185.882736 
	644.543152,185.882736 662.817322,191.640152 677.284241,203.155014 688.705627,218.782318 
	697.081238,236.054626 707.741150,269.776703 "
	style="stroke-width:7.127601; stroke-linecap:round; stroke-linejoin:round; stroke-dasharray:none; stroke:black" />
<polyline points="72.715744,152.983124 
	55.203049,153.805618 46.827415,155.450607 39.213200,158.740570 27.791882,172.722885 
	23.223352,188.350204 21.700508,222.894775 23.223352,254.971893 29.314724,285.403992 
	39.974628,314.191132 57.487309,352.848206 77.284271,386.570282 100.126907,415.357452 
	113.071060,428.517273 127.538071,440.854614 157.233505,458.949402 189.213211,472.109222 
	221.954330,482.801605 254.695435,490.204010 277.538086,493.493988 298.857910,492.671478 
	319.416229,489.381531 339.974609,483.624084 358.248749,473.754211 373.477173,458.949402 
	400.888336,425.227295 419.162476,398.907623 438.197998,367.652985 472.461914,308.433746 
	489.974640,281.291565 522.715759,237.699585 544.035522,216.314850 567.639587,196.575104 
	593.527954,181.770279 620.939148,174.367874 643.020325,173.545380 659.771606,176.012848 
	673.477173,180.125305 684.898499,186.705231 707.741150,204.800003 721.446716,215.492355 
	738.959412,227.007233 "
	style="stroke-width:7.127601; stroke-linecap:round; stroke-linejoin:round; stroke-dasharray:none; stroke:black" />
<polyline points="30.837568,89.651413 
	15.609136,83.893974 3.426400,77.314064 30.076141,101.988762 "
	style="stroke-width:7.127601; stroke-linecap:round; stroke-linejoin:round; stroke-dasharray:none; stroke:black" />
<polygon points="87.182739,108.568680 
	90.228424,104.456223 95.558388,102.811256 101.649742,104.456223 103.934021,108.568680 
	103.934021,148.048187 101.649742,152.160645 95.558388,153.805618 90.228424,152.160645 
	87.182739,147.225693 87.182739,108.568680 "
	style="fill:none; stroke-width:7.919557; stroke-linecap:round; stroke-linejoin:round; stroke-dasharray:none; stroke:black" />
<polyline points="87.182739,108.568680 
	90.228424,104.456223 95.558388,102.811256 101.649742,104.456223 103.934021,108.568680 
	103.934021,148.048187 101.649742,152.160645 95.558388,153.805618 90.228424,152.160645 
	87.182739,147.225693 87.182739,108.568680 "
	style="stroke-width:7.919557; stroke-linecap:round; stroke-linejoin:round; stroke-dasharray:none; stroke:black" />
<polygon points="147.335037,227.829712 
	151.903564,226.184738 157.233505,228.652206 161.802048,233.587158 161.040619,238.522079 
	141.243668,271.421661 137.436554,273.066681 131.345184,270.599213 127.538071,265.664246 
	127.538071,260.729309 147.335037,227.829712 "
	style="fill:none; stroke-width:6.335645; stroke-linecap:round; stroke-linejoin:round; stroke-dasharray:none; stroke:black" />
<polyline points="147.335037,227.829712 
	151.903564,226.184738 157.233505,228.652206 161.802048,233.587158 161.040619,238.522079 
	141.243668,271.421661 137.436554,273.066681 131.345184,270.599213 127.538071,265.664246 
	127.538071,260.729309 147.335037,227.829712 "
	style="stroke-width:6.335645; stroke-linecap:round; stroke-linejoin:round; stroke-dasharray:none; stroke:black" />
<polygon points="132.868042,213.847397 
	138.197983,213.024887 142.766495,216.314850 146.573608,222.072281 145.050766,227.007233 
	119.162437,254.149399 114.593918,255.794373 109.263969,251.681931 106.218285,246.746979 
	106.979713,240.989548 132.868042,213.847397 "
	style="fill:none; stroke-width:6.335645; stroke-linecap:round; stroke-linejoin:round; stroke-dasharray:none; stroke:black" />
<polyline points="132.868042,213.847397 
	138.197983,213.024887 142.766495,216.314850 146.573608,222.072281 145.050766,227.007233 
	119.162437,254.149399 114.593918,255.794373 109.263969,251.681931 106.218285,246.746979 
	106.979713,240.989548 132.868042,213.847397 "
	style="stroke-width:6.335645; stroke-linecap:round; stroke-linejoin:round; stroke-dasharray:none; stroke:black" />
<polygon points="121.446716,195.752609 
	126.776665,195.752609 131.345184,200.687546 133.629440,207.267471 131.345184,212.202393 
	100.888336,233.587158 96.319794,233.587158 91.751274,228.652206 89.467018,222.072281 
	91.751274,217.137344 121.446716,195.752609 "
	style="fill:none; stroke-width:6.335645; stroke-linecap:round; stroke-linejoin:round; stroke-dasharray:none; stroke:black" />
<polyline points="121.446716,195.752609 
	126.776665,195.752609 131.345184,200.687546 133.629440,207.267471 131.345184,212.202393 
	100.888336,233.587158 96.319794,233.587158 91.751274,228.652206 89.467018,222.072281 
	91.751274,217.137344 121.446716,195.752609 "
	style="stroke-width:6.335645; stroke-linecap:round; stroke-linejoin:round; stroke-dasharray:none; stroke:black" />
<polygon points="110.025398,176.012848 
	115.355347,176.835342 119.162437,182.592773 120.685287,189.172699 119.923866,191.640152 
	117.639603,193.285156 85.659904,210.557434 81.091385,210.557434 77.284271,204.800003 
	75.761429,198.220078 78.045700,194.107620 110.025398,176.012848 "
	style="fill:none; stroke-width:6.335645; stroke-linecap:round; stroke-linejoin:round; stroke-dasharray:none; stroke:black" />
<polyline points="110.025398,176.012848 
	115.355347,176.835342 119.162437,182.592773 120.685287,189.172699 119.923866,191.640152 
	117.639603,193.285156 85.659904,210.557434 81.091385,210.557434 77.284271,204.800003 
	75.761429,198.220078 78.045700,194.107620 110.025398,176.012848 "
	style="stroke-width:6.335645; stroke-linecap:round; stroke-linejoin:round; stroke-dasharray:none; stroke:black" />
<polygon points="106.979713,156.273087 
	112.309654,157.918076 114.593918,164.498001 114.593918,171.077911 113.071060,174.367874 
	110.786804,175.190353 75.761429,183.415268 71.192902,181.770279 68.147209,175.190353 
	68.908638,168.610428 71.954315,164.498001 106.979713,156.273087 "
	style="fill:none; stroke-width:6.335645; stroke-linecap:round; stroke-linejoin:round; stroke-dasharray:none; stroke:black" />
<polyline points="106.979713,156.273087 
	112.309654,157.918076 114.593918,164.498001 114.593918,171.077911 113.071060,174.367874 
	110.786804,175.190353 75.761429,183.415268 71.192902,181.770279 68.147209,175.190353 
	68.908638,168.610428 71.954315,164.498001 106.979713,156.273087 "
	style="stroke-width:6.335645; stroke-linecap:round; stroke-linejoin:round; stroke-dasharray:none; stroke:black" />
<polygon points="163.324875,239.344589 
	167.893402,236.877121 173.984772,237.699585 178.553314,241.812042 179.314713,246.746979 
	165.609146,282.936554 164.847733,285.403992 161.802048,286.226501 155.710678,284.581512 
	151.142136,281.291565 149.619293,275.534119 163.324875,239.344589 "
	style="fill:none; stroke-width:6.335645; stroke-linecap:round; stroke-linejoin:round; stroke-dasharray:none; stroke:black" />
<polyline points="163.324875,239.344589 
	167.893402,236.877121 173.984772,237.699585 178.553314,241.812042 179.314713,246.746979 
	165.609146,282.936554 164.847733,285.403992 161.802048,286.226501 155.710678,284.581512 
	151.142136,281.291565 149.619293,275.534119 163.324875,239.344589 "
	style="stroke-width:6.335645; stroke-linecap:round; stroke-linejoin:round; stroke-dasharray:none; stroke:black" />
<polygon points="181.598999,244.279510 
	185.406097,240.989548 191.497467,240.167084 196.827408,243.457016 198.350266,248.391968 
	191.497467,286.226501 190.736053,288.693970 188.451782,290.338959 182.360413,290.338959 
	176.269058,287.871490 174.746201,282.936554 181.598999,244.279510 "
	style="fill:none; stroke-width:6.335645; stroke-linecap:round; stroke-linejoin:round; stroke-dasharray:none; stroke:black" />
<polyline points="181.598999,244.279510 
	185.406097,240.989548 191.497467,240.167084 196.827408,243.457016 198.350266,248.391968 
	191.497467,286.226501 190.736053,288.693970 188.451782,290.338959 182.360413,290.338959 
	176.269058,287.871490 174.746201,282.936554 181.598999,244.279510 "
	style="stroke-width:6.335645; stroke-linecap:round; stroke-linejoin:round; stroke-dasharray:none; stroke:black" />
<polygon points="200.634521,246.746979 
	203.680206,240.989548 209.771591,239.344589 215.101532,241.812042 217.385788,244.279510 
	218.147217,246.746979 218.147217,286.226501 217.385788,289.516449 215.101532,291.161438 
	209.771591,291.983917 203.680206,290.338959 200.634521,285.403992 200.634521,246.746979 "
	style="fill:none; stroke-width:6.335645; stroke-linecap:round; stroke-linejoin:round; stroke-dasharray:none; stroke:black" />
<polyline points="200.634521,246.746979 
	203.680206,240.989548 209.771591,239.344589 215.101532,241.812042 217.385788,244.279510 
	218.147217,246.746979 218.147217,286.226501 217.385788,289.516449 215.101532,291.161438 
	209.771591,291.983917 203.680206,290.338959 200.634521,285.403992 200.634521,246.746979 "
	style="stroke-width:6.335645; stroke-linecap:round; stroke-linejoin:round; stroke-dasharray:none; stroke:black" />
<polygon points="222.715729,245.102005 
	225.000015,240.167084 230.329956,237.699585 236.421341,237.699585 240.228424,241.812042 
	247.081207,279.646576 247.081207,282.936554 244.796967,285.403992 239.467026,287.871490 
	233.375656,287.048981 230.329956,282.936554 222.715729,245.102005 "
	style="fill:none; stroke-width:6.335645; stroke-linecap:round; stroke-linejoin:round; stroke-dasharray:none; stroke:black" />
<polyline points="222.715729,245.102005 
	225.000015,240.167084 230.329956,237.699585 236.421341,237.699585 240.228424,241.812042 
	247.081207,279.646576 247.081207,282.936554 244.796967,285.403992 239.467026,287.871490 
	233.375656,287.048981 230.329956,282.936554 222.715729,245.102005 "
	style="stroke-width:6.335645; stroke-linecap:round; stroke-linejoin:round; stroke-dasharray:none; stroke:black" />
<polygon points="240.989853,240.167084 
	241.751282,235.232132 246.319809,230.297195 252.411179,229.474701 256.218292,231.942169 
	272.208160,267.309235 271.446686,272.244171 266.878174,276.356628 260.786804,278.001587 
	258.502533,277.179108 256.979706,274.711639 240.989853,240.167084 "
	style="fill:none; stroke-width:6.335645; stroke-linecap:round; stroke-linejoin:round; stroke-dasharray:none; stroke:black" />
<polyline points="240.989853,240.167084 
	241.751282,235.232132 246.319809,230.297195 252.411179,229.474701 256.218292,231.942169 
	272.208160,267.309235 271.446686,272.244171 266.878174,276.356628 260.786804,278.001587 
	258.502533,277.179108 256.979706,274.711639 240.989853,240.167084 "
	style="stroke-width:6.335645; stroke-linecap:round; stroke-linejoin:round; stroke-dasharray:none; stroke:black" />
<polygon points="258.502533,231.942169 
	258.502533,227.007233 262.309662,222.072281 268.401031,219.604813 272.969543,222.072281 
	293.527924,254.149399 293.527924,259.084320 289.720825,264.019287 283.629456,266.486755 
	279.060913,264.019287 258.502533,231.942169 "
	style="fill:none; stroke-width:6.335645; stroke-linecap:round; stroke-linejoin:round; stroke-dasharray:none; stroke:black" />
<polyline points="258.502533,231.942169 
	258.502533,227.007233 262.309662,222.072281 268.401031,219.604813 272.969543,222.072281 
	293.527924,254.149399 293.527924,259.084320 289.720825,264.019287 283.629456,266.486755 
	279.060913,264.019287 258.502533,231.942169 "
	style="stroke-width:6.335645; stroke-linecap:round; stroke-linejoin:round; stroke-dasharray:none; stroke:black" />
<polygon points="284.390900,205.622498 
	282.106598,201.510040 283.629456,194.930115 288.197968,189.995193 292.766541,189.172699 
	324.746216,208.089966 327.030457,212.202393 325.507599,218.782318 321.700531,223.717270 
	316.370575,223.717270 284.390900,205.622498 "
	style="fill:none; stroke-width:6.335645; stroke-linecap:round; stroke-linejoin:round; stroke-dasharray:none; stroke:black" />
<polyline points="284.390900,205.622498 
	282.106598,201.510040 283.629456,194.930115 288.197968,189.995193 292.766541,189.172699 
	324.746216,208.089966 327.030457,212.202393 325.507599,218.782318 321.700531,223.717270 
	316.370575,223.717270 284.390900,205.622498 "
	style="stroke-width:6.335645; stroke-linecap:round; stroke-linejoin:round; stroke-dasharray:none; stroke:black" />
<polygon points="295.812195,187.527695 
	292.766541,183.415268 293.527924,176.835342 297.335052,171.077911 301.903564,170.255417 
	336.167542,183.415268 338.451813,187.527695 337.690369,194.107620 335.406097,199.865051 
	330.076172,200.687546 295.812195,187.527695 "
	style="fill:none; stroke-width:6.335645; stroke-linecap:round; stroke-linejoin:round; stroke-dasharray:none; stroke:black" />
<polyline points="295.812195,187.527695 
	292.766541,183.415268 293.527924,176.835342 297.335052,171.077911 301.903564,170.255417 
	336.167542,183.415268 338.451813,187.527695 337.690369,194.107620 335.406097,199.865051 
	330.076172,200.687546 295.812195,187.527695 "
	style="stroke-width:6.335645; stroke-linecap:round; stroke-linejoin:round; stroke-dasharray:none; stroke:black" />
<polygon points="100.126907,158.740570 
	297.335052,276.356628 314.086304,244.279510 116.878174,126.663452 "
	style="fill-opacity:1.0; fill-rule:evenodd; fill:white; stroke:none" />
<polygon points="400.126892,325.706055 
	417.639618,344.623291 425.253845,336.398376 407.741119,317.481140 "
	style="fill-opacity:1.0; fill-rule:evenodd; fill:black; stroke:none" />
<ellipse cx="404.314743" cy="322.004822" rx="5.710648" ry="6.168671" 
	style="fill-opacity:1.0; fill-rule:evenodd; fill:black; stroke:none" />
<polygon points="417.639618,344.623291 
	426.015259,353.670685 433.629456,345.445770 425.253845,336.398376 425.253845,336.398376 
	417.639618,344.623291 "
	style="fill-opacity:1.0; fill-rule:evenodd; fill:black; stroke:none" />
<polygon points="426.015259,353.670685 
	435.152283,360.250610 441.243652,351.203217 433.629456,345.445770 "
	style="fill-opacity:1.0; fill-rule:evenodd; fill:black; stroke:none" />
<polygon points="436.675140,361.073059 
	448.857880,366.008057 452.665009,355.315674 440.482239,350.380737 441.243652,351.203217 
	435.152283,360.250610 "
	style="fill-opacity:1.0; fill-rule:evenodd; fill:black; stroke:none" />
<polygon points="448.857880,366.008057 
	461.040619,370.120453 464.086304,359.428131 451.903534,355.315674 452.665009,355.315674 
	448.857880,366.008057 "
	style="fill-opacity:1.0; fill-rule:evenodd; fill:black; stroke:none" />
<polygon points="461.802032,370.942993 
	483.121857,375.055450 484.644684,363.540527 463.324890,359.428131 464.086304,359.428131 
	461.040619,370.120453 "
	style="fill-opacity:1.0; fill-rule:evenodd; fill:black; stroke:none" />
<ellipse cx="484.263977" cy="369.709213" rx="5.710663" ry="6.168686" 
	style="fill-opacity:1.0; fill-rule:evenodd; fill:black; stroke:none" />
<polyline points="455.710663,350.380737 
	439.720856,378.345367 "
	style="stroke-width:8.711512; stroke-linecap:round; stroke-linejoin:round; stroke-dasharray:none; stroke:white" />
<polygon points="379.568573,296.918884 
	33.121826,88.828911 26.269039,101.988762 372.715729,310.078735 "
	style="fill-opacity:1.0; fill-rule:evenodd; fill:black; stroke:none" />
<ellipse cx="376.903580" cy="303.910034" rx="7.233505" ry="7.813660" 
	style="fill-opacity:1.0; fill-rule:evenodd; fill:black; stroke:none" />
<ellipse cx="30.456855" cy="95.820080" rx="7.233502" ry="7.813648" 
	style="fill-opacity:1.0; fill-rule:evenodd; fill:black; stroke:none" />
<polyline points="435.913727,355.315674 
	404.695465,329.818451 390.989868,319.126129 368.147217,302.676300 "
	style="stroke-width:10.295424; stroke-linecap:round; stroke-linejoin:round; stroke-dasharray:none; stroke:black" />
<polyline points="448.096466,333.930908 
	412.309631,316.658600 368.147217,295.273895 "
	style="stroke-width:10.295424; stroke-linecap:round; stroke-linejoin:round; stroke-dasharray:none; stroke:black" />
<polygon points="84.898476,134.888351 
	403.934021,326.528503 409.263977,315.013672 90.228424,123.373497 "
	style="fill-opacity:1.0; fill-rule:evenodd; fill:black; stroke:none" />
<polygon points="405.456879,327.350983 
	424.492401,332.285919 426.776642,319.126129 407.741119,314.191132 409.263977,315.013672 
	403.934021,326.528503 "
	style="fill-opacity:1.0; fill-rule:evenodd; fill:black; stroke:none" />
<polygon points="423.730988,331.463440 
	439.720856,337.220886 443.527924,324.883514 427.538086,319.126129 426.776642,319.126129 
	424.492401,332.285919 "
	style="fill-opacity:1.0; fill-rule:evenodd; fill:black; stroke:none" />
<polygon points="438.959381,337.220886 
	454.949249,344.623291 459.517761,333.108429 443.527924,325.706055 443.527924,324.883514 
	439.720856,337.220886 "
	style="fill-opacity:1.0; fill-rule:evenodd; fill:black; stroke:none" />
<polygon points="454.949249,344.623291 
	461.802032,351.203217 469.416260,341.333344 459.517761,333.108429 "
	style="fill-opacity:1.0; fill-rule:evenodd; fill:black; stroke:none" />
<polygon points="461.802032,351.203217 
	467.131989,357.783142 476.269043,347.913239 469.416260,341.333344 "
	style="fill-opacity:1.0; fill-rule:evenodd; fill:black; stroke:none" />
<polygon points="467.131989,356.960663 
	479.314758,373.410431 488.451782,365.185516 476.269043,348.735748 476.269043,347.913239 
	467.131989,357.783142 "
	style="fill-opacity:1.0; fill-rule:evenodd; fill:black; stroke:none" />
<polygon points="74.238586,134.065872 
	94.796967,146.403229 103.934021,129.953415 83.375648,117.616066 "
	style="fill-opacity:1.0; fill-rule:evenodd; fill:white; stroke:none" />
<polygon points="91.751274,132.420883 
	87.182739,139.823303 102.411171,150.515656 106.979713,143.113266 103.934021,129.953415 
	94.796967,146.403229 "
	style="fill-opacity:1.0; fill-rule:evenodd; fill:white; stroke:none" />
<polygon points="112.309654,134.888351 
	106.979713,143.113266 94.796967,146.403229 91.751274,132.420883 103.934021,129.953415 "
	style="fill-opacity:1.0; fill-rule:evenodd; fill:white; stroke:none" />
<polygon points="94.796967,156.273087 
	109.263969,156.273087 109.263969,134.065872 94.796967,134.065872 102.411171,150.515656 
	87.182739,139.823303 "
	style="fill-opacity:1.0; fill-rule:evenodd; fill:white; stroke:none" />
<polygon points="77.284271,156.273087 
	94.796967,156.273087 102.411171,150.515656 94.796967,134.065872 87.182739,139.823303 "
	style="fill-opacity:1.0; fill-rule:evenodd; fill:white; stroke:none" />
<polyline points="702.411194,222.072281 
	721.446716,241.812042 738.197998,260.729309 "
	style="stroke-width:7.127601; stroke-linecap:round; stroke-linejoin:round; stroke-dasharray:none; stroke:black" />
<polyline points="701.649780,210.557434 
	723.730957,229.474701 733.629456,236.054626 746.573608,240.167084 "
	style="stroke-width:7.127601; stroke-linecap:round; stroke-linejoin:round; stroke-dasharray:none; stroke:black" />
<polyline points="700.126953,229.474701 
	708.502563,240.989548 713.832520,250.859436 722.969543,272.244171 "
	style="stroke-width:7.127601; stroke-linecap:round; stroke-linejoin:round; stroke-dasharray:none; stroke:black" />
</svg>
