<?xml version="1.0" standalone="no"?>
<!DOCTYPE svg PUBLIC "-//W3C//DTD SVG 20001102//EN"
"http://www.w3.org/TR/2000/CR-SVG-20001102/DTD/svg-20001102.dtd">
<svg width="768" height="450"
	xmlns:sodipodi="http://sodipodi.sourceforge.net/DTD/sodipodi-0.dtd">
<desc>wmf2svg</desc>
<polyline points="103.682861,119.524277 
	75.536270,115.956383 103.108452,132.011887 "
	style="stroke-width:8.798356; stroke-linecap:round; stroke-linejoin:round; stroke-dasharray:none; stroke:black" />
<polygon points="134.701569,146.283447 
	472.460693,239.048553 474.183990,220.317169 136.424820,127.552032 "
	style="fill-opacity:1.0; fill-rule:evenodd; fill:black; stroke:none" />
<polygon points="473.609589,239.048553 
	491.416565,236.372635 490.267731,217.641205 472.460693,220.317169 474.183990,220.317169 
	472.460693,239.048553 "
	style="fill-opacity:1.0; fill-rule:evenodd; fill:black; stroke:none" />
<polygon points="490.842163,237.264633 
	507.500336,237.264633 507.500336,216.749252 490.842163,216.749252 490.267731,217.641205 
	491.416565,236.372635 "
	style="fill-opacity:1.0; fill-rule:evenodd; fill:black; stroke:none" />
<polygon points="507.500336,237.264633 
	515.542236,237.264633 516.116638,218.533203 507.500336,216.749252 "
	style="fill-opacity:1.0; fill-rule:evenodd; fill:black; stroke:none" />
<polygon points="515.542236,237.264633 
	522.435242,239.048553 524.158569,220.317169 516.116638,218.533203 "
	style="fill-opacity:1.0; fill-rule:evenodd; fill:black; stroke:none" />
<polygon points="522.435242,239.048553 
	531.625977,242.616470 534.498108,225.668991 524.158569,220.317169 "
	style="fill-opacity:1.0; fill-rule:evenodd; fill:black; stroke:none" />
<polygon points="531.625977,242.616470 
	537.944641,247.968292 543.114441,232.804764 534.498108,225.668991 "
	style="fill-opacity:1.0; fill-rule:evenodd; fill:black; stroke:none" />
<polygon points="537.370178,247.968292 
	552.879578,262.239838 558.623779,247.076340 543.114441,232.804764 543.114441,232.804764 
	537.944641,247.968292 "
	style="fill-opacity:1.0; fill-rule:evenodd; fill:black; stroke:none" />
<polygon points="469.014191,239.048553 
	489.693329,255.996017 494.288666,241.724457 473.609589,224.776993 "
	style="fill-opacity:1.0; fill-rule:evenodd; fill:black; stroke:none" />
<ellipse cx="471.599091" cy="232.358772" rx="5.457001" ry="8.473732" 
	style="fill-opacity:1.0; fill-rule:evenodd; fill:black; stroke:none" />
<polygon points="490.267731,255.996017 
	500.607300,263.131805 504.628265,247.968292 494.288666,240.832504 494.288666,241.724457 
	489.693329,255.996017 "
	style="fill-opacity:1.0; fill-rule:evenodd; fill:black; stroke:none" />
<polygon points="500.607300,263.131805 
	505.202698,265.807709 508.649200,251.536148 504.628265,247.968292 "
	style="fill-opacity:1.0; fill-rule:evenodd; fill:black; stroke:none" />
<polygon points="505.202698,265.807709 
	510.946899,267.591675 512.095703,251.536148 508.649200,251.536148 "
	style="fill-opacity:1.0; fill-rule:evenodd; fill:black; stroke:none" />
<polygon points="511.521301,268.483643 
	524.732971,270.267578 525.307373,252.428162 512.095703,250.644196 512.095703,251.536148 
	510.946899,267.591675 "
	style="fill-opacity:1.0; fill-rule:evenodd; fill:black; stroke:none" />
<polygon points="524.732971,270.267578 
	536.221375,267.591675 535.072510,250.644196 525.307373,252.428162 "
	style="fill-opacity:1.0; fill-rule:evenodd; fill:black; stroke:none" />
<polygon points="536.221375,267.591675 
	556.326050,263.131805 555.177246,246.184326 535.072510,250.644196 535.072510,250.644196 
	536.221375,267.591675 "
	style="fill-opacity:1.0; fill-rule:evenodd; fill:black; stroke:none" />
<ellipse cx="556.038849" cy="255.550072" rx="5.457001" ry="8.473732" 
	style="fill-opacity:1.0; fill-rule:evenodd; fill:black; stroke:none" />
<polygon points="510.946899,254.212112 
	499.458466,248.860245 497.160767,260.455902 508.649200,265.807709 "
	style="fill-opacity:1.0; fill-rule:evenodd; fill:black; stroke:none" />
<ellipse cx="510.085266" cy="260.901894" rx="4.308167" ry="6.689781" 
	style="fill-opacity:1.0; fill-rule:evenodd; fill:black; stroke:none" />
<polygon points="499.458466,248.860245 
	487.970062,242.616470 485.672363,254.212112 497.160767,260.455902 497.160767,260.455902 
	499.458466,248.860245 "
	style="fill-opacity:1.0; fill-rule:evenodd; fill:black; stroke:none" />
<polygon points="487.970062,242.616470 
	475.907227,236.372635 473.609589,247.968292 485.672363,254.212112 485.672363,254.212112 
	487.970062,242.616470 "
	style="fill-opacity:1.0; fill-rule:evenodd; fill:black; stroke:none" />
<polygon points="475.907227,236.372635 
	460.972321,229.236862 458.674622,240.832504 473.609589,247.968292 473.609589,247.968292 
	475.907227,236.372635 "
	style="fill-opacity:1.0; fill-rule:evenodd; fill:black; stroke:none" />
<polygon points="460.972321,229.236862 
	435.697815,219.425171 433.974548,231.912766 459.249054,241.724457 458.674622,240.832504 
	460.972321,229.236862 "
	style="fill-opacity:1.0; fill-rule:evenodd; fill:black; stroke:none" />
<ellipse cx="435.410599" cy="226.114967" rx="4.308151" ry="6.689796" 
	style="fill-opacity:1.0; fill-rule:evenodd; fill:black; stroke:none" />
<polygon points="514.393433,219.425171 
	478.204895,214.965302 477.630493,228.344894 513.818970,232.804764 "
	style="fill-opacity:1.0; fill-rule:evenodd; fill:black; stroke:none" />
<ellipse cx="514.680603" cy="227.006950" rx="4.308167" ry="6.689781" 
	style="fill-opacity:1.0; fill-rule:evenodd; fill:black; stroke:none" />
<polygon points="478.204895,215.857300 
	461.546753,213.181381 460.972321,225.668991 477.630493,228.344894 477.630493,228.344894 
	478.204895,214.965302 "
	style="fill-opacity:1.0; fill-rule:evenodd; fill:black; stroke:none" />
<polygon points="461.546753,212.289383 
	433.400116,208.721512 432.825714,222.101074 460.972321,225.668991 460.972321,225.668991 
	461.546753,213.181381 "
	style="fill-opacity:1.0; fill-rule:evenodd; fill:black; stroke:none" />
<ellipse cx="433.687332" cy="216.303268" rx="4.308151" ry="6.689804" 
	style="fill-opacity:1.0; fill-rule:evenodd; fill:black; stroke:none" />
<polygon points="472.460693,221.209122 
	105.406120,114.172447 103.108452,135.579788 470.162994,242.616470 "
	style="fill-opacity:1.0; fill-rule:evenodd; fill:black; stroke:none" />
<ellipse cx="471.599091" cy="232.358772" rx="7.180237" ry="11.149651" 
	style="fill-opacity:1.0; fill-rule:evenodd; fill:black; stroke:none" />
<ellipse cx="104.544498" cy="125.322102" rx="7.180256" ry="11.149654" 
	style="fill-opacity:1.0; fill-rule:evenodd; fill:black; stroke:none" />
<polygon points="518.414368,247.968292 
	512.095703,275.619415 522.435242,280.971283 528.753906,253.320114 "
	style="fill-opacity:1.0; fill-rule:evenodd; fill:white; stroke:none" />
<ellipse cx="523.871338" cy="251.090179" rx="6.031433" ry="9.365723" 
	style="fill-opacity:1.0; fill-rule:evenodd; fill:white; stroke:none" />
<ellipse cx="517.552734" cy="278.741348" rx="6.031433" ry="9.365707" 
	style="fill-opacity:1.0; fill-rule:evenodd; fill:white; stroke:none" />
<polyline points="258.776367,152.527267 
	249.011200,148.959351 239.246063,142.715576 221.439041,125.768074 203.057587,110.604561 
	193.292435,106.144691 182.378448,105.252716 172.613312,110.604561 165.145844,120.416252 
	159.976044,131.119919 156.529541,143.607529 155.380707,156.987091 156.529541,168.582733 
	163.997009,197.125870 180.655197,227.452942 189.845917,241.724457 201.334335,256.888031 
	220.290192,278.295319 239.246063,296.134796 277.732239,327.353821 303.006714,350.545074 
	339.769592,382.656128 361.023163,397.819641 382.276733,409.415283 403.530273,414.767120 
	424.209381,413.875122 439.718750,409.415283 455.802521,401.387512 471.311890,389.791870 
	485.097931,375.520355 492.565430,363.924683 497.735199,351.437103 501.756165,338.057495 
	504.053802,322.893951 509.223602,288.107056 516.691040,246.184326 525.307373,218.533203 
	535.646912,196.233917 548.858643,179.286438 563.219116,167.690781 579.302856,161.446960 
	597.109924,160.555008 616.065796,164.122879 635.596069,172.150650 667.763611,191.774048 
	690.166016,208.721512 717.738220,221.209122 761.968567,229.236862 "
	style="stroke-width:8.065159; stroke-linecap:round; stroke-linejoin:round; stroke-dasharray:none; stroke:black" />
<polyline points="261.074036,151.635269 
	263.946136,146.283447 265.669403,138.255707 265.669403,132.011887 263.946136,125.768074 
	261.074036,120.416252 257.053070,115.956383 242.118164,105.252716 221.439041,86.521301 
	209.376205,78.493546 197.313370,75.817635 178.931931,77.601570 169.741211,82.061440 
	159.976044,89.197220 153.083023,97.224976 147.913239,106.144691 141.020187,124.876099 
	137.573669,149.851303 138.722504,177.502472 143.317871,200.693726 150.785339,220.317169 
	166.294693,250.644196 196.738968,293.458893 223.162308,316.650146 257.053070,344.301300 
	311.623016,395.143738 339.195190,417.443024 366.192932,435.282471 386.297668,443.310242 
	406.976776,445.094147 427.655945,442.418243 447.186218,435.282471 467.865356,423.686798 
	483.949127,410.307251 490.842163,403.171478 497.160767,394.251740 509.223602,373.736389 
	514.967834,362.140747 518.414368,347.869171 523.009644,315.758179 526.456177,282.755188 
	531.625977,250.644196 538.519043,226.560944 545.986511,209.613464 555.177246,198.017822 
	566.665588,188.206131 581.600586,181.962341 602.279724,181.962341 626.405396,188.206131 
	651.105408,201.585739 667.763611,214.965302 682.698547,231.020813 695.335815,249.752243 
	705.675354,269.375641 717.738220,296.134796 726.354492,321.110016 "
	style="stroke-width:8.065159; stroke-linecap:round; stroke-linejoin:round; stroke-dasharray:none; stroke:black" />
<polyline points="705.100952,245.292374 
	716.014893,256.888031 726.354492,272.943512 734.970764,290.782990 740.714966,307.730438 "
	style="stroke-width:8.065159; stroke-linecap:round; stroke-linejoin:round; stroke-dasharray:none; stroke:black" />
<polyline points="724.056824,249.752243 
	739.566162,266.699707 760.245239,288.107056 "
	style="stroke-width:8.065159; stroke-linecap:round; stroke-linejoin:round; stroke-dasharray:none; stroke:black" />
<polyline points="709.121887,231.912766 
	718.887024,238.156601 732.098694,243.508423 748.182495,247.076340 764.840637,246.184326 "
	style="stroke-width:8.065159; stroke-linecap:round; stroke-linejoin:round; stroke-dasharray:none; stroke:black" />
<polygon points="260.499634,156.987091 
	211.673874,142.715576 208.801773,168.582733 257.627533,182.854309 "
	style="fill-opacity:1.0; fill-rule:evenodd; fill:white; stroke:none" />
<polygon points="211.673874,142.715576 
	162.848160,129.335968 159.976044,155.203186 208.801773,168.582733 208.801773,168.582733 
	211.673874,142.715576 "
	style="fill-opacity:1.0; fill-rule:evenodd; fill:white; stroke:none" />
<polyline points="349.534760,138.255707 
	327.132355,133.795837 303.006714,125.768074 280.029907,122.200188 270.264771,124.876099 
	261.648438,132.011887 255.904266,141.823578 253.032150,155.203186 254.755417,171.258652 
	258.201935,178.394440 263.946136,185.530212 272.562439,189.990082 282.327606,189.098129 
	292.667145,184.638260 303.581116,177.502472 326.557953,161.446960 348.960327,148.959351 "
	style="stroke-width:8.798356; stroke-linecap:round; stroke-linejoin:round; stroke-dasharray:none; stroke:black" />
<polyline points="346.662659,110.604561 
	319.664917,101.684822 306.453247,97.224976 290.943878,94.549042 270.264771,97.224976 
	254.755417,107.928627 247.287933,115.064407 240.394913,124.876099 236.373947,140.931625 
	236.373947,163.230911 241.543732,187.314178 246.139099,197.125870 251.308899,203.369690 
	262.797302,213.181381 274.285675,216.749252 285.199677,215.857300 295.539246,212.289383 
	305.878815,206.937561 315.643951,198.909821 335.174225,182.854309 353.555695,169.474747 "
	style="stroke-width:8.798356; stroke-linecap:round; stroke-linejoin:round; stroke-dasharray:none; stroke:black" />
<polyline points="428.230347,123.092163 
	405.827972,118.632294 381.702301,110.604561 358.725494,107.036667 348.960327,109.712585 
	340.344055,116.848366 334.599823,126.660057 331.727722,140.039612 333.450989,156.095139 
	336.897522,163.230911 342.641724,170.366699 351.258026,174.826569 361.023163,173.934570 
	371.362732,169.474747 382.276733,162.338959 405.253510,146.283447 427.655945,133.795837 "
	style="stroke-width:8.798356; stroke-linecap:round; stroke-linejoin:round; stroke-dasharray:none; stroke:black" />
<polyline points="425.358246,95.441017 
	398.360504,86.521301 385.148804,82.061440 369.639496,79.385521 348.960327,82.061440 
	333.450989,92.765106 325.983551,99.900887 319.090485,109.712585 315.069550,125.768074 
	315.069550,148.067398 320.239319,172.150650 324.834686,181.962341 330.004456,188.206131 
	341.492859,198.017822 352.981293,201.585739 363.895264,200.693726 374.234833,197.125870 
	384.574402,191.774048 394.339539,183.746262 413.869843,167.690781 432.251312,154.311172 "
	style="stroke-width:8.798356; stroke-linecap:round; stroke-linejoin:round; stroke-dasharray:none; stroke:black" />
<polyline points="508.649200,107.928627 
	486.246826,103.468781 462.121155,95.441017 439.144318,91.873131 429.379181,94.549042 
	420.762878,101.684822 415.018677,111.496513 412.146576,124.876099 413.869843,140.931625 
	417.316345,148.067398 423.060577,155.203186 431.676849,159.663055 441.442017,158.771042 
	451.781616,154.311172 462.695557,147.175400 485.672363,131.119919 508.074799,118.632294 "
	style="stroke-width:8.798356; stroke-linecap:round; stroke-linejoin:round; stroke-dasharray:none; stroke:black" />
<polyline points="505.777100,80.277504 
	478.779327,71.357765 465.567657,66.897919 450.058319,64.221985 429.379181,66.897919 
	413.869843,77.601570 406.402374,84.737350 399.509338,94.549042 395.488373,110.604561 
	395.488373,132.903839 400.658142,156.987091 405.253510,166.798782 410.423340,173.042603 
	421.911713,182.854309 433.400116,186.422211 444.314117,185.530212 454.653656,181.962341 
	464.993256,176.610519 474.758392,168.582733 494.288666,152.527267 512.670105,139.147659 "
	style="stroke-width:8.798356; stroke-linecap:round; stroke-linejoin:round; stroke-dasharray:none; stroke:black" />
<polyline points="589.642456,87.413261 
	567.240112,82.953415 543.114441,74.925652 520.137573,71.357765 510.372437,74.033676 
	501.756165,81.169456 496.011963,90.981148 493.139862,104.360733 494.863068,120.416252 
	498.309601,127.552032 504.053802,134.687790 512.670105,139.147659 522.435242,138.255707 
	532.774841,133.795837 543.688843,126.660057 566.665588,110.604561 589.068054,98.116928 "
	style="stroke-width:8.798356; stroke-linecap:round; stroke-linejoin:round; stroke-dasharray:none; stroke:black" />
<polyline points="586.770386,59.762138 
	559.772583,50.842400 546.560913,46.382553 531.051575,43.706619 510.372437,46.382553 
	494.863068,57.086201 487.395630,64.221985 480.502594,74.033676 476.481628,90.089195 
	476.481628,112.388496 481.651428,136.471756 486.246826,146.283447 491.416565,152.527267 
	502.904999,162.338959 514.393433,165.906830 525.307373,165.014877 535.646912,161.446960 
	545.986511,156.095139 555.751648,148.067398 575.281921,132.011887 593.663391,118.632294 "
	style="stroke-width:8.798356; stroke-linecap:round; stroke-linejoin:round; stroke-dasharray:none; stroke:black" />
<polyline points="671.210144,67.789871 
	648.807739,63.330029 624.682068,55.302269 601.705322,51.734379 591.940125,54.410290 
	583.323853,61.546070 577.579651,71.357765 574.707520,84.737350 576.430786,100.792847 
	579.877319,107.928627 585.621460,115.064407 594.237793,119.524277 604.002930,118.632294 
	614.342529,114.172447 625.256531,107.036667 648.233337,90.981148 670.635742,78.493546 "
	style="stroke-width:8.798356; stroke-linecap:round; stroke-linejoin:round; stroke-dasharray:none; stroke:black" />
<polyline points="668.338013,40.138729 
	641.340271,31.219013 628.128601,26.759144 612.619263,24.083231 591.940125,26.759144 
	576.430786,37.462814 568.963318,44.598598 562.070312,54.410290 558.049377,70.465782 
	558.049377,92.765106 563.219116,116.848366 567.814514,126.660057 572.984253,132.903839 
	584.472656,142.715576 595.961121,146.283447 606.875061,145.391495 617.214661,141.823578 
	627.554199,136.471756 637.319336,128.443985 656.849609,112.388496 675.231079,99.008911 "
	style="stroke-width:8.798356; stroke-linecap:round; stroke-linejoin:round; stroke-dasharray:none; stroke:black" />
<polyline points="749.331299,49.058464 
	726.928955,44.598598 702.803284,36.570862 679.826477,33.002972 670.061279,35.678883 
	661.445007,42.814663 655.700806,52.626358 652.828674,66.005943 654.552002,82.061440 
	657.998474,89.197220 663.742676,96.333000 672.358948,100.792847 682.124084,99.900887 
	692.463684,95.441017 703.377686,88.305237 726.354492,72.249741 748.756897,59.762138 "
	style="stroke-width:8.798356; stroke-linecap:round; stroke-linejoin:round; stroke-dasharray:none; stroke:black" />
<polyline points="746.459229,21.407320 
	719.461426,12.487605 706.249756,8.027736 690.740417,5.351824 670.061279,8.027736 
	654.552002,18.731407 647.084473,25.867189 640.191467,35.678883 636.170532,51.734379 
	636.170532,74.033676 641.340271,98.116928 645.935669,107.928627 651.105408,114.172447 
	662.593811,123.984146 674.082275,127.552032 684.996216,126.660057 695.335815,123.092163 
	705.675354,117.740318 715.440491,109.712585 734.970764,93.657089 753.352234,80.277504 "
	style="stroke-width:8.798356; stroke-linecap:round; stroke-linejoin:round; stroke-dasharray:none; stroke:black" />
<polygon points="234.076294,148.959351 
	195.590118,150.743317 195.590118,166.798782 234.076294,165.014877 "
	style="fill-opacity:1.0; fill-rule:evenodd; fill:black; stroke:none" />
<polygon points="167.443527,151.635269 
	128.957367,153.419220 128.957367,169.474747 167.443527,167.690781 "
	style="fill-opacity:1.0; fill-rule:evenodd; fill:black; stroke:none" />
<polygon points="99.661919,156.095139 
	61.175766,157.879089 61.175766,173.934570 99.661919,172.150650 "
	style="fill-opacity:1.0; fill-rule:evenodd; fill:black; stroke:none" />
<polygon points="32.454746,159.663055 
	0.287208,161.446960 0.287208,177.502472 32.454746,175.718521 "
	style="fill-opacity:1.0; fill-rule:evenodd; fill:black; stroke:none" />
</svg>
