<?xml version="1.0" standalone="no"?>
<!DOCTYPE svg PUBLIC "-//W3C//DTD SVG 20001102//EN"
"http://www.w3.org/TR/2000/CR-SVG-20001102/DTD/svg-20001102.dtd">
<svg width="519" height="512"
	xmlns:sodipodi="http://sodipodi.sourceforge.net/DTD/sodipodi-0.dtd">
<desc>wmf2svg</desc>
<polygon points="9.354071,11.205385 
	32.286629,26.720539 39.528492,16.377100 16.595934,0.861951 "
	style="fill-opacity:1.0; fill-rule:evenodd; fill:black; stroke:none" />
<polygon points="32.890121,26.720539 
	46.770355,34.765434 53.408726,24.421997 39.528492,16.377100 39.528492,16.377100 
	32.286629,26.720539 "
	style="fill-opacity:1.0; fill-rule:evenodd; fill:black; stroke:none" />
<polygon points="63.064541,45.108864 
	95.049423,64.071831 101.687790,53.728394 69.702911,34.765434 "
	style="fill-opacity:1.0; fill-rule:evenodd; fill:black; stroke:none" />
<polygon points="95.652901,64.646461 
	101.084305,68.094276 107.722672,57.176205 102.291283,53.728394 101.687790,53.728394 
	95.049423,64.071831 "
	style="fill-opacity:1.0; fill-rule:evenodd; fill:black; stroke:none" />
<polygon points="117.981979,77.863075 
	140.914536,91.079681 147.552902,80.161613 124.620354,66.945007 "
	style="fill-opacity:1.0; fill-rule:evenodd; fill:black; stroke:none" />
<polygon points="140.914536,91.654327 
	155.398254,100.848473 162.640106,90.505043 148.156403,81.310875 147.552902,80.161613 
	140.914536,91.079681 "
	style="fill-opacity:1.0; fill-rule:evenodd; fill:black; stroke:none" />
<polygon points="171.692429,111.191917 
	185.572662,119.811447 192.814514,109.468002 178.934296,100.848473 "
	style="fill-opacity:1.0; fill-rule:evenodd; fill:black; stroke:none" />
<polygon points="186.176147,120.386070 
	209.108704,136.475861 216.954056,126.132431 194.021500,110.042641 192.814514,109.468002 
	185.572662,119.811447 "
	style="fill-opacity:1.0; fill-rule:evenodd; fill:black; stroke:none" />
<polygon points="225.402893,147.393936 
	239.283142,159.461273 248.335449,149.692474 234.455231,137.625137 "
	style="fill-opacity:1.0; fill-rule:evenodd; fill:black; stroke:none" />
<polygon points="239.886612,159.461273 
	242.300583,161.185181 249.542435,151.991013 247.128494,150.267120 248.335449,149.692474 
	239.283142,159.461273 "
	style="fill-opacity:1.0; fill-rule:evenodd; fill:black; stroke:none" />
<polygon points="241.093597,161.185181 
	243.507538,163.483734 253.163361,154.289566 250.749420,151.991013 249.542435,151.991013 
	242.300583,161.185181 "
	style="fill-opacity:1.0; fill-rule:evenodd; fill:black; stroke:none" />
<polygon points="244.111053,163.483734 
	248.938950,167.506165 257.387787,158.312012 252.559875,154.289566 253.163361,154.289566 
	243.507538,163.483734 "
	style="fill-opacity:1.0; fill-rule:evenodd; fill:black; stroke:none" />
<polygon points="248.938950,167.506165 
	259.198242,176.125702 268.250549,166.356888 257.991272,157.737366 257.387787,158.312012 
	248.938950,167.506165 "
	style="fill-opacity:1.0; fill-rule:evenodd; fill:black; stroke:none" />
<polygon points="271.871521,189.916931 
	282.734283,200.835007 292.993622,192.215469 282.130798,181.297409 "
	style="fill-opacity:1.0; fill-rule:evenodd; fill:black; stroke:none" />
<polygon points="283.337799,201.409653 
	291.183105,210.603790 301.442444,202.558899 293.597076,193.364761 292.993622,192.215469 
	282.734283,200.835007 "
	style="fill-opacity:1.0; fill-rule:evenodd; fill:black; stroke:none" />
<polygon points="291.183105,210.029175 
	300.838928,222.671143 311.098267,215.200882 301.442444,202.558899 301.442444,202.558899 
	291.183105,210.603790 "
	style="fill-opacity:1.0; fill-rule:evenodd; fill:black; stroke:none" />
<polygon points="308.684296,238.186295 
	312.305206,245.656555 324.375000,240.484848 320.754089,233.014587 "
	style="fill-opacity:1.0; fill-rule:evenodd; fill:black; stroke:none" />
<polygon points="312.305206,245.656555 
	317.133118,256.000000 329.202911,251.402924 324.375000,240.484848 "
	style="fill-opacity:1.0; fill-rule:evenodd; fill:black; stroke:none" />
<polygon points="317.133118,256.000000 
	315.926178,254.276077 331.013367,254.276077 329.202911,251.402924 "
	style="fill-opacity:1.0; fill-rule:evenodd; fill:black; stroke:none" />
<polygon points="315.926178,254.276077 
	321.961029,246.805832 321.961029,261.171722 331.013367,254.276077 "
	style="fill-opacity:1.0; fill-rule:evenodd; fill:black; stroke:none" />
<polygon points="321.961029,246.805832 
	318.943573,246.805832 315.926178,259.447815 321.961029,261.171722 "
	style="fill-opacity:1.0; fill-rule:evenodd; fill:black; stroke:none" />
<polygon points="318.943573,246.805832 
	300.838928,243.358002 297.821533,256.000000 315.926178,259.447815 315.926178,259.447815 
	318.943573,246.805832 "
	style="fill-opacity:1.0; fill-rule:evenodd; fill:black; stroke:none" />
<polygon points="281.527344,238.760956 
	242.904068,230.141403 239.886612,242.783386 278.509888,251.402924 "
	style="fill-opacity:1.0; fill-rule:evenodd; fill:black; stroke:none" />
<polygon points="216.350586,224.969696 
	177.123840,217.499435 174.709885,230.141403 213.936615,237.611679 "
	style="fill-opacity:1.0; fill-rule:evenodd; fill:black; stroke:none" />
<polygon points="150.570343,212.327728 
	128.844772,208.305267 126.430817,220.947235 148.156403,224.969696 "
	style="fill-opacity:1.0; fill-rule:evenodd; fill:black; stroke:none" />
<polygon points="128.241272,207.730637 
	104.705238,203.708191 102.291283,216.350159 125.827324,220.372620 126.430817,220.947235 
	128.844772,208.305267 "
	style="fill-opacity:1.0; fill-rule:evenodd; fill:black; stroke:none" />
<polygon points="96.859886,194.514023 
	93.842438,188.767670 82.376160,194.514023 85.393608,200.260376 "
	style="fill-opacity:1.0; fill-rule:evenodd; fill:black; stroke:none" />
<polygon points="93.238960,188.193039 
	84.186623,169.230072 72.116867,174.401794 81.169189,193.364761 82.376160,194.514023 
	93.842438,188.767670 "
	style="fill-opacity:1.0; fill-rule:evenodd; fill:black; stroke:none" />
<polygon points="84.790115,169.804718 
	79.358727,155.438828 66.685463,159.461273 72.116867,173.827164 72.116867,174.401794 
	84.186623,169.230072 "
	style="fill-opacity:1.0; fill-rule:evenodd; fill:black; stroke:none" />
<polygon points="72.720360,138.199768 
	68.495926,126.707077 55.822678,130.729523 60.047096,142.222214 "
	style="fill-opacity:1.0; fill-rule:evenodd; fill:black; stroke:none" />
<polygon points="67.892448,126.132431 
	57.029648,97.400673 44.356400,101.423119 55.219185,130.154877 55.822678,130.729523 
	68.495926,126.707077 "
	style="fill-opacity:1.0; fill-rule:evenodd; fill:black; stroke:none" />
<polygon points="50.994770,79.586975 
	48.580814,73.265991 35.907558,77.288437 38.321514,83.609421 "
	style="fill-opacity:1.0; fill-rule:evenodd; fill:black; stroke:none" />
<polygon points="47.373848,72.691353 
	33.493607,39.362511 21.423841,43.959595 35.304073,77.288437 35.907558,77.288437 
	48.580814,73.265991 "
	style="fill-opacity:1.0; fill-rule:evenodd; fill:black; stroke:none" />
<polygon points="25.648258,22.698093 
	15.388956,0.287316 3.319193,4.884399 13.578495,27.295170 "
	style="fill-opacity:1.0; fill-rule:evenodd; fill:black; stroke:none" />
<polygon points="32.286629,198.536484 
	383.516846,275.537598 385.930786,264.044891 34.700584,187.043762 "
	style="fill-opacity:1.0; fill-rule:evenodd; fill:black; stroke:none" />
<polygon points="384.723846,276.112213 
	403.431976,275.537598 403.431976,262.895630 384.723846,263.470245 385.930786,264.044891 
	383.516846,275.537598 "
	style="fill-opacity:1.0; fill-rule:evenodd; fill:black; stroke:none" />
<polygon points="403.431976,275.537598 
	420.933136,276.112213 420.933136,263.470245 403.431976,262.895630 403.431976,262.895630 
	403.431976,275.537598 "
	style="fill-opacity:1.0; fill-rule:evenodd; fill:black; stroke:none" />
<polygon points="420.329620,275.537598 
	436.623810,278.410767 438.434265,266.918060 422.140106,264.044891 420.933136,263.470245 
	420.933136,276.112213 "
	style="fill-opacity:1.0; fill-rule:evenodd; fill:black; stroke:none" />
<polygon points="436.623810,278.410767 
	444.469177,281.858582 449.297089,271.515137 438.434265,266.918060 "
	style="fill-opacity:1.0; fill-rule:evenodd; fill:black; stroke:none" />
<polygon points="444.469177,281.858582 
	452.314514,285.306366 457.745941,275.537598 449.297089,271.515137 "
	style="fill-opacity:1.0; fill-rule:evenodd; fill:black; stroke:none" />
<polygon points="451.711060,285.306366 
	467.401703,295.075195 474.040070,285.306366 458.349426,275.537598 457.745941,275.537598 
	452.314514,285.306366 "
	style="fill-opacity:1.0; fill-rule:evenodd; fill:black; stroke:none" />
<polygon points="380.499420,276.112213 
	401.018005,287.604950 406.449402,278.410767 385.930786,266.918060 "
	style="fill-opacity:1.0; fill-rule:evenodd; fill:black; stroke:none" />
<ellipse cx="383.818588" cy="271.802460" rx="5.733139" ry="5.459045" 
	style="fill-opacity:1.0; fill-rule:evenodd; fill:black; stroke:none" />
<polygon points="401.018005,287.604950 
	411.277313,292.776642 416.105225,283.582489 405.845917,278.410767 406.449402,278.410767 
	401.018005,287.604950 "
	style="fill-opacity:1.0; fill-rule:evenodd; fill:black; stroke:none" />
<polygon points="411.277313,292.776642 
	417.312195,295.075195 421.536621,285.306366 416.105225,283.582489 "
	style="fill-opacity:1.0; fill-rule:evenodd; fill:black; stroke:none" />
<polygon points="417.312195,295.075195 
	423.347076,296.224457 424.554047,285.881042 421.536621,285.306366 "
	style="fill-opacity:1.0; fill-rule:evenodd; fill:black; stroke:none" />
<polygon points="423.347076,296.224457 
	436.623810,297.948364 437.830811,287.030273 424.554047,285.306366 424.554047,285.881042 
	423.347076,296.224457 "
	style="fill-opacity:1.0; fill-rule:evenodd; fill:black; stroke:none" />
<polygon points="436.623810,297.948364 
	449.297089,298.523010 449.297089,286.455658 437.830811,287.030273 "
	style="fill-opacity:1.0; fill-rule:evenodd; fill:black; stroke:none" />
<polygon points="449.900543,297.948364 
	471.022675,295.649811 469.815674,284.731750 448.693604,287.030273 449.297089,286.455658 
	449.297089,298.523010 "
	style="fill-opacity:1.0; fill-rule:evenodd; fill:black; stroke:none" />
<ellipse cx="470.720917" cy="290.765411" rx="5.733124" ry="5.459045" 
	style="fill-opacity:1.0; fill-rule:evenodd; fill:black; stroke:none" />
<polygon points="423.347076,287.604950 
	387.137787,274.388306 384.120331,281.858582 420.329620,295.075195 "
	style="fill-opacity:1.0; fill-rule:evenodd; fill:black; stroke:none" />
<ellipse cx="422.441833" cy="291.914703" rx="4.526154" ry="4.309753" 
	style="fill-opacity:1.0; fill-rule:evenodd; fill:black; stroke:none" />
<polygon points="387.137787,274.388306 
	372.050568,268.641968 369.033142,276.112213 384.120331,281.858582 384.120331,281.858582 
	387.137787,274.388306 "
	style="fill-opacity:1.0; fill-rule:evenodd; fill:black; stroke:none" />
<polygon points="371.447083,268.641968 
	345.497101,261.171722 343.083130,268.641968 369.033142,276.112213 369.033142,276.112213 
	372.050568,268.641968 "
	style="fill-opacity:1.0; fill-rule:evenodd; fill:black; stroke:none" />
<ellipse cx="344.591843" cy="265.481476" rx="4.526169" ry="4.309753" 
	style="fill-opacity:1.0; fill-rule:evenodd; fill:black; stroke:none" />
<polygon points="428.174988,266.343414 
	390.155212,261.171722 388.948242,269.216614 426.967987,274.388306 "
	style="fill-opacity:1.0; fill-rule:evenodd; fill:black; stroke:none" />
<ellipse cx="427.873245" cy="270.653183" rx="4.526169" ry="4.309769" 
	style="fill-opacity:1.0; fill-rule:evenodd; fill:black; stroke:none" />
<polygon points="390.155212,261.171722 
	343.083130,254.850723 341.876129,262.895630 388.948242,269.216614 388.948242,269.216614 
	390.155212,261.171722 "
	style="fill-opacity:1.0; fill-rule:evenodd; fill:black; stroke:none" />
<ellipse cx="342.781387" cy="259.160484" rx="4.526169" ry="4.309761" 
	style="fill-opacity:1.0; fill-rule:evenodd; fill:black; stroke:none" />
<polygon points="384.723846,264.619507 
	35.304073,185.894485 32.286629,199.685730 381.706390,278.410767 "
	style="fill-opacity:1.0; fill-rule:evenodd; fill:black; stroke:none" />
<ellipse cx="383.818588" cy="271.802444" rx="7.543625" ry="7.182938" 
	style="fill-opacity:1.0; fill-rule:evenodd; fill:black; stroke:none" />
<ellipse cx="34.398840" cy="193.077431" rx="7.543604" ry="7.182945" 
	style="fill-opacity:1.0; fill-rule:evenodd; fill:black; stroke:none" />
<polyline points="34.097099,188.767670 
	3.922678,184.745224 32.890121,196.237930 "
	style="stroke-width:7.657803; stroke-linecap:round; stroke-linejoin:round; stroke-dasharray:none; stroke:black" />
<polygon points="430.588928,287.030273 
	428.174988,303.694702 436.623810,304.843994 439.037781,288.179565 "
	style="fill-opacity:1.0; fill-rule:evenodd; fill:white; stroke:none" />
<ellipse cx="435.115097" cy="287.892258" rx="4.526169" ry="4.309769" 
	style="fill-opacity:1.0; fill-rule:evenodd; fill:white; stroke:none" />
<ellipse cx="432.701157" cy="304.556671" rx="4.526169" ry="4.309753" 
	style="fill-opacity:1.0; fill-rule:evenodd; fill:white; stroke:none" />
<polygon points="271.268005,396.210968 
	238.076157,393.337830 206.091293,389.315369 199.452911,388.166077 194.625015,384.718292 
	192.211044,380.695831 191.607559,376.673401 193.418030,373.225586 196.435471,369.777740 
	201.263382,367.479218 207.901749,366.904602 236.265686,369.777740 273.681976,373.800201 
	282.130798,376.098755 287.562195,378.971924 290.579651,382.994385 291.183105,387.016815 
	289.372650,391.039276 285.148254,394.487061 279.113373,396.210968 271.268005,396.210968 "
	style="fill:none; stroke-width:7.068742; stroke-linecap:round; stroke-linejoin:round; stroke-dasharray:none; stroke:black" />
<polyline points="271.268005,396.210968 
	238.076157,393.337830 206.091293,389.315369 199.452911,388.166077 194.625015,384.718292 
	192.211044,380.695831 191.607559,376.673401 193.418030,373.225586 196.435471,369.777740 
	201.263382,367.479218 207.901749,366.904602 236.265686,369.777740 273.681976,373.800201 
	282.130798,376.098755 287.562195,378.971924 290.579651,382.994385 291.183105,387.016815 
	289.372650,391.039276 285.148254,394.487061 279.113373,396.210968 271.268005,396.210968 "
	style="stroke-width:7.068742; stroke-linecap:round; stroke-linejoin:round; stroke-dasharray:none; stroke:black" />
<polygon points="299.631989,373.225586 
	238.679626,368.053864 167.468018,360.008972 160.829651,358.285065 156.001740,355.411865 
	152.380814,346.792358 153.587784,343.344543 156.605240,339.896729 168.675003,337.023560 
	230.230804,342.769897 301.442444,351.964081 309.891266,354.262604 315.322662,357.135773 
	318.340118,361.158234 318.943573,364.606049 317.736633,368.628510 313.512207,371.501678 
	307.477295,373.225586 299.631989,373.225586 "
	style="fill:none; stroke-width:7.068742; stroke-linecap:round; stroke-linejoin:round; stroke-dasharray:none; stroke:black" />
<polyline points="299.631989,373.225586 
	238.679626,368.053864 167.468018,360.008972 160.829651,358.285065 156.001740,355.411865 
	152.380814,346.792358 153.587784,343.344543 156.605240,339.896729 168.675003,337.023560 
	230.230804,342.769897 301.442444,351.964081 309.891266,354.262604 315.322662,357.135773 
	318.340118,361.158234 318.943573,364.606049 317.736633,368.628510 313.512207,371.501678 
	307.477295,373.225586 299.631989,373.225586 "
	style="stroke-width:7.068742; stroke-linecap:round; stroke-linejoin:round; stroke-dasharray:none; stroke:black" />
<polygon points="314.115662,350.240173 
	239.283142,342.195282 154.191284,333.001129 147.552902,331.851837 142.121506,328.404022 
	139.104065,324.381561 137.897095,319.784485 138.500580,315.762054 140.914536,312.314270 
	145.742447,310.015686 152.380814,309.441071 321.357544,327.254761 329.202911,328.978668 
	334.030823,332.426483 336.444763,336.448914 335.841278,340.471375 333.427307,344.493805 
	328.599396,347.941620 322.564545,350.240173 314.115662,350.240173 "
	style="fill:none; stroke-width:7.068742; stroke-linecap:round; stroke-linejoin:round; stroke-dasharray:none; stroke:black" />
<polyline points="314.115662,350.240173 
	239.283142,342.195282 154.191284,333.001129 147.552902,331.851837 142.121506,328.404022 
	139.104065,324.381561 137.897095,319.784485 138.500580,315.762054 140.914536,312.314270 
	145.742447,310.015686 152.380814,309.441071 321.357544,327.254761 329.202911,328.978668 
	334.030823,332.426483 336.444763,336.448914 335.841278,340.471375 333.427307,344.493805 
	328.599396,347.941620 322.564545,350.240173 314.115662,350.240173 "
	style="stroke-width:7.068742; stroke-linecap:round; stroke-linejoin:round; stroke-dasharray:none; stroke:black" />
<polygon points="324.375000,322.657684 
	129.448257,301.396179 122.809891,299.672272 117.981979,296.224457 115.568024,291.627350 
	114.361038,286.455658 115.568024,281.858582 118.585457,277.836151 123.413368,275.537598 
	130.051743,274.962952 325.581940,297.948364 333.427307,300.246918 338.858734,303.694702 
	341.876129,308.291809 343.083130,312.314270 341.876129,316.911346 338.255219,320.359131 
	332.220337,322.657684 324.375000,322.657684 "
	style="fill:none; stroke-width:7.068742; stroke-linecap:round; stroke-linejoin:round; stroke-dasharray:none; stroke:black" />
<polyline points="324.375000,322.657684 
	129.448257,301.396179 122.809891,299.672272 117.981979,296.224457 115.568024,291.627350 
	114.361038,286.455658 115.568024,281.858582 118.585457,277.836151 123.413368,275.537598 
	130.051743,274.962952 325.581940,297.948364 333.427307,300.246918 338.858734,303.694702 
	341.876129,308.291809 343.083130,312.314270 341.876129,316.911346 338.255219,320.359131 
	332.220337,322.657684 324.375000,322.657684 "
	style="stroke-width:7.068742; stroke-linecap:round; stroke-linejoin:round; stroke-dasharray:none; stroke:black" />
<polygon points="324.375000,293.925934 
	223.592422,284.157135 111.947090,271.515137 105.308716,269.791229 100.480812,266.343414 
	98.066856,261.746338 96.859886,257.149261 98.670349,252.552170 101.687790,249.104370 
	106.515701,246.805832 113.154076,245.656555 329.202911,268.641968 337.651733,270.365875 
	342.479645,273.813690 344.893585,278.410767 344.893585,283.007843 343.083130,287.604950 
	338.858734,291.052734 332.823822,293.351257 324.375000,293.925934 "
	style="fill:none; stroke-width:7.068742; stroke-linecap:round; stroke-linejoin:round; stroke-dasharray:none; stroke:black" />
<polyline points="324.375000,293.925934 
	223.592422,284.157135 111.947090,271.515137 105.308716,269.791229 100.480812,266.343414 
	98.066856,261.746338 96.859886,257.149261 98.670349,252.552170 101.687790,249.104370 
	106.515701,246.805832 113.154076,245.656555 329.202911,268.641968 337.651733,270.365875 
	342.479645,273.813690 344.893585,278.410767 344.893585,283.007843 343.083130,287.604950 
	338.858734,291.052734 332.823822,293.351257 324.375000,293.925934 "
	style="stroke-width:7.068742; stroke-linecap:round; stroke-linejoin:round; stroke-dasharray:none; stroke:black" />
<polygon points="79.962204,214.626251 
	331.013367,268.067322 335.841278,246.231186 84.790115,192.790115 "
	style="fill-opacity:1.0; fill-rule:evenodd; fill:white; stroke:none" />
<polyline points="87.204071,243.932663 
	89.618019,239.335571 89.618019,234.163864 88.411057,230.141403 84.790115,227.842880 
	78.755234,228.992126 73.323837,234.163864 66.685463,240.484848 61.857555,248.529739 
	50.994770,266.343414 40.131985,292.202026 34.700584,312.314270 32.286629,331.277222 
	32.890121,351.389465 36.511051,375.524109 44.959885,410.002228 55.219185,433.562256 
	65.478493,450.226715 77.548248,465.167206 92.031975,477.809174 108.326164,487.577972 
	128.844772,496.197510 149.363373,502.518494 171.088943,506.540985 192.211044,508.264862 
	213.936615,508.839478 235.662216,506.540985 256.784271,503.093109 277.302887,497.921448 
	310.494751,486.428711 326.788940,478.958466 341.876129,469.764313 355.756378,460.570160 
	369.033142,449.077423 381.102875,437.010071 390.758698,423.218842 398.000580,412.300781 
	404.035431,400.808075 414.294769,377.248016 430.588928,327.829407 450.504028,255.425354 
	458.952911,222.671143 463.780762,210.029175 472.229645,196.812561 480.074951,190.491577 
	489.127289,185.894485 499.990082,183.595947 510.249420,183.021317 "
	style="stroke-width:6.479680; stroke-linecap:round; stroke-linejoin:round; stroke-dasharray:none; stroke:black" />
<polyline points="90.825005,232.439926 
	89.618019,233.589218 89.014526,239.910202 85.393608,246.231186 72.720360,262.895630 
	63.668018,276.112213 56.426170,289.903473 48.580814,318.635254 46.770355,337.598206 
	47.977322,354.837250 54.012218,387.016815 60.047096,405.979797 69.099419,425.517395 
	80.565697,443.905701 86.600578,451.950592 93.238960,458.846222 104.705238,468.040375 
	116.774994,474.936005 128.844772,480.682343 142.121506,485.279480 163.847092,491.025818 
	185.572662,493.324310 208.505219,493.898956 230.834305,492.749695 255.577332,489.876526 
	279.113373,484.704834 302.045929,477.809174 322.564545,467.465759 337.651733,458.271576 
	352.135468,446.778900 364.808685,434.711548 374.464508,423.793488 385.327332,410.002228 
	394.379639,394.487061 401.621490,378.397308 407.656372,361.158234 417.915680,327.829407 
	426.364532,296.224457 437.227325,251.402924 451.711060,201.984283 455.331970,192.215469 
	463.177307,176.700333 480.678497,156.588104 492.144745,147.393936 503.611053,141.072952 "
	style="stroke-width:6.479680; stroke-linecap:round; stroke-linejoin:round; stroke-dasharray:none; stroke:black" />
<polyline points="481.885468,179.573502 
	516.887817,171.528610 "
	style="stroke-width:4.123433; stroke-linecap:round; stroke-linejoin:round; stroke-dasharray:none; stroke:black" />
<polyline points="481.281982,173.827164 
	496.369141,165.782272 504.818024,162.909088 513.266785,161.185181 "
	style="stroke-width:4.123433; stroke-linecap:round; stroke-linejoin:round; stroke-dasharray:none; stroke:black" />
<polyline points="476.454041,171.528610 
	492.144745,159.461273 500.593628,154.289566 509.645874,150.841736 "
	style="stroke-width:4.123433; stroke-linecap:round; stroke-linejoin:round; stroke-dasharray:none; stroke:black" />
<polygon points="331.616852,260.597076 
	324.375000,232.439926 311.701721,235.313110 318.943573,263.470245 "
	style="fill-opacity:1.0; fill-rule:evenodd; fill:black; stroke:none" />
</svg>
