<?xml version="1.0" standalone="no"?>
<!DOCTYPE svg PUBLIC "-//W3C//DTD SVG 20001102//EN"
"http://www.w3.org/TR/2000/CR-SVG-20001102/DTD/svg-20001102.dtd">
<svg width="598" height="512"
	xmlns:sodipodi="http://sodipodi.sourceforge.net/DTD/sodipodi-0.dtd">
<desc>wmf2svg</desc>
<polygon points="354.349792,398.031311 
	503.988831,170.666656 496.757233,165.512299 347.118164,392.876953 "
	style="fill-opacity:1.0; fill-rule:evenodd; fill:black; stroke:none" />
<polygon points="504.545105,169.521240 
	508.995361,155.776276 500.651184,152.912750 496.200958,166.657700 496.757233,165.512299 
	503.988831,170.666656 "
	style="fill-opacity:1.0; fill-rule:evenodd; fill:black; stroke:none" />
<polygon points="508.439117,156.348984 
	513.445557,144.322144 505.657715,140.885895 500.651184,152.912750 500.651184,152.912750 
	508.995361,155.776276 "
	style="fill-opacity:1.0; fill-rule:evenodd; fill:black; stroke:none" />
<polygon points="513.445557,144.322144 
	519.564636,132.868011 512.333069,128.859055 506.213959,140.313187 505.657715,140.885895 
	513.445557,144.322144 "
	style="fill-opacity:1.0; fill-rule:evenodd; fill:black; stroke:none" />
<polygon points="519.564636,132.868011 
	524.571167,128.859055 517.895813,121.986572 512.333069,128.859055 "
	style="fill-opacity:1.0; fill-rule:evenodd; fill:black; stroke:none" />
<polygon points="524.571167,128.859055 
	529.021423,124.850113 524.014893,117.977631 517.895813,121.986572 "
	style="fill-opacity:1.0; fill-rule:evenodd; fill:black; stroke:none" />
<polygon points="529.021423,124.850113 
	540.703247,116.832207 535.696777,109.387024 524.014893,117.404915 524.014893,117.977631 
	529.021423,124.850113 "
	style="fill-opacity:1.0; fill-rule:evenodd; fill:black; stroke:none" />
<polygon points="502.876312,173.530197 
	517.339600,162.076050 512.333069,155.203583 497.869781,166.657700 "
	style="fill-opacity:1.0; fill-rule:evenodd; fill:black; stroke:none" />
<ellipse cx="500.929337" cy="170.380310" rx="4.172104" ry="4.295303" 
	style="fill-opacity:1.0; fill-rule:evenodd; fill:black; stroke:none" />
<polygon points="517.339600,162.076050 
	524.014893,156.348984 518.452087,149.476501 511.776764,155.203583 512.333069,155.203583 
	517.339600,162.076050 "
	style="fill-opacity:1.0; fill-rule:evenodd; fill:black; stroke:none" />
<polygon points="524.014893,156.348984 
	529.021423,148.903793 522.346069,143.749435 518.452087,149.476501 "
	style="fill-opacity:1.0; fill-rule:evenodd; fill:black; stroke:none" />
<polygon points="529.021423,148.903793 
	531.802795,143.749435 525.127441,139.740494 522.346069,143.749435 "
	style="fill-opacity:1.0; fill-rule:evenodd; fill:black; stroke:none" />
<polygon points="531.802795,143.749435 
	534.584167,139.167786 527.352600,135.731537 525.127441,139.740494 "
	style="fill-opacity:1.0; fill-rule:evenodd; fill:black; stroke:none" />
<polygon points="534.584167,138.595062 
	537.365601,130.004471 529.577698,127.713638 526.796326,136.304245 527.352600,135.731537 
	534.584167,139.167786 "
	style="fill-opacity:1.0; fill-rule:evenodd; fill:black; stroke:none" />
<polygon points="537.365601,130.004471 
	541.815857,114.541374 534.027893,112.250549 529.577698,127.713638 529.577698,127.713638 
	537.365601,130.004471 "
	style="fill-opacity:1.0; fill-rule:evenodd; fill:black; stroke:none" />
<ellipse cx="538.200012" cy="113.682327" rx="4.172119" ry="4.295303" 
	style="fill-opacity:1.0; fill-rule:evenodd; fill:black; stroke:none" />
<polygon points="522.902344,145.467560 
	503.988831,167.803131 508.995361,171.812073 527.908875,149.476501 "
	style="fill-opacity:1.0; fill-rule:evenodd; fill:black; stroke:none" />
<ellipse cx="525.961884" cy="148.044724" rx="3.059540" ry="3.149887" 
	style="fill-opacity:1.0; fill-rule:evenodd; fill:black; stroke:none" />
<polygon points="503.988831,167.803131 
	495.644684,176.966446 500.094910,181.548080 508.439117,172.384781 508.995361,171.812073 
	503.988831,167.803131 "
	style="fill-opacity:1.0; fill-rule:evenodd; fill:black; stroke:none" />
<polygon points="495.644684,176.966446 
	483.406494,193.002228 488.413025,197.011169 500.651184,180.975388 500.094910,181.548080 
	495.644684,176.966446 "
	style="fill-opacity:1.0; fill-rule:evenodd; fill:black; stroke:none" />
<ellipse cx="486.466064" cy="195.579414" rx="3.059570" ry="3.149895" 
	style="fill-opacity:1.0; fill-rule:evenodd; fill:black; stroke:none" />
<polygon points="508.439117,135.731537 
	494.532104,161.503357 500.094910,164.366882 514.001892,138.595062 "
	style="fill-opacity:1.0; fill-rule:evenodd; fill:black; stroke:none" />
<ellipse cx="511.498642" cy="137.736008" rx="3.059525" ry="3.149887" 
	style="fill-opacity:1.0; fill-rule:evenodd; fill:black; stroke:none" />
<polygon points="494.532104,161.503357 
	487.856750,173.530197 493.419556,176.393738 500.094910,164.366882 500.094910,164.366882 
	494.532104,161.503357 "
	style="fill-opacity:1.0; fill-rule:evenodd; fill:black; stroke:none" />
<polygon points="487.856750,173.530197 
	477.843750,193.574936 483.406494,196.438477 493.419556,176.393738 493.419556,176.393738 
	487.856750,173.530197 "
	style="fill-opacity:1.0; fill-rule:evenodd; fill:black; stroke:none" />
<ellipse cx="480.903290" cy="195.579414" rx="3.059540" ry="3.149895" 
	style="fill-opacity:1.0; fill-rule:evenodd; fill:black; stroke:none" />
<polygon points="481.737701,186.702454 
	319.860474,433.539124 328.760956,439.838898 490.638153,193.002228 "
	style="fill-opacity:1.0; fill-rule:evenodd; fill:black; stroke:none" />
<ellipse cx="486.466064" cy="190.425049" rx="5.840912" ry="6.013428" 
	style="fill-opacity:1.0; fill-rule:evenodd; fill:black; stroke:none" />
<ellipse cx="324.588852" cy="437.261719" rx="5.840927" ry="6.013428" 
	style="fill-opacity:1.0; fill-rule:evenodd; fill:black; stroke:none" />
<polyline points="320.973053,435.829956 
	310.403748,455.301971 328.760956,436.975372 "
	style="stroke-width:7.338408; stroke-linecap:round; stroke-linejoin:round; stroke-dasharray:none; stroke:black" />
<polygon points="524.014893,139.167786 
	535.696777,146.612976 539.034424,141.458603 527.352600,134.013412 "
	style="fill-opacity:1.0; fill-rule:evenodd; fill:white; stroke:none" />
<ellipse cx="525.961884" cy="137.163300" rx="3.059540" ry="3.149887" 
	style="fill-opacity:1.0; fill-rule:evenodd; fill:white; stroke:none" />
<ellipse cx="537.643707" cy="144.608490" rx="3.059540" ry="3.149887" 
	style="fill-opacity:1.0; fill-rule:evenodd; fill:white; stroke:none" />
<polygon points="2.781396,318.997742 
	3.893955,313.270660 8.344190,310.407166 13.350699,310.979858 15.575816,313.270660 
	16.132092,316.134216 20.582327,351.069336 20.026051,356.796387 15.575816,360.232666 
	11.125583,359.659943 8.900465,357.369110 7.787907,353.360168 2.781396,318.997742 "
	style="fill:none; stroke-width:5.644930; stroke-linecap:round; stroke-linejoin:round; stroke-dasharray:none; stroke:black" />
<polyline points="2.781396,318.997742 
	3.893955,313.270660 8.344190,310.407166 13.350699,310.979858 15.575816,313.270660 
	16.132092,316.134216 20.582327,351.069336 20.026051,356.796387 15.575816,360.232666 
	11.125583,359.659943 8.900465,357.369110 7.787907,353.360168 2.781396,318.997742 "
	style="stroke-width:5.644930; stroke-linecap:round; stroke-linejoin:round; stroke-dasharray:none; stroke:black" />
<polygon points="15.575816,265.736023 
	16.688375,261.154358 21.138609,258.863495 25.588837,259.436249 27.257679,261.154358 
	27.813953,263.445160 35.045582,315.561523 33.933022,321.288574 29.482796,323.579407 
	25.032560,323.006714 22.251167,317.279633 15.575816,265.736023 "
	style="fill:none; stroke-width:5.644930; stroke-linecap:round; stroke-linejoin:round; stroke-dasharray:none; stroke:black" />
<polyline points="15.575816,265.736023 
	16.688375,261.154358 21.138609,258.863495 25.588837,259.436249 27.257679,261.154358 
	27.813953,263.445160 35.045582,315.561523 33.933022,321.288574 29.482796,323.579407 
	25.032560,323.006714 22.251167,317.279633 15.575816,265.736023 "
	style="stroke-width:5.644930; stroke-linecap:round; stroke-linejoin:round; stroke-dasharray:none; stroke:black" />
<polygon points="27.813953,337.897064 
	28.926512,333.315399 33.376747,331.024597 37.826981,331.597290 40.052097,335.606262 
	50.621403,400.894836 50.065117,408.912720 45.614883,411.776276 41.164658,409.485443 
	37.826981,403.185669 27.813953,337.897064 "
	style="fill:none; stroke-width:5.644930; stroke-linecap:round; stroke-linejoin:round; stroke-dasharray:none; stroke:black" />
<polyline points="27.813953,337.897064 
	28.926512,333.315399 33.376747,331.024597 37.826981,331.597290 40.052097,335.606262 
	50.621403,400.894836 50.065117,408.912720 45.614883,411.776276 41.164658,409.485443 
	37.826981,403.185669 27.813953,337.897064 "
	style="stroke-width:5.644930; stroke-linecap:round; stroke-linejoin:round; stroke-dasharray:none; stroke:black" />
<polygon points="6.675348,377.986572 
	7.231631,372.259491 10.569306,368.250549 15.575816,368.250549 18.913492,373.404907 
	28.370237,407.194611 28.370237,413.494385 26.701395,415.785217 24.476278,416.930634 
	20.026051,416.357941 17.800934,414.639771 15.575816,410.630859 6.675348,377.986572 "
	style="fill:none; stroke-width:5.644930; stroke-linecap:round; stroke-linejoin:round; stroke-dasharray:none; stroke:black" />
<polyline points="6.675348,377.986572 
	7.231631,372.259491 10.569306,368.250549 15.575816,368.250549 18.913492,373.404907 
	28.370237,407.194611 28.370237,413.494385 26.701395,415.785217 24.476278,416.930634 
	20.026051,416.357941 17.800934,414.639771 15.575816,410.630859 6.675348,377.986572 "
	style="stroke-width:5.644930; stroke-linecap:round; stroke-linejoin:round; stroke-dasharray:none; stroke:black" />
<polygon points="28.370237,248.554810 
	28.926512,242.827728 32.264187,238.818787 37.270699,238.818787 40.608376,243.973145 
	50.065117,277.762848 50.065117,284.062622 48.396282,286.353455 46.171165,287.498871 
	41.720932,286.926147 39.495815,285.208038 37.270699,281.199097 28.370237,248.554810 "
	style="fill:none; stroke-width:5.644930; stroke-linecap:round; stroke-linejoin:round; stroke-dasharray:none; stroke:black" />
<polyline points="28.370237,248.554810 
	28.926512,242.827728 32.264187,238.818787 37.270699,238.818787 40.608376,243.973145 
	50.065117,277.762848 50.065117,284.062622 48.396282,286.353455 46.171165,287.498871 
	41.720932,286.926147 39.495815,285.208038 37.270699,281.199097 28.370237,248.554810 "
	style="stroke-width:5.644930; stroke-linecap:round; stroke-linejoin:round; stroke-dasharray:none; stroke:black" />
<polygon points="45.058609,298.380310 
	46.171165,293.798645 50.621403,291.507812 55.071629,292.080536 56.740471,293.798645 
	57.296745,296.089447 64.528374,348.205811 63.415813,353.932861 58.965588,356.223694 
	54.515354,355.651001 51.733959,349.923920 45.058609,298.380310 "
	style="fill:none; stroke-width:5.644930; stroke-linecap:round; stroke-linejoin:round; stroke-dasharray:none; stroke:black" />
<polyline points="45.058609,298.380310 
	46.171165,293.798645 50.621403,291.507812 55.071629,292.080536 56.740471,293.798645 
	57.296745,296.089447 64.528374,348.205811 63.415813,353.932861 58.965588,356.223694 
	54.515354,355.651001 51.733959,349.923920 45.058609,298.380310 "
	style="stroke-width:5.644930; stroke-linecap:round; stroke-linejoin:round; stroke-dasharray:none; stroke:black" />
<polygon points="50.065117,223.928406 
	51.177677,219.346741 55.627911,217.055939 60.078144,217.628632 62.303265,221.637558 
	72.872566,286.926147 72.316284,294.944061 67.866051,297.807587 63.415813,295.516754 
	60.078144,289.216980 50.065117,223.928406 "
	style="fill:none; stroke-width:5.644930; stroke-linecap:round; stroke-linejoin:round; stroke-dasharray:none; stroke:black" />
<polyline points="50.065117,223.928406 
	51.177677,219.346741 55.627911,217.055939 60.078144,217.628632 62.303265,221.637558 
	72.872566,286.926147 72.316284,294.944061 67.866051,297.807587 63.415813,295.516754 
	60.078144,289.216980 50.065117,223.928406 "
	style="stroke-width:5.644930; stroke-linecap:round; stroke-linejoin:round; stroke-dasharray:none; stroke:black" />
<polygon points="53.402794,372.259491 
	55.071629,366.532440 59.521862,363.668884 63.972095,364.814270 66.753487,370.541351 
	68.978615,405.476501 68.978615,408.912720 67.309776,411.203552 62.859539,414.067078 
	58.409306,412.921661 56.740471,410.630859 55.627911,406.621887 53.402794,372.259491 "
	style="fill:none; stroke-width:5.644930; stroke-linecap:round; stroke-linejoin:round; stroke-dasharray:none; stroke:black" />
<polyline points="53.402794,372.259491 
	55.071629,366.532440 59.521862,363.668884 63.972095,364.814270 66.753487,370.541351 
	68.978615,405.476501 68.978615,408.912720 67.309776,411.203552 62.859539,414.067078 
	58.409306,412.921661 56.740471,410.630859 55.627911,406.621887 53.402794,372.259491 "
	style="stroke-width:5.644930; stroke-linecap:round; stroke-linejoin:round; stroke-dasharray:none; stroke:black" />
<polygon points="26.701395,428.957489 
	26.701395,424.375824 30.039070,420.939575 34.489304,419.794159 36.714424,420.939575 
	38.383255,423.230408 67.309776,481.646515 68.978615,489.664368 68.422333,492.527924 
	66.197212,493.673370 61.190704,493.100616 56.184185,487.946289 26.701395,428.957489 "
	style="fill:none; stroke-width:5.644930; stroke-linecap:round; stroke-linejoin:round; stroke-dasharray:none; stroke:black" />
<polyline points="26.701395,428.957489 
	26.701395,424.375824 30.039070,420.939575 34.489304,419.794159 36.714424,420.939575 
	38.383255,423.230408 67.309776,481.646515 68.978615,489.664368 68.422333,492.527924 
	66.197212,493.673370 61.190704,493.100616 56.184185,487.946289 26.701395,428.957489 "
	style="stroke-width:5.644930; stroke-linecap:round; stroke-linejoin:round; stroke-dasharray:none; stroke:black" />
<polygon points="75.653954,216.483200 
	77.322800,210.756134 81.773033,207.892624 86.223251,209.038010 89.004654,214.765091 
	91.229774,249.700226 91.229774,253.136459 89.560936,255.427277 85.110703,258.290802 
	80.660469,257.145386 78.991631,254.854584 77.879066,250.845612 75.653954,216.483200 "
	style="fill:none; stroke-width:5.644930; stroke-linecap:round; stroke-linejoin:round; stroke-dasharray:none; stroke:black" />
<polyline points="75.653954,216.483200 
	77.322800,210.756134 81.773033,207.892624 86.223251,209.038010 89.004654,214.765091 
	91.229774,249.700226 91.229774,253.136459 89.560936,255.427277 85.110703,258.290802 
	80.660469,257.145386 78.991631,254.854584 77.879066,250.845612 75.653954,216.483200 "
	style="stroke-width:5.644930; stroke-linecap:round; stroke-linejoin:round; stroke-dasharray:none; stroke:black" />
<polygon points="50.621403,429.530182 
	51.177677,423.803101 54.515354,419.794159 59.521862,419.794159 62.859539,424.948517 
	72.316284,458.738190 72.316284,465.037964 70.647446,467.328827 68.422333,468.474274 
	63.972095,467.901520 61.746979,466.183441 59.521862,462.174500 50.621403,429.530182 "
	style="fill:none; stroke-width:5.644930; stroke-linecap:round; stroke-linejoin:round; stroke-dasharray:none; stroke:black" />
<polyline points="50.621403,429.530182 
	51.177677,423.803101 54.515354,419.794159 59.521862,419.794159 62.859539,424.948517 
	72.316284,458.738190 72.316284,465.037964 70.647446,467.328827 68.422333,468.474274 
	63.972095,467.901520 61.746979,466.183441 59.521862,462.174500 50.621403,429.530182 "
	style="stroke-width:5.644930; stroke-linecap:round; stroke-linejoin:round; stroke-dasharray:none; stroke:black" />
<polygon points="82.885582,271.463043 
	84.554420,267.454132 89.004654,265.163269 93.454887,266.308716 95.123726,268.026825 
	95.680008,270.317657 101.242790,335.606262 100.130241,343.624146 97.905121,345.914948 
	95.680008,346.487671 91.229774,344.196838 88.448372,337.324371 82.885582,271.463043 "
	style="fill:none; stroke-width:5.644930; stroke-linecap:round; stroke-linejoin:round; stroke-dasharray:none; stroke:black" />
<polyline points="82.885582,271.463043 
	84.554420,267.454132 89.004654,265.163269 93.454887,266.308716 95.123726,268.026825 
	95.680008,270.317657 101.242790,335.606262 100.130241,343.624146 97.905121,345.914948 
	95.680008,346.487671 91.229774,344.196838 88.448372,337.324371 82.885582,271.463043 "
	style="stroke-width:5.644930; stroke-linecap:round; stroke-linejoin:round; stroke-dasharray:none; stroke:black" />
<polygon points="67.309776,308.688995 
	68.978615,302.961975 73.428833,300.098419 77.879066,301.243835 80.660469,306.970886 
	82.885582,341.906036 82.885582,345.342255 81.216751,347.633087 76.766518,350.496613 
	72.316284,349.351227 70.647446,347.060394 69.534882,343.051422 67.309776,308.688995 "
	style="fill:none; stroke-width:5.644930; stroke-linecap:round; stroke-linejoin:round; stroke-dasharray:none; stroke:black" />
<polyline points="67.309776,308.688995 
	68.978615,302.961975 73.428833,300.098419 77.879066,301.243835 80.660469,306.970886 
	82.885582,341.906036 82.885582,345.342255 81.216751,347.633087 76.766518,350.496613 
	72.316284,349.351227 70.647446,347.060394 69.534882,343.051422 67.309776,308.688995 "
	style="stroke-width:5.644930; stroke-linecap:round; stroke-linejoin:round; stroke-dasharray:none; stroke:black" />
<polygon points="71.203728,361.950775 
	72.316284,357.369110 76.766518,355.078278 81.216751,355.651001 82.885582,357.369110 
	83.441872,359.659943 90.673485,411.776276 89.560936,417.503326 85.110703,419.794159 
	80.660469,419.221436 77.879066,413.494385 71.203728,361.950775 "
	style="fill:none; stroke-width:5.644930; stroke-linecap:round; stroke-linejoin:round; stroke-dasharray:none; stroke:black" />
<polyline points="71.203728,361.950775 
	72.316284,357.369110 76.766518,355.078278 81.216751,355.651001 82.885582,357.369110 
	83.441872,359.659943 90.673485,411.776276 89.560936,417.503326 85.110703,419.794159 
	80.660469,419.221436 77.879066,413.494385 71.203728,361.950775 "
	style="stroke-width:5.644930; stroke-linecap:round; stroke-linejoin:round; stroke-dasharray:none; stroke:black" />
<polygon points="101.242790,216.483200 
	102.355354,214.765091 104.024193,213.046967 107.918144,211.328857 112.368378,212.474274 
	114.037209,214.765091 114.037209,217.055939 111.812096,282.917206 111.255829,288.071564 
	109.586975,290.935120 107.918144,292.653229 105.693024,292.653229 101.242790,289.789673 
	99.017677,282.917206 101.242790,216.483200 "
	style="fill:none; stroke-width:5.644930; stroke-linecap:round; stroke-linejoin:round; stroke-dasharray:none; stroke:black" />
<polyline points="101.242790,216.483200 
	102.355354,214.765091 104.024193,213.046967 107.918144,211.328857 112.368378,212.474274 
	114.037209,214.765091 114.037209,217.055939 111.812096,282.917206 111.255829,288.071564 
	109.586975,290.935120 107.918144,292.653229 105.693024,292.653229 101.242790,289.789673 
	99.017677,282.917206 101.242790,216.483200 "
	style="stroke-width:5.644930; stroke-linecap:round; stroke-linejoin:round; stroke-dasharray:none; stroke:black" />
<polygon points="127.387917,224.501099 
	130.169312,221.064865 134.619537,219.919434 139.069763,221.637558 140.182327,226.219208 
	134.063263,278.335571 133.506989,281.199097 131.281860,283.489899 126.831635,284.635345 
	122.381393,282.917206 121.268845,276.617432 127.387917,224.501099 "
	style="fill:none; stroke-width:5.644930; stroke-linecap:round; stroke-linejoin:round; stroke-dasharray:none; stroke:black" />
<polyline points="127.387917,224.501099 
	130.169312,221.064865 134.619537,219.919434 139.069763,221.637558 140.182327,226.219208 
	134.063263,278.335571 133.506989,281.199097 131.281860,283.489899 126.831635,284.635345 
	122.381393,282.917206 121.268845,276.617432 127.387917,224.501099 "
	style="stroke-width:5.644930; stroke-linecap:round; stroke-linejoin:round; stroke-dasharray:none; stroke:black" />
<polygon points="147.970230,243.973145 
	149.082809,241.109604 151.307922,239.391495 156.314423,237.673370 160.764664,240.536911 
	161.320938,246.263962 153.533020,280.626373 152.976761,283.489899 150.751633,285.780762 
	145.745117,286.926147 143.520004,286.353455 141.851166,284.635345 140.738617,277.762848 
	147.970230,243.973145 "
	style="fill:none; stroke-width:5.644930; stroke-linecap:round; stroke-linejoin:round; stroke-dasharray:none; stroke:black" />
<polyline points="147.970230,243.973145 
	149.082809,241.109604 151.307922,239.391495 156.314423,237.673370 160.764664,240.536911 
	161.320938,246.263962 153.533020,280.626373 152.976761,283.489899 150.751633,285.780762 
	145.745117,286.926147 143.520004,286.353455 141.851166,284.635345 140.738617,277.762848 
	147.970230,243.973145 "
	style="stroke-width:5.644930; stroke-linecap:round; stroke-linejoin:round; stroke-dasharray:none; stroke:black" />
<polygon points="160.208374,272.608490 
	162.989777,268.599548 167.440002,267.454132 171.890244,269.744934 173.002792,274.326599 
	164.102325,339.615173 161.320938,347.060394 156.314423,348.778503 152.420471,345.342255 
	151.307922,338.469788 160.208374,272.608490 "
	style="fill:none; stroke-width:5.644930; stroke-linecap:round; stroke-linejoin:round; stroke-dasharray:none; stroke:black" />
<polyline points="160.208374,272.608490 
	162.989777,268.599548 167.440002,267.454132 171.890244,269.744934 173.002792,274.326599 
	164.102325,339.615173 161.320938,347.060394 156.314423,348.778503 152.420471,345.342255 
	151.307922,338.469788 160.208374,272.608490 "
	style="stroke-width:5.644930; stroke-linecap:round; stroke-linejoin:round; stroke-dasharray:none; stroke:black" />
<polygon points="106.249306,303.534668 
	107.918144,297.807587 112.368378,295.516754 117.374893,296.662201 119.600014,302.389221 
	120.156281,337.324371 119.600014,340.760620 117.931160,343.051422 113.480927,345.914948 
	109.030708,344.769562 106.805595,337.897064 106.249306,303.534668 "
	style="fill:none; stroke-width:5.644930; stroke-linecap:round; stroke-linejoin:round; stroke-dasharray:none; stroke:black" />
<polyline points="106.249306,303.534668 
	107.918144,297.807587 112.368378,295.516754 117.374893,296.662201 119.600014,302.389221 
	120.156281,337.324371 119.600014,340.760620 117.931160,343.051422 113.480927,345.914948 
	109.030708,344.769562 106.805595,337.897064 106.249306,303.534668 "
	style="stroke-width:5.644930; stroke-linecap:round; stroke-linejoin:round; stroke-dasharray:none; stroke:black" />
<polygon points="129.613037,298.953003 
	131.838150,294.944061 136.288376,293.225922 140.738617,294.371338 142.407455,296.662201 
	142.407455,298.953003 141.851166,351.069336 139.626053,356.796387 135.175812,359.087250 
	130.725586,357.369110 128.500473,351.069336 129.613037,298.953003 "
	style="fill:none; stroke-width:5.644930; stroke-linecap:round; stroke-linejoin:round; stroke-dasharray:none; stroke:black" />
<polyline points="129.613037,298.953003 
	131.838150,294.944061 136.288376,293.225922 140.738617,294.371338 142.407455,296.662201 
	142.407455,298.953003 141.851166,351.069336 139.626053,356.796387 135.175812,359.087250 
	130.725586,357.369110 128.500473,351.069336 129.613037,298.953003 "
	style="stroke-width:5.644930; stroke-linecap:round; stroke-linejoin:round; stroke-dasharray:none; stroke:black" />
<polygon points="90.673485,360.805359 
	92.342339,355.078278 96.792557,352.214722 101.242790,353.360168 104.024193,359.087250 
	106.249306,394.022339 106.249306,397.458588 104.580475,399.749420 100.130241,402.612946 
	95.680008,401.467529 94.011169,399.176727 92.898605,395.167755 90.673485,360.805359 "
	style="fill:none; stroke-width:5.644930; stroke-linecap:round; stroke-linejoin:round; stroke-dasharray:none; stroke:black" />
<polyline points="90.673485,360.805359 
	92.342339,355.078278 96.792557,352.214722 101.242790,353.360168 104.024193,359.087250 
	106.249306,394.022339 106.249306,397.458588 104.580475,399.749420 100.130241,402.612946 
	95.680008,401.467529 94.011169,399.176727 92.898605,395.167755 90.673485,360.805359 "
	style="stroke-width:5.644930; stroke-linecap:round; stroke-linejoin:round; stroke-dasharray:none; stroke:black" />
<polygon points="110.143257,358.514496 
	111.255829,356.796387 112.924660,355.078278 116.818611,353.360168 121.268845,354.505585 
	122.937683,356.796387 122.937683,359.087250 120.712563,424.948517 120.156281,430.102875 
	118.487442,432.966400 116.818611,434.684540 114.593498,434.684540 110.143257,431.821014 
	107.918144,424.948517 110.143257,358.514496 "
	style="fill:none; stroke-width:5.644930; stroke-linecap:round; stroke-linejoin:round; stroke-dasharray:none; stroke:black" />
<polyline points="110.143257,358.514496 
	111.255829,356.796387 112.924660,355.078278 116.818611,353.360168 121.268845,354.505585 
	122.937683,356.796387 122.937683,359.087250 120.712563,424.948517 120.156281,430.102875 
	118.487442,432.966400 116.818611,434.684540 114.593498,434.684540 110.143257,431.821014 
	107.918144,424.948517 110.143257,358.514496 "
	style="stroke-width:5.644930; stroke-linecap:round; stroke-linejoin:round; stroke-dasharray:none; stroke:black" />
<polygon points="174.671631,314.416077 
	175.784195,311.552551 178.009308,309.834442 183.015808,308.116302 187.466049,310.979858 
	188.022339,316.706940 180.234436,351.069336 179.678146,353.932861 177.453033,356.223694 
	172.446518,357.369110 170.221405,356.796387 168.552567,355.078278 167.440002,348.205811 
	174.671631,314.416077 "
	style="fill:none; stroke-width:5.644930; stroke-linecap:round; stroke-linejoin:round; stroke-dasharray:none; stroke:black" />
<polyline points="174.671631,314.416077 
	175.784195,311.552551 178.009308,309.834442 183.015808,308.116302 187.466049,310.979858 
	188.022339,316.706940 180.234436,351.069336 179.678146,353.932861 177.453033,356.223694 
	172.446518,357.369110 170.221405,356.796387 168.552567,355.078278 167.440002,348.205811 
	174.671631,314.416077 "
	style="stroke-width:5.644930; stroke-linecap:round; stroke-linejoin:round; stroke-dasharray:none; stroke:black" />
<polygon points="186.909775,350.496613 
	189.691162,347.060394 194.141418,345.914948 198.591644,347.633087 199.704193,352.214722 
	193.585114,404.331085 193.028854,407.194611 190.803726,409.485443 186.353500,410.630859 
	181.903259,408.912720 180.790710,402.612946 186.909775,350.496613 "
	style="fill:none; stroke-width:5.644930; stroke-linecap:round; stroke-linejoin:round; stroke-dasharray:none; stroke:black" />
<polyline points="186.909775,350.496613 
	189.691162,347.060394 194.141418,345.914948 198.591644,347.633087 199.704193,352.214722 
	193.585114,404.331085 193.028854,407.194611 190.803726,409.485443 186.353500,410.630859 
	181.903259,408.912720 180.790710,402.612946 186.909775,350.496613 "
	style="stroke-width:5.644930; stroke-linecap:round; stroke-linejoin:round; stroke-dasharray:none; stroke:black" />
<polygon points="157.426987,360.805359 
	158.539536,359.087250 160.208374,357.369110 164.102325,355.651001 168.552567,356.796387 
	170.221405,359.087250 170.221405,361.378052 167.996292,427.239349 167.440002,432.393707 
	165.771179,435.257263 164.102325,436.975372 161.877228,436.975372 157.426987,434.111847 
	155.201874,427.239349 157.426987,360.805359 "
	style="fill:none; stroke-width:5.644930; stroke-linecap:round; stroke-linejoin:round; stroke-dasharray:none; stroke:black" />
<polyline points="157.426987,360.805359 
	158.539536,359.087250 160.208374,357.369110 164.102325,355.651001 168.552567,356.796387 
	170.221405,359.087250 170.221405,361.378052 167.996292,427.239349 167.440002,432.393707 
	165.771179,435.257263 164.102325,436.975372 161.877228,436.975372 157.426987,434.111847 
	155.201874,427.239349 157.426987,360.805359 "
	style="stroke-width:5.644930; stroke-linecap:round; stroke-linejoin:round; stroke-dasharray:none; stroke:black" />
<polygon points="135.175812,372.832214 
	137.400940,367.105133 141.851166,364.814270 146.301407,366.532440 147.970230,368.823242 
	148.526520,372.259491 146.857681,407.767303 144.632568,413.494385 140.182327,415.212524 
	135.732101,414.067078 134.063263,407.194611 135.175812,372.832214 "
	style="fill:none; stroke-width:5.644930; stroke-linecap:round; stroke-linejoin:round; stroke-dasharray:none; stroke:black" />
<polyline points="135.175812,372.832214 
	137.400940,367.105133 141.851166,364.814270 146.301407,366.532440 147.970230,368.823242 
	148.526520,372.259491 146.857681,407.767303 144.632568,413.494385 140.182327,415.212524 
	135.732101,414.067078 134.063263,407.194611 135.175812,372.832214 "
	style="stroke-width:5.644930; stroke-linecap:round; stroke-linejoin:round; stroke-dasharray:none; stroke:black" />
<polygon points="107.918144,447.856812 
	110.143257,442.129730 114.593498,439.838898 119.043732,441.557037 120.712563,443.847839 
	121.268845,447.284088 119.600014,482.791901 117.374893,488.518982 112.924660,490.237152 
	108.474426,489.091675 106.805595,482.219208 107.918144,447.856812 "
	style="fill:none; stroke-width:5.644930; stroke-linecap:round; stroke-linejoin:round; stroke-dasharray:none; stroke:black" />
<polyline points="107.918144,447.856812 
	110.143257,442.129730 114.593498,439.838898 119.043732,441.557037 120.712563,443.847839 
	121.268845,447.284088 119.600014,482.791901 117.374893,488.518982 112.924660,490.237152 
	108.474426,489.091675 106.805595,482.219208 107.918144,447.856812 "
	style="stroke-width:5.644930; stroke-linecap:round; stroke-linejoin:round; stroke-dasharray:none; stroke:black" />
<polygon points="73.428833,430.102875 
	74.541397,425.521210 78.991631,423.230408 83.441872,423.803101 85.666985,427.812073 
	96.236290,493.100616 95.680008,501.118530 91.229774,503.982086 86.779533,501.691223 
	83.441872,495.391449 73.428833,430.102875 "
	style="fill:none; stroke-width:5.644930; stroke-linecap:round; stroke-linejoin:round; stroke-dasharray:none; stroke:black" />
<polyline points="73.428833,430.102875 
	74.541397,425.521210 78.991631,423.230408 83.441872,423.803101 85.666985,427.812073 
	96.236290,493.100616 95.680008,501.118530 91.229774,503.982086 86.779533,501.691223 
	83.441872,495.391449 73.428833,430.102875 "
	style="stroke-width:5.644930; stroke-linecap:round; stroke-linejoin:round; stroke-dasharray:none; stroke:black" />
<polygon points="90.673485,419.794159 
	92.342339,414.067078 96.792557,411.203552 101.242790,412.348969 104.024193,418.076050 
	106.249306,453.011200 106.249306,456.447418 104.580475,458.738190 100.130241,461.601746 
	95.680008,460.456360 94.011169,458.165497 92.898605,454.156586 90.673485,419.794159 "
	style="fill:none; stroke-width:5.644930; stroke-linecap:round; stroke-linejoin:round; stroke-dasharray:none; stroke:black" />
<polyline points="90.673485,419.794159 
	92.342339,414.067078 96.792557,411.203552 101.242790,412.348969 104.024193,418.076050 
	106.249306,453.011200 106.249306,456.447418 104.580475,458.738190 100.130241,461.601746 
	95.680008,460.456360 94.011169,458.165497 92.898605,454.156586 90.673485,419.794159 "
	style="stroke-width:5.644930; stroke-linecap:round; stroke-linejoin:round; stroke-dasharray:none; stroke:black" />
<polygon points="179.678146,420.939575 
	182.459549,416.930634 186.909775,415.785217 191.360016,418.076050 192.472549,422.657715 
	183.572098,487.946289 180.790710,495.391449 175.784195,497.109619 171.890244,493.673370 
	170.777679,486.800842 179.678146,420.939575 "
	style="fill:none; stroke-width:5.644930; stroke-linecap:round; stroke-linejoin:round; stroke-dasharray:none; stroke:black" />
<polyline points="179.678146,420.939575 
	182.459549,416.930634 186.909775,415.785217 191.360016,418.076050 192.472549,422.657715 
	183.572098,487.946289 180.790710,495.391449 175.784195,497.109619 171.890244,493.673370 
	170.777679,486.800842 179.678146,420.939575 "
	style="stroke-width:5.644930; stroke-linecap:round; stroke-linejoin:round; stroke-dasharray:none; stroke:black" />
<polygon points="129.056747,424.948517 
	130.169312,423.230408 131.838150,421.512299 135.732101,419.794159 140.182327,420.939575 
	141.851166,423.230408 141.851166,425.521210 139.626053,491.382538 139.069763,496.536926 
	137.400940,499.400391 135.732101,501.118530 133.506989,501.118530 129.056747,498.255005 
	126.831635,491.382538 129.056747,424.948517 "
	style="fill:none; stroke-width:5.644930; stroke-linecap:round; stroke-linejoin:round; stroke-dasharray:none; stroke:black" />
<polyline points="129.056747,424.948517 
	130.169312,423.230408 131.838150,421.512299 135.732101,419.794159 140.182327,420.939575 
	141.851166,423.230408 141.851166,425.521210 139.626053,491.382538 139.069763,496.536926 
	137.400940,499.400391 135.732101,501.118530 133.506989,501.118530 129.056747,498.255005 
	126.831635,491.382538 129.056747,424.948517 "
	style="stroke-width:5.644930; stroke-linecap:round; stroke-linejoin:round; stroke-dasharray:none; stroke:black" />
<polygon points="147.413956,449.002228 
	149.639069,444.993256 154.089310,443.275146 158.539536,444.420563 160.208374,446.711395 
	160.208374,449.002228 159.652100,501.118530 157.426987,506.845612 152.976761,509.136475 
	148.526520,507.418304 146.301407,501.118530 147.413956,449.002228 "
	style="fill:none; stroke-width:5.644930; stroke-linecap:round; stroke-linejoin:round; stroke-dasharray:none; stroke:black" />
<polyline points="147.413956,449.002228 
	149.639069,444.993256 154.089310,443.275146 158.539536,444.420563 160.208374,446.711395 
	160.208374,449.002228 159.652100,501.118530 157.426987,506.845612 152.976761,509.136475 
	148.526520,507.418304 146.301407,501.118530 147.413956,449.002228 "
	style="stroke-width:5.644930; stroke-linecap:round; stroke-linejoin:round; stroke-dasharray:none; stroke:black" />
<polygon points="197.479080,411.203552 
	199.704193,405.476501 204.154419,403.185669 208.604660,404.331085 210.273483,406.621887 
	210.829788,410.058167 210.829788,445.565948 208.604660,451.293030 204.154419,453.583893 
	199.704193,452.438446 197.479080,445.565948 197.479080,411.203552 "
	style="fill:none; stroke-width:5.644930; stroke-linecap:round; stroke-linejoin:round; stroke-dasharray:none; stroke:black" />
<polyline points="197.479080,411.203552 
	199.704193,405.476501 204.154419,403.185669 208.604660,404.331085 210.273483,406.621887 
	210.829788,410.058167 210.829788,445.565948 208.604660,451.293030 204.154419,453.583893 
	199.704193,452.438446 197.479080,445.565948 197.479080,411.203552 "
	style="stroke-width:5.644930; stroke-linecap:round; stroke-linejoin:round; stroke-dasharray:none; stroke:black" />
<polygon points="208.048386,366.532440 
	209.160950,361.950775 213.611160,359.659943 218.061386,360.232666 219.730255,361.950775 
	220.286530,364.241577 227.518158,416.357941 226.405594,422.084991 221.955353,424.375824 
	217.505127,423.803101 214.723724,418.076050 208.048386,366.532440 "
	style="fill:none; stroke-width:5.644930; stroke-linecap:round; stroke-linejoin:round; stroke-dasharray:none; stroke:black" />
<polyline points="208.048386,366.532440 
	209.160950,361.950775 213.611160,359.659943 218.061386,360.232666 219.730255,361.950775 
	220.286530,364.241577 227.518158,416.357941 226.405594,422.084991 221.955353,424.375824 
	217.505127,423.803101 214.723724,418.076050 208.048386,366.532440 "
	style="stroke-width:5.644930; stroke-linecap:round; stroke-linejoin:round; stroke-dasharray:none; stroke:black" />
<polygon points="219.730255,319.570435 
	221.399094,313.843384 225.849319,310.979858 230.299561,312.125275 233.080933,317.852325 
	235.306061,352.787476 235.306061,356.223694 233.637222,358.514496 229.186996,361.378052 
	224.736755,360.232666 223.067917,357.941803 221.955353,353.932861 219.730255,319.570435 "
	style="fill:none; stroke-width:5.644930; stroke-linecap:round; stroke-linejoin:round; stroke-dasharray:none; stroke:black" />
<polyline points="219.730255,319.570435 
	221.399094,313.843384 225.849319,310.979858 230.299561,312.125275 233.080933,317.852325 
	235.306061,352.787476 235.306061,356.223694 233.637222,358.514496 229.186996,361.378052 
	224.736755,360.232666 223.067917,357.941803 221.955353,353.932861 219.730255,319.570435 "
	style="stroke-width:5.644930; stroke-linecap:round; stroke-linejoin:round; stroke-dasharray:none; stroke:black" />
<polygon points="239.199997,271.463043 
	240.312561,269.744934 241.981400,268.026825 245.875366,266.308716 250.325592,267.454132 
	251.994431,269.744934 251.994431,272.035797 249.769302,337.897064 249.213028,343.051422 
	247.544205,345.914948 245.875366,347.633087 243.650238,347.633087 239.199997,344.769562 
	236.974899,337.897064 239.199997,271.463043 "
	style="fill:none; stroke-width:5.644930; stroke-linecap:round; stroke-linejoin:round; stroke-dasharray:none; stroke:black" />
<polyline points="239.199997,271.463043 
	240.312561,269.744934 241.981400,268.026825 245.875366,266.308716 250.325592,267.454132 
	251.994431,269.744934 251.994431,272.035797 249.769302,337.897064 249.213028,343.051422 
	247.544205,345.914948 245.875366,347.633087 243.650238,347.633087 239.199997,344.769562 
	236.974899,337.897064 239.199997,271.463043 "
	style="stroke-width:5.644930; stroke-linecap:round; stroke-linejoin:round; stroke-dasharray:none; stroke:black" />
<polygon points="261.451172,238.246063 
	264.232574,234.809830 268.682800,233.664413 273.133026,235.382523 274.245605,239.964188 
	268.126526,292.080536 267.570251,294.944061 265.345123,297.234894 260.894897,298.380310 
	256.444672,296.662201 255.332108,290.362427 261.451172,238.246063 "
	style="fill:none; stroke-width:5.644930; stroke-linecap:round; stroke-linejoin:round; stroke-dasharray:none; stroke:black" />
<polyline points="261.451172,238.246063 
	264.232574,234.809830 268.682800,233.664413 273.133026,235.382523 274.245605,239.964188 
	268.126526,292.080536 267.570251,294.944061 265.345123,297.234894 260.894897,298.380310 
	256.444672,296.662201 255.332108,290.362427 261.451172,238.246063 "
	style="stroke-width:5.644930; stroke-linecap:round; stroke-linejoin:round; stroke-dasharray:none; stroke:black" />
<polygon points="281.477203,231.373596 
	284.258606,226.219208 288.708832,223.928406 293.159088,226.219208 294.827911,228.510056 
	294.827911,231.946289 290.377686,267.454132 289.821411,270.317657 287.596283,272.608490 
	283.146057,274.326599 280.920929,274.326599 278.695831,272.608490 277.583282,265.736023 
	281.477203,231.373596 "
	style="fill:none; stroke-width:5.644930; stroke-linecap:round; stroke-linejoin:round; stroke-dasharray:none; stroke:black" />
<polyline points="281.477203,231.373596 
	284.258606,226.219208 288.708832,223.928406 293.159088,226.219208 294.827911,228.510056 
	294.827911,231.946289 290.377686,267.454132 289.821411,270.317657 287.596283,272.608490 
	283.146057,274.326599 280.920929,274.326599 278.695831,272.608490 277.583282,265.736023 
	281.477203,231.373596 "
	style="stroke-width:5.644930; stroke-linecap:round; stroke-linejoin:round; stroke-dasharray:none; stroke:black" />
<polygon points="397.739532,246.263962 
	402.189789,241.682297 406.640015,241.682297 408.865143,242.827728 410.533966,245.118576 
	409.977692,250.845612 395.514435,282.917206 393.845612,285.780762 391.620483,286.926147 
	386.057709,287.498871 382.720001,284.062622 383.276306,277.190125 397.739532,246.263962 "
	style="fill:none; stroke-width:5.644930; stroke-linecap:round; stroke-linejoin:round; stroke-dasharray:none; stroke:black" />
<polyline points="397.739532,246.263962 
	402.189789,241.682297 406.640015,241.682297 408.865143,242.827728 410.533966,245.118576 
	409.977692,250.845612 395.514435,282.917206 393.845612,285.780762 391.620483,286.926147 
	386.057709,287.498871 382.720001,284.062622 383.276306,277.190125 397.739532,246.263962 "
	style="stroke-width:5.644930; stroke-linecap:round; stroke-linejoin:round; stroke-dasharray:none; stroke:black" />
<polygon points="382.163727,230.228180 
	385.501404,227.364639 389.951630,227.364639 393.845612,230.228180 393.845612,235.382523 
	369.925598,296.089447 365.475372,302.961975 360.468872,302.961975 357.687469,298.953003 
	357.687469,291.507812 382.163727,230.228180 "
	style="fill:none; stroke-width:5.644930; stroke-linecap:round; stroke-linejoin:round; stroke-dasharray:none; stroke:black" />
<polyline points="382.163727,230.228180 
	385.501404,227.364639 389.951630,227.364639 393.845612,230.228180 393.845612,235.382523 
	369.925598,296.089447 365.475372,302.961975 360.468872,302.961975 357.687469,298.953003 
	357.687469,291.507812 382.163727,230.228180 "
	style="stroke-width:5.644930; stroke-linecap:round; stroke-linejoin:round; stroke-dasharray:none; stroke:black" />
<polygon points="303.728394,217.628632 
	306.509796,213.619659 310.960022,212.474274 315.410248,214.765091 316.522827,219.346741 
	307.622345,284.635345 304.840942,292.080536 299.834442,293.798645 295.940491,290.362427 
	294.827911,283.489899 303.728394,217.628632 "
	style="fill:none; stroke-width:5.644930; stroke-linecap:round; stroke-linejoin:round; stroke-dasharray:none; stroke:black" />
<polyline points="303.728394,217.628632 
	306.509796,213.619659 310.960022,212.474274 315.410248,214.765091 316.522827,219.346741 
	307.622345,284.635345 304.840942,292.080536 299.834442,293.798645 295.940491,290.362427 
	294.827911,283.489899 303.728394,217.628632 "
	style="stroke-width:5.644930; stroke-linecap:round; stroke-linejoin:round; stroke-dasharray:none; stroke:black" />
<polygon points="257.000946,309.261749 
	259.782349,305.252777 264.232574,304.107361 268.682800,306.398193 269.795380,310.979858 
	260.894897,376.268433 258.113495,383.713623 253.106995,385.431763 249.213028,381.995514 
	248.100464,375.123016 257.000946,309.261749 "
	style="fill:none; stroke-width:5.644930; stroke-linecap:round; stroke-linejoin:round; stroke-dasharray:none; stroke:black" />
<polyline points="257.000946,309.261749 
	259.782349,305.252777 264.232574,304.107361 268.682800,306.398193 269.795380,310.979858 
	260.894897,376.268433 258.113495,383.713623 253.106995,385.431763 249.213028,381.995514 
	248.100464,375.123016 257.000946,309.261749 "
	style="stroke-width:5.644930; stroke-linecap:round; stroke-linejoin:round; stroke-dasharray:none; stroke:black" />
<polygon points="275.358154,285.780762 
	278.139526,282.344482 282.589783,281.199097 287.040009,282.917206 288.152588,287.498871 
	282.033508,339.615173 281.477203,342.478729 279.252106,344.769562 274.801880,345.914948 
	270.351624,344.196838 269.239075,337.897064 275.358154,285.780762 "
	style="fill:none; stroke-width:5.644930; stroke-linecap:round; stroke-linejoin:round; stroke-dasharray:none; stroke:black" />
<polyline points="275.358154,285.780762 
	278.139526,282.344482 282.589783,281.199097 287.040009,282.917206 288.152588,287.498871 
	282.033508,339.615173 281.477203,342.478729 279.252106,344.769562 274.801880,345.914948 
	270.351624,344.196838 269.239075,337.897064 275.358154,285.780762 "
	style="stroke-width:5.644930; stroke-linecap:round; stroke-linejoin:round; stroke-dasharray:none; stroke:black" />
<polygon points="338.773956,221.064865 
	341.555359,217.628632 346.005585,217.055939 350.455841,219.346741 351.012085,223.928406 
	340.442780,274.899323 339.886536,277.762848 337.661407,279.480988 332.654877,280.626373 
	328.760956,278.335571 328.204651,272.035797 338.773956,221.064865 "
	style="fill:none; stroke-width:5.644930; stroke-linecap:round; stroke-linejoin:round; stroke-dasharray:none; stroke:black" />
<polyline points="338.773956,221.064865 
	341.555359,217.628632 346.005585,217.055939 350.455841,219.346741 351.012085,223.928406 
	340.442780,274.899323 339.886536,277.762848 337.661407,279.480988 332.654877,280.626373 
	328.760956,278.335571 328.204651,272.035797 338.773956,221.064865 "
	style="stroke-width:5.644930; stroke-linecap:round; stroke-linejoin:round; stroke-dasharray:none; stroke:black" />
<polygon points="226.961853,372.832214 
	228.630692,367.105133 233.080933,364.241577 237.531158,365.387024 240.312561,371.114075 
	242.537689,406.049194 242.537689,409.485443 240.868866,411.776276 236.418625,414.639771 
	231.968399,413.494385 230.299561,411.203552 229.186996,407.194611 226.961853,372.832214 "
	style="fill:none; stroke-width:5.644930; stroke-linecap:round; stroke-linejoin:round; stroke-dasharray:none; stroke:black" />
<polyline points="226.961853,372.832214 
	228.630692,367.105133 233.080933,364.241577 237.531158,365.387024 240.312561,371.114075 
	242.537689,406.049194 242.537689,409.485443 240.868866,411.776276 236.418625,414.639771 
	231.968399,413.494385 230.299561,411.203552 229.186996,407.194611 226.961853,372.832214 "
	style="stroke-width:5.644930; stroke-linecap:round; stroke-linejoin:round; stroke-dasharray:none; stroke:black" />
<polygon points="320.416748,218.774048 
	323.198151,213.619659 327.648376,211.328857 332.098633,213.619659 333.767456,215.910507 
	333.767456,219.346741 329.317230,254.854584 328.760956,257.718109 326.535828,260.008942 
	322.085602,261.727051 319.860474,261.727051 317.635345,260.008942 316.522827,253.136459 
	320.416748,218.774048 "
	style="fill:none; stroke-width:5.644930; stroke-linecap:round; stroke-linejoin:round; stroke-dasharray:none; stroke:black" />
<polyline points="320.416748,218.774048 
	323.198151,213.619659 327.648376,211.328857 332.098633,213.619659 333.767456,215.910507 
	333.767456,219.346741 329.317230,254.854584 328.760956,257.718109 326.535828,260.008942 
	322.085602,261.727051 319.860474,261.727051 317.635345,260.008942 316.522827,253.136459 
	320.416748,218.774048 "
	style="stroke-width:5.644930; stroke-linecap:round; stroke-linejoin:round; stroke-dasharray:none; stroke:black" />
<polygon points="358.800018,226.219208 
	359.912567,223.355713 362.137695,221.637558 367.144196,219.919434 371.038177,222.782974 
	371.594421,228.510056 363.806519,262.872467 360.468872,268.026825 355.462341,269.172241 
	353.237213,268.599548 351.568390,266.308716 350.455841,259.436249 358.800018,226.219208 "
	style="fill:none; stroke-width:5.644930; stroke-linecap:round; stroke-linejoin:round; stroke-dasharray:none; stroke:black" />
<polyline points="358.800018,226.219208 
	359.912567,223.355713 362.137695,221.637558 367.144196,219.919434 371.038177,222.782974 
	371.594421,228.510056 363.806519,262.872467 360.468872,268.026825 355.462341,269.172241 
	353.237213,268.599548 351.568390,266.308716 350.455841,259.436249 358.800018,226.219208 "
	style="stroke-width:5.644930; stroke-linecap:round; stroke-linejoin:round; stroke-dasharray:none; stroke:black" />
<polygon points="313.741425,272.035797 
	316.522827,268.599548 320.973053,268.026825 325.423248,270.317657 325.979553,274.899323 
	315.410248,325.870209 314.853943,328.733765 312.628845,330.451874 307.622345,331.597290 
	303.728394,329.306488 303.172119,323.006714 313.741425,272.035797 "
	style="fill:none; stroke-width:5.644930; stroke-linecap:round; stroke-linejoin:round; stroke-dasharray:none; stroke:black" />
<polyline points="313.741425,272.035797 
	316.522827,268.599548 320.973053,268.026825 325.423248,270.317657 325.979553,274.899323 
	315.410248,325.870209 314.853943,328.733765 312.628845,330.451874 307.622345,331.597290 
	303.728394,329.306488 303.172119,323.006714 313.741425,272.035797 "
	style="stroke-width:5.644930; stroke-linecap:round; stroke-linejoin:round; stroke-dasharray:none; stroke:black" />
<polygon points="290.377686,303.534668 
	293.159088,298.380310 297.609314,296.089447 302.059540,298.380310 303.728394,300.671112 
	303.728394,304.107361 299.278137,339.615173 298.721893,342.478729 296.496735,344.769562 
	292.046509,346.487671 289.821411,346.487671 287.596283,344.769562 286.483734,337.897064 
	290.377686,303.534668 "
	style="fill:none; stroke-width:5.644930; stroke-linecap:round; stroke-linejoin:round; stroke-dasharray:none; stroke:black" />
<polyline points="290.377686,303.534668 
	293.159088,298.380310 297.609314,296.089447 302.059540,298.380310 303.728394,300.671112 
	303.728394,304.107361 299.278137,339.615173 298.721893,342.478729 296.496735,344.769562 
	292.046509,346.487671 289.821411,346.487671 287.596283,344.769562 286.483734,337.897064 
	290.377686,303.534668 "
	style="stroke-width:5.644930; stroke-linecap:round; stroke-linejoin:round; stroke-dasharray:none; stroke:black" />
<polygon points="342.667938,276.617432 
	346.005585,273.753906 350.455841,273.753906 354.349792,276.617432 354.349792,281.771790 
	330.429779,342.478729 325.979553,349.351227 320.973053,349.351227 318.191650,345.342255 
	318.191650,337.897064 342.667938,276.617432 "
	style="fill:none; stroke-width:5.644930; stroke-linecap:round; stroke-linejoin:round; stroke-dasharray:none; stroke:black" />
<polyline points="342.667938,276.617432 
	346.005585,273.753906 350.455841,273.753906 354.349792,276.617432 354.349792,281.771790 
	330.429779,342.478729 325.979553,349.351227 320.973053,349.351227 318.191650,345.342255 
	318.191650,337.897064 342.667938,276.617432 "
	style="stroke-width:5.644930; stroke-linecap:round; stroke-linejoin:round; stroke-dasharray:none; stroke:black" />
<polygon points="349.899567,311.552551 
	354.349792,306.970886 358.800018,306.970886 361.025116,308.116302 362.693970,310.407166 
	362.137695,316.134216 347.674438,348.205811 346.005585,351.069336 343.780487,352.214722 
	338.217682,352.787476 334.880035,349.351227 335.436279,342.478729 349.899567,311.552551 "
	style="fill:none; stroke-width:5.644930; stroke-linecap:round; stroke-linejoin:round; stroke-dasharray:none; stroke:black" />
<polyline points="349.899567,311.552551 
	354.349792,306.970886 358.800018,306.970886 361.025116,308.116302 362.693970,310.407166 
	362.137695,316.134216 347.674438,348.205811 346.005585,351.069336 343.780487,352.214722 
	338.217682,352.787476 334.880035,349.351227 335.436279,342.478729 349.899567,311.552551 "
	style="stroke-width:5.644930; stroke-linecap:round; stroke-linejoin:round; stroke-dasharray:none; stroke:black" />
<polygon points="301.503265,341.333313 
	304.284637,337.324371 308.734894,336.178955 313.185120,338.469788 314.297699,343.051422 
	305.397217,408.339996 302.615814,415.785217 297.609314,417.503326 293.715332,414.067078 
	292.602814,407.194611 301.503265,341.333313 "
	style="fill:none; stroke-width:5.644930; stroke-linecap:round; stroke-linejoin:round; stroke-dasharray:none; stroke:black" />
<polyline points="301.503265,341.333313 
	304.284637,337.324371 308.734894,336.178955 313.185120,338.469788 314.297699,343.051422 
	305.397217,408.339996 302.615814,415.785217 297.609314,417.503326 293.715332,414.067078 
	292.602814,407.194611 301.503265,341.333313 "
	style="stroke-width:5.644930; stroke-linecap:round; stroke-linejoin:round; stroke-dasharray:none; stroke:black" />
<polygon points="376.044678,293.225922 
	379.382324,290.362427 383.832581,290.362427 387.726532,293.225922 387.726532,298.380310 
	363.806519,359.087250 359.356293,365.959717 354.349792,365.959717 351.568390,361.950775 
	351.568390,354.505585 376.044678,293.225922 "
	style="fill:none; stroke-width:5.644930; stroke-linecap:round; stroke-linejoin:round; stroke-dasharray:none; stroke:black" />
<polyline points="376.044678,293.225922 
	379.382324,290.362427 383.832581,290.362427 387.726532,293.225922 387.726532,298.380310 
	363.806519,359.087250 359.356293,365.959717 354.349792,365.959717 351.568390,361.950775 
	351.568390,354.505585 376.044678,293.225922 "
	style="stroke-width:5.644930; stroke-linecap:round; stroke-linejoin:round; stroke-dasharray:none; stroke:black" />
<polygon points="280.364685,357.369110 
	283.146057,353.932861 287.596283,352.787476 292.046509,354.505585 293.159088,359.087250 
	287.040009,411.203552 286.483734,414.067078 284.258606,416.357941 279.808380,417.503326 
	275.358154,415.785217 274.245605,409.485443 280.364685,357.369110 "
	style="fill:none; stroke-width:5.644930; stroke-linecap:round; stroke-linejoin:round; stroke-dasharray:none; stroke:black" />
<polyline points="280.364685,357.369110 
	283.146057,353.932861 287.596283,352.787476 292.046509,354.505585 293.159088,359.087250 
	287.040009,411.203552 286.483734,414.067078 284.258606,416.357941 279.808380,417.503326 
	275.358154,415.785217 274.245605,409.485443 280.364685,357.369110 "
	style="stroke-width:5.644930; stroke-linecap:round; stroke-linejoin:round; stroke-dasharray:none; stroke:black" />
<polygon points="265.345123,359.087250 
	268.126526,353.932861 272.576752,351.642029 277.026978,353.932861 278.695831,356.223694 
	278.695831,359.659943 274.245605,395.167755 273.689301,398.031311 271.464203,400.322113 
	267.013977,402.040222 264.788849,402.040222 262.563721,400.322113 261.451172,393.449646 
	265.345123,359.087250 "
	style="fill:none; stroke-width:5.644930; stroke-linecap:round; stroke-linejoin:round; stroke-dasharray:none; stroke:black" />
<polyline points="265.345123,359.087250 
	268.126526,353.932861 272.576752,351.642029 277.026978,353.932861 278.695831,356.223694 
	278.695831,359.659943 274.245605,395.167755 273.689301,398.031311 271.464203,400.322113 
	267.013977,402.040222 264.788849,402.040222 262.563721,400.322113 261.451172,393.449646 
	265.345123,359.087250 "
	style="stroke-width:5.644930; stroke-linecap:round; stroke-linejoin:round; stroke-dasharray:none; stroke:black" />
<polygon points="325.979553,362.523468 
	330.429779,357.941803 334.880035,357.941803 337.105133,359.087250 338.773956,361.378052 
	338.217682,367.105133 323.754425,399.176727 322.085602,402.040222 319.860474,403.185669 
	314.297699,403.758392 310.960022,400.322113 311.516296,393.449646 325.979553,362.523468 "
	style="fill:none; stroke-width:5.644930; stroke-linecap:round; stroke-linejoin:round; stroke-dasharray:none; stroke:black" />
<polyline points="325.979553,362.523468 
	330.429779,357.941803 334.880035,357.941803 337.105133,359.087250 338.773956,361.378052 
	338.217682,367.105133 323.754425,399.176727 322.085602,402.040222 319.860474,403.185669 
	314.297699,403.758392 310.960022,400.322113 311.516296,393.449646 325.979553,362.523468 "
	style="stroke-width:5.644930; stroke-linecap:round; stroke-linejoin:round; stroke-dasharray:none; stroke:black" />
<polygon points="423.884674,273.753906 
	351.568390,381.995514 362.693970,390.013397 435.010254,281.771790 "
	style="fill-opacity:1.0; fill-rule:evenodd; fill:white; stroke:none" />
<polygon points="412.759094,260.581665 
	416.653046,258.290802 421.103271,258.863495 424.997223,261.727051 424.440948,266.881439 
	394.401886,325.297516 392.176758,329.306488 389.395386,331.024597 384.388824,331.024597 
	381.607483,325.870209 382.720001,318.997742 412.759094,260.581665 "
	style="fill:none; stroke-width:5.644930; stroke-linecap:round; stroke-linejoin:round; stroke-dasharray:none; stroke:black" />
<polyline points="412.759094,260.581665 
	416.653046,258.290802 421.103271,258.863495 424.997223,261.727051 424.440948,266.881439 
	394.401886,325.297516 392.176758,329.306488 389.395386,331.024597 384.388824,331.024597 
	381.607483,325.870209 382.720001,318.997742 412.759094,260.581665 "
	style="stroke-width:5.644930; stroke-linecap:round; stroke-linejoin:round; stroke-dasharray:none; stroke:black" />
<polyline points="403.302338,314.416077 
	410.533966,344.769562 414.427917,351.069336 421.103271,356.796387 430.560028,361.950775 
	441.685608,365.387024 454.480011,367.677826 468.943298,366.532440 483.962830,362.523468 
	498.982361,355.078278 512.333069,345.914948 526.240051,335.033539 539.590698,321.861298 
	552.941406,306.970886 565.735840,290.935120 576.305115,274.326599 585.205566,256.572693 
	591.880920,238.818787 594.662354,222.782974 592.993530,207.892624 587.987000,193.574936 
	579.642822,180.402679 570.186035,168.375839 559.060486,157.494400 536.253052,137.449661 
	520.677246,126.568230 506.213959,118.550323 491.194427,108.814316 472.837219,93.923935 
	460.599091,80.178963 454.480011,71.015656 450.029755,61.279644 442.798157,35.507832 
	437.235352,8.590603 "
	style="stroke-width:6.773916; stroke-linecap:round; stroke-linejoin:round; stroke-dasharray:none; stroke:black" />
<polyline points="404.971191,312.697968 
	409.421417,309.834442 412.759094,310.407166 415.540466,312.125275 417.765625,317.279633 
	419.990723,332.742706 425.553528,343.051422 431.672577,348.205811 437.791656,351.642029 
	451.698608,354.505585 472.280975,352.787476 483.406494,349.923920 492.863312,344.769562 
	506.770233,333.888123 527.352600,316.134216 549.047424,293.225922 558.504211,281.771790 
	566.292114,269.744934 580.199036,246.836685 581.867920,237.673370 585.205566,221.064865 
	585.205566,211.901550 582.424194,204.456345 571.854919,187.847870 565.735840,179.257248 
	558.504211,171.812073 530.133972,145.467560 509.551636,130.004471 483.962830,116.832207 
	476.731171,112.250549 464.493042,100.796425 450.586090,83.042503 436.122803,58.416103 
	432.228851,50.970913 424.440948,42.953022 414.984222,37.225952 402.189789,34.935123 "
	style="stroke-width:6.773916; stroke-linecap:round; stroke-linejoin:round; stroke-dasharray:none; stroke:black" />
<polyline points="433.341431,41.807610 
	426.666046,34.362419 418.321869,28.635347 409.421417,25.199106 400.520935,24.053692 "
	style="stroke-width:6.773916; stroke-linecap:round; stroke-linejoin:round; stroke-dasharray:none; stroke:black" />
<polyline points="436.122803,37.225952 
	430.003754,20.617449 427.222351,3.436243 "
	style="stroke-width:6.773916; stroke-linecap:round; stroke-linejoin:round; stroke-dasharray:none; stroke:black" />
<polyline points="438.347961,47.534672 
	433.341431,36.653240 426.109772,25.771809 410.533966,7.445192 "
	style="stroke-width:6.773916; stroke-linecap:round; stroke-linejoin:round; stroke-dasharray:none; stroke:black" />
<polygon points="421.103271,274.899323 
	421.659546,289.216980 427.778625,289.216980 427.222351,274.899323 "
	style="fill-opacity:1.0; fill-rule:evenodd; fill:black; stroke:none" />
<ellipse cx="424.719086" cy="275.185684" rx="3.059540" ry="3.149887" 
	style="fill-opacity:1.0; fill-rule:evenodd; fill:black; stroke:none" />
<polygon points="421.659546,289.216980 
	420.546997,304.680084 426.666046,304.680084 427.778625,289.216980 427.778625,289.216980 
	421.659546,289.216980 "
	style="fill-opacity:1.0; fill-rule:evenodd; fill:black; stroke:none" />
<polygon points="420.546997,304.107361 
	420.546997,306.970886 426.666046,307.543610 426.666046,304.680084 426.666046,304.680084 
	420.546997,304.680084 "
	style="fill-opacity:1.0; fill-rule:evenodd; fill:black; stroke:none" />
<ellipse cx="424.162811" cy="307.829971" rx="3.059540" ry="3.149887" 
	style="fill-opacity:1.0; fill-rule:evenodd; fill:black; stroke:none" />
<polygon points="416.096741,338.469788 
	413.315369,354.505585 418.878143,355.651001 421.659546,339.615173 "
	style="fill-opacity:1.0; fill-rule:evenodd; fill:black; stroke:none" />
<ellipse cx="419.156281" cy="339.328842" rx="3.059540" ry="3.149887" 
	style="fill-opacity:1.0; fill-rule:evenodd; fill:black; stroke:none" />
<polygon points="412.759094,355.078278 
	409.421417,369.395935 414.984222,370.541351 418.321869,356.223694 418.878143,355.651001 
	413.315369,354.505585 "
	style="fill-opacity:1.0; fill-rule:evenodd; fill:black; stroke:none" />
<ellipse cx="412.480942" cy="370.255020" rx="3.059525" ry="3.149887" 
	style="fill-opacity:1.0; fill-rule:evenodd; fill:black; stroke:none" />
<polygon points="399.408386,396.885895 
	399.408386,396.885895 404.414917,399.176727 404.414917,399.176727 "
	style="fill-opacity:1.0; fill-rule:evenodd; fill:black; stroke:none" />
<ellipse cx="402.467911" cy="398.317642" rx="3.059525" ry="3.149887" 
	style="fill-opacity:1.0; fill-rule:evenodd; fill:black; stroke:none" />
<polygon points="398.852112,396.885895 
	385.501404,423.230408 390.507935,426.093933 403.858612,399.749420 404.414917,399.176727 
	399.408386,396.885895 "
	style="fill-opacity:1.0; fill-rule:evenodd; fill:black; stroke:none" />
<ellipse cx="388.560944" cy="425.234879" rx="3.059540" ry="3.149887" 
	style="fill-opacity:1.0; fill-rule:evenodd; fill:black; stroke:none" />
<polygon points="371.038177,450.147614 
	359.912567,467.328827 364.919098,470.765045 376.044678,453.583893 "
	style="fill-opacity:1.0; fill-rule:evenodd; fill:black; stroke:none" />
<ellipse cx="374.097702" cy="452.152100" rx="3.059525" ry="3.149872" 
	style="fill-opacity:1.0; fill-rule:evenodd; fill:black; stroke:none" />
<polygon points="359.356293,467.901520 
	353.793488,475.346741 358.243744,478.782990 363.806519,471.337738 364.919098,470.765045 
	359.912567,467.328827 "
	style="fill-opacity:1.0; fill-rule:evenodd; fill:black; stroke:none" />
<ellipse cx="356.296753" cy="477.351181" rx="3.059540" ry="3.149887" 
	style="fill-opacity:1.0; fill-rule:evenodd; fill:black; stroke:none" />
</svg>
