<?xml version="1.0" standalone="no"?>
<!DOCTYPE svg PUBLIC "-//W3C//DTD SVG 20001102//EN"
"http://www.w3.org/TR/2000/CR-SVG-20001102/DTD/svg-20001102.dtd">
<svg width="658" height="444"
	xmlns:sodipodi="http://sodipodi.sourceforge.net/DTD/sodipodi-0.dtd">
<desc>wmf2svg</desc>
<polyline points="45.453938,91.574997 
	69.984642,100.825012 91.629372,115.624992 111.831139,126.724998 132.032898,130.425003 
	156.563599,123.024994 176.765335,110.075005 198.410080,97.125008 218.611816,91.574997 
	240.256592,98.974998 256.129395,111.924988 272.002197,124.875008 286.432007,130.425003 
	306.633759,126.724998 326.835541,113.775002 348.480255,100.825012 368.682007,95.274994 
	390.326752,104.525009 407.642548,117.475006 422.072357,130.425003 436.502197,135.975006 
	458.146942,130.425003 478.348663,113.775002 499.993378,95.274994 521.638123,87.874992 
	543.282898,93.425011 566.370544,106.375000 609.660034,135.975006 "
	style="stroke-width:14.818422; stroke-linecap:round; stroke-linejoin:round; stroke-dasharray:none; stroke:black" />
<ellipse cx="395.377197" cy="203.500000" rx="13.708344" ry="17.574997" 
	style="fill:none; stroke-width:8.232456; stroke-linecap:round; stroke-linejoin:round; stroke-dasharray:none; stroke:black" />
<polygon points="2.164470,26.825005 
	81.528503,422.725037 113.274109,413.475006 33.910095,17.575001 "
	style="fill-opacity:1.0; fill-rule:evenodd; fill:black; stroke:none" />
<ellipse cx="18.758765" cy="24.049999" rx="18.037279" ry="23.125004" 
	style="fill-opacity:1.0; fill-rule:evenodd; fill:black; stroke:none" />
<polygon points="97.401306,443.075012 
	560.598694,443.075012 560.598694,394.975037 97.401306,394.975037 113.274109,413.475006 
	81.528503,422.725037 "
	style="fill-opacity:1.0; fill-rule:evenodd; fill:black; stroke:none" />
<ellipse cx="97.401306" cy="419.025024" rx="18.758766" ry="24.049988" 
	style="fill-opacity:1.0; fill-rule:evenodd; fill:black; stroke:none" />
<polygon points="577.914429,422.725037 
	654.392517,26.825005 621.203918,17.575001 544.725891,413.475006 560.598694,394.975037 
	560.598694,443.075012 "
	style="fill-opacity:1.0; fill-rule:evenodd; fill:black; stroke:none" />
<ellipse cx="639.241211" cy="24.049999" rx="18.037292" ry="23.125004" 
	style="fill-opacity:1.0; fill-rule:evenodd; fill:black; stroke:none" />
<ellipse cx="560.598694" cy="419.025024" rx="18.758789" ry="24.049988" 
	style="fill-opacity:1.0; fill-rule:evenodd; fill:black; stroke:none" />
<polygon points="221.497803,289.525024 
	233.041672,285.824982 240.256592,306.175049 251.800415,311.725037 266.230255,304.325012 
	272.002197,285.824982 270.559204,274.725006 266.230255,269.175018 251.800415,261.775024 
	244.585526,263.625031 246.028488,248.825027 248.914474,248.825027 260.458344,243.274979 
	266.230255,237.724991 267.673218,228.475021 261.901337,215.525009 250.357468,208.125000 
	240.256592,215.525009 234.484665,230.324997 222.940796,228.475021 225.826736,215.525009 
	233.041672,206.275024 240.256592,198.875015 250.357468,195.175018 266.230255,200.725006 
	276.331146,213.675003 279.217072,228.475021 276.331146,243.274979 266.230255,254.375015 
	279.217072,263.625031 283.546051,283.975037 282.103058,300.625000 276.331146,311.725037 
	264.787262,320.975006 251.800415,324.675018 240.256592,322.825012 230.155685,313.574982 
	224.383743,302.475006 221.497803,289.525024 221.497803,289.525024 "
	style="fill-opacity:1.0; fill-rule:evenodd; fill:black; stroke:none" />
<path d="M300.861816,261.775024L
	300.861816,241.425018 305.190796,226.625015 309.519745,211.825012 315.291656,202.575012 
	332.607452,195.175018 345.594269,200.725006 355.695160,213.675003 361.467072,230.324997 
	364.353058,261.775024 360.024139,296.925018 349.923218,317.275024 332.607452,324.675018 
	319.620605,320.975006 310.962738,311.725037 303.747803,291.375031 300.861816,261.775024 
	300.861816,261.775024 ZM312.405670,261.775024L
	318.177612,302.475006 325.392548,309.875000 332.607452,311.725037 339.822357,309.875000 
	345.594269,302.475006 351.366211,285.824982 352.809204,261.775024 351.366211,235.875031 
	345.594269,219.225006 339.822357,211.825012 332.607452,208.125000 325.392548,211.825012 
	318.177612,219.225006 312.405670,261.775024 312.405670,261.775024 Z"
	style="fill-opacity:1.0; fill-rule:evenodd; fill:black; stroke:none" />
</svg>
