<?xml version="1.0" standalone="no"?>
<!DOCTYPE svg PUBLIC "-//W3C//DTD SVG 20001102//EN"
"http://www.w3.org/TR/2000/CR-SVG-20001102/DTD/svg-20001102.dtd">
<svg width="656" height="512"
	xmlns:sodipodi="http://sodipodi.sourceforge.net/DTD/sodipodi-0.dtd">
<desc>wmf2svg</desc>
<polyline points="45.315781,198.006470 
	69.771919,206.291245 91.350868,219.546921 111.491226,229.488693 131.631577,232.802582 
	156.087723,226.174744 176.228058,214.576050 197.807007,202.977356 217.947342,198.006470 
	239.526321,204.634323 255.350891,216.233017 271.175446,227.831726 285.561401,232.802582 
	305.701721,229.488693 325.842102,217.889954 347.421051,206.291245 367.561401,201.320389 
	389.140350,209.605194 406.403503,221.203888 420.789459,232.802582 435.175446,237.773453 
	456.754395,232.802582 476.894714,216.233017 498.473633,201.320389 520.052612,194.692551 
	541.631592,199.663437 564.649048,211.262161 607.806946,237.773453 "
	style="stroke-width:13.929995; stroke-linecap:round; stroke-linejoin:round; stroke-dasharray:none; stroke:black" />
<polygon points="2.157891,140.012955 
	81.280693,492.945007 112.929810,484.660187 33.807026,131.728149 "
	style="fill-opacity:1.0; fill-rule:evenodd; fill:black; stroke:none" />
<ellipse cx="18.701747" cy="137.527508" rx="17.982452" ry="20.711979" 
	style="fill-opacity:1.0; fill-rule:evenodd; fill:black; stroke:none" />
<polygon points="97.105255,511.171539 
	558.894714,511.171539 558.894714,468.090637 97.105255,468.090637 112.929810,484.660187 
	81.280693,492.945007 "
	style="fill-opacity:1.0; fill-rule:evenodd; fill:black; stroke:none" />
<ellipse cx="97.105255" cy="489.631088" rx="18.701752" ry="21.540451" 
	style="fill-opacity:1.0; fill-rule:evenodd; fill:black; stroke:none" />
<polygon points="576.157837,492.945007 
	652.403503,140.012955 619.315735,131.728149 543.070190,484.660187 558.894714,468.090637 
	558.894714,511.171539 "
	style="fill-opacity:1.0; fill-rule:evenodd; fill:black; stroke:none" />
<ellipse cx="637.298218" cy="137.527508" rx="17.982483" ry="20.711979" 
	style="fill-opacity:1.0; fill-rule:evenodd; fill:black; stroke:none" />
<ellipse cx="558.894714" cy="489.631088" rx="18.701782" ry="21.540451" 
	style="fill-opacity:1.0; fill-rule:evenodd; fill:black; stroke:none" />
<polyline points="445.245605,5.799349 
	356.052612,22.368925 279.807007,48.880260 226.578949,78.705490 207.877182,95.275078 
	197.807007,108.530746 186.298233,118.472496 167.596481,130.071198 150.333328,141.669891 
	146.017532,156.582535 153.210526,169.838181 163.280701,178.122986 190.614014,178.122986 
	223.701736,169.838181 251.035065,154.925568 289.877167,140.012955 312.894714,140.012955 
	331.596497,149.954697 357.491211,154.925568 417.912292,153.268616 "
	style="stroke-width:10.834440; stroke-linecap:round; stroke-linejoin:round; stroke-dasharray:none; stroke:black" />
<polyline points="213.631561,171.495148 
	180.543839,199.663437 143.140335,237.773453 112.929810,280.854340 104.298248,302.394836 
	98.543861,322.278320 101.421051,340.504852 110.052635,347.132690 121.561394,345.475739 
	131.631577,337.190918 226.578949,231.145615 "
	style="stroke-width:10.834440; stroke-linecap:round; stroke-linejoin:round; stroke-dasharray:none; stroke:black" />
<polyline points="121.561394,348.789673 
	114.368416,368.673126 111.491226,381.928802 114.368416,393.527527 118.684196,401.812286 
	124.438591,403.469269 138.824554,401.812286 176.228058,373.644043 222.263168,325.592224 
	272.614014,277.540466 "
	style="stroke-width:10.834440; stroke-linecap:round; stroke-linejoin:round; stroke-dasharray:none; stroke:black" />
<polyline points="161.842102,390.213593 
	160.403503,411.754059 161.842102,420.038818 167.596481,423.352753 180.543839,425.009705 
	197.807007,416.724945 242.403503,385.242737 330.157898,310.679626 "
	style="stroke-width:10.834440; stroke-linecap:round; stroke-linejoin:round; stroke-dasharray:none; stroke:black" />
<polyline points="235.210510,393.527527 
	239.526321,405.126221 245.280670,411.754059 259.666656,415.067963 271.175446,413.410980 
	285.561401,405.126221 317.210510,380.271851 348.859619,353.760529 370.438568,342.161835 
	384.824554,338.847900 404.964905,325.592224 459.631561,275.883484 491.280670,239.430420 
	522.929810,196.349518 553.140320,148.297729 579.035095,91.961159 "
	style="stroke-width:10.834440; stroke-linecap:round; stroke-linejoin:round; stroke-dasharray:none; stroke:black" />
</svg>
