<?xml version="1.0" standalone="no"?>
<!DOCTYPE svg PUBLIC "-//W3C//DTD SVG 20001102//EN"
"http://www.w3.org/TR/2000/CR-SVG-20001102/DTD/svg-20001102.dtd">
<svg width="523" height="512"
	xmlns:sodipodi="http://sodipodi.sourceforge.net/DTD/sodipodi-0.dtd">
<desc>wmf2svg</desc>
<ellipse cx="261.499983" cy="256.000000" rx="251.103958" ry="245.401276" 
	style="fill:none; stroke-width:20.994751; stroke-linecap:round; stroke-linejoin:round; stroke-dasharray:none; stroke:black" />
<path d="M194.325699,367.694275L
	194.325699,111.694267 288.689606,111.694267 327.074921,116.585999 344.668182,119.847145 
	357.463318,126.369415 368.659027,137.783447 378.255371,152.458603 384.652893,186.700638 
	379.854736,217.681519 373.457184,230.726105 363.860870,242.140106 352.665161,251.923569 
	336.671234,258.445862 290.289001,263.337585 227.912827,263.337585 227.912827,367.694275 
	194.325699,367.694275 ZM227.912827,233.987274L
	293.487762,233.987274 320.677368,230.726105 336.671234,222.573273 344.668182,216.050964 
	347.867004,207.898087 351.065765,188.331207 349.466339,173.656052 343.068787,160.611465 
	335.071869,150.828033 322.276764,145.936310 290.289001,144.305740 227.912827,144.305740 
	227.912827,233.987274 Z"
	style="fill-opacity:1.0; fill-rule:evenodd; fill:black; stroke:none" />
</svg>
