<?xml version="1.0" standalone="no"?>
<!DOCTYPE svg PUBLIC "-//W3C//DTD SVG 20001102//EN"
"http://www.w3.org/TR/2000/CR-SVG-20001102/DTD/svg-20001102.dtd">
<svg width="349" height="512"
	xmlns:sodipodi="http://sodipodi.sourceforge.net/DTD/sodipodi-0.dtd">
<desc>wmf2svg</desc>
<polygon points="20.134617,490.165619 
	130.345139,170.561188 119.747971,168.029663 9.537446,487.634125 "
	style="fill-opacity:1.0; fill-rule:evenodd; fill:black; stroke:none" />
<ellipse cx="15.542504" cy="489.216324" rx="6.005058" ry="5.379471" 
	style="fill-opacity:1.0; fill-rule:evenodd; fill:black; stroke:none" />
<polygon points="130.345139,169.295441 
	131.051620,162.966629 119.747971,162.333740 119.041489,168.662552 119.747971,168.029663 
	130.345139,170.561188 "
	style="fill-opacity:1.0; fill-rule:evenodd; fill:black; stroke:none" />
<polygon points="131.051620,163.599503 
	133.877533,147.144623 122.573883,145.878860 119.747971,162.333740 119.747971,162.333740 
	131.051620,162.966629 "
	style="fill-opacity:1.0; fill-rule:evenodd; fill:black; stroke:none" />
<polygon points="133.877533,147.144623 
	138.116394,126.259590 126.812744,124.360931 122.573883,145.245987 122.573883,145.878860 
	133.877533,147.144623 "
	style="fill-opacity:1.0; fill-rule:evenodd; fill:black; stroke:none" />
<polygon points="138.116394,126.892456 
	141.648788,116.766373 131.051620,114.234863 127.519226,124.360931 126.812744,124.360931 
	138.116394,126.259590 "
	style="fill-opacity:1.0; fill-rule:evenodd; fill:black; stroke:none" />
<polygon points="141.648788,116.766373 
	145.181183,107.273170 134.584000,104.108780 131.051620,113.601982 131.051620,114.234863 
	141.648788,116.766373 "
	style="fill-opacity:1.0; fill-rule:evenodd; fill:black; stroke:none" />
<ellipse cx="124.693321" cy="169.295425" rx="6.358299" ry="5.695923" 
	style="fill-opacity:1.0; fill-rule:evenodd; fill:black; stroke:none" />
<polygon points="144.474701,108.538940 
	154.365387,93.349808 145.181183,88.286766 135.290482,103.475899 134.584000,104.108780 
	145.181183,107.273170 "
	style="fill-opacity:1.0; fill-rule:evenodd; fill:black; stroke:none" />
<polygon points="153.658890,93.349808 
	164.256058,80.692223 155.778351,74.996292 145.181183,87.653900 145.181183,88.286766 
	154.365387,93.349808 "
	style="fill-opacity:1.0; fill-rule:evenodd; fill:black; stroke:none" />
<polygon points="164.256058,81.325089 
	186.863358,59.174290 178.385620,52.212608 155.778351,74.363411 155.778351,74.996292 
	164.256058,80.692223 "
	style="fill-opacity:1.0; fill-rule:evenodd; fill:black; stroke:none" />
<ellipse cx="182.977730" cy="56.326330" rx="6.005058" ry="5.379480" 
	style="fill-opacity:1.0; fill-rule:evenodd; fill:black; stroke:none" />
<polygon points="178.385620,56.009892 
	172.027328,87.653900 183.330963,88.919655 189.689270,57.275650 "
	style="fill-opacity:1.0; fill-rule:evenodd; fill:black; stroke:none" />
<ellipse cx="184.390686" cy="56.959204" rx="6.005066" ry="5.379480" 
	style="fill-opacity:1.0; fill-rule:evenodd; fill:black; stroke:none" />
<polygon points="172.027328,87.021011 
	168.494934,103.475899 179.798584,105.374535 183.330963,88.919655 183.330963,88.919655 
	172.027328,87.653900 "
	style="fill-opacity:1.0; fill-rule:evenodd; fill:black; stroke:none" />
<polygon points="168.494934,103.475899 
	166.375504,111.703346 176.972672,114.234863 179.798584,105.374535 "
	style="fill-opacity:1.0; fill-rule:evenodd; fill:black; stroke:none" />
<polygon points="166.375504,111.703346 
	162.136627,118.032143 172.027328,122.462296 176.972672,114.234863 "
	style="fill-opacity:1.0; fill-rule:evenodd; fill:black; stroke:none" />
<polygon points="162.136627,118.032143 
	158.604263,125.626701 168.494934,129.423981 172.027328,122.462296 "
	style="fill-opacity:1.0; fill-rule:evenodd; fill:black; stroke:none" />
<polygon points="158.604263,125.626701 
	154.365387,130.689743 162.843109,136.385651 168.494934,129.423981 "
	style="fill-opacity:1.0; fill-rule:evenodd; fill:black; stroke:none" />
<polygon points="154.365387,130.689743 
	149.420044,137.018539 157.897781,142.714462 162.843109,136.385651 "
	style="fill-opacity:1.0; fill-rule:evenodd; fill:black; stroke:none" />
<polygon points="149.420044,137.018539 
	143.768219,142.081589 152.245956,149.043259 157.897781,142.714462 "
	style="fill-opacity:1.0; fill-rule:evenodd; fill:black; stroke:none" />
<polygon points="143.768219,142.081589 
	131.758102,153.473419 140.235825,160.435104 152.245956,149.043259 152.245956,149.043259 
	143.768219,142.081589 "
	style="fill-opacity:1.0; fill-rule:evenodd; fill:black; stroke:none" />
<polygon points="131.758102,154.106308 
	120.454453,166.131027 128.932190,172.459824 140.235825,160.435104 140.235825,160.435104 
	131.758102,153.473419 "
	style="fill-opacity:1.0; fill-rule:evenodd; fill:black; stroke:none" />
<ellipse cx="125.046555" cy="169.611870" rx="6.005066" ry="5.379478" 
	style="fill-opacity:1.0; fill-rule:evenodd; fill:black; stroke:none" />
<polygon points="153.658890,133.221268 
	140.942307,152.207672 150.126526,157.270706 162.843109,138.284317 "
	style="fill-opacity:1.0; fill-rule:evenodd; fill:black; stroke:none" />
<ellipse cx="158.957489" cy="136.069221" rx="6.005051" ry="5.379478" 
	style="fill-opacity:1.0; fill-rule:evenodd; fill:black; stroke:none" />
<polygon points="140.942307,152.207672 
	128.225708,170.561188 137.409912,175.624222 150.126526,157.270706 150.126526,157.270706 
	140.942307,152.207672 "
	style="fill-opacity:1.0; fill-rule:evenodd; fill:black; stroke:none" />
<polygon points="127.519226,170.561188 
	116.215576,189.547592 126.106277,193.977753 137.409912,174.991348 137.409912,175.624222 
	128.225708,170.561188 "
	style="fill-opacity:1.0; fill-rule:evenodd; fill:black; stroke:none" />
<polygon points="116.215576,190.180466 
	107.031380,210.432632 116.922058,214.229919 126.106277,193.977753 126.106277,193.977753 
	116.215576,189.547592 "
	style="fill-opacity:1.0; fill-rule:evenodd; fill:black; stroke:none" />
<ellipse cx="112.329960" cy="212.647713" rx="6.005062" ry="5.379478" 
	style="fill-opacity:1.0; fill-rule:evenodd; fill:black; stroke:none" />
<polygon points="129.638657,114.867737 
	117.628540,162.333740 128.932190,164.232391 140.942307,116.766373 "
	style="fill-opacity:1.0; fill-rule:evenodd; fill:black; stroke:none" />
<ellipse cx="135.643723" cy="116.449936" rx="6.005066" ry="5.379478" 
	style="fill-opacity:1.0; fill-rule:evenodd; fill:black; stroke:none" />
<polygon points="117.628540,162.333740 
	111.976715,187.016068 123.280365,188.914703 128.932190,164.232391 128.932190,164.232391 
	117.628540,162.333740 "
	style="fill-opacity:1.0; fill-rule:evenodd; fill:black; stroke:none" />
<polygon points="112.683205,187.016068 
	105.618408,211.065506 116.215576,213.597031 123.280365,189.547592 123.280365,188.914703 
	111.976715,187.016068 "
	style="fill-opacity:1.0; fill-rule:evenodd; fill:black; stroke:none" />
<ellipse cx="111.623474" cy="212.647713" rx="6.005066" ry="5.379478" 
	style="fill-opacity:1.0; fill-rule:evenodd; fill:black; stroke:none" />
<polygon points="111.976715,195.876389 
	87.956474,264.227448 98.553642,266.758942 122.573883,198.407898 "
	style="fill-opacity:1.0; fill-rule:evenodd; fill:black; stroke:none" />
<ellipse cx="117.981773" cy="197.458588" rx="6.005058" ry="5.379486" 
	style="fill-opacity:1.0; fill-rule:evenodd; fill:black; stroke:none" />
<ellipse cx="93.961533" cy="265.809647" rx="6.005058" ry="5.379471" 
	style="fill-opacity:1.0; fill-rule:evenodd; fill:black; stroke:none" />
<polyline points="300.606293,496.494446 
	292.835022,448.395538 280.118408,401.562439 268.108307,354.729309 259.630554,307.263275 "
	style="stroke-width:8.036147; stroke-linecap:round; stroke-linejoin:round; stroke-dasharray:none; stroke:black" />
<polyline points="299.899780,413.587158 
	292.128540,365.488251 279.411957,318.655151 267.401794,272.454895 259.630554,224.988876 "
	style="stroke-width:8.036147; stroke-linecap:round; stroke-linejoin:round; stroke-dasharray:none; stroke:black" />
<polyline points="298.486847,449.661316 
	291.422058,401.562439 280.118408,352.830658 268.814758,304.731781 261.043518,256.632904 "
	style="stroke-width:8.036147; stroke-linecap:round; stroke-linejoin:round; stroke-dasharray:none; stroke:black" />
<polyline points="297.073883,357.893677 
	290.009094,313.592102 279.411957,273.087769 269.521271,233.216324 262.456482,188.914703 "
	style="stroke-width:8.036147; stroke-linecap:round; stroke-linejoin:round; stroke-dasharray:none; stroke:black" />
<polyline points="297.073883,317.389374 
	291.422058,276.252167 282.944336,243.975266 275.173065,212.331284 268.814758,171.194077 "
	style="stroke-width:8.036147; stroke-linecap:round; stroke-linejoin:round; stroke-dasharray:none; stroke:black" />
<polygon points="264.575897,306.630432 
	256.804657,237.013596 246.913971,237.646500 254.685226,307.263275 "
	style="fill-opacity:1.0; fill-rule:evenodd; fill:black; stroke:none" />
<ellipse cx="259.983795" cy="307.579727" rx="4.592102" ry="4.113724" 
	style="fill-opacity:1.0; fill-rule:evenodd; fill:black; stroke:none" />
<polygon points="255.391693,234.482086 
	146.594131,132.588379 139.529358,138.284317 248.326904,240.177994 246.913971,237.646500 
	256.804657,237.013596 "
	style="fill-opacity:1.0; fill-rule:evenodd; fill:black; stroke:none" />
<polygon points="256.804657,235.747818 
	255.391693,234.482086 246.913971,237.646500 248.326904,240.177994 256.804657,237.013596 "
	style="fill-opacity:1.0; fill-rule:evenodd; fill:black; stroke:none" />
<polygon points="143.768219,131.322617 
	13.069836,116.133499 12.363354,124.993820 143.061737,140.182953 139.529358,138.284317 
	146.594131,132.588379 "
	style="fill-opacity:1.0; fill-rule:evenodd; fill:black; stroke:none" />
<ellipse cx="13.423072" cy="120.880096" rx="4.592104" ry="4.113724" 
	style="fill-opacity:1.0; fill-rule:evenodd; fill:black; stroke:none" />
<polygon points="145.181183,131.322617 
	143.768219,131.322617 139.529358,138.284317 143.061737,140.182953 146.594131,132.588379 "
	style="fill-opacity:1.0; fill-rule:evenodd; fill:black; stroke:none" />
<polyline points="298.486847,282.580963 
	294.247955,245.241043 289.302643,220.558731 280.118408,159.169342 "
	style="stroke-width:9.375505; stroke-linecap:round; stroke-linejoin:round; stroke-dasharray:none; stroke:black" />
<polygon points="287.889679,159.169342 
	292.835022,106.007416 282.944336,105.374535 277.998993,158.536469 "
	style="fill-opacity:1.0; fill-rule:evenodd; fill:black; stroke:none" />
<ellipse cx="283.297562" cy="159.485779" rx="4.592117" ry="4.113724" 
	style="fill-opacity:1.0; fill-rule:evenodd; fill:black; stroke:none" />
<polygon points="291.422058,108.538940 
	347.233795,42.086525 340.169006,37.023491 284.357269,103.475899 282.944336,105.374535 
	292.835022,106.007416 "
	style="fill-opacity:1.0; fill-rule:evenodd; fill:black; stroke:none" />
<ellipse cx="344.054657" cy="39.871449" rx="4.592102" ry="4.113720" 
	style="fill-opacity:1.0; fill-rule:evenodd; fill:black; stroke:none" />
<polygon points="282.944336,105.374535 
	284.357269,103.475899 292.835022,106.007416 291.422058,108.538940 282.944336,105.374535 "
	style="fill-opacity:1.0; fill-rule:evenodd; fill:black; stroke:none" />
<polygon points="273.760132,171.194077 
	270.934204,102.843010 261.043518,102.843010 263.869446,171.194077 "
	style="fill-opacity:1.0; fill-rule:evenodd; fill:black; stroke:none" />
<ellipse cx="269.168015" cy="171.510498" rx="4.592117" ry="4.113724" 
	style="fill-opacity:1.0; fill-rule:evenodd; fill:black; stroke:none" />
<polygon points="270.227722,104.741661 
	316.855255,28.796041 309.084015,24.998768 262.456482,100.944374 261.043518,102.843010 
	270.934204,102.843010 "
	style="fill-opacity:1.0; fill-rule:evenodd; fill:black; stroke:none" />
<ellipse cx="313.676117" cy="27.213842" rx="4.592102" ry="4.113720" 
	style="fill-opacity:1.0; fill-rule:evenodd; fill:black; stroke:none" />
<polygon points="261.043518,103.475899 
	262.456482,100.944374 270.934204,102.843010 270.227722,104.741661 261.043518,102.843010 "
	style="fill-opacity:1.0; fill-rule:evenodd; fill:black; stroke:none" />
<polygon points="268.108307,188.281830 
	249.033401,97.147102 239.849182,98.412849 258.924072,189.547592 "
	style="fill-opacity:1.0; fill-rule:evenodd; fill:black; stroke:none" />
<ellipse cx="264.222656" cy="189.231155" rx="4.592102" ry="4.113724" 
	style="fill-opacity:1.0; fill-rule:evenodd; fill:black; stroke:none" />
<polygon points="248.326904,99.678619 
	293.541504,21.201485 285.770233,17.404203 240.555664,95.881332 239.849182,98.412849 
	249.033401,97.147102 "
	style="fill-opacity:1.0; fill-rule:evenodd; fill:black; stroke:none" />
<ellipse cx="290.362350" cy="19.619282" rx="4.592117" ry="4.113724" 
	style="fill-opacity:1.0; fill-rule:evenodd; fill:black; stroke:none" />
<polygon points="239.849182,97.147102 
	240.555664,95.881332 249.033401,97.147102 248.326904,99.678619 239.849182,98.412849 "
	style="fill-opacity:1.0; fill-rule:evenodd; fill:black; stroke:none" />
<polyline points="292.835022,503.456116 
	286.476715,462.318909 277.998993,430.674927 269.521271,399.030884 262.456482,358.526581 "
	style="stroke-width:8.036147; stroke-linecap:round; stroke-linejoin:round; stroke-dasharray:none; stroke:black" />
<polyline points="285.063782,504.721863 
	280.118408,470.546356 274.466583,455.357239 269.521271,440.800995 264.575897,407.891235 "
	style="stroke-width:8.036147; stroke-linecap:round; stroke-linejoin:round; stroke-dasharray:none; stroke:black" />
<polyline points="277.292511,504.721863 
	265.988861,445.231140 "
	style="stroke-width:8.036147; stroke-linecap:round; stroke-linejoin:round; stroke-dasharray:none; stroke:black" />
<polygon points="23.667002,492.064270 
	120.454453,212.331284 109.857292,209.799759 13.069836,489.532745 "
	style="fill-opacity:1.0; fill-rule:evenodd; fill:black; stroke:none" />
<ellipse cx="19.074897" cy="491.114960" rx="6.005061" ry="5.379486" 
	style="fill-opacity:1.0; fill-rule:evenodd; fill:black; stroke:none" />
<polygon points="109.857292,209.166870 
	4.592100,488.899902 15.189265,492.064270 120.454453,212.331284 109.857292,209.799759 
	120.454453,212.331284 "
	style="fill-opacity:1.0; fill-rule:evenodd; fill:black; stroke:none" />
<polygon points="15.189265,492.064270 
	113.389664,211.065506 102.792503,208.533997 4.592100,489.532745 15.189265,492.064270 
	4.592100,488.899902 "
	style="fill-opacity:1.0; fill-rule:evenodd; fill:black; stroke:none" />
<polygon points="113.389664,211.065506 
	122.573883,183.218796 111.976715,180.687271 102.792503,208.533997 102.792503,208.533997 
	113.389664,211.065506 "
	style="fill-opacity:1.0; fill-rule:evenodd; fill:black; stroke:none" />
<ellipse cx="117.981773" cy="182.269470" rx="6.005058" ry="5.379486" 
	style="fill-opacity:1.0; fill-rule:evenodd; fill:black; stroke:none" />
<polygon points="113.389664,211.065506 
	113.389664,211.065506 102.792503,208.533997 102.792503,208.533997 113.389664,211.065506 "
	style="fill-opacity:1.0; fill-rule:evenodd; fill:black; stroke:none" />
<ellipse cx="15.189268" cy="498.393051" rx="14.836031" ry="13.290482" 
	style="fill-opacity:1.0; fill-rule:evenodd; fill:black; stroke:none" />
<ellipse cx="15.189270" cy="498.393066" rx="14.129555" ry="12.657593" 
	style="fill-opacity:1.0; fill-rule:evenodd; fill:black; stroke:none" />
<ellipse cx="15.189270" cy="498.393066" rx="14.129555" ry="12.657593" 
	style="fill-opacity:1.0; fill-rule:evenodd; fill:black; stroke:none" />
<ellipse cx="15.189268" cy="498.393066" rx="13.423075" ry="12.024719" 
	style="fill-opacity:1.0; fill-rule:evenodd; fill:black; stroke:none" />
<ellipse cx="15.189268" cy="498.393066" rx="13.423075" ry="12.024719" 
	style="fill-opacity:1.0; fill-rule:evenodd; fill:black; stroke:none" />
<ellipse cx="15.189267" cy="498.393097" rx="12.716601" ry="11.391846" 
	style="fill-opacity:1.0; fill-rule:evenodd; fill:black; stroke:none" />
<ellipse cx="15.189267" cy="498.393097" rx="12.716601" ry="11.391846" 
	style="fill-opacity:1.0; fill-rule:evenodd; fill:black; stroke:none" />
<ellipse cx="15.189265" cy="498.393097" rx="12.010121" ry="10.758972" 
	style="fill-opacity:1.0; fill-rule:evenodd; fill:black; stroke:none" />
<ellipse cx="15.189265" cy="498.393097" rx="12.010121" ry="10.758972" 
	style="fill-opacity:1.0; fill-rule:evenodd; fill:black; stroke:none" />
<ellipse cx="15.189267" cy="498.393097" rx="11.303645" ry="10.126099" 
	style="fill-opacity:1.0; fill-rule:evenodd; fill:black; stroke:none" />
<ellipse cx="15.189267" cy="498.393097" rx="11.303645" ry="10.126099" 
	style="fill-opacity:1.0; fill-rule:evenodd; fill:black; stroke:none" />
<ellipse cx="15.189265" cy="498.393082" rx="10.597165" ry="9.493179" 
	style="fill-opacity:1.0; fill-rule:evenodd; fill:black; stroke:none" />
<ellipse cx="15.189265" cy="498.393082" rx="10.597165" ry="9.493179" 
	style="fill-opacity:1.0; fill-rule:evenodd; fill:black; stroke:none" />
<ellipse cx="15.189268" cy="498.393066" rx="9.890690" ry="8.860321" 
	style="fill-opacity:1.0; fill-rule:evenodd; fill:black; stroke:none" />
<ellipse cx="15.189268" cy="498.393066" rx="9.890690" ry="8.860321" 
	style="fill-opacity:1.0; fill-rule:evenodd; fill:black; stroke:none" />
<ellipse cx="15.189265" cy="498.393066" rx="9.184209" ry="8.227448" 
	style="fill-opacity:1.0; fill-rule:evenodd; fill:black; stroke:none" />
<ellipse cx="15.189265" cy="498.393066" rx="9.184209" ry="8.227448" 
	style="fill-opacity:1.0; fill-rule:evenodd; fill:black; stroke:none" />
<ellipse cx="15.189268" cy="498.393097" rx="8.477734" ry="7.594574" 
	style="fill-opacity:1.0; fill-rule:evenodd; fill:black; stroke:none" />
<ellipse cx="15.189268" cy="498.393097" rx="8.477734" ry="7.594574" 
	style="fill-opacity:1.0; fill-rule:evenodd; fill:black; stroke:none" />
<ellipse cx="15.189265" cy="498.393097" rx="7.771253" ry="6.961700" 
	style="fill-opacity:1.0; fill-rule:evenodd; fill:black; stroke:none" />
<ellipse cx="15.189265" cy="498.393097" rx="7.771253" ry="6.961700" 
	style="fill-opacity:1.0; fill-rule:evenodd; fill:black; stroke:none" />
<ellipse cx="15.189268" cy="498.393066" rx="7.064778" ry="6.328796" 
	style="fill-opacity:1.0; fill-rule:evenodd; fill:black; stroke:none" />
<ellipse cx="15.189268" cy="498.393066" rx="7.064778" ry="6.328796" 
	style="fill-opacity:1.0; fill-rule:evenodd; fill:black; stroke:none" />
<ellipse cx="15.189265" cy="498.393082" rx="6.358297" ry="5.695908" 
	style="fill-opacity:1.0; fill-rule:evenodd; fill:black; stroke:none" />
<ellipse cx="15.189265" cy="498.393082" rx="6.358297" ry="5.695908" 
	style="fill-opacity:1.0; fill-rule:evenodd; fill:black; stroke:none" />
<ellipse cx="15.189268" cy="498.393066" rx="5.651822" ry="5.063049" 
	style="fill-opacity:1.0; fill-rule:evenodd; fill:black; stroke:none" />
<ellipse cx="15.189268" cy="498.393066" rx="5.651822" ry="5.063049" 
	style="fill-opacity:1.0; fill-rule:evenodd; fill:black; stroke:none" />
<ellipse cx="15.189270" cy="498.393082" rx="4.945346" ry="4.430161" 
	style="fill-opacity:1.0; fill-rule:evenodd; fill:black; stroke:none" />
<ellipse cx="15.189270" cy="498.393082" rx="4.945346" ry="4.430161" 
	style="fill-opacity:1.0; fill-rule:evenodd; fill:black; stroke:none" />
<ellipse cx="15.189268" cy="498.393082" rx="4.238865" ry="3.797287" 
	style="fill-opacity:1.0; fill-rule:evenodd; fill:black; stroke:none" />
<ellipse cx="15.189268" cy="498.393082" rx="4.238865" ry="3.797287" 
	style="fill-opacity:1.0; fill-rule:evenodd; fill:black; stroke:none" />
<ellipse cx="15.189270" cy="498.393051" rx="3.532390" ry="3.164383" 
	style="fill-opacity:1.0; fill-rule:evenodd; fill:black; stroke:none" />
<ellipse cx="15.189270" cy="498.393051" rx="3.532390" ry="3.164383" 
	style="fill-opacity:1.0; fill-rule:evenodd; fill:black; stroke:none" />
<ellipse cx="15.189265" cy="498.393082" rx="2.825912" ry="2.531509" 
	style="fill-opacity:1.0; fill-rule:evenodd; fill:black; stroke:none" />
<ellipse cx="15.189265" cy="498.393082" rx="2.825912" ry="2.531509" 
	style="fill-opacity:1.0; fill-rule:evenodd; fill:black; stroke:none" />
<ellipse cx="15.189270" cy="498.393082" rx="2.119434" ry="1.898636" 
	style="fill-opacity:1.0; fill-rule:evenodd; fill:black; stroke:none" />
<ellipse cx="15.189270" cy="498.393082" rx="2.119434" ry="1.898636" 
	style="fill-opacity:1.0; fill-rule:evenodd; fill:black; stroke:none" />
<ellipse cx="15.189265" cy="498.393082" rx="1.412956" ry="1.265762" 
	style="fill-opacity:1.0; fill-rule:evenodd; fill:black; stroke:none" />
<ellipse cx="15.189265" cy="498.393082" rx="1.412956" ry="1.265762" 
	style="fill-opacity:1.0; fill-rule:evenodd; fill:black; stroke:none" />
<ellipse cx="15.189270" cy="498.393082" rx="0.706478" ry="0.632889" 
	style="fill-opacity:1.0; fill-rule:evenodd; fill:black; stroke:none" />
<ellipse cx="15.189270" cy="498.393082" rx="0.706478" ry="0.632889" 
	style="fill-opacity:1.0; fill-rule:evenodd; fill:black; stroke:none" />
<polygon points="8.124490,507.253387 
	8.124490,489.532745 21.547562,492.064270 8.124490,507.253387 "
	style="fill-opacity:1.0; fill-rule:evenodd; fill:black; stroke:none" />
<ellipse cx="15.189268" cy="498.393051" rx="14.836031" ry="13.290482" 
	style="fill-opacity:1.0; fill-rule:evenodd; fill:black; stroke:none" />
<ellipse cx="15.189270" cy="498.393066" rx="14.129555" ry="12.657593" 
	style="fill-opacity:1.0; fill-rule:evenodd; fill:black; stroke:none" />
<ellipse cx="15.189270" cy="498.393066" rx="14.129555" ry="12.657593" 
	style="fill-opacity:1.0; fill-rule:evenodd; fill:black; stroke:none" />
<ellipse cx="15.189268" cy="498.393066" rx="13.423075" ry="12.024719" 
	style="fill-opacity:1.0; fill-rule:evenodd; fill:black; stroke:none" />
<ellipse cx="15.189268" cy="498.393066" rx="13.423075" ry="12.024719" 
	style="fill-opacity:1.0; fill-rule:evenodd; fill:black; stroke:none" />
<ellipse cx="15.189267" cy="498.393097" rx="12.716601" ry="11.391846" 
	style="fill-opacity:1.0; fill-rule:evenodd; fill:black; stroke:none" />
<ellipse cx="15.189267" cy="498.393097" rx="12.716601" ry="11.391846" 
	style="fill-opacity:1.0; fill-rule:evenodd; fill:black; stroke:none" />
<ellipse cx="15.189265" cy="498.393097" rx="12.010121" ry="10.758972" 
	style="fill-opacity:1.0; fill-rule:evenodd; fill:black; stroke:none" />
<ellipse cx="15.189265" cy="498.393097" rx="12.010121" ry="10.758972" 
	style="fill-opacity:1.0; fill-rule:evenodd; fill:black; stroke:none" />
<ellipse cx="15.189267" cy="498.393097" rx="11.303645" ry="10.126099" 
	style="fill-opacity:1.0; fill-rule:evenodd; fill:black; stroke:none" />
<ellipse cx="15.189267" cy="498.393097" rx="11.303645" ry="10.126099" 
	style="fill-opacity:1.0; fill-rule:evenodd; fill:black; stroke:none" />
<ellipse cx="15.189265" cy="498.393082" rx="10.597165" ry="9.493179" 
	style="fill-opacity:1.0; fill-rule:evenodd; fill:black; stroke:none" />
<ellipse cx="15.189265" cy="498.393082" rx="10.597165" ry="9.493179" 
	style="fill-opacity:1.0; fill-rule:evenodd; fill:black; stroke:none" />
<ellipse cx="15.189268" cy="498.393066" rx="9.890690" ry="8.860321" 
	style="fill-opacity:1.0; fill-rule:evenodd; fill:black; stroke:none" />
<ellipse cx="15.189268" cy="498.393066" rx="9.890690" ry="8.860321" 
	style="fill-opacity:1.0; fill-rule:evenodd; fill:black; stroke:none" />
<ellipse cx="15.189265" cy="498.393066" rx="9.184209" ry="8.227448" 
	style="fill-opacity:1.0; fill-rule:evenodd; fill:black; stroke:none" />
<ellipse cx="15.189265" cy="498.393066" rx="9.184209" ry="8.227448" 
	style="fill-opacity:1.0; fill-rule:evenodd; fill:black; stroke:none" />
<ellipse cx="15.189268" cy="498.393097" rx="8.477734" ry="7.594574" 
	style="fill-opacity:1.0; fill-rule:evenodd; fill:black; stroke:none" />
<ellipse cx="15.189268" cy="498.393097" rx="8.477734" ry="7.594574" 
	style="fill-opacity:1.0; fill-rule:evenodd; fill:black; stroke:none" />
<ellipse cx="15.189265" cy="498.393097" rx="7.771253" ry="6.961700" 
	style="fill-opacity:1.0; fill-rule:evenodd; fill:black; stroke:none" />
<ellipse cx="15.189265" cy="498.393097" rx="7.771253" ry="6.961700" 
	style="fill-opacity:1.0; fill-rule:evenodd; fill:black; stroke:none" />
<ellipse cx="15.189268" cy="498.393066" rx="7.064778" ry="6.328796" 
	style="fill-opacity:1.0; fill-rule:evenodd; fill:black; stroke:none" />
<ellipse cx="15.189268" cy="498.393066" rx="7.064778" ry="6.328796" 
	style="fill-opacity:1.0; fill-rule:evenodd; fill:black; stroke:none" />
<ellipse cx="15.189265" cy="498.393082" rx="6.358297" ry="5.695908" 
	style="fill-opacity:1.0; fill-rule:evenodd; fill:black; stroke:none" />
<ellipse cx="15.189265" cy="498.393082" rx="6.358297" ry="5.695908" 
	style="fill-opacity:1.0; fill-rule:evenodd; fill:black; stroke:none" />
<ellipse cx="15.189268" cy="498.393066" rx="5.651822" ry="5.063049" 
	style="fill-opacity:1.0; fill-rule:evenodd; fill:black; stroke:none" />
<ellipse cx="15.189268" cy="498.393066" rx="5.651822" ry="5.063049" 
	style="fill-opacity:1.0; fill-rule:evenodd; fill:black; stroke:none" />
<ellipse cx="15.189270" cy="498.393082" rx="4.945346" ry="4.430161" 
	style="fill-opacity:1.0; fill-rule:evenodd; fill:black; stroke:none" />
<ellipse cx="15.189270" cy="498.393082" rx="4.945346" ry="4.430161" 
	style="fill-opacity:1.0; fill-rule:evenodd; fill:black; stroke:none" />
<ellipse cx="15.189268" cy="498.393082" rx="4.238865" ry="3.797287" 
	style="fill-opacity:1.0; fill-rule:evenodd; fill:black; stroke:none" />
<ellipse cx="15.189268" cy="498.393082" rx="4.238865" ry="3.797287" 
	style="fill-opacity:1.0; fill-rule:evenodd; fill:black; stroke:none" />
<ellipse cx="15.189270" cy="498.393051" rx="3.532390" ry="3.164383" 
	style="fill-opacity:1.0; fill-rule:evenodd; fill:black; stroke:none" />
<ellipse cx="15.189270" cy="498.393051" rx="3.532390" ry="3.164383" 
	style="fill-opacity:1.0; fill-rule:evenodd; fill:black; stroke:none" />
<ellipse cx="15.189265" cy="498.393082" rx="2.825912" ry="2.531509" 
	style="fill-opacity:1.0; fill-rule:evenodd; fill:black; stroke:none" />
<ellipse cx="15.189265" cy="498.393082" rx="2.825912" ry="2.531509" 
	style="fill-opacity:1.0; fill-rule:evenodd; fill:black; stroke:none" />
<ellipse cx="15.189270" cy="498.393082" rx="2.119434" ry="1.898636" 
	style="fill-opacity:1.0; fill-rule:evenodd; fill:black; stroke:none" />
<ellipse cx="15.189270" cy="498.393082" rx="2.119434" ry="1.898636" 
	style="fill-opacity:1.0; fill-rule:evenodd; fill:black; stroke:none" />
<ellipse cx="15.189265" cy="498.393082" rx="1.412956" ry="1.265762" 
	style="fill-opacity:1.0; fill-rule:evenodd; fill:black; stroke:none" />
<ellipse cx="15.189265" cy="498.393082" rx="1.412956" ry="1.265762" 
	style="fill-opacity:1.0; fill-rule:evenodd; fill:black; stroke:none" />
<ellipse cx="15.189270" cy="498.393082" rx="0.706478" ry="0.632889" 
	style="fill-opacity:1.0; fill-rule:evenodd; fill:black; stroke:none" />
<ellipse cx="15.189270" cy="498.393082" rx="0.706478" ry="0.632889" 
	style="fill-opacity:1.0; fill-rule:evenodd; fill:black; stroke:none" />
<polyline points="8.124490,507.253387 
	8.124490,489.532745 21.547562,492.064270 8.124490,507.253387 "
	style="stroke-width:4.687753; stroke-linecap:round; stroke-linejoin:round; stroke-dasharray:none; stroke:black" />
<polygon points="118.335022,218.027191 
	177.679138,109.804688 167.788452,105.374535 108.444321,213.597031 "
	style="fill-opacity:1.0; fill-rule:evenodd; fill:black; stroke:none" />
<ellipse cx="113.742916" cy="216.444984" rx="6.005054" ry="5.379478" 
	style="fill-opacity:1.0; fill-rule:evenodd; fill:black; stroke:none" />
<polygon points="178.385620,108.538940 
	191.102219,54.111244 179.798584,52.212608 167.081970,106.640305 167.788452,105.374535 
	177.679138,109.804688 "
	style="fill-opacity:1.0; fill-rule:evenodd; fill:black; stroke:none" />
<ellipse cx="172.733803" cy="107.906063" rx="6.358299" ry="5.695919" 
	style="fill-opacity:1.0; fill-rule:evenodd; fill:black; stroke:none" />
<polygon points="181.211533,50.313965 
	133.171051,107.273170 142.355270,112.969093 190.395752,56.009892 179.798584,52.212608 
	191.102219,54.111244 "
	style="fill-opacity:1.0; fill-rule:evenodd; fill:black; stroke:none" />
<ellipse cx="185.450401" cy="53.478371" rx="6.358299" ry="5.695919" 
	style="fill-opacity:1.0; fill-rule:evenodd; fill:black; stroke:none" />
<polygon points="132.464569,109.171822 
	102.792503,208.533997 113.389664,211.065506 143.061737,111.703346 142.355270,112.969093 
	133.171051,107.273170 "
	style="fill-opacity:1.0; fill-rule:evenodd; fill:black; stroke:none" />
<ellipse cx="108.797565" cy="210.116188" rx="6.005062" ry="5.379478" 
	style="fill-opacity:1.0; fill-rule:evenodd; fill:black; stroke:none" />
<ellipse cx="137.409920" cy="110.437580" rx="6.358299" ry="5.695919" 
	style="fill-opacity:1.0; fill-rule:evenodd; fill:black; stroke:none" />
<polygon points="269.521271,219.292953 
	230.664978,94.615578 221.480759,96.514214 260.337036,221.191589 "
	style="fill-opacity:1.0; fill-rule:evenodd; fill:black; stroke:none" />
<ellipse cx="265.635620" cy="220.875160" rx="4.592102" ry="4.113716" 
	style="fill-opacity:1.0; fill-rule:evenodd; fill:black; stroke:none" />
<polygon points="230.664978,96.514214 
	256.804657,12.341160 247.620438,10.442523 221.480759,94.615578 221.480759,96.514214 
	230.664978,94.615578 "
	style="fill-opacity:1.0; fill-rule:evenodd; fill:black; stroke:none" />
<ellipse cx="252.919006" cy="12.024723" rx="4.592102" ry="4.113720" 
	style="fill-opacity:1.0; fill-rule:evenodd; fill:black; stroke:none" />
<polygon points="221.480759,95.881332 
	221.480759,94.615578 230.664978,94.615578 230.664978,96.514214 221.480759,96.514214 "
	style="fill-opacity:1.0; fill-rule:evenodd; fill:black; stroke:none" />
<polygon points="267.401794,243.975266 
	211.590088,92.716942 203.112350,95.248444 258.924072,246.506805 "
	style="fill-opacity:1.0; fill-rule:evenodd; fill:black; stroke:none" />
<ellipse cx="263.516190" cy="245.557495" rx="4.592117" ry="4.113724" 
	style="fill-opacity:1.0; fill-rule:evenodd; fill:black; stroke:none" />
<polygon points="212.296555,94.615578 
	228.545532,4.746601 219.361343,3.480840 203.112350,93.349808 203.112350,95.248444 
	211.590088,92.716942 "
	style="fill-opacity:1.0; fill-rule:evenodd; fill:black; stroke:none" />
<ellipse cx="224.659920" cy="4.430158" rx="4.592094" ry="4.113720" 
	style="fill-opacity:1.0; fill-rule:evenodd; fill:black; stroke:none" />
<polygon points="203.112350,94.615578 
	203.112350,93.349808 211.590088,92.716942 212.296555,94.615578 203.112350,95.248444 "
	style="fill-opacity:1.0; fill-rule:evenodd; fill:black; stroke:none" />
</svg>
