<?xml version="1.0" standalone="no"?>
<!DOCTYPE svg PUBLIC "-//W3C//DTD SVG 20001102//EN"
"http://www.w3.org/TR/2000/CR-SVG-20001102/DTD/svg-20001102.dtd">
<svg width="360" height="512"
	xmlns:sodipodi="http://sodipodi.sourceforge.net/DTD/sodipodi-0.dtd">
<desc>wmf2svg</desc>
<polygon points="20.602411,488.934021 
	133.373489,160.812180 122.530121,158.213196 9.759033,486.335022 "
	style="fill-opacity:1.0; fill-rule:evenodd; fill:black; stroke:none" />
<ellipse cx="15.903609" cy="487.959381" rx="6.144576" ry="5.522827" 
	style="fill-opacity:1.0; fill-rule:evenodd; fill:black; stroke:none" />
<polygon points="133.373489,160.162430 
	136.987961,136.771576 125.421692,135.472076 121.807228,158.862946 122.530121,158.213196 
	133.373489,160.812180 "
	style="fill-opacity:1.0; fill-rule:evenodd; fill:black; stroke:none" />
<polygon points="136.987961,136.771576 
	142.048203,115.329956 130.481934,113.380707 125.421692,134.822342 125.421692,135.472076 
	136.987961,136.771576 "
	style="fill-opacity:1.0; fill-rule:evenodd; fill:black; stroke:none" />
<polygon points="142.048203,115.979691 
	144.939758,105.583763 133.373489,102.984779 130.481934,113.380707 130.481934,113.380707 
	142.048203,115.329956 "
	style="fill-opacity:1.0; fill-rule:evenodd; fill:black; stroke:none" />
<polygon points="144.939758,105.583763 
	148.554230,95.837570 137.710831,92.588837 134.096390,102.335030 133.373489,102.984779 
	144.939758,105.583763 "
	style="fill-opacity:1.0; fill-rule:evenodd; fill:black; stroke:none" />
<ellipse cx="127.590370" cy="159.512688" rx="6.506020" ry="5.847710" 
	style="fill-opacity:1.0; fill-rule:evenodd; fill:black; stroke:none" />
<polygon points="147.831329,97.137054 
	157.951813,81.543144 148.554230,76.345177 138.433731,91.939087 137.710831,92.588837 
	148.554230,95.837570 "
	style="fill-opacity:1.0; fill-rule:evenodd; fill:black; stroke:none" />
<polygon points="157.228912,81.543144 
	168.072281,68.548218 159.397598,62.700508 148.554230,75.695427 148.554230,76.345177 
	157.951813,81.543144 "
	style="fill-opacity:1.0; fill-rule:evenodd; fill:black; stroke:none" />
<polygon points="168.072281,69.197975 
	180.361450,58.152287 172.409653,51.005070 160.120483,62.050766 159.397598,62.700508 
	168.072281,68.548218 "
	style="fill-opacity:1.0; fill-rule:evenodd; fill:black; stroke:none" />
<polygon points="180.361450,58.152287 
	186.144592,52.304565 177.469879,45.157356 172.409653,51.005070 "
	style="fill-opacity:1.0; fill-rule:evenodd; fill:black; stroke:none" />
<polygon points="186.144592,52.304565 
	189.036148,50.355328 180.361450,42.558372 177.469879,45.157356 "
	style="fill-opacity:1.0; fill-rule:evenodd; fill:black; stroke:none" />
<polygon points="189.036148,50.355328 
	190.481934,49.055836 181.807220,41.258881 180.361450,42.558372 "
	style="fill-opacity:1.0; fill-rule:evenodd; fill:black; stroke:none" />
<polygon points="190.481934,49.055836 
	192.650604,45.807110 183.253021,39.959385 181.807220,41.258881 "
	style="fill-opacity:1.0; fill-rule:evenodd; fill:black; stroke:none" />
<ellipse cx="188.674706" cy="43.532993" rx="6.144585" ry="5.522842" 
	style="fill-opacity:1.0; fill-rule:evenodd; fill:black; stroke:none" />
<polygon points="182.530121,43.857864 
	176.024109,76.345177 187.590363,77.644669 194.096390,45.157356 "
	style="fill-opacity:1.0; fill-rule:evenodd; fill:black; stroke:none" />
<ellipse cx="188.674706" cy="44.832485" rx="6.144585" ry="5.522842" 
	style="fill-opacity:1.0; fill-rule:evenodd; fill:black; stroke:none" />
<polygon points="176.024109,76.345177 
	174.578323,84.142128 186.144592,85.441628 187.590363,77.644669 "
	style="fill-opacity:1.0; fill-rule:evenodd; fill:black; stroke:none" />
<polygon points="174.578323,84.142128 
	174.578323,88.690346 185.421692,89.989845 186.144592,85.441628 "
	style="fill-opacity:1.0; fill-rule:evenodd; fill:black; stroke:none" />
<polygon points="174.578323,88.690346 
	173.132538,91.289330 183.975922,94.538071 185.421692,89.989845 "
	style="fill-opacity:1.0; fill-rule:evenodd; fill:black; stroke:none" />
<polygon points="173.132538,91.289330 
	170.240982,100.385788 181.084351,102.984779 183.975922,94.538071 "
	style="fill-opacity:1.0; fill-rule:evenodd; fill:black; stroke:none" />
<polygon points="170.240982,100.385788 
	165.903610,106.883247 176.024109,111.431465 181.084351,102.984779 "
	style="fill-opacity:1.0; fill-rule:evenodd; fill:black; stroke:none" />
<polygon points="165.903610,106.883247 
	162.289169,114.680206 172.409653,118.578674 176.024109,111.431465 "
	style="fill-opacity:1.0; fill-rule:evenodd; fill:black; stroke:none" />
<polygon points="162.289169,114.680206 
	157.951813,119.878174 166.626511,125.725883 172.409653,118.578674 "
	style="fill-opacity:1.0; fill-rule:evenodd; fill:black; stroke:none" />
<polygon points="157.951813,119.878174 
	152.891571,126.375633 161.566269,132.223358 166.626511,125.725883 "
	style="fill-opacity:1.0; fill-rule:evenodd; fill:black; stroke:none" />
<polygon points="152.891571,126.375633 
	147.108429,131.573608 155.783142,138.720810 161.566269,132.223358 "
	style="fill-opacity:1.0; fill-rule:evenodd; fill:black; stroke:none" />
<polygon points="147.108429,131.573608 
	123.253021,155.614212 131.927719,162.761414 155.783142,138.720810 155.783142,138.720810 
	147.108429,131.573608 "
	style="fill-opacity:1.0; fill-rule:evenodd; fill:black; stroke:none" />
<ellipse cx="127.951809" cy="159.837563" rx="6.144581" ry="5.522835" 
	style="fill-opacity:1.0; fill-rule:evenodd; fill:black; stroke:none" />
<polygon points="156.506042,122.477165 
	150.722900,132.873093 160.843384,137.421326 166.626511,127.025383 "
	style="fill-opacity:1.0; fill-rule:evenodd; fill:black; stroke:none" />
<ellipse cx="161.927711" cy="125.401016" rx="6.144569" ry="5.522842" 
	style="fill-opacity:1.0; fill-rule:evenodd; fill:black; stroke:none" />
<polygon points="150.722900,132.873093 
	149.277115,135.472076 159.397598,140.020309 160.843384,137.421326 "
	style="fill-opacity:1.0; fill-rule:evenodd; fill:black; stroke:none" />
<polygon points="149.277115,135.472076 
	148.554230,136.771576 155.783142,143.269028 159.397598,140.020309 "
	style="fill-opacity:1.0; fill-rule:evenodd; fill:black; stroke:none" />
<polygon points="148.554230,136.771576 
	145.662659,140.020309 155.783142,144.568527 155.783142,143.269028 "
	style="fill-opacity:1.0; fill-rule:evenodd; fill:black; stroke:none" />
<polygon points="145.662659,140.020309 
	144.939758,141.319794 152.168671,147.817245 155.783142,144.568527 "
	style="fill-opacity:1.0; fill-rule:evenodd; fill:black; stroke:none" />
<polygon points="144.216873,141.969543 
	131.204819,160.812180 140.602402,166.010147 153.614471,147.167511 152.168671,147.817245 
	144.939758,141.319794 "
	style="fill-opacity:1.0; fill-rule:evenodd; fill:black; stroke:none" />
<polygon points="130.481934,160.812180 
	118.915657,180.304565 129.036148,184.852783 140.602402,165.360397 140.602402,166.010147 
	131.204819,160.812180 "
	style="fill-opacity:1.0; fill-rule:evenodd; fill:black; stroke:none" />
<polygon points="118.915657,180.954315 
	109.518082,201.746185 119.638557,205.644669 129.036148,184.852783 129.036148,184.852783 
	118.915657,180.304565 "
	style="fill-opacity:1.0; fill-rule:evenodd; fill:black; stroke:none" />
<ellipse cx="114.939766" cy="204.020302" rx="6.144585" ry="5.522835" 
	style="fill-opacity:1.0; fill-rule:evenodd; fill:black; stroke:none" />
<polygon points="132.650604,103.634514 
	120.361450,153.015228 131.927719,154.964478 144.216873,105.583763 "
	style="fill-opacity:1.0; fill-rule:evenodd; fill:black; stroke:none" />
<ellipse cx="138.795181" cy="105.258877" rx="6.144577" ry="5.522839" 
	style="fill-opacity:1.0; fill-rule:evenodd; fill:black; stroke:none" />
<polygon points="120.361450,153.015228 
	114.578316,177.705582 126.144585,179.654816 131.927719,154.964478 131.927719,154.964478 
	120.361450,153.015228 "
	style="fill-opacity:1.0; fill-rule:evenodd; fill:black; stroke:none" />
<polygon points="115.301216,177.705582 
	108.072289,202.395935 118.915657,204.994919 126.144585,180.304565 126.144585,179.654816 
	114.578316,177.705582 "
	style="fill-opacity:1.0; fill-rule:evenodd; fill:black; stroke:none" />
<ellipse cx="114.216869" cy="204.020302" rx="6.144581" ry="5.522835" 
	style="fill-opacity:1.0; fill-rule:evenodd; fill:black; stroke:none" />
<polygon points="114.578316,187.451767 
	90.000000,257.624359 100.843376,260.223328 125.421692,190.050751 "
	style="fill-opacity:1.0; fill-rule:evenodd; fill:black; stroke:none" />
<ellipse cx="120.722889" cy="189.076141" rx="6.144573" ry="5.522842" 
	style="fill-opacity:1.0; fill-rule:evenodd; fill:black; stroke:none" />
<ellipse cx="96.144573" cy="259.248734" rx="6.144573" ry="5.522842" 
	style="fill-opacity:1.0; fill-rule:evenodd; fill:black; stroke:none" />
<polyline points="317.710876,494.781708 
	290.240967,397.969543 277.951843,349.888306 270.722900,301.157379 "
	style="stroke-width:8.235827; stroke-linecap:round; stroke-linejoin:round; stroke-dasharray:none; stroke:black" />
<polyline points="307.590393,409.015228 
	306.144592,384.324890 301.807251,359.634521 288.795197,311.553284 275.060242,263.472076 
	270.000031,239.431488 266.385559,214.741119 "
	style="stroke-width:8.235827; stroke-linecap:round; stroke-linejoin:round; stroke-dasharray:none; stroke:black" />
<polyline points="313.373505,470.741119 
	309.759064,444.751282 303.975922,416.812195 290.240967,358.984772 276.506042,301.807098 
	267.108429,248.527924 "
	style="stroke-width:8.235827; stroke-linecap:round; stroke-linejoin:round; stroke-dasharray:none; stroke:black" />
<polyline points="306.867462,354.436554 
	298.915649,308.304596 287.349396,266.720795 276.506042,225.137039 268.554230,179.654816 "
	style="stroke-width:8.235827; stroke-linecap:round; stroke-linejoin:round; stroke-dasharray:none; stroke:black" />
<polyline points="305.421722,312.852783 
	298.915649,270.619293 290.240967,236.832489 282.289185,204.345169 275.783173,162.111679 "
	style="stroke-width:8.235827; stroke-linecap:round; stroke-linejoin:round; stroke-dasharray:none; stroke:black" />
<polygon points="276.506042,299.208099 
	240.361450,189.401016 230.963852,191.350250 267.108429,301.157379 "
	style="fill-opacity:1.0; fill-rule:evenodd; fill:black; stroke:none" />
<ellipse cx="272.530121" cy="300.832489" rx="4.698792" ry="4.223358" 
	style="fill-opacity:1.0; fill-rule:evenodd; fill:black; stroke:none" />
<polygon points="238.192780,187.451767 
	149.277115,121.827408 143.493973,128.324860 232.409653,193.949249 230.963852,191.350250 
	240.361450,189.401016 "
	style="fill-opacity:1.0; fill-rule:evenodd; fill:black; stroke:none" />
<polygon points="240.361450,188.751266 
	238.192780,187.451767 230.963852,191.350250 232.409653,193.949249 240.361450,189.401016 "
	style="fill-opacity:1.0; fill-rule:evenodd; fill:black; stroke:none" />
<polygon points="147.108429,120.527908 
	13.373492,104.934013 12.650596,114.030457 146.385544,129.624374 143.493973,128.324860 
	149.277115,121.827408 "
	style="fill-opacity:1.0; fill-rule:evenodd; fill:black; stroke:none" />
<ellipse cx="13.734936" cy="109.807110" rx="4.698795" ry="4.223347" 
	style="fill-opacity:1.0; fill-rule:evenodd; fill:black; stroke:none" />
<polygon points="147.831329,120.527908 
	147.108429,120.527908 143.493973,128.324860 146.385544,129.624374 149.277115,121.827408 "
	style="fill-opacity:1.0; fill-rule:evenodd; fill:black; stroke:none" />
<polygon points="272.168701,245.279190 
	251.927719,184.852783 242.530121,186.802032 262.771088,247.228424 "
	style="fill-opacity:1.0; fill-rule:evenodd; fill:black; stroke:none" />
<ellipse cx="268.192780" cy="246.903542" rx="4.698792" ry="4.223351" 
	style="fill-opacity:1.0; fill-rule:evenodd; fill:black; stroke:none" />
<polygon points="249.759048,182.903549 
	152.891571,109.482231 147.108429,115.979691 243.975922,189.401016 242.530121,186.802032 
	251.927719,184.852783 "
	style="fill-opacity:1.0; fill-rule:evenodd; fill:black; stroke:none" />
<polygon points="251.927719,184.203049 
	249.759048,182.903549 242.530121,186.802032 243.975922,189.401016 251.927719,184.852783 "
	style="fill-opacity:1.0; fill-rule:evenodd; fill:black; stroke:none" />
<polygon points="151.445786,108.832481 
	30.000000,72.446701 27.108433,80.243660 148.554230,116.629440 147.108429,115.979691 
	152.891571,109.482231 "
	style="fill-opacity:1.0; fill-rule:evenodd; fill:black; stroke:none" />
<ellipse cx="28.915661" cy="76.670055" rx="4.698795" ry="4.223354" 
	style="fill-opacity:1.0; fill-rule:evenodd; fill:black; stroke:none" />
<polygon points="152.168671,108.832481 
	151.445786,108.832481 147.108429,115.979691 148.554230,116.629440 152.891571,109.482231 "
	style="fill-opacity:1.0; fill-rule:evenodd; fill:black; stroke:none" />
<polyline points="304.698792,267.370544 
	294.578308,208.243652 287.349396,149.116745 "
	style="stroke-width:8.235827; stroke-linecap:round; stroke-linejoin:round; stroke-dasharray:none; stroke:black" />
<polygon points="294.578308,149.116745 
	299.638580,102.335030 289.518097,101.685272 284.457855,148.466995 "
	style="fill-opacity:1.0; fill-rule:evenodd; fill:black; stroke:none" />
<ellipse cx="289.879517" cy="149.441620" rx="4.698792" ry="4.223358" 
	style="fill-opacity:1.0; fill-rule:evenodd; fill:black; stroke:none" />
<polygon points="298.192780,104.934013 
	358.192780,38.659901 350.963867,33.461929 290.963867,99.736038 289.518097,101.685272 
	299.638580,102.335030 "
	style="fill-opacity:1.0; fill-rule:evenodd; fill:black; stroke:none" />
<ellipse cx="354.939758" cy="36.385788" rx="4.698792" ry="4.223351" 
	style="fill-opacity:1.0; fill-rule:evenodd; fill:black; stroke:none" />
<polygon points="289.518097,101.035522 
	290.963867,99.736038 299.638580,102.335030 298.192780,104.934013 289.518097,101.685272 "
	style="fill-opacity:1.0; fill-rule:evenodd; fill:black; stroke:none" />
<polygon points="280.843384,162.111679 
	281.566254,91.939087 271.445770,91.939087 270.722900,162.111679 "
	style="fill-opacity:1.0; fill-rule:evenodd; fill:black; stroke:none" />
<ellipse cx="276.144577" cy="162.436546" rx="4.698807" ry="4.223351" 
	style="fill-opacity:1.0; fill-rule:evenodd; fill:black; stroke:none" />
<polygon points="280.843384,93.888321 
	333.614471,25.664974 325.662659,21.116753 272.891571,89.340096 271.445770,91.939087 
	281.566254,91.939087 "
	style="fill-opacity:1.0; fill-rule:evenodd; fill:black; stroke:none" />
<ellipse cx="330.361465" cy="24.040609" rx="4.698807" ry="4.223351" 
	style="fill-opacity:1.0; fill-rule:evenodd; fill:black; stroke:none" />
<polygon points="271.445770,91.289330 
	272.891571,89.340096 281.566254,91.939087 280.843384,93.888321 271.445770,91.939087 "
	style="fill-opacity:1.0; fill-rule:evenodd; fill:black; stroke:none" />
<polygon points="275.060242,179.005081 
	261.325317,88.040611 251.204834,88.690346 264.939758,179.654816 "
	style="fill-opacity:1.0; fill-rule:evenodd; fill:black; stroke:none" />
<ellipse cx="270.361450" cy="179.979698" rx="4.698792" ry="4.223351" 
	style="fill-opacity:1.0; fill-rule:evenodd; fill:black; stroke:none" />
<polygon points="260.602417,89.989845 
	300.361450,17.218273 291.686768,13.969546 251.927719,86.741112 251.204834,88.690346 
	261.325317,88.040611 "
	style="fill-opacity:1.0; fill-rule:evenodd; fill:black; stroke:none" />
<ellipse cx="296.385544" cy="16.243652" rx="4.698776" ry="4.223349" 
	style="fill-opacity:1.0; fill-rule:evenodd; fill:black; stroke:none" />
<polygon points="251.204834,88.040611 
	251.927719,86.741112 261.325317,88.040611 260.602417,89.989845 251.204834,88.690346 "
	style="fill-opacity:1.0; fill-rule:evenodd; fill:black; stroke:none" />
<polyline points="313.373505,499.979675 
	308.313263,478.538055 301.084320,460.345184 287.349396,429.807098 281.566254,414.862946 
	277.228912,398.619293 275.060242,379.776642 274.337372,356.385803 "
	style="stroke-width:8.235827; stroke-linecap:round; stroke-linejoin:round; stroke-dasharray:none; stroke:black" />
<polyline points="303.253052,498.030457 
	300.361450,477.888336 296.024109,464.893402 292.409637,456.446716 288.072296,450.598969 
	283.734955,444.751282 280.120514,436.954285 274.337372,403.167511 "
	style="stroke-width:8.235827; stroke-linecap:round; stroke-linejoin:round; stroke-dasharray:none; stroke:black" />
<polyline points="294.578308,502.578705 
	285.903625,474.639587 279.397583,446.700500 "
	style="stroke-width:8.235827; stroke-linecap:round; stroke-linejoin:round; stroke-dasharray:none; stroke:black" />
<polygon points="24.939753,491.532990 
	123.253021,203.695435 112.409645,201.096451 14.096379,488.934021 "
	style="fill-opacity:1.0; fill-rule:evenodd; fill:black; stroke:none" />
<ellipse cx="20.240958" cy="490.558380" rx="6.144578" ry="5.522827" 
	style="fill-opacity:1.0; fill-rule:evenodd; fill:black; stroke:none" />
<polygon points="112.409645,200.446701 
	4.698790,488.284271 15.542163,491.532990 123.253021,203.695435 112.409645,201.096451 
	123.253021,203.695435 "
	style="fill-opacity:1.0; fill-rule:evenodd; fill:black; stroke:none" />
<polygon points="15.542163,491.532990 
	116.024094,203.045685 105.180717,200.446701 4.698790,488.934021 15.542163,491.532990 
	4.698790,488.284271 "
	style="fill-opacity:1.0; fill-rule:evenodd; fill:black; stroke:none" />
<polygon points="116.024094,203.045685 
	125.421692,174.456863 114.578316,171.857880 105.180717,200.446701 105.180717,200.446701 
	116.024094,203.045685 "
	style="fill-opacity:1.0; fill-rule:evenodd; fill:black; stroke:none" />
<ellipse cx="120.722889" cy="173.482231" rx="6.144573" ry="5.522850" 
	style="fill-opacity:1.0; fill-rule:evenodd; fill:black; stroke:none" />
<polygon points="116.024094,203.045685 
	116.024094,203.045685 105.180717,200.446701 105.180717,200.446701 116.024094,203.045685 "
	style="fill-opacity:1.0; fill-rule:evenodd; fill:black; stroke:none" />
<ellipse cx="15.542165" cy="498.030457" rx="15.180721" ry="13.644684" 
	style="fill-opacity:1.0; fill-rule:evenodd; fill:black; stroke:none" />
<ellipse cx="15.542168" cy="498.030457" rx="14.457832" ry="12.994904" 
	style="fill-opacity:1.0; fill-rule:evenodd; fill:black; stroke:none" />
<ellipse cx="15.542168" cy="498.030457" rx="14.457832" ry="12.994904" 
	style="fill-opacity:1.0; fill-rule:evenodd; fill:black; stroke:none" />
<ellipse cx="15.542165" cy="498.030457" rx="13.734938" ry="12.345184" 
	style="fill-opacity:1.0; fill-rule:evenodd; fill:black; stroke:none" />
<ellipse cx="15.542165" cy="498.030457" rx="13.734938" ry="12.345184" 
	style="fill-opacity:1.0; fill-rule:evenodd; fill:black; stroke:none" />
<ellipse cx="15.542165" cy="498.030457" rx="13.012051" ry="11.695435" 
	style="fill-opacity:1.0; fill-rule:evenodd; fill:black; stroke:none" />
<ellipse cx="15.542165" cy="498.030457" rx="13.012051" ry="11.695435" 
	style="fill-opacity:1.0; fill-rule:evenodd; fill:black; stroke:none" />
<ellipse cx="15.542163" cy="498.030457" rx="12.289157" ry="11.045685" 
	style="fill-opacity:1.0; fill-rule:evenodd; fill:black; stroke:none" />
<ellipse cx="15.542163" cy="498.030457" rx="12.289157" ry="11.045685" 
	style="fill-opacity:1.0; fill-rule:evenodd; fill:black; stroke:none" />
<ellipse cx="15.542165" cy="498.030457" rx="11.566267" ry="10.395935" 
	style="fill-opacity:1.0; fill-rule:evenodd; fill:black; stroke:none" />
<ellipse cx="15.542165" cy="498.030457" rx="11.566267" ry="10.395935" 
	style="fill-opacity:1.0; fill-rule:evenodd; fill:black; stroke:none" />
<ellipse cx="15.542163" cy="498.030472" rx="10.843373" ry="9.746201" 
	style="fill-opacity:1.0; fill-rule:evenodd; fill:black; stroke:none" />
<ellipse cx="15.542163" cy="498.030472" rx="10.843373" ry="9.746201" 
	style="fill-opacity:1.0; fill-rule:evenodd; fill:black; stroke:none" />
<ellipse cx="15.542166" cy="498.030457" rx="10.120483" ry="9.096436" 
	style="fill-opacity:1.0; fill-rule:evenodd; fill:black; stroke:none" />
<ellipse cx="15.542166" cy="498.030457" rx="10.120483" ry="9.096436" 
	style="fill-opacity:1.0; fill-rule:evenodd; fill:black; stroke:none" />
<ellipse cx="15.542163" cy="498.030457" rx="9.397590" ry="8.446716" 
	style="fill-opacity:1.0; fill-rule:evenodd; fill:black; stroke:none" />
<ellipse cx="15.542163" cy="498.030457" rx="9.397590" ry="8.446716" 
	style="fill-opacity:1.0; fill-rule:evenodd; fill:black; stroke:none" />
<ellipse cx="15.542166" cy="498.030457" rx="8.674700" ry="7.796936" 
	style="fill-opacity:1.0; fill-rule:evenodd; fill:black; stroke:none" />
<ellipse cx="15.542166" cy="498.030457" rx="8.674700" ry="7.796936" 
	style="fill-opacity:1.0; fill-rule:evenodd; fill:black; stroke:none" />
<ellipse cx="15.542163" cy="498.030457" rx="7.951806" ry="7.147217" 
	style="fill-opacity:1.0; fill-rule:evenodd; fill:black; stroke:none" />
<ellipse cx="15.542163" cy="498.030457" rx="7.951806" ry="7.147217" 
	style="fill-opacity:1.0; fill-rule:evenodd; fill:black; stroke:none" />
<ellipse cx="15.542166" cy="498.030457" rx="7.228916" ry="6.497467" 
	style="fill-opacity:1.0; fill-rule:evenodd; fill:black; stroke:none" />
<ellipse cx="15.542166" cy="498.030457" rx="7.228916" ry="6.497467" 
	style="fill-opacity:1.0; fill-rule:evenodd; fill:black; stroke:none" />
<ellipse cx="15.542163" cy="498.030457" rx="6.506022" ry="5.847717" 
	style="fill-opacity:1.0; fill-rule:evenodd; fill:black; stroke:none" />
<ellipse cx="15.542163" cy="498.030457" rx="6.506022" ry="5.847717" 
	style="fill-opacity:1.0; fill-rule:evenodd; fill:black; stroke:none" />
<ellipse cx="15.542166" cy="498.030457" rx="5.783133" ry="5.197968" 
	style="fill-opacity:1.0; fill-rule:evenodd; fill:black; stroke:none" />
<ellipse cx="15.542166" cy="498.030457" rx="5.783133" ry="5.197968" 
	style="fill-opacity:1.0; fill-rule:evenodd; fill:black; stroke:none" />
<ellipse cx="15.542168" cy="498.030457" rx="5.060243" ry="4.548248" 
	style="fill-opacity:1.0; fill-rule:evenodd; fill:black; stroke:none" />
<ellipse cx="15.542168" cy="498.030457" rx="5.060243" ry="4.548248" 
	style="fill-opacity:1.0; fill-rule:evenodd; fill:black; stroke:none" />
<ellipse cx="15.542166" cy="498.030457" rx="4.337349" ry="3.898468" 
	style="fill-opacity:1.0; fill-rule:evenodd; fill:black; stroke:none" />
<ellipse cx="15.542166" cy="498.030457" rx="4.337349" ry="3.898468" 
	style="fill-opacity:1.0; fill-rule:evenodd; fill:black; stroke:none" />
<ellipse cx="15.542168" cy="498.030457" rx="3.614460" ry="3.248749" 
	style="fill-opacity:1.0; fill-rule:evenodd; fill:black; stroke:none" />
<ellipse cx="15.542168" cy="498.030457" rx="3.614460" ry="3.248749" 
	style="fill-opacity:1.0; fill-rule:evenodd; fill:black; stroke:none" />
<ellipse cx="15.542163" cy="498.030472" rx="2.891568" ry="2.598984" 
	style="fill-opacity:1.0; fill-rule:evenodd; fill:black; stroke:none" />
<ellipse cx="15.542163" cy="498.030472" rx="2.891568" ry="2.598984" 
	style="fill-opacity:1.0; fill-rule:evenodd; fill:black; stroke:none" />
<ellipse cx="15.542168" cy="498.030441" rx="2.168676" ry="1.949234" 
	style="fill-opacity:1.0; fill-rule:evenodd; fill:black; stroke:none" />
<ellipse cx="15.542168" cy="498.030441" rx="2.168676" ry="1.949234" 
	style="fill-opacity:1.0; fill-rule:evenodd; fill:black; stroke:none" />
<ellipse cx="15.542163" cy="498.030457" rx="1.445784" ry="1.299500" 
	style="fill-opacity:1.0; fill-rule:evenodd; fill:black; stroke:none" />
<ellipse cx="15.542163" cy="498.030457" rx="1.445784" ry="1.299500" 
	style="fill-opacity:1.0; fill-rule:evenodd; fill:black; stroke:none" />
<ellipse cx="15.542168" cy="498.030441" rx="0.722892" ry="0.649734" 
	style="fill-opacity:1.0; fill-rule:evenodd; fill:black; stroke:none" />
<ellipse cx="15.542168" cy="498.030441" rx="0.722892" ry="0.649734" 
	style="fill-opacity:1.0; fill-rule:evenodd; fill:black; stroke:none" />
<polygon points="8.313250,506.477173 
	8.313250,488.934021 22.048185,490.883240 8.313250,506.477173 "
	style="fill-opacity:1.0; fill-rule:evenodd; fill:black; stroke:none" />
<ellipse cx="15.542165" cy="498.030457" rx="15.180721" ry="13.644684" 
	style="fill-opacity:1.0; fill-rule:evenodd; fill:black; stroke:none" />
<ellipse cx="15.542168" cy="498.030457" rx="14.457832" ry="12.994904" 
	style="fill-opacity:1.0; fill-rule:evenodd; fill:black; stroke:none" />
<ellipse cx="15.542168" cy="498.030457" rx="14.457832" ry="12.994904" 
	style="fill-opacity:1.0; fill-rule:evenodd; fill:black; stroke:none" />
<ellipse cx="15.542165" cy="498.030457" rx="13.734938" ry="12.345184" 
	style="fill-opacity:1.0; fill-rule:evenodd; fill:black; stroke:none" />
<ellipse cx="15.542165" cy="498.030457" rx="13.734938" ry="12.345184" 
	style="fill-opacity:1.0; fill-rule:evenodd; fill:black; stroke:none" />
<ellipse cx="15.542165" cy="498.030457" rx="13.012051" ry="11.695435" 
	style="fill-opacity:1.0; fill-rule:evenodd; fill:black; stroke:none" />
<ellipse cx="15.542165" cy="498.030457" rx="13.012051" ry="11.695435" 
	style="fill-opacity:1.0; fill-rule:evenodd; fill:black; stroke:none" />
<ellipse cx="15.542163" cy="498.030457" rx="12.289157" ry="11.045685" 
	style="fill-opacity:1.0; fill-rule:evenodd; fill:black; stroke:none" />
<ellipse cx="15.542163" cy="498.030457" rx="12.289157" ry="11.045685" 
	style="fill-opacity:1.0; fill-rule:evenodd; fill:black; stroke:none" />
<ellipse cx="15.542165" cy="498.030457" rx="11.566267" ry="10.395935" 
	style="fill-opacity:1.0; fill-rule:evenodd; fill:black; stroke:none" />
<ellipse cx="15.542165" cy="498.030457" rx="11.566267" ry="10.395935" 
	style="fill-opacity:1.0; fill-rule:evenodd; fill:black; stroke:none" />
<ellipse cx="15.542163" cy="498.030472" rx="10.843373" ry="9.746201" 
	style="fill-opacity:1.0; fill-rule:evenodd; fill:black; stroke:none" />
<ellipse cx="15.542163" cy="498.030472" rx="10.843373" ry="9.746201" 
	style="fill-opacity:1.0; fill-rule:evenodd; fill:black; stroke:none" />
<ellipse cx="15.542166" cy="498.030457" rx="10.120483" ry="9.096436" 
	style="fill-opacity:1.0; fill-rule:evenodd; fill:black; stroke:none" />
<ellipse cx="15.542166" cy="498.030457" rx="10.120483" ry="9.096436" 
	style="fill-opacity:1.0; fill-rule:evenodd; fill:black; stroke:none" />
<ellipse cx="15.542163" cy="498.030457" rx="9.397590" ry="8.446716" 
	style="fill-opacity:1.0; fill-rule:evenodd; fill:black; stroke:none" />
<ellipse cx="15.542163" cy="498.030457" rx="9.397590" ry="8.446716" 
	style="fill-opacity:1.0; fill-rule:evenodd; fill:black; stroke:none" />
<ellipse cx="15.542166" cy="498.030457" rx="8.674700" ry="7.796936" 
	style="fill-opacity:1.0; fill-rule:evenodd; fill:black; stroke:none" />
<ellipse cx="15.542166" cy="498.030457" rx="8.674700" ry="7.796936" 
	style="fill-opacity:1.0; fill-rule:evenodd; fill:black; stroke:none" />
<ellipse cx="15.542163" cy="498.030457" rx="7.951806" ry="7.147217" 
	style="fill-opacity:1.0; fill-rule:evenodd; fill:black; stroke:none" />
<ellipse cx="15.542163" cy="498.030457" rx="7.951806" ry="7.147217" 
	style="fill-opacity:1.0; fill-rule:evenodd; fill:black; stroke:none" />
<ellipse cx="15.542166" cy="498.030457" rx="7.228916" ry="6.497467" 
	style="fill-opacity:1.0; fill-rule:evenodd; fill:black; stroke:none" />
<ellipse cx="15.542166" cy="498.030457" rx="7.228916" ry="6.497467" 
	style="fill-opacity:1.0; fill-rule:evenodd; fill:black; stroke:none" />
<ellipse cx="15.542163" cy="498.030457" rx="6.506022" ry="5.847717" 
	style="fill-opacity:1.0; fill-rule:evenodd; fill:black; stroke:none" />
<ellipse cx="15.542163" cy="498.030457" rx="6.506022" ry="5.847717" 
	style="fill-opacity:1.0; fill-rule:evenodd; fill:black; stroke:none" />
<ellipse cx="15.542166" cy="498.030457" rx="5.783133" ry="5.197968" 
	style="fill-opacity:1.0; fill-rule:evenodd; fill:black; stroke:none" />
<ellipse cx="15.542166" cy="498.030457" rx="5.783133" ry="5.197968" 
	style="fill-opacity:1.0; fill-rule:evenodd; fill:black; stroke:none" />
<ellipse cx="15.542168" cy="498.030457" rx="5.060243" ry="4.548248" 
	style="fill-opacity:1.0; fill-rule:evenodd; fill:black; stroke:none" />
<ellipse cx="15.542168" cy="498.030457" rx="5.060243" ry="4.548248" 
	style="fill-opacity:1.0; fill-rule:evenodd; fill:black; stroke:none" />
<ellipse cx="15.542166" cy="498.030457" rx="4.337349" ry="3.898468" 
	style="fill-opacity:1.0; fill-rule:evenodd; fill:black; stroke:none" />
<ellipse cx="15.542166" cy="498.030457" rx="4.337349" ry="3.898468" 
	style="fill-opacity:1.0; fill-rule:evenodd; fill:black; stroke:none" />
<ellipse cx="15.542168" cy="498.030457" rx="3.614460" ry="3.248749" 
	style="fill-opacity:1.0; fill-rule:evenodd; fill:black; stroke:none" />
<ellipse cx="15.542168" cy="498.030457" rx="3.614460" ry="3.248749" 
	style="fill-opacity:1.0; fill-rule:evenodd; fill:black; stroke:none" />
<ellipse cx="15.542163" cy="498.030472" rx="2.891568" ry="2.598984" 
	style="fill-opacity:1.0; fill-rule:evenodd; fill:black; stroke:none" />
<ellipse cx="15.542163" cy="498.030472" rx="2.891568" ry="2.598984" 
	style="fill-opacity:1.0; fill-rule:evenodd; fill:black; stroke:none" />
<ellipse cx="15.542168" cy="498.030441" rx="2.168676" ry="1.949234" 
	style="fill-opacity:1.0; fill-rule:evenodd; fill:black; stroke:none" />
<ellipse cx="15.542168" cy="498.030441" rx="2.168676" ry="1.949234" 
	style="fill-opacity:1.0; fill-rule:evenodd; fill:black; stroke:none" />
<ellipse cx="15.542163" cy="498.030457" rx="1.445784" ry="1.299500" 
	style="fill-opacity:1.0; fill-rule:evenodd; fill:black; stroke:none" />
<ellipse cx="15.542163" cy="498.030457" rx="1.445784" ry="1.299500" 
	style="fill-opacity:1.0; fill-rule:evenodd; fill:black; stroke:none" />
<ellipse cx="15.542168" cy="498.030441" rx="0.722892" ry="0.649734" 
	style="fill-opacity:1.0; fill-rule:evenodd; fill:black; stroke:none" />
<ellipse cx="15.542168" cy="498.030441" rx="0.722892" ry="0.649734" 
	style="fill-opacity:1.0; fill-rule:evenodd; fill:black; stroke:none" />
<polyline points="8.313250,506.477173 
	8.313250,488.934021 22.048185,490.883240 8.313250,506.477173 "
	style="stroke-width:4.804233; stroke-linecap:round; stroke-linejoin:round; stroke-dasharray:none; stroke:black" />
<polygon points="121.084351,209.543137 
	181.807220,99.086288 171.686752,94.538071 110.963852,204.994919 "
	style="fill-opacity:1.0; fill-rule:evenodd; fill:black; stroke:none" />
<ellipse cx="116.385548" cy="207.918785" rx="6.144573" ry="5.522850" 
	style="fill-opacity:1.0; fill-rule:evenodd; fill:black; stroke:none" />
<polygon points="182.530121,97.786804 
	195.542175,41.258881 183.975922,39.309643 170.963852,95.837570 171.686752,94.538071 
	181.807220,99.086288 "
	style="fill-opacity:1.0; fill-rule:evenodd; fill:black; stroke:none" />
<ellipse cx="176.747002" cy="97.137054" rx="6.506020" ry="5.847725" 
	style="fill-opacity:1.0; fill-rule:evenodd; fill:black; stroke:none" />
<polygon points="185.421692,37.360409 
	136.265060,95.837570 145.662659,101.685272 194.819290,43.208122 183.975922,39.309643 
	195.542175,41.258881 "
	style="fill-opacity:1.0; fill-rule:evenodd; fill:black; stroke:none" />
<ellipse cx="189.759041" cy="40.609138" rx="6.506020" ry="5.847713" 
	style="fill-opacity:1.0; fill-rule:evenodd; fill:black; stroke:none" />
<polygon points="135.542160,97.786804 
	105.180717,200.446701 116.024094,203.045685 146.385544,100.385788 145.662659,101.685272 
	136.265060,95.837570 "
	style="fill-opacity:1.0; fill-rule:evenodd; fill:black; stroke:none" />
<ellipse cx="111.325302" cy="202.071068" rx="6.144585" ry="5.522835" 
	style="fill-opacity:1.0; fill-rule:evenodd; fill:black; stroke:none" />
<ellipse cx="140.602409" cy="99.086300" rx="6.506020" ry="5.847713" 
	style="fill-opacity:1.0; fill-rule:evenodd; fill:black; stroke:none" />
<polygon points="275.783173,210.842636 
	236.024109,83.492393 226.626511,85.441628 266.385559,212.791870 "
	style="fill-opacity:1.0; fill-rule:evenodd; fill:black; stroke:none" />
<ellipse cx="271.807236" cy="212.467003" rx="4.698807" ry="4.223351" 
	style="fill-opacity:1.0; fill-rule:evenodd; fill:black; stroke:none" />
<polygon points="235.301224,86.091362 
	270.000031,5.522842 261.325317,2.923857 226.626511,83.492393 226.626511,85.441628 
	236.024109,83.492393 "
	style="fill-opacity:1.0; fill-rule:evenodd; fill:black; stroke:none" />
<ellipse cx="266.024109" cy="4.548223" rx="4.698792" ry="4.223352" 
	style="fill-opacity:1.0; fill-rule:evenodd; fill:black; stroke:none" />
<polygon points="226.626511,84.142128 
	226.626511,83.492393 236.024109,83.492393 235.301224,86.091362 226.626511,85.441628 "
	style="fill-opacity:1.0; fill-rule:evenodd; fill:black; stroke:none" />
</svg>
