<?xml version="1.0" standalone="no"?>
<!DOCTYPE svg PUBLIC "-//W3C//DTD SVG 20001102//EN"
"http://www.w3.org/TR/2000/CR-SVG-20001102/DTD/svg-20001102.dtd">
<svg width="320" height="512"
	xmlns:sodipodi="http://sodipodi.sourceforge.net/DTD/sodipodi-0.dtd">
<desc>wmf2svg</desc>
<polygon points="22.030340,489.165802 
	138.529755,163.698471 127.327888,161.125610 10.828468,486.592926 "
	style="fill-opacity:1.0; fill-rule:evenodd; fill:black; stroke:none" />
<ellipse cx="17.176191" cy="488.200974" rx="6.347723" ry="5.467331" 
	style="fill-opacity:1.0; fill-rule:evenodd; fill:black; stroke:none" />
<polygon points="138.529755,162.412048 
	139.276550,155.979874 127.327888,155.336670 126.581093,161.768829 127.327888,161.125610 
	138.529755,163.698471 "
	style="fill-opacity:1.0; fill-rule:evenodd; fill:black; stroke:none" />
<polygon points="139.276550,156.623108 
	142.263718,139.899490 130.315063,138.613068 127.327888,155.336670 127.327888,155.336670 
	139.276550,155.979874 "
	style="fill-opacity:1.0; fill-rule:evenodd; fill:black; stroke:none" />
<polygon points="142.263718,139.899490 
	146.744461,118.673363 134.795792,116.743721 130.315063,137.969849 130.315063,138.613068 
	142.263718,139.899490 "
	style="fill-opacity:1.0; fill-rule:evenodd; fill:black; stroke:none" />
<polygon points="146.744461,119.316566 
	154.212387,100.020088 143.010498,96.804016 135.542587,116.100494 134.795792,116.743721 
	146.744461,118.673363 "
	style="fill-opacity:1.0; fill-rule:evenodd; fill:black; stroke:none" />
<ellipse cx="132.555435" cy="162.412048" rx="6.721115" ry="5.788940" 
	style="fill-opacity:1.0; fill-rule:evenodd; fill:black; stroke:none" />
<polygon points="153.465591,101.306526 
	163.920654,85.869339 154.212387,80.723602 143.757294,96.160797 143.010498,96.804016 
	154.212387,100.020088 "
	style="fill-opacity:1.0; fill-rule:evenodd; fill:black; stroke:none" />
<polygon points="163.173859,85.869339 
	174.375732,73.005020 165.414246,67.216080 154.212387,80.080406 154.212387,80.723602 
	163.920654,85.869339 "
	style="fill-opacity:1.0; fill-rule:evenodd; fill:black; stroke:none" />
<polygon points="174.375732,73.648232 
	198.273056,51.135674 189.311554,44.060299 165.414246,66.572853 165.414246,67.216080 
	174.375732,73.005020 "
	style="fill-opacity:1.0; fill-rule:evenodd; fill:black; stroke:none" />
<ellipse cx="194.165710" cy="48.241203" rx="6.347717" ry="5.467335" 
	style="fill-opacity:1.0; fill-rule:evenodd; fill:black; stroke:none" />
<polygon points="189.311554,47.919598 
	185.577591,63.356781 197.526260,65.286423 201.260223,49.849243 "
	style="fill-opacity:1.0; fill-rule:evenodd; fill:black; stroke:none" />
<ellipse cx="195.659286" cy="49.527636" rx="6.347733" ry="5.467337" 
	style="fill-opacity:1.0; fill-rule:evenodd; fill:black; stroke:none" />
<polygon points="185.577591,63.999992 
	182.590454,80.080406 194.539093,81.366829 197.526260,65.286423 197.526260,65.286423 
	185.577591,63.356781 "
	style="fill-opacity:1.0; fill-rule:evenodd; fill:black; stroke:none" />
<polygon points="182.590454,80.080406 
	181.096863,88.442200 193.045517,89.728645 194.539093,81.366829 "
	style="fill-opacity:1.0; fill-rule:evenodd; fill:black; stroke:none" />
<polygon points="181.096863,88.442200 
	179.603287,95.517578 190.805145,97.447220 193.045517,89.728645 "
	style="fill-opacity:1.0; fill-rule:evenodd; fill:black; stroke:none" />
<polygon points="179.603287,95.517578 
	176.616119,103.879395 187.817993,106.452255 190.805145,97.447220 "
	style="fill-opacity:1.0; fill-rule:evenodd; fill:black; stroke:none" />
<polygon points="176.616119,103.879395 
	172.135361,110.311546 182.590454,114.814056 187.817993,106.452255 "
	style="fill-opacity:1.0; fill-rule:evenodd; fill:black; stroke:none" />
<polygon points="172.135361,110.311546 
	168.401413,118.030144 178.856491,121.889427 182.590454,114.814056 "
	style="fill-opacity:1.0; fill-rule:evenodd; fill:black; stroke:none" />
<polygon points="168.401413,118.030144 
	163.920654,123.175873 172.882156,128.964828 178.856491,121.889427 "
	style="fill-opacity:1.0; fill-rule:evenodd; fill:black; stroke:none" />
<polygon points="163.920654,123.175873 
	151.972000,135.396973 160.933487,141.829132 172.882156,129.608032 172.882156,128.964828 
	163.920654,123.175873 "
	style="fill-opacity:1.0; fill-rule:evenodd; fill:black; stroke:none" />
<polygon points="151.972000,135.396973 
	128.074692,159.195969 137.036179,165.628113 160.933487,141.829132 160.933487,141.829132 
	151.972000,135.396973 "
	style="fill-opacity:1.0; fill-rule:evenodd; fill:black; stroke:none" />
<ellipse cx="132.928822" cy="162.733658" rx="6.347729" ry="5.467331" 
	style="fill-opacity:1.0; fill-rule:evenodd; fill:black; stroke:none" />
<polygon points="163.173859,126.391960 
	149.731628,145.688431 159.439926,150.834167 172.882156,131.537674 "
	style="fill-opacity:1.0; fill-rule:evenodd; fill:black; stroke:none" />
<ellipse cx="168.774803" cy="129.286423" rx="6.347725" ry="5.467331" 
	style="fill-opacity:1.0; fill-rule:evenodd; fill:black; stroke:none" />
<polygon points="149.731628,145.688431 
	136.289383,164.341690 145.997665,169.487427 159.439926,150.834167 159.439926,150.834167 
	149.731628,145.688431 "
	style="fill-opacity:1.0; fill-rule:evenodd; fill:black; stroke:none" />
<polygon points="135.542587,164.341690 
	123.593933,183.638168 134.049026,188.140686 145.997665,168.844208 145.997665,169.487427 
	136.289383,164.341690 "
	style="fill-opacity:1.0; fill-rule:evenodd; fill:black; stroke:none" />
<polygon points="123.593933,184.281403 
	118.366394,194.572861 128.821487,198.432144 134.049026,188.140686 134.049026,188.140686 
	123.593933,183.638168 "
	style="fill-opacity:1.0; fill-rule:evenodd; fill:black; stroke:none" />
<polygon points="118.366394,194.572861 
	114.632454,204.221100 125.834320,207.437164 129.568268,197.788925 128.821487,198.432144 
	118.366394,194.572861 "
	style="fill-opacity:1.0; fill-rule:evenodd; fill:black; stroke:none" />
<ellipse cx="120.980171" cy="206.472343" rx="6.347717" ry="5.467339" 
	style="fill-opacity:1.0; fill-rule:evenodd; fill:black; stroke:none" />
<polygon points="137.036179,107.738678 
	125.087524,155.979874 137.036179,157.909546 148.984833,109.668327 "
	style="fill-opacity:1.0; fill-rule:evenodd; fill:black; stroke:none" />
<ellipse cx="143.383904" cy="109.346725" rx="6.347725" ry="5.467331" 
	style="fill-opacity:1.0; fill-rule:evenodd; fill:black; stroke:none" />
<polygon points="125.087524,155.979874 
	119.113190,180.422089 131.061859,182.351746 137.036179,157.909546 137.036179,157.909546 
	125.087524,155.979874 "
	style="fill-opacity:1.0; fill-rule:evenodd; fill:black; stroke:none" />
<polygon points="119.859985,180.422089 
	111.645287,204.864304 122.847153,207.437164 131.061859,182.994949 131.061859,182.351746 
	119.113190,180.422089 "
	style="fill-opacity:1.0; fill-rule:evenodd; fill:black; stroke:none" />
<ellipse cx="117.993008" cy="206.472343" rx="6.347721" ry="5.467339" 
	style="fill-opacity:1.0; fill-rule:evenodd; fill:black; stroke:none" />
<polygon points="119.113190,190.713547 
	93.722290,260.180878 104.924156,262.753754 130.315063,193.286423 "
	style="fill-opacity:1.0; fill-rule:evenodd; fill:black; stroke:none" />
<ellipse cx="125.460907" cy="192.321594" rx="6.347717" ry="5.467331" 
	style="fill-opacity:1.0; fill-rule:evenodd; fill:black; stroke:none" />
<ellipse cx="100.070011" cy="261.788925" rx="6.347721" ry="5.467331" 
	style="fill-opacity:1.0; fill-rule:evenodd; fill:black; stroke:none" />
<polyline points="315.519257,496.884369 
	307.304565,447.999969 294.609131,399.758789 283.407227,352.160767 275.939362,303.919586 "
	style="stroke-width:8.340044; stroke-linecap:round; stroke-linejoin:round; stroke-dasharray:none; stroke:black" />
<polyline points="314.025696,409.407013 
	313.278900,384.964783 309.544922,360.522583 298.343079,311.638153 286.394409,262.753754 
	278.179718,213.226120 "
	style="stroke-width:8.340044; stroke-linecap:round; stroke-linejoin:round; stroke-dasharray:none; stroke:black" />
<polyline points="311.785309,446.070312 
	304.317413,397.185883 293.862335,348.944702 283.407227,300.703491 276.686127,251.819077 "
	style="stroke-width:8.340044; stroke-linecap:round; stroke-linejoin:round; stroke-dasharray:none; stroke:black" />
<polyline points="314.772491,354.733643 
	306.557770,309.065308 296.102722,267.899475 285.647644,227.376862 278.179718,182.351746 "
	style="stroke-width:8.340044; stroke-linecap:round; stroke-linejoin:round; stroke-dasharray:none; stroke:black" />
<polyline points="313.278900,312.924591 
	307.304565,271.115540 299.089844,238.311523 291.621948,206.150742 285.647644,164.984909 "
	style="stroke-width:8.340044; stroke-linecap:round; stroke-linejoin:round; stroke-dasharray:none; stroke:black" />
<polygon points="281.166870,302.633148 
	248.308060,192.643188 238.599792,194.572861 271.458618,304.562775 "
	style="fill-opacity:1.0; fill-rule:evenodd; fill:black; stroke:none" />
<ellipse cx="277.059525" cy="304.241180" rx="4.854141" ry="4.180878" 
	style="fill-opacity:1.0; fill-rule:evenodd; fill:black; stroke:none" />
<polygon points="246.067688,190.713547 
	154.212387,125.748734 148.238052,132.180893 240.093353,197.145721 238.599792,194.572861 
	248.308060,192.643188 "
	style="fill-opacity:1.0; fill-rule:evenodd; fill:black; stroke:none" />
<polygon points="248.308060,191.999985 
	246.067688,190.713547 238.599792,194.572861 240.093353,197.145721 248.308060,192.643188 "
	style="fill-opacity:1.0; fill-rule:evenodd; fill:black; stroke:none" />
<polygon points="151.972000,124.462296 
	13.815630,108.381905 13.068843,117.386917 151.225220,133.467331 148.238052,132.180893 
	154.212387,125.748734 "
	style="fill-opacity:1.0; fill-rule:evenodd; fill:black; stroke:none" />
<ellipse cx="14.189030" cy="113.206020" rx="4.854145" ry="4.180897" 
	style="fill-opacity:1.0; fill-rule:evenodd; fill:black; stroke:none" />
<polygon points="152.718796,124.462296 
	151.972000,124.462296 148.238052,132.180893 151.225220,133.467331 154.212387,125.748734 "
	style="fill-opacity:1.0; fill-rule:evenodd; fill:black; stroke:none" />
<polygon points="281.166870,247.316544 
	259.509918,186.854263 250.548431,188.783905 272.205383,249.246231 "
	style="fill-opacity:1.0; fill-rule:evenodd; fill:black; stroke:none" />
<ellipse cx="277.059525" cy="248.924606" rx="4.854141" ry="4.180908" 
	style="fill-opacity:1.0; fill-rule:evenodd; fill:black; stroke:none" />
<polygon points="258.016357,184.924622 
	158.693130,112.884415 152.718796,119.316566 252.042023,191.356766 250.548431,188.783905 
	259.509918,186.854263 "
	style="fill-opacity:1.0; fill-rule:evenodd; fill:black; stroke:none" />
<polygon points="258.763153,185.567825 
	258.016357,184.924622 250.548431,188.783905 252.042023,191.356766 259.509918,186.854263 "
	style="fill-opacity:1.0; fill-rule:evenodd; fill:black; stroke:none" />
<polygon points="156.452759,111.597984 
	15.309213,91.658287 13.815630,100.020088 154.959167,119.959785 152.718796,119.316566 
	158.693130,112.884415 "
	style="fill-opacity:1.0; fill-rule:evenodd; fill:black; stroke:none" />
<ellipse cx="14.935819" cy="96.482407" rx="4.854142" ry="4.180901" 
	style="fill-opacity:1.0; fill-rule:evenodd; fill:black; stroke:none" />
<polygon points="157.199524,111.597984 
	156.452759,111.597984 152.718796,119.316566 154.959167,119.959785 158.693130,112.884415 "
	style="fill-opacity:1.0; fill-rule:evenodd; fill:black; stroke:none" />
<polygon points="283.407227,211.296478 
	265.484283,178.492447 256.522766,181.708527 274.445770,214.512543 "
	style="fill-opacity:1.0; fill-rule:evenodd; fill:black; stroke:none" />
<ellipse cx="279.299911" cy="213.547722" rx="4.854141" ry="4.180901" 
	style="fill-opacity:1.0; fill-rule:evenodd; fill:black; stroke:none" />
<polygon points="264.737457,177.206024 
	164.667450,100.020088 157.946320,106.452255 258.016357,183.638168 256.522766,181.708527 
	265.484283,178.492447 "
	style="fill-opacity:1.0; fill-rule:evenodd; fill:black; stroke:none" />
<polygon points="264.737457,177.206024 
	264.737457,177.206024 256.522766,181.708527 258.016357,183.638168 265.484283,178.492447 "
	style="fill-opacity:1.0; fill-rule:evenodd; fill:black; stroke:none" />
<polygon points="161.680283,98.733665 
	22.030340,73.005020 20.536758,81.366829 160.186691,107.095474 157.946320,106.452255 
	164.667450,100.020088 "
	style="fill-opacity:1.0; fill-rule:evenodd; fill:black; stroke:none" />
<ellipse cx="21.656938" cy="77.829140" rx="4.854142" ry="4.180908" 
	style="fill-opacity:1.0; fill-rule:evenodd; fill:black; stroke:none" />
<polygon points="163.173859,98.733665 
	161.680283,98.733665 157.946320,106.452255 160.186691,107.095474 164.667450,100.020088 "
	style="fill-opacity:1.0; fill-rule:evenodd; fill:black; stroke:none" />
<polyline points="309.544922,267.899475 
	297.596252,152.763809 "
	style="stroke-width:8.340044; stroke-linecap:round; stroke-linejoin:round; stroke-dasharray:none; stroke:black" />
<polyline points="310.291748,502.030121 
	303.570587,460.864288 294.609131,429.989929 285.647644,399.115540 278.179718,357.949738 "
	style="stroke-width:8.340044; stroke-linecap:round; stroke-linejoin:round; stroke-dasharray:none; stroke:black" />
<polyline points="302.077057,503.316559 
	296.849487,469.226074 290.875153,453.145691 285.647644,437.708496 279.673309,403.618073 "
	style="stroke-width:8.340044; stroke-linecap:round; stroke-linejoin:round; stroke-dasharray:none; stroke:black" />
<polyline points="293.862335,503.316559 
	282.660461,467.939667 279.673309,441.567810 "
	style="stroke-width:8.340044; stroke-linecap:round; stroke-linejoin:round; stroke-dasharray:none; stroke:black" />
<polygon points="25.764294,491.095428 
	127.327888,206.150742 116.126022,203.577881 14.562426,488.522552 "
	style="fill-opacity:1.0; fill-rule:evenodd; fill:black; stroke:none" />
<ellipse cx="20.910151" cy="490.130615" rx="6.347725" ry="5.467346" 
	style="fill-opacity:1.0; fill-rule:evenodd; fill:black; stroke:none" />
<polygon points="116.126022,202.934662 
	6.347720,487.879364 17.549591,491.095428 127.327888,206.150742 116.126022,203.577881 
	127.327888,206.150742 "
	style="fill-opacity:1.0; fill-rule:evenodd; fill:black; stroke:none" />
<polygon points="17.549591,491.095428 
	120.606766,205.507523 109.404900,202.934662 6.347720,488.522552 17.549591,491.095428 
	6.347720,487.879364 "
	style="fill-opacity:1.0; fill-rule:evenodd; fill:black; stroke:none" />
<polygon points="120.606766,205.507523 
	130.315063,177.849228 119.113190,175.276382 109.404900,202.934662 109.404900,202.934662 
	120.606766,205.507523 "
	style="fill-opacity:1.0; fill-rule:evenodd; fill:black; stroke:none" />
<ellipse cx="125.460907" cy="176.884407" rx="6.347717" ry="5.467339" 
	style="fill-opacity:1.0; fill-rule:evenodd; fill:black; stroke:none" />
<polygon points="120.606766,205.507523 
	120.606766,205.507523 109.404900,202.934662 109.404900,202.934662 120.606766,205.507523 "
	style="fill-opacity:1.0; fill-rule:evenodd; fill:black; stroke:none" />
<ellipse cx="16.056009" cy="498.170822" rx="15.682615" ry="13.507553" 
	style="fill-opacity:1.0; fill-rule:evenodd; fill:black; stroke:none" />
<ellipse cx="16.056007" cy="498.170837" rx="14.935822" ry="12.864319" 
	style="fill-opacity:1.0; fill-rule:evenodd; fill:black; stroke:none" />
<ellipse cx="16.056007" cy="498.170837" rx="14.935822" ry="12.864319" 
	style="fill-opacity:1.0; fill-rule:evenodd; fill:black; stroke:none" />
<ellipse cx="16.056009" cy="498.170792" rx="14.189033" ry="12.221085" 
	style="fill-opacity:1.0; fill-rule:evenodd; fill:black; stroke:none" />
<ellipse cx="16.056009" cy="498.170792" rx="14.189033" ry="12.221085" 
	style="fill-opacity:1.0; fill-rule:evenodd; fill:black; stroke:none" />
<ellipse cx="16.056006" cy="498.170807" rx="13.442239" ry="11.577881" 
	style="fill-opacity:1.0; fill-rule:evenodd; fill:black; stroke:none" />
<ellipse cx="16.056006" cy="498.170807" rx="13.442239" ry="11.577881" 
	style="fill-opacity:1.0; fill-rule:evenodd; fill:black; stroke:none" />
<ellipse cx="16.056007" cy="498.170807" rx="12.695453" ry="10.934662" 
	style="fill-opacity:1.0; fill-rule:evenodd; fill:black; stroke:none" />
<ellipse cx="16.056007" cy="498.170807" rx="12.695453" ry="10.934662" 
	style="fill-opacity:1.0; fill-rule:evenodd; fill:black; stroke:none" />
<ellipse cx="16.056004" cy="498.170822" rx="11.948658" ry="10.291458" 
	style="fill-opacity:1.0; fill-rule:evenodd; fill:black; stroke:none" />
<ellipse cx="16.056004" cy="498.170822" rx="11.948658" ry="10.291458" 
	style="fill-opacity:1.0; fill-rule:evenodd; fill:black; stroke:none" />
<ellipse cx="16.056006" cy="498.170807" rx="11.201869" ry="9.648254" 
	style="fill-opacity:1.0; fill-rule:evenodd; fill:black; stroke:none" />
<ellipse cx="16.056006" cy="498.170807" rx="11.201869" ry="9.648254" 
	style="fill-opacity:1.0; fill-rule:evenodd; fill:black; stroke:none" />
<ellipse cx="16.056004" cy="498.170837" rx="10.455076" ry="9.005035" 
	style="fill-opacity:1.0; fill-rule:evenodd; fill:black; stroke:none" />
<ellipse cx="16.056004" cy="498.170837" rx="10.455076" ry="9.005035" 
	style="fill-opacity:1.0; fill-rule:evenodd; fill:black; stroke:none" />
<ellipse cx="16.056007" cy="498.170807" rx="9.708286" ry="8.361816" 
	style="fill-opacity:1.0; fill-rule:evenodd; fill:black; stroke:none" />
<ellipse cx="16.056007" cy="498.170807" rx="9.708286" ry="8.361816" 
	style="fill-opacity:1.0; fill-rule:evenodd; fill:black; stroke:none" />
<ellipse cx="16.056004" cy="498.170822" rx="8.961493" ry="7.718582" 
	style="fill-opacity:1.0; fill-rule:evenodd; fill:black; stroke:none" />
<ellipse cx="16.056004" cy="498.170822" rx="8.961493" ry="7.718582" 
	style="fill-opacity:1.0; fill-rule:evenodd; fill:black; stroke:none" />
<ellipse cx="16.056006" cy="498.170807" rx="8.214704" ry="7.075378" 
	style="fill-opacity:1.0; fill-rule:evenodd; fill:black; stroke:none" />
<ellipse cx="16.056006" cy="498.170807" rx="8.214704" ry="7.075378" 
	style="fill-opacity:1.0; fill-rule:evenodd; fill:black; stroke:none" />
<ellipse cx="16.056005" cy="498.170822" rx="7.467910" ry="6.432175" 
	style="fill-opacity:1.0; fill-rule:evenodd; fill:black; stroke:none" />
<ellipse cx="16.056005" cy="498.170822" rx="7.467910" ry="6.432175" 
	style="fill-opacity:1.0; fill-rule:evenodd; fill:black; stroke:none" />
<ellipse cx="16.056006" cy="498.170822" rx="6.721120" ry="5.788925" 
	style="fill-opacity:1.0; fill-rule:evenodd; fill:black; stroke:none" />
<ellipse cx="16.056006" cy="498.170822" rx="6.721120" ry="5.788925" 
	style="fill-opacity:1.0; fill-rule:evenodd; fill:black; stroke:none" />
<ellipse cx="16.056009" cy="498.170822" rx="5.974331" ry="5.145737" 
	style="fill-opacity:1.0; fill-rule:evenodd; fill:black; stroke:none" />
<ellipse cx="16.056009" cy="498.170822" rx="5.974331" ry="5.145737" 
	style="fill-opacity:1.0; fill-rule:evenodd; fill:black; stroke:none" />
<ellipse cx="16.056006" cy="498.170822" rx="5.227538" ry="4.502518" 
	style="fill-opacity:1.0; fill-rule:evenodd; fill:black; stroke:none" />
<ellipse cx="16.056006" cy="498.170822" rx="5.227538" ry="4.502518" 
	style="fill-opacity:1.0; fill-rule:evenodd; fill:black; stroke:none" />
<ellipse cx="16.056009" cy="498.170822" rx="4.480749" ry="3.859299" 
	style="fill-opacity:1.0; fill-rule:evenodd; fill:black; stroke:none" />
<ellipse cx="16.056009" cy="498.170822" rx="4.480749" ry="3.859299" 
	style="fill-opacity:1.0; fill-rule:evenodd; fill:black; stroke:none" />
<ellipse cx="16.056006" cy="498.170822" rx="3.733954" ry="3.216080" 
	style="fill-opacity:1.0; fill-rule:evenodd; fill:black; stroke:none" />
<ellipse cx="16.056006" cy="498.170822" rx="3.733954" ry="3.216080" 
	style="fill-opacity:1.0; fill-rule:evenodd; fill:black; stroke:none" />
<ellipse cx="16.056009" cy="498.170807" rx="2.987166" ry="2.572845" 
	style="fill-opacity:1.0; fill-rule:evenodd; fill:black; stroke:none" />
<ellipse cx="16.056009" cy="498.170807" rx="2.987166" ry="2.572845" 
	style="fill-opacity:1.0; fill-rule:evenodd; fill:black; stroke:none" />
<ellipse cx="16.056005" cy="498.170822" rx="2.240375" ry="1.929642" 
	style="fill-opacity:1.0; fill-rule:evenodd; fill:black; stroke:none" />
<ellipse cx="16.056005" cy="498.170822" rx="2.240375" ry="1.929642" 
	style="fill-opacity:1.0; fill-rule:evenodd; fill:black; stroke:none" />
<ellipse cx="16.056008" cy="498.170807" rx="1.493583" ry="1.286438" 
	style="fill-opacity:1.0; fill-rule:evenodd; fill:black; stroke:none" />
<ellipse cx="16.056008" cy="498.170807" rx="1.493583" ry="1.286438" 
	style="fill-opacity:1.0; fill-rule:evenodd; fill:black; stroke:none" />
<ellipse cx="16.056004" cy="498.170822" rx="0.746791" ry="0.643204" 
	style="fill-opacity:1.0; fill-rule:evenodd; fill:black; stroke:none" />
<ellipse cx="16.056004" cy="498.170822" rx="0.746791" ry="0.643204" 
	style="fill-opacity:1.0; fill-rule:evenodd; fill:black; stroke:none" />
<polygon points="8.588095,506.532623 
	8.588095,489.165802 22.777126,491.095428 8.588095,506.532623 "
	style="fill-opacity:1.0; fill-rule:evenodd; fill:black; stroke:none" />
<ellipse cx="16.056009" cy="498.170822" rx="15.682615" ry="13.507553" 
	style="fill-opacity:1.0; fill-rule:evenodd; fill:black; stroke:none" />
<ellipse cx="16.056007" cy="498.170837" rx="14.935822" ry="12.864319" 
	style="fill-opacity:1.0; fill-rule:evenodd; fill:black; stroke:none" />
<ellipse cx="16.056007" cy="498.170837" rx="14.935822" ry="12.864319" 
	style="fill-opacity:1.0; fill-rule:evenodd; fill:black; stroke:none" />
<ellipse cx="16.056009" cy="498.170792" rx="14.189033" ry="12.221085" 
	style="fill-opacity:1.0; fill-rule:evenodd; fill:black; stroke:none" />
<ellipse cx="16.056009" cy="498.170792" rx="14.189033" ry="12.221085" 
	style="fill-opacity:1.0; fill-rule:evenodd; fill:black; stroke:none" />
<ellipse cx="16.056006" cy="498.170807" rx="13.442239" ry="11.577881" 
	style="fill-opacity:1.0; fill-rule:evenodd; fill:black; stroke:none" />
<ellipse cx="16.056006" cy="498.170807" rx="13.442239" ry="11.577881" 
	style="fill-opacity:1.0; fill-rule:evenodd; fill:black; stroke:none" />
<ellipse cx="16.056007" cy="498.170807" rx="12.695453" ry="10.934662" 
	style="fill-opacity:1.0; fill-rule:evenodd; fill:black; stroke:none" />
<ellipse cx="16.056007" cy="498.170807" rx="12.695453" ry="10.934662" 
	style="fill-opacity:1.0; fill-rule:evenodd; fill:black; stroke:none" />
<ellipse cx="16.056004" cy="498.170822" rx="11.948658" ry="10.291458" 
	style="fill-opacity:1.0; fill-rule:evenodd; fill:black; stroke:none" />
<ellipse cx="16.056004" cy="498.170822" rx="11.948658" ry="10.291458" 
	style="fill-opacity:1.0; fill-rule:evenodd; fill:black; stroke:none" />
<ellipse cx="16.056006" cy="498.170807" rx="11.201869" ry="9.648254" 
	style="fill-opacity:1.0; fill-rule:evenodd; fill:black; stroke:none" />
<ellipse cx="16.056006" cy="498.170807" rx="11.201869" ry="9.648254" 
	style="fill-opacity:1.0; fill-rule:evenodd; fill:black; stroke:none" />
<ellipse cx="16.056004" cy="498.170837" rx="10.455076" ry="9.005035" 
	style="fill-opacity:1.0; fill-rule:evenodd; fill:black; stroke:none" />
<ellipse cx="16.056004" cy="498.170837" rx="10.455076" ry="9.005035" 
	style="fill-opacity:1.0; fill-rule:evenodd; fill:black; stroke:none" />
<ellipse cx="16.056007" cy="498.170807" rx="9.708286" ry="8.361816" 
	style="fill-opacity:1.0; fill-rule:evenodd; fill:black; stroke:none" />
<ellipse cx="16.056007" cy="498.170807" rx="9.708286" ry="8.361816" 
	style="fill-opacity:1.0; fill-rule:evenodd; fill:black; stroke:none" />
<ellipse cx="16.056004" cy="498.170822" rx="8.961493" ry="7.718582" 
	style="fill-opacity:1.0; fill-rule:evenodd; fill:black; stroke:none" />
<ellipse cx="16.056004" cy="498.170822" rx="8.961493" ry="7.718582" 
	style="fill-opacity:1.0; fill-rule:evenodd; fill:black; stroke:none" />
<ellipse cx="16.056006" cy="498.170807" rx="8.214704" ry="7.075378" 
	style="fill-opacity:1.0; fill-rule:evenodd; fill:black; stroke:none" />
<ellipse cx="16.056006" cy="498.170807" rx="8.214704" ry="7.075378" 
	style="fill-opacity:1.0; fill-rule:evenodd; fill:black; stroke:none" />
<ellipse cx="16.056005" cy="498.170822" rx="7.467910" ry="6.432175" 
	style="fill-opacity:1.0; fill-rule:evenodd; fill:black; stroke:none" />
<ellipse cx="16.056005" cy="498.170822" rx="7.467910" ry="6.432175" 
	style="fill-opacity:1.0; fill-rule:evenodd; fill:black; stroke:none" />
<ellipse cx="16.056006" cy="498.170822" rx="6.721120" ry="5.788925" 
	style="fill-opacity:1.0; fill-rule:evenodd; fill:black; stroke:none" />
<ellipse cx="16.056006" cy="498.170822" rx="6.721120" ry="5.788925" 
	style="fill-opacity:1.0; fill-rule:evenodd; fill:black; stroke:none" />
<ellipse cx="16.056009" cy="498.170822" rx="5.974331" ry="5.145737" 
	style="fill-opacity:1.0; fill-rule:evenodd; fill:black; stroke:none" />
<ellipse cx="16.056009" cy="498.170822" rx="5.974331" ry="5.145737" 
	style="fill-opacity:1.0; fill-rule:evenodd; fill:black; stroke:none" />
<ellipse cx="16.056006" cy="498.170822" rx="5.227538" ry="4.502518" 
	style="fill-opacity:1.0; fill-rule:evenodd; fill:black; stroke:none" />
<ellipse cx="16.056006" cy="498.170822" rx="5.227538" ry="4.502518" 
	style="fill-opacity:1.0; fill-rule:evenodd; fill:black; stroke:none" />
<ellipse cx="16.056009" cy="498.170822" rx="4.480749" ry="3.859299" 
	style="fill-opacity:1.0; fill-rule:evenodd; fill:black; stroke:none" />
<ellipse cx="16.056009" cy="498.170822" rx="4.480749" ry="3.859299" 
	style="fill-opacity:1.0; fill-rule:evenodd; fill:black; stroke:none" />
<ellipse cx="16.056006" cy="498.170822" rx="3.733954" ry="3.216080" 
	style="fill-opacity:1.0; fill-rule:evenodd; fill:black; stroke:none" />
<ellipse cx="16.056006" cy="498.170822" rx="3.733954" ry="3.216080" 
	style="fill-opacity:1.0; fill-rule:evenodd; fill:black; stroke:none" />
<ellipse cx="16.056009" cy="498.170807" rx="2.987166" ry="2.572845" 
	style="fill-opacity:1.0; fill-rule:evenodd; fill:black; stroke:none" />
<ellipse cx="16.056009" cy="498.170807" rx="2.987166" ry="2.572845" 
	style="fill-opacity:1.0; fill-rule:evenodd; fill:black; stroke:none" />
<ellipse cx="16.056005" cy="498.170822" rx="2.240375" ry="1.929642" 
	style="fill-opacity:1.0; fill-rule:evenodd; fill:black; stroke:none" />
<ellipse cx="16.056005" cy="498.170822" rx="2.240375" ry="1.929642" 
	style="fill-opacity:1.0; fill-rule:evenodd; fill:black; stroke:none" />
<ellipse cx="16.056008" cy="498.170807" rx="1.493583" ry="1.286438" 
	style="fill-opacity:1.0; fill-rule:evenodd; fill:black; stroke:none" />
<ellipse cx="16.056008" cy="498.170807" rx="1.493583" ry="1.286438" 
	style="fill-opacity:1.0; fill-rule:evenodd; fill:black; stroke:none" />
<ellipse cx="16.056004" cy="498.170822" rx="0.746791" ry="0.643204" 
	style="fill-opacity:1.0; fill-rule:evenodd; fill:black; stroke:none" />
<ellipse cx="16.056004" cy="498.170822" rx="0.746791" ry="0.643204" 
	style="fill-opacity:1.0; fill-rule:evenodd; fill:black; stroke:none" />
<polyline points="8.588095,506.532623 
	8.588095,489.165802 22.777126,491.095428 8.588095,506.532623 "
	style="stroke-width:4.865026; stroke-linecap:round; stroke-linejoin:round; stroke-dasharray:none; stroke:black" />
<polygon points="125.834320,212.582901 
	187.817993,102.592949 177.362900,98.090439 115.379227,208.080383 "
	style="fill-opacity:1.0; fill-rule:evenodd; fill:black; stroke:none" />
<ellipse cx="120.980171" cy="210.974861" rx="6.347717" ry="5.467339" 
	style="fill-opacity:1.0; fill-rule:evenodd; fill:black; stroke:none" />
<polygon points="188.564758,101.306526 
	202.007019,45.346733 190.058350,43.417080 176.616119,99.376884 177.362900,98.090439 
	187.817993,102.592949 "
	style="fill-opacity:1.0; fill-rule:evenodd; fill:black; stroke:none" />
<ellipse cx="182.590439" cy="100.663315" rx="6.721115" ry="5.788940" 
	style="fill-opacity:1.0; fill-rule:evenodd; fill:black; stroke:none" />
<polygon points="191.551926,41.487434 
	141.516922,100.020088 151.225220,105.809036 201.260223,47.276379 190.058350,43.417080 
	202.007019,45.346733 "
	style="fill-opacity:1.0; fill-rule:evenodd; fill:black; stroke:none" />
<ellipse cx="196.032677" cy="44.703512" rx="6.721123" ry="5.788942" 
	style="fill-opacity:1.0; fill-rule:evenodd; fill:black; stroke:none" />
<polygon points="140.770126,101.949745 
	109.404900,202.934662 120.606766,205.507523 151.972000,104.522614 151.225220,105.809036 
	141.516922,100.020088 "
	style="fill-opacity:1.0; fill-rule:evenodd; fill:black; stroke:none" />
<ellipse cx="115.752628" cy="204.542694" rx="6.347729" ry="5.467331" 
	style="fill-opacity:1.0; fill-rule:evenodd; fill:black; stroke:none" />
<ellipse cx="145.997673" cy="103.236172" rx="6.721123" ry="5.788952" 
	style="fill-opacity:1.0; fill-rule:evenodd; fill:black; stroke:none" />
<polygon points="282.660461,181.708527 
	277.432892,171.417068 268.471436,174.633163 273.698975,184.924622 "
	style="fill-opacity:1.0; fill-rule:evenodd; fill:black; stroke:none" />
<ellipse cx="278.553101" cy="183.959785" rx="4.854126" ry="4.180901" 
	style="fill-opacity:1.0; fill-rule:evenodd; fill:black; stroke:none" />
<polygon points="276.686127,170.130646 
	171.388565,87.155777 164.667450,93.587929 269.965027,176.562805 268.471436,174.633163 
	277.432892,171.417068 "
	style="fill-opacity:1.0; fill-rule:evenodd; fill:black; stroke:none" />
<polygon points="276.686127,170.130646 
	276.686127,170.130646 268.471436,174.633163 269.965027,176.562805 277.432892,171.417068 "
	style="fill-opacity:1.0; fill-rule:evenodd; fill:black; stroke:none" />
<polygon points="169.148193,86.512558 
	29.498245,44.060299 26.511080,51.778885 166.161026,94.231155 164.667450,93.587929 
	171.388565,87.155777 "
	style="fill-opacity:1.0; fill-rule:evenodd; fill:black; stroke:none" />
<ellipse cx="28.378061" cy="48.241203" rx="4.854147" ry="4.180904" 
	style="fill-opacity:1.0; fill-rule:evenodd; fill:black; stroke:none" />
<polygon points="171.388565,87.155777 
	169.148193,86.512558 164.667450,93.587929 166.161026,94.231155 171.388565,87.155777 "
	style="fill-opacity:1.0; fill-rule:evenodd; fill:black; stroke:none" />
<polygon points="289.381561,161.768829 
	179.603287,78.793961 172.882156,85.226112 282.660461,168.200989 "
	style="fill-opacity:1.0; fill-rule:evenodd; fill:black; stroke:none" />
<ellipse cx="286.767807" cy="165.306519" rx="4.854141" ry="4.180908" 
	style="fill-opacity:1.0; fill-rule:evenodd; fill:black; stroke:none" />
<polygon points="178.109695,78.150749 
	45.927658,24.120600 42.193695,31.839195 174.375732,85.869339 172.882156,85.226112 
	179.603287,78.793961 "
	style="fill-opacity:1.0; fill-rule:evenodd; fill:black; stroke:none" />
<ellipse cx="44.807468" cy="28.301503" rx="4.854141" ry="4.180903" 
	style="fill-opacity:1.0; fill-rule:evenodd; fill:black; stroke:none" />
<polygon points="179.603287,78.793961 
	178.109695,78.150749 172.882156,85.226112 174.375732,85.869339 179.603287,78.793961 "
	style="fill-opacity:1.0; fill-rule:evenodd; fill:black; stroke:none" />
<polygon points="302.077057,149.547729 
	185.577591,70.432152 179.603287,76.864319 296.102722,155.979874 "
	style="fill-opacity:1.0; fill-rule:evenodd; fill:black; stroke:none" />
<ellipse cx="299.463272" cy="153.085419" rx="4.854141" ry="4.180908" 
	style="fill-opacity:1.0; fill-rule:evenodd; fill:black; stroke:none" />
<polygon points="185.577591,69.788940 
	72.065346,0.321606 66.837807,7.396985 180.350067,76.864319 179.603287,76.864319 
	185.577591,70.432152 "
	style="fill-opacity:1.0; fill-rule:evenodd; fill:black; stroke:none" />
<ellipse cx="70.198368" cy="4.502512" rx="4.854145" ry="4.180906" 
	style="fill-opacity:1.0; fill-rule:evenodd; fill:black; stroke:none" />
<polygon points="175.869324,63.999992 
	185.577591,69.788940 179.603287,76.864319 180.350067,76.864319 185.577591,70.432152 "
	style="fill-opacity:1.0; fill-rule:evenodd; fill:black; stroke:none" />
</svg>
