<?xml version="1.0" standalone="no"?>
<!DOCTYPE svg PUBLIC "-//W3C//DTD SVG 20001102//EN"
"http://www.w3.org/TR/2000/CR-SVG-20001102/DTD/svg-20001102.dtd">
<svg width="498" height="465"
	xmlns:sodipodi="http://sodipodi.sourceforge.net/DTD/sodipodi-0.dtd">
<desc>wmf2svg</desc>
<polyline points="11.123710,314.558807 
	33.371140,376.558807 48.773197,396.617615 69.309265,416.676453 93.268036,433.088226 
	120.649483,442.205902 160.010315,453.147034 204.505157,453.147034 226.752563,451.323517 
	247.288666,447.676483 "
	style="stroke-width:22.976650; stroke-linecap:round; stroke-linejoin:round; stroke-dasharray:none; stroke:black" />
<polyline points="28.237106,276.264709 
	38.505150,305.441162 53.907207,340.088196 67.597931,361.970581 89.845352,383.852936 
	113.804123,398.441162 141.185547,409.382324 178.835052,416.676453 226.752563,416.676453 
	264.402039,407.558838 "
	style="stroke-width:22.976650; stroke-linecap:round; stroke-linejoin:round; stroke-dasharray:none; stroke:black" />
<polyline points="40.216480,237.970566 
	57.329887,283.558838 72.731941,312.735260 88.134026,330.970581 110.381439,347.382324 
	136.051544,363.794098 161.721649,374.735260 199.371124,380.205902 249.000015,380.205902 
	283.226776,374.735260 "
	style="stroke-width:22.976650; stroke-linecap:round; stroke-linejoin:round; stroke-dasharray:none; stroke:black" />
<polyline points="57.329887,205.147049 
	88.134026,274.441162 103.536079,298.147064 124.072166,314.558807 149.742264,332.794098 
	175.412369,343.735291 213.061844,347.382324 237.020599,351.029419 260.979401,347.382324 
	288.360779,343.735291 300.340210,340.088196 "
	style="stroke-width:22.976650; stroke-linecap:round; stroke-linejoin:round; stroke-dasharray:none; stroke:black" />
<polyline points="74.443298,168.676483 
	88.134026,205.147049 108.670090,245.264694 124.072166,265.323517 144.608231,279.911743 
	166.855652,296.323547 192.525757,309.088226 231.886581,314.558807 266.113403,312.735260 
	302.051514,305.441162 300.340210,307.264679 283.226776,312.735260 "
	style="stroke-width:22.976650; stroke-linecap:round; stroke-linejoin:round; stroke-dasharray:none; stroke:black" />
<polyline points="312.319580,13.676470 
	255.845322,11.852940 204.505157,20.970577 177.123703,33.735302 154.876282,51.970577 
	130.917511,82.970573 117.226807,101.205879 108.670090,123.088242 94.979385,154.088242 "
	style="stroke-width:22.976650; stroke-linecap:round; stroke-linejoin:round; stroke-dasharray:none; stroke:black" />
<polyline points="341.412354,50.147060 
	278.092773,44.676456 225.041214,55.617638 197.659790,68.382362 175.412369,86.617638 
	148.030914,115.794121 125.783501,155.911758 110.381439,197.852936 "
	style="stroke-width:22.976650; stroke-linecap:round; stroke-linejoin:round; stroke-dasharray:none; stroke:black" />
<polyline points="365.371155,81.147057 
	332.855682,75.676453 291.783508,75.676453 269.536041,81.147057 242.154648,92.088242 
	216.484543,104.852936 195.948441,123.088242 185.680420,132.205872 168.567001,154.088242 
	154.876282,168.676483 144.608231,190.558807 136.051544,216.088242 130.917511,237.970566 "
	style="stroke-width:22.976650; stroke-linecap:round; stroke-linejoin:round; stroke-dasharray:none; stroke:black" />
<polyline points="392.752533,115.794121 
	319.164948,112.147057 264.402039,117.617638 214.773193,150.441177 190.814423,181.441177 
	177.123703,199.676483 166.855652,221.558838 154.876282,256.205902 "
	style="stroke-width:22.976650; stroke-linecap:round; stroke-linejoin:round; stroke-dasharray:none; stroke:black" />
<polyline points="411.577271,146.794113 
	336.278320,144.970581 312.319580,144.970581 284.938141,152.264694 257.556671,165.029419 
	235.309280,183.264694 211.350494,214.264694 199.371124,227.029419 192.525757,245.264694 
	182.257736,274.441162 "
	style="stroke-width:22.976650; stroke-linecap:round; stroke-linejoin:round; stroke-dasharray:none; stroke:black" />
<polyline points="435.536072,429.441193 
	450.938110,407.558838 466.340179,380.205902 476.608215,358.323547 483.453583,330.970581 
	486.876282,301.794098 480.030914,274.441162 468.051544,237.970566 459.494812,214.264694 
	444.092743,194.205872 423.556702,168.676483 "
	style="stroke-width:22.976650; stroke-linecap:round; stroke-linejoin:round; stroke-dasharray:none; stroke:black" />
<polyline points="389.329895,436.735260 
	406.443268,411.205872 425.268005,383.852936 437.247375,358.323547 445.804108,330.970581 
	445.804108,301.794098 440.670074,274.441162 437.247375,259.852936 428.690704,237.970566 
	420.134003,214.264694 406.443268,194.205872 391.041229,175.970581 385.907196,168.676483 "
	style="stroke-width:22.976650; stroke-linecap:round; stroke-linejoin:round; stroke-dasharray:none; stroke:black" />
<polyline points="353.391724,440.382355 
	372.216492,413.029419 392.752533,380.205902 401.309265,356.500000 406.443268,330.970581 
	406.443268,299.970581 401.309265,270.794098 387.618530,236.147034 379.061829,212.441177 
	365.371155,192.382355 348.257721,174.147049 "
	style="stroke-width:22.976650; stroke-linecap:round; stroke-linejoin:round; stroke-dasharray:none; stroke:black" />
<polyline points="307.185577,447.676483 
	329.432983,420.323517 349.969055,383.852936 370.505157,332.794098 367.082458,274.441162 
	353.391724,237.970566 344.835052,217.911758 329.432983,199.676483 307.185577,170.500000 "
	style="stroke-width:22.976650; stroke-linecap:round; stroke-linejoin:round; stroke-dasharray:none; stroke:black" />
<polyline points="269.536041,449.500000 
	291.783508,420.323517 312.319580,383.852936 322.587616,361.970581 331.144318,332.794098 
	334.566986,305.441162 329.432983,276.264709 319.164948,239.794113 312.319580,227.029419 
	300.340210,214.264694 284.938141,192.382355 278.092773,185.088242 "
	style="stroke-width:22.976650; stroke-linecap:round; stroke-linejoin:round; stroke-dasharray:none; stroke:black" />
</svg>
