<?xml version="1.0" standalone="no"?>
<!DOCTYPE svg PUBLIC "-//W3C//DTD SVG 20001102//EN"
"http://www.w3.org/TR/2000/CR-SVG-20001102/DTD/svg-20001102.dtd">
<svg width="741" height="512"
	xmlns:sodipodi="http://sodipodi.sourceforge.net/DTD/sodipodi-0.dtd">
<desc>wmf2svg</desc>
<polygon points="164.221619,483.730042 
	585.153320,190.822067 577.142517,177.472397 156.210815,470.380341 "
	style="fill-opacity:1.0; fill-rule:evenodd; fill:black; stroke:none" />
<polygon points="586.609802,190.036819 
	601.903198,171.975464 590.979370,160.981583 575.685974,179.042938 577.142517,177.472397 
	585.153320,190.822067 "
	style="fill-opacity:1.0; fill-rule:evenodd; fill:black; stroke:none" />
<polygon points="601.174988,171.975464 
	616.468323,157.055222 606.272705,145.276077 590.979370,160.196320 590.979370,160.981583 
	601.903198,171.975464 "
	style="fill-opacity:1.0; fill-rule:evenodd; fill:black; stroke:none" />
<polygon points="615.740051,157.840500 
	631.761658,144.490799 623.022583,131.926376 607.000977,145.276077 606.272705,145.276077 
	616.468323,157.055222 "
	style="fill-opacity:1.0; fill-rule:evenodd; fill:black; stroke:none" />
<polygon points="631.761658,144.490799 
	641.957275,139.779144 636.131226,125.644165 623.022583,131.926376 "
	style="fill-opacity:1.0; fill-rule:evenodd; fill:black; stroke:none" />
<polygon points="641.957275,139.779144 
	652.152832,135.852768 647.783264,120.932518 636.131226,125.644165 "
	style="fill-opacity:1.0; fill-rule:evenodd; fill:black; stroke:none" />
<polygon points="651.424561,136.638046 
	673.272217,132.711655 671.087463,117.006126 649.239807,120.932518 647.783264,120.932518 
	652.152832,135.852768 "
	style="fill-opacity:1.0; fill-rule:evenodd; fill:black; stroke:none" />
<polygon points="582.968567,195.533737 
	611.370483,186.895706 607.729187,172.760742 579.327271,181.398773 "
	style="fill-opacity:1.0; fill-rule:evenodd; fill:black; stroke:none" />
<ellipse cx="581.876190" cy="188.858902" rx="6.918427" ry="7.460129" 
	style="fill-opacity:1.0; fill-rule:evenodd; fill:black; stroke:none" />
<polygon points="611.370483,186.895706 
	624.479126,182.969315 620.837891,168.834351 607.729187,172.760742 607.729187,172.760742 
	611.370483,186.895706 "
	style="fill-opacity:1.0; fill-rule:evenodd; fill:black; stroke:none" />
<polygon points="624.479126,182.969315 
	631.033386,179.042938 625.207397,166.478531 620.837891,168.834351 "
	style="fill-opacity:1.0; fill-rule:evenodd; fill:black; stroke:none" />
<polygon points="631.033386,179.042938 
	633.946411,177.472397 628.120422,164.907974 625.207397,166.478531 "
	style="fill-opacity:1.0; fill-rule:evenodd; fill:black; stroke:none" />
<polygon points="633.946411,177.472397 
	637.587708,173.546005 628.848694,164.122696 628.120422,164.907974 "
	style="fill-opacity:1.0; fill-rule:evenodd; fill:black; stroke:none" />
<polygon points="637.587708,173.546005 
	640.500793,171.975464 633.946411,160.196320 628.848694,164.122696 "
	style="fill-opacity:1.0; fill-rule:evenodd; fill:black; stroke:none" />
<polygon points="640.500793,171.975464 
	644.870300,168.834351 634.674683,157.840500 633.946411,160.196320 "
	style="fill-opacity:1.0; fill-rule:evenodd; fill:black; stroke:none" />
<polygon points="644.870300,168.834351 
	646.326782,166.478531 639.044189,155.484650 634.674683,157.840500 "
	style="fill-opacity:1.0; fill-rule:evenodd; fill:black; stroke:none" />
<polygon points="646.326782,166.478531 
	650.696289,163.337433 640.500793,152.343552 639.044189,155.484650 "
	style="fill-opacity:1.0; fill-rule:evenodd; fill:black; stroke:none" />
<polygon points="650.696289,163.337433 
	655.794067,157.840500 647.054993,146.846619 640.500793,152.343552 "
	style="fill-opacity:1.0; fill-rule:evenodd; fill:black; stroke:none" />
<polygon points="655.794067,157.840500 
	661.620178,149.987732 650.696289,141.349686 647.054993,146.846619 "
	style="fill-opacity:1.0; fill-rule:evenodd; fill:black; stroke:none" />
<polygon points="661.620178,149.987732 
	665.989685,145.276077 656.522400,135.067474 650.696289,141.349686 "
	style="fill-opacity:1.0; fill-rule:evenodd; fill:black; stroke:none" />
<polygon points="665.989685,145.276077 
	667.446167,142.920258 658.707092,133.496933 656.522400,135.067474 "
	style="fill-opacity:1.0; fill-rule:evenodd; fill:black; stroke:none" />
<polygon points="667.446167,142.920258 
	670.359192,138.208588 658.707092,131.926376 658.707092,133.496933 "
	style="fill-opacity:1.0; fill-rule:evenodd; fill:black; stroke:none" />
<polygon points="670.359192,138.208588 
	677.641785,128.785263 666.717896,120.147232 658.707092,131.926376 "
	style="fill-opacity:1.0; fill-rule:evenodd; fill:black; stroke:none" />
<ellipse cx="672.908142" cy="125.251534" rx="6.918457" ry="7.460121" 
	style="fill-opacity:1.0; fill-rule:evenodd; fill:black; stroke:none" />
<polyline points="632.489929,170.404892 
	589.522888,191.607361 572.044678,201.030670 542.914490,218.306747 "
	style="stroke-width:9.081190; stroke-linecap:round; stroke-linejoin:round; stroke-dasharray:none; stroke:black" />
<polyline points="617.924805,144.490799 
	580.783813,175.901825 534.903687,213.595093 "
	style="stroke-width:9.081190; stroke-linecap:round; stroke-linejoin:round; stroke-dasharray:none; stroke:black" />
<polygon points="577.870789,182.184036 
	156.939072,471.165649 163.493362,482.944763 584.425049,193.963181 "
	style="fill-opacity:1.0; fill-rule:evenodd; fill:black; stroke:none" />
<ellipse cx="581.876190" cy="188.858902" rx="6.918427" ry="7.460129" 
	style="fill-opacity:1.0; fill-rule:evenodd; fill:black; stroke:none" />
<ellipse cx="160.944473" cy="477.840469" rx="6.918427" ry="7.460129" 
	style="fill-opacity:1.0; fill-rule:evenodd; fill:black; stroke:none" />
<polyline points="155.482559,474.306732 
	127.808838,498.650269 162.036865,482.159515 "
	style="stroke-width:9.081190; stroke-linecap:round; stroke-linejoin:round; stroke-dasharray:none; stroke:black" />
<polygon points="636.131226,157.055222 
	649.239807,175.901825 657.250610,169.619644 644.142029,150.773010 "
	style="fill-opacity:1.0; fill-rule:evenodd; fill:white; stroke:none" />
<ellipse cx="640.864868" cy="154.306747" rx="5.461914" ry="5.889572" 
	style="fill-opacity:1.0; fill-rule:evenodd; fill:white; stroke:none" />
<ellipse cx="653.973480" cy="173.153366" rx="5.461884" ry="5.889572" 
	style="fill-opacity:1.0; fill-rule:evenodd; fill:white; stroke:none" />
<polyline points="333.905151,353.374207 
	318.611816,380.073608 331.720398,356.515350 333.176910,358.085907 333.176910,362.012238 
	337.546448,354.159515 335.361664,358.085907 337.546448,349.447876 337.546448,347.092010 
	333.905151,353.374207 325.166107,365.938629 313.514008,376.147217 303.318420,387.141083 
	295.307617,398.134949 295.307617,404.417145 298.220642,409.914093 309.872711,420.907959 
	335.361664,436.613464 363.763611,453.889587 399.448151,470.380341 438.045715,485.300598 
	474.458466,494.723938 510.142975,498.650269 537.088440,498.650269 565.490417,493.153381 
	604.087952,482.944763 639.772461,469.595093 656.522400,460.957062 671.087463,449.963196 
	685.652588,436.613464 698.032898,420.122711 706.043701,408.343536 712.598022,395.779114 
	722.065369,368.294464 727.891418,340.809814 730.076172,314.110413 730.076172,304.687134 
	727.163208,293.693237 718.424072,269.349701 706.043701,246.576691 692.935120,228.515335 
	663.804932,197.104279 643.413757,171.975464 633.946411,153.914108 633.218201,131.141113 
	637.587708,105.226990 644.870300,80.883438 655.794067,51.828217 666.717896,25.128832 
	673.272217,2.355829 "
	style="stroke-width:4.540595; stroke-linecap:round; stroke-linejoin:round; stroke-dasharray:none; stroke:black" />
<polyline points="330.263855,356.515350 
	324.437866,369.079742 328.807373,358.085907 325.166107,362.797546 322.253052,368.294464 
	321.524811,367.509186 324.437866,358.085907 323.709564,359.656433 325.166107,360.441711 
	322.253052,366.723938 325.166107,362.797546 308.416199,368.294464 293.122864,379.288361 
	282.927307,389.496918 278.557739,398.920258 281.470764,409.914093 285.840302,416.196320 
	290.938110,420.122711 306.231445,431.901825 316.427063,438.184021 328.079102,446.036804 
	335.361664,450.748444 345.557251,457.030670 361.578857,465.668701 392.165619,479.803680 
	422.752319,491.582794 446.784760,499.435577 465.719421,502.576660 499.947418,509.644165 
	534.903687,509.644165 560.392639,505.717804 584.425049,500.220825 620.837891,488.441711 
	655.065796,471.950897 672.544006,460.171753 687.109070,447.607361 698.032898,435.828217 
	707.500305,421.693237 722.065369,392.638031 732.989197,361.226990 737.358704,343.950928 
	738.815186,327.460114 738.086975,307.042938 733.717407,274.061340 725.706604,256.785278 
	715.511108,238.723923 700.945984,219.877304 669.630981,182.969315 654.337585,162.552139 
	645.598511,146.061340 644.870300,142.920258 647.783264,119.361954 660.163696,78.527603 
	668.902710,67.533745 683.467773,56.539875 702.402466,49.472393 720.608887,46.331287 "
	style="stroke-width:4.540595; stroke-linecap:round; stroke-linejoin:round; stroke-dasharray:none; stroke:black" />
<polygon points="314.242249,400.490784 
	320.796570,387.926392 304.046692,377.717804 297.492401,390.282227 "
	style="fill-opacity:1.0; fill-rule:evenodd; fill:white; stroke:none" />
<ellipse cx="306.595581" cy="396.171783" rx="10.559723" ry="11.386505" 
	style="fill-opacity:1.0; fill-rule:evenodd; fill:white; stroke:none" />
<polygon points="314.242249,372.220856 
	288.025055,366.723938 284.383789,387.926392 310.601013,393.423309 304.046692,377.717804 
	320.796570,387.926392 "
	style="fill-opacity:1.0; fill-rule:evenodd; fill:white; stroke:none" />
<polygon points="327.350861,375.361969 
	314.242249,372.220856 304.046692,377.717804 310.601013,393.423309 320.796570,387.926392 "
	style="fill-opacity:1.0; fill-rule:evenodd; fill:white; stroke:none" />
<polygon points="292.394592,385.570526 
	307.687958,372.220856 295.307617,355.730072 280.014252,369.079742 284.383789,387.926392 
	288.025055,366.723938 "
	style="fill-opacity:1.0; fill-rule:evenodd; fill:white; stroke:none" />
<polygon points="263.264404,383.214691 
	280.014252,369.079742 288.025055,366.723938 292.394592,385.570526 284.383789,387.926392 "
	style="fill-opacity:1.0; fill-rule:evenodd; fill:white; stroke:none" />
<polygon points="294.579346,372.220856 
	318.611816,395.779114 332.448669,379.288361 308.416199,355.730072 295.307617,355.730072 
	307.687958,372.220856 "
	style="fill-opacity:1.0; fill-rule:evenodd; fill:white; stroke:none" />
<ellipse cx="326.258484" cy="388.319000" rx="10.559723" ry="11.386505" 
	style="fill-opacity:1.0; fill-rule:evenodd; fill:white; stroke:none" />
<polygon points="302.590179,349.447876 
	308.416199,355.730072 307.687958,372.220856 294.579346,372.220856 295.307617,355.730072 "
	style="fill-opacity:1.0; fill-rule:evenodd; fill:white; stroke:none" />
<polygon points="247.971008,399.705505 
	263.264404,425.619598 280.014252,414.625763 264.720886,388.711639 "
	style="fill-opacity:1.0; fill-rule:evenodd; fill:white; stroke:none" />
<ellipse cx="257.074203" cy="394.601212" rx="10.559708" ry="11.386520" 
	style="fill-opacity:1.0; fill-rule:evenodd; fill:white; stroke:none" />
<ellipse cx="272.367584" cy="420.515335" rx="10.559723" ry="11.386490" 
	style="fill-opacity:1.0; fill-rule:evenodd; fill:white; stroke:none" />
<polygon points="231.221130,411.484680 
	245.786255,438.969330 263.264404,428.760742 248.699249,401.276062 "
	style="fill-opacity:1.0; fill-rule:evenodd; fill:white; stroke:none" />
<ellipse cx="240.324318" cy="407.165634" rx="10.559700" ry="11.386520" 
	style="fill-opacity:1.0; fill-rule:evenodd; fill:white; stroke:none" />
<ellipse cx="254.889442" cy="434.650299" rx="10.559715" ry="11.386505" 
	style="fill-opacity:1.0; fill-rule:evenodd; fill:white; stroke:none" />
<polygon points="290.938110,404.417145 
	290.209808,380.858887 279.286011,380.858887 280.014252,404.417145 "
	style="fill-opacity:1.0; fill-rule:evenodd; fill:white; stroke:none" />
<ellipse cx="286.204422" cy="404.809814" rx="5.461929" ry="5.889557" 
	style="fill-opacity:1.0; fill-rule:evenodd; fill:white; stroke:none" />
<polygon points="284.383789,374.576660 
	269.090424,374.576660 269.090424,387.141083 284.383789,387.141083 279.286011,380.858887 
	290.209808,380.858887 "
	style="fill-opacity:1.0; fill-rule:evenodd; fill:white; stroke:none" />
<polygon points="290.209808,374.576660 
	284.383789,374.576660 279.286011,380.858887 284.383789,387.141083 290.209808,380.858887 "
	style="fill-opacity:1.0; fill-rule:evenodd; fill:white; stroke:none" />
<polygon points="263.992645,381.644165 
	269.090424,416.196320 279.286011,414.625763 274.188202,380.073608 269.090424,387.141083 
	269.090424,374.576660 "
	style="fill-opacity:1.0; fill-rule:evenodd; fill:white; stroke:none" />
<ellipse cx="274.552338" cy="415.803665" rx="5.461914" ry="5.889572" 
	style="fill-opacity:1.0; fill-rule:evenodd; fill:white; stroke:none" />
<polygon points="263.264404,374.576660 
	263.992645,381.644165 269.090424,387.141083 274.188202,380.073608 269.090424,374.576660 "
	style="fill-opacity:1.0; fill-rule:evenodd; fill:white; stroke:none" />
<polygon points="264.720886,393.423309 
	293.122864,401.276062 295.307617,390.282227 266.905640,382.429443 "
	style="fill-opacity:1.0; fill-rule:evenodd; fill:white; stroke:none" />
<ellipse cx="266.541534" cy="388.319016" rx="5.461914" ry="5.889572" 
	style="fill-opacity:1.0; fill-rule:evenodd; fill:white; stroke:none" />
<ellipse cx="294.943481" cy="396.171783" rx="5.461914" ry="5.889557" 
	style="fill-opacity:1.0; fill-rule:evenodd; fill:white; stroke:none" />
<polyline points="292.394592,420.122711 
	288.025055,417.766876 282.927307,412.269928 280.742493,408.343536 278.557739,402.061340 
	280.014252,395.779114 282.199005,391.852722 284.383789,391.067474 284.383789,390.282227 
	288.753326,394.208588 292.394592,398.920258 295.307617,405.987732 "
	style="stroke-width:3.027063; stroke-linecap:round; stroke-linejoin:round; stroke-dasharray:none; stroke:black" />
<polygon points="242.144974,409.128845 
	257.438354,436.613464 274.188202,425.619598 258.894836,398.134949 "
	style="fill-opacity:1.0; fill-rule:evenodd; fill:white; stroke:none" />
<ellipse cx="251.248154" cy="404.024521" rx="10.559708" ry="11.386490" 
	style="fill-opacity:1.0; fill-rule:evenodd; fill:white; stroke:none" />
<ellipse cx="266.541542" cy="431.509201" rx="10.559715" ry="11.386490" 
	style="fill-opacity:1.0; fill-rule:evenodd; fill:white; stroke:none" />
<polygon points="284.383789,376.932495 
	301.861908,404.417145 318.611816,392.638031 301.133667,365.153381 "
	style="fill-opacity:1.0; fill-rule:evenodd; fill:white; stroke:none" />
<ellipse cx="293.487000" cy="371.828201" rx="10.559692" ry="11.386490" 
	style="fill-opacity:1.0; fill-rule:evenodd; fill:white; stroke:none" />
<ellipse cx="310.965103" cy="399.312881" rx="10.559708" ry="11.386490" 
	style="fill-opacity:1.0; fill-rule:evenodd; fill:white; stroke:none" />
<polygon points="356.481079,316.466248 
	363.035370,313.325165 369.589661,315.681000 373.230957,321.177887 371.774445,326.674835 
	339.731201,364.368103 334.633423,366.723938 328.079102,365.153381 324.437866,360.441711 
	325.894348,353.374207 356.481079,316.466248 "
	style="fill:none; stroke-width:9.081190; stroke-linecap:round; stroke-linejoin:round; stroke-dasharray:none; stroke:black" />
<polyline points="356.481079,316.466248 
	363.035370,313.325165 369.589661,315.681000 373.230957,321.177887 371.774445,326.674835 
	339.731201,364.368103 334.633423,366.723938 328.079102,365.153381 324.437866,360.441711 
	325.894348,353.374207 356.481079,316.466248 "
	style="stroke-width:9.081190; stroke-linecap:round; stroke-linejoin:round; stroke-dasharray:none; stroke:black" />
<polygon points="392.893860,256.000000 
	398.719910,251.288330 404.545959,251.288330 409.643738,255.214722 409.643738,261.496948 
	389.252563,305.472382 387.796082,307.828217 384.883057,309.398773 377.600464,310.184052 
	372.502716,306.257660 372.502716,299.975433 392.893860,256.000000 "
	style="fill:none; stroke-width:9.081190; stroke-linecap:round; stroke-linejoin:round; stroke-dasharray:none; stroke:black" />
<polyline points="392.893860,256.000000 
	398.719910,251.288330 404.545959,251.288330 409.643738,255.214722 409.643738,261.496948 
	389.252563,305.472382 387.796082,307.828217 384.883057,309.398773 377.600464,310.184052 
	372.502716,306.257660 372.502716,299.975433 392.893860,256.000000 "
	style="stroke-width:9.081190; stroke-linecap:round; stroke-linejoin:round; stroke-dasharray:none; stroke:black" />
<polygon points="416.198029,185.325150 
	421.295807,179.828217 427.121857,179.042938 432.947906,182.184036 433.676178,188.466248 
	419.111053,235.582809 418.382812,238.723923 415.469788,240.294479 408.915466,241.865021 
	403.817719,239.509201 402.361176,232.441711 416.198029,185.325150 "
	style="fill:none; stroke-width:9.081190; stroke-linecap:round; stroke-linejoin:round; stroke-dasharray:none; stroke:black" />
<polyline points="416.198029,185.325150 
	421.295807,179.828217 427.121857,179.042938 432.947906,182.184036 433.676178,188.466248 
	419.111053,235.582809 418.382812,238.723923 415.469788,240.294479 408.915466,241.865021 
	403.817719,239.509201 402.361176,232.441711 416.198029,185.325150 "
	style="stroke-width:9.081190; stroke-linecap:round; stroke-linejoin:round; stroke-dasharray:none; stroke:black" />
<polygon points="424.937103,108.368095 
	428.578369,101.300621 434.404419,99.730057 440.230469,102.085884 442.415222,105.226990 
	442.415222,108.368095 438.773956,163.337433 435.860931,169.619644 430.034882,171.975464 
	424.208862,170.404892 422.024078,168.049072 421.295807,163.337433 424.937103,108.368095 "
	style="fill:none; stroke-width:9.081190; stroke-linecap:round; stroke-linejoin:round; stroke-dasharray:none; stroke:black" />
<polyline points="424.937103,108.368095 
	428.578369,101.300621 434.404419,99.730057 440.230469,102.085884 442.415222,105.226990 
	442.415222,108.368095 438.773956,163.337433 435.860931,169.619644 430.034882,171.975464 
	424.208862,170.404892 422.024078,168.049072 421.295807,163.337433 424.937103,108.368095 "
	style="stroke-width:9.081190; stroke-linecap:round; stroke-linejoin:round; stroke-dasharray:none; stroke:black" />
<polygon points="418.382812,29.055220 
	420.567566,21.202456 426.393616,18.061350 432.947906,19.631903 435.860931,25.128832 
	440.230469,80.883438 438.773956,87.165649 432.947906,91.092026 426.393616,90.306740 
	422.752319,83.239258 418.382812,29.055220 "
	style="fill:none; stroke-width:9.081190; stroke-linecap:round; stroke-linejoin:round; stroke-dasharray:none; stroke:black" />
<polyline points="418.382812,29.055220 
	420.567566,21.202456 426.393616,18.061350 432.947906,19.631903 435.860931,25.128832 
	440.230469,80.883438 438.773956,87.165649 432.947906,91.092026 426.393616,90.306740 
	422.752319,83.239258 418.382812,29.055220 "
	style="stroke-width:9.081190; stroke-linecap:round; stroke-linejoin:round; stroke-dasharray:none; stroke:black" />
<polyline points="682.011292,7.067487 
	675.456970,27.484667 665.989685,46.331287 "
	style="stroke-width:4.540595; stroke-linecap:round; stroke-linejoin:round; stroke-dasharray:none; stroke:black" />
<polyline points="695.848206,15.705527 
	679.826599,37.693253 664.533203,59.680981 "
	style="stroke-width:4.540595; stroke-linecap:round; stroke-linejoin:round; stroke-dasharray:none; stroke:black" />
<polyline points="714.054504,31.411043 
	694.391602,40.049076 676.185303,51.042946 "
	style="stroke-width:4.540595; stroke-linecap:round; stroke-linejoin:round; stroke-dasharray:none; stroke:black" />
<polygon points="278.557739,390.282227 
	238.503677,410.699371 243.601486,422.478516 283.655548,402.061340 "
	style="fill-opacity:1.0; fill-rule:evenodd; fill:black; stroke:none" />
<polygon points="207.916946,425.619598 
	191.167068,433.472382 195.536621,445.251495 212.286499,437.398773 "
	style="fill-opacity:1.0; fill-rule:evenodd; fill:black; stroke:none" />
<polygon points="191.895325,433.472382 
	175.145447,439.754608 178.786743,452.319031 195.536621,446.036804 195.536621,445.251495 
	191.167068,433.472382 "
	style="fill-opacity:1.0; fill-rule:evenodd; fill:black; stroke:none" />
<polygon points="175.145447,439.754608 
	162.036865,444.466248 165.678146,457.030670 178.786743,452.319031 178.786743,452.319031 
	175.145447,439.754608 "
	style="fill-opacity:1.0; fill-rule:evenodd; fill:black; stroke:none" />
<polygon points="135.091415,451.533722 
	117.613274,456.245392 120.526291,468.809784 138.004425,464.098145 "
	style="fill-opacity:1.0; fill-rule:evenodd; fill:black; stroke:none" />
<polygon points="117.613274,456.245392 
	95.765602,460.171753 97.222107,473.521484 119.069794,469.595093 120.526291,468.809784 
	117.613274,456.245392 "
	style="fill-opacity:1.0; fill-rule:evenodd; fill:black; stroke:none" />
<polygon points="95.765602,460.171753 
	84.113510,461.742310 85.570038,475.092010 97.222107,473.521484 97.222107,473.521484 
	95.765602,460.171753 "
	style="fill-opacity:1.0; fill-rule:evenodd; fill:black; stroke:none" />
<polygon points="55.711552,464.098145 
	48.428993,464.098145 49.157253,478.233124 56.439812,478.233124 "
	style="fill-opacity:1.0; fill-rule:evenodd; fill:black; stroke:none" />
<polygon points="47.700741,464.098145 
	21.483543,464.098145 21.483543,479.018372 47.700741,479.018372 49.157253,478.233124 
	48.428993,464.098145 "
	style="fill-opacity:1.0; fill-rule:evenodd; fill:black; stroke:none" />
<polygon points="22.211794,464.883453 
	1.092391,463.312866 0.364130,477.447876 21.483543,479.018372 21.483543,479.018372 
	21.483543,464.098145 "
	style="fill-opacity:1.0; fill-rule:evenodd; fill:black; stroke:none" />
</svg>
