<?xml version="1.0" standalone="no"?>
<!DOCTYPE svg PUBLIC "-//W3C//DTD SVG 20001102//EN"
"http://www.w3.org/TR/2000/CR-SVG-20001102/DTD/svg-20001102.dtd">
<svg width="548" height="512"
	xmlns:sodipodi="http://sodipodi.sourceforge.net/DTD/sodipodi-0.dtd">
<desc>wmf2svg</desc>
<polygon points="383.103485,421.008636 
	372.650452,87.095642 361.152100,87.095642 371.605133,421.008636 "
	style="fill-opacity:1.0; fill-rule:evenodd; fill:black; stroke:none" />
<polygon points="371.605133,85.426079 
	370.037170,80.417381 360.629486,83.756516 362.197418,88.765205 361.152100,87.095642 
	372.650452,87.095642 "
	style="fill-opacity:1.0; fill-rule:evenodd; fill:black; stroke:none" />
<polygon points="370.559845,80.417381 
	367.423950,68.730431 356.970886,71.513046 360.106812,83.199989 360.629486,83.756516 
	370.037170,80.417381 "
	style="fill-opacity:1.0; fill-rule:evenodd; fill:black; stroke:none" />
<polygon points="367.423950,68.730431 
	363.765381,53.147823 353.312347,55.930431 356.970886,71.513046 356.970886,71.513046 
	367.423950,68.730431 "
	style="fill-opacity:1.0; fill-rule:evenodd; fill:black; stroke:none" />
<polygon points="363.765381,53.147823 
	363.242737,45.913044 352.267059,47.582607 353.312347,55.930431 "
	style="fill-opacity:1.0; fill-rule:evenodd; fill:black; stroke:none" />
<polygon points="363.242737,45.913044 
	362.720062,38.678257 351.744385,39.234779 352.267059,47.582607 "
	style="fill-opacity:1.0; fill-rule:evenodd; fill:black; stroke:none" />
<polygon points="362.720062,38.678257 
	363.765381,30.330431 352.789703,29.217386 351.744385,39.234779 "
	style="fill-opacity:1.0; fill-rule:evenodd; fill:black; stroke:none" />
<polygon points="363.765381,30.330431 
	365.333313,22.539131 354.880310,19.756517 352.789703,29.217386 "
	style="fill-opacity:1.0; fill-rule:evenodd; fill:black; stroke:none" />
<polygon points="365.333313,23.095650 
	371.082489,6.956526 361.152100,3.060869 355.402954,19.200001 354.880310,19.756517 
	365.333313,22.539131 "
	style="fill-opacity:1.0; fill-rule:evenodd; fill:black; stroke:none" />
<polygon points="373.173096,89.878258 
	378.922272,68.173904 369.514526,65.391304 363.765381,87.095642 "
	style="fill-opacity:1.0; fill-rule:evenodd; fill:black; stroke:none" />
<ellipse cx="368.730560" cy="89.043472" rx="4.965179" ry="5.286957" 
	style="fill-opacity:1.0; fill-rule:evenodd; fill:black; stroke:none" />
<polygon points="378.922272,68.173904 
	380.490234,63.165218 371.605133,60.382607 369.514526,65.391304 "
	style="fill-opacity:1.0; fill-rule:evenodd; fill:black; stroke:none" />
<polygon points="380.490234,63.165218 
	381.535522,56.486958 371.605133,55.930431 371.605133,60.382607 "
	style="fill-opacity:1.0; fill-rule:evenodd; fill:black; stroke:none" />
<polygon points="381.535522,56.486958 
	381.535522,52.034782 372.127808,50.921738 371.605133,55.930431 "
	style="fill-opacity:1.0; fill-rule:evenodd; fill:black; stroke:none" />
<polygon points="381.535522,52.034782 
	382.580811,46.469563 371.605133,46.469563 372.127808,50.921738 "
	style="fill-opacity:1.0; fill-rule:evenodd; fill:black; stroke:none" />
<polygon points="382.058167,45.913044 
	380.490234,33.669563 370.559845,34.782604 372.127808,47.026089 371.605133,46.469563 
	382.580811,46.469563 "
	style="fill-opacity:1.0; fill-rule:evenodd; fill:black; stroke:none" />
<polygon points="379.967560,32.556519 
	376.831665,21.982605 367.423950,24.765219 370.559845,35.339130 370.559845,34.782604 
	380.490234,33.669563 "
	style="fill-opacity:1.0; fill-rule:evenodd; fill:black; stroke:none" />
<polygon points="376.831665,21.982605 
	370.559845,3.617394 361.674744,6.956526 367.946594,25.321737 367.423950,24.765219 
	376.831665,21.982605 "
	style="fill-opacity:1.0; fill-rule:evenodd; fill:black; stroke:none" />
<ellipse cx="366.639938" cy="5.565219" rx="4.965195" ry="5.286956" 
	style="fill-opacity:1.0; fill-rule:evenodd; fill:black; stroke:none" />
<polygon points="373.695740,48.139126 
	370.559845,83.199989 378.399597,83.756516 381.535522,48.695648 "
	style="fill-opacity:1.0; fill-rule:evenodd; fill:black; stroke:none" />
<ellipse cx="378.138275" cy="48.973911" rx="3.919891" ry="4.173912" 
	style="fill-opacity:1.0; fill-rule:evenodd; fill:black; stroke:none" />
<polygon points="370.559845,83.199989 
	368.991913,98.782608 376.309021,99.339119 377.876953,83.756516 378.399597,83.756516 
	370.559845,83.199989 "
	style="fill-opacity:1.0; fill-rule:evenodd; fill:black; stroke:none" />
<polygon points="368.991913,99.339119 
	367.946594,124.382607 375.786346,124.382607 376.831665,99.339119 376.309021,99.339119 
	368.991913,98.782608 "
	style="fill-opacity:1.0; fill-rule:evenodd; fill:black; stroke:none" />
<ellipse cx="372.389130" cy="124.660851" rx="3.919891" ry="4.173912" 
	style="fill-opacity:1.0; fill-rule:evenodd; fill:black; stroke:none" />
<polygon points="353.834991,48.695648 
	357.493561,83.756516 365.333313,83.199989 361.674744,48.139126 "
	style="fill-opacity:1.0; fill-rule:evenodd; fill:black; stroke:none" />
<ellipse cx="358.277527" cy="48.973911" rx="3.919891" ry="4.173912" 
	style="fill-opacity:1.0; fill-rule:evenodd; fill:black; stroke:none" />
<polygon points="357.493561,83.756516 
	362.720062,127.721733 370.559845,127.165207 365.333313,83.199989 365.333313,83.199989 
	357.493561,83.756516 "
	style="fill-opacity:1.0; fill-rule:evenodd; fill:black; stroke:none" />
<ellipse cx="367.162613" cy="127.999992" rx="3.919876" ry="4.173912" 
	style="fill-opacity:1.0; fill-rule:evenodd; fill:black; stroke:none" />
<polygon points="361.674744,118.260857 
	373.173096,480.556458 386.762024,480.556458 375.263702,118.260857 "
	style="fill-opacity:1.0; fill-rule:evenodd; fill:black; stroke:none" />
<ellipse cx="368.730560" cy="118.539124" rx="6.533142" ry="6.956520" 
	style="fill-opacity:1.0; fill-rule:evenodd; fill:black; stroke:none" />
<ellipse cx="380.228882" cy="480.834747" rx="6.533142" ry="6.956543" 
	style="fill-opacity:1.0; fill-rule:evenodd; fill:black; stroke:none" />
<polyline points="376.309021,481.669525 
	379.444916,508.382599 384.148773,477.217346 "
	style="stroke-width:7.014625; stroke-linecap:round; stroke-linejoin:round; stroke-dasharray:none; stroke:black" />
<polygon points="371.082489,41.460869 
	386.762024,39.791298 386.239380,31.443474 370.559845,33.113045 "
	style="fill-opacity:1.0; fill-rule:evenodd; fill:white; stroke:none" />
<ellipse cx="371.343826" cy="37.843475" rx="3.919876" ry="4.173912" 
	style="fill-opacity:1.0; fill-rule:evenodd; fill:white; stroke:none" />
<ellipse cx="387.023361" cy="36.173912" rx="3.919876" ry="4.173912" 
	style="fill-opacity:1.0; fill-rule:evenodd; fill:white; stroke:none" />
<polyline points="536.240295,58.156517 
	520.038086,52.034782 501.745331,48.139126 "
	style="stroke-width:5.935452; stroke-linecap:round; stroke-linejoin:round; stroke-dasharray:none; stroke:black" />
<polyline points="545.125366,46.469563 
	489.724365,41.460869 "
	style="stroke-width:5.935452; stroke-linecap:round; stroke-linejoin:round; stroke-dasharray:none; stroke:black" />
<polyline points="543.557495,27.547825 
	525.264648,33.113045 514.811646,35.339130 503.313324,36.452175 "
	style="stroke-width:5.935452; stroke-linecap:round; stroke-linejoin:round; stroke-dasharray:none; stroke:black" />
<polyline points="360.106812,305.252167 
	365.855957,306.921722 370.037170,306.365204 372.650452,301.913025 373.173096,298.573883 
	371.605133,295.234741 "
	style="stroke-width:5.395865; stroke-linecap:round; stroke-linejoin:round; stroke-dasharray:none; stroke:black" />
<polyline points="279.618500,221.773911 
	200.698135,305.808655 "
	style="stroke-width:7.014625; stroke-linecap:round; stroke-linejoin:round; stroke-dasharray:none; stroke:black" />
<polyline points="279.095825,221.217361 
	280.663788,218.434753 280.141144,215.652161 278.573212,211.756500 272.824036,210.643448 
	268.120178,211.199997 189.199814,295.234741 "
	style="stroke-width:7.014625; stroke-linecap:round; stroke-linejoin:round; stroke-dasharray:none; stroke:black" />
<polyline points="200.175491,306.365204 
	194.948975,308.034760 190.245117,307.478241 188.154495,302.469543 188.677170,295.791290 "
	style="stroke-width:7.014625; stroke-linecap:round; stroke-linejoin:round; stroke-dasharray:none; stroke:black" />
<polyline points="188.677170,221.773911 
	267.597504,305.808655 "
	style="stroke-width:7.014625; stroke-linecap:round; stroke-linejoin:round; stroke-dasharray:none; stroke:black" />
<polyline points="189.199814,221.217361 
	188.154495,215.652161 189.722443,211.756500 195.994278,210.643448 200.175491,211.199997 
	279.095825,295.234741 "
	style="stroke-width:7.014625; stroke-linecap:round; stroke-linejoin:round; stroke-dasharray:none; stroke:black" />
<polyline points="268.120178,306.365204 
	273.346680,308.034760 278.050568,307.478241 280.141144,302.469543 279.618500,295.791290 "
	style="stroke-width:7.014625; stroke-linecap:round; stroke-linejoin:round; stroke-dasharray:none; stroke:black" />
<polygon points="225.262741,276.313019 
	251.917969,247.930420 244.600861,240.139114 217.945633,268.521729 "
	style="fill-opacity:1.0; fill-rule:evenodd; fill:white; stroke:none" />
<ellipse cx="221.865517" cy="272.695618" rx="5.487846" ry="5.843475" 
	style="fill-opacity:1.0; fill-rule:evenodd; fill:white; stroke:none" />
<ellipse cx="248.520744" cy="244.313026" rx="5.487846" ry="5.843468" 
	style="fill-opacity:1.0; fill-rule:evenodd; fill:white; stroke:none" />
<polyline points="187.109207,222.886932 
	108.188843,306.921722 "
	style="stroke-width:7.014625; stroke-linecap:round; stroke-linejoin:round; stroke-dasharray:none; stroke:black" />
<polyline points="186.586548,222.330414 
	188.154495,219.547806 187.631851,216.765182 186.063904,212.869553 180.314743,211.756500 
	175.610870,212.313019 96.690514,296.347809 "
	style="stroke-width:7.014625; stroke-linecap:round; stroke-linejoin:round; stroke-dasharray:none; stroke:black" />
<polyline points="107.666183,307.478241 
	102.439674,309.147797 97.735809,308.591278 95.645203,303.582581 96.167854,296.904327 "
	style="stroke-width:7.014625; stroke-linecap:round; stroke-linejoin:round; stroke-dasharray:none; stroke:black" />
<polyline points="96.167854,222.886932 
	175.088211,306.921722 "
	style="stroke-width:7.014625; stroke-linecap:round; stroke-linejoin:round; stroke-dasharray:none; stroke:black" />
<polyline points="96.690514,222.330414 
	95.645203,216.765182 97.213158,212.869553 103.484970,211.756500 107.666183,212.313019 
	186.586548,296.347809 "
	style="stroke-width:7.014625; stroke-linecap:round; stroke-linejoin:round; stroke-dasharray:none; stroke:black" />
<polyline points="175.610870,307.478241 
	180.837387,309.147797 185.541229,308.591278 187.631851,303.582581 187.109207,296.904327 "
	style="stroke-width:7.014625; stroke-linecap:round; stroke-linejoin:round; stroke-dasharray:none; stroke:black" />
<polygon points="132.753464,277.426056 
	159.408676,249.043472 152.091568,241.252167 125.436333,269.634766 "
	style="fill-opacity:1.0; fill-rule:evenodd; fill:white; stroke:none" />
<ellipse cx="129.356220" cy="273.808670" rx="5.487835" ry="5.843491" 
	style="fill-opacity:1.0; fill-rule:evenodd; fill:white; stroke:none" />
<ellipse cx="156.011444" cy="245.426064" rx="5.487839" ry="5.843483" 
	style="fill-opacity:1.0; fill-rule:evenodd; fill:white; stroke:none" />
<polygon points="384.671448,308.034760 
	381.535522,203.965210 363.242737,204.521713 366.378632,308.591278 "
	style="fill-opacity:1.0; fill-rule:evenodd; fill:white; stroke:none" />
<polyline points="279.618500,304.695648 
	281.709106,307.478241 283.799713,309.704315 287.980927,309.704315 292.162140,307.478241 
	294.252747,304.139099 294.775391,300.243469 294.775391,295.791290 299.479248,264.626068 
	306.273712,232.904327 312.022858,201.182587 314.113495,170.573898 312.545532,157.773911 
	307.319031,147.199997 300.524536,138.852173 292.684784,131.060852 284.845001,124.382607 
	278.573212,117.147820 274.391998,108.799995 273.869354,98.782608 276.482574,88.765205 
	279.618500,80.973907 283.799713,74.852165 288.503571,69.843468 300.001892,63.721729 
	312.022858,58.713036 328.225067,53.147823 344.949921,48.695648 380.490234,43.686954 
	413.417267,43.130432 440.595154,45.356518 494.950897,54.817387 517.424927,60.382607 
	526.309998,64.278252 532.059143,67.617378 "
	style="stroke-width:5.935452; stroke-linecap:round; stroke-linejoin:round; stroke-dasharray:none; stroke:black" />
<polyline points="279.095825,303.026062 
	282.231781,285.217377 291.639465,234.573883 299.479248,191.165192 300.001892,178.921722 
	298.956604,160.000000 294.252747,150.539124 287.458252,143.304337 271.256073,129.947815 
	265.506927,122.713028 262.893646,115.478256 261.848358,101.008690 262.893646,89.878258 
	265.506927,80.417381 270.210785,72.626083 275.437286,65.391304 290.071533,54.817387 
	307.841675,45.913044 321.430603,40.347824 337.632812,35.895649 376.309021,29.773912 
	420.211700,28.104343 466.205078,32.556519 484.497833,33.113045 502.790619,29.773912 
	520.560791,23.095650 536.240295,14.747825 "
	style="stroke-width:5.935452; stroke-linecap:round; stroke-linejoin:round; stroke-dasharray:none; stroke:black" />
<polyline points="95.122559,221.773911 
	16.202196,305.808655 "
	style="stroke-width:7.014625; stroke-linecap:round; stroke-linejoin:round; stroke-dasharray:none; stroke:black" />
<polyline points="94.599907,221.217361 
	96.167854,218.434753 95.645203,215.652161 94.077255,211.756500 88.328087,210.643448 
	83.624222,211.199997 4.703864,295.234741 "
	style="stroke-width:7.014625; stroke-linecap:round; stroke-linejoin:round; stroke-dasharray:none; stroke:black" />
<polyline points="15.679541,306.365204 
	10.453032,308.034760 5.749167,307.478241 3.658561,302.469543 4.181213,295.791290 "
	style="stroke-width:7.014625; stroke-linecap:round; stroke-linejoin:round; stroke-dasharray:none; stroke:black" />
<polyline points="3.658561,221.773911 
	82.578926,305.808655 "
	style="stroke-width:5.395865; stroke-linecap:round; stroke-linejoin:round; stroke-dasharray:none; stroke:black" />
<polyline points="3.658561,221.217361 
	2.613258,215.652161 4.181213,211.756500 10.453032,210.643448 14.634237,211.199997 
	93.554596,295.234741 "
	style="stroke-width:5.395865; stroke-linecap:round; stroke-linejoin:round; stroke-dasharray:none; stroke:black" />
<polyline points="83.101578,306.365204 
	88.328087,308.034760 93.031952,307.478241 95.122559,302.469543 95.645203,299.130402 
	94.077255,295.791290 "
	style="stroke-width:5.395865; stroke-linecap:round; stroke-linejoin:round; stroke-dasharray:none; stroke:black" />
<polygon points="40.244164,276.313019 
	66.376724,247.930420 59.059612,240.139114 32.927040,268.521729 "
	style="fill-opacity:1.0; fill-rule:evenodd; fill:white; stroke:none" />
<ellipse cx="36.846926" cy="272.695618" rx="5.487837" ry="5.843475" 
	style="fill-opacity:1.0; fill-rule:evenodd; fill:white; stroke:none" />
<ellipse cx="62.979492" cy="244.313026" rx="5.487839" ry="5.843468" 
	style="fill-opacity:1.0; fill-rule:evenodd; fill:white; stroke:none" />
<polygon points="461.501190,206.747818 
	441.117798,229.008667 447.389587,235.686935 467.773010,213.426071 "
	style="fill-opacity:1.0; fill-rule:evenodd; fill:black; stroke:none" />
<ellipse cx="464.898438" cy="210.365196" rx="4.442535" ry="4.730431" 
	style="fill-opacity:1.0; fill-rule:evenodd; fill:black; stroke:none" />
<ellipse cx="444.514984" cy="232.626076" rx="4.442535" ry="4.730431" 
	style="fill-opacity:1.0; fill-rule:evenodd; fill:black; stroke:none" />
<polygon points="420.211700,251.269547 
	399.828308,273.530426 406.100159,280.208649 426.483551,257.947815 "
	style="fill-opacity:1.0; fill-rule:evenodd; fill:black; stroke:none" />
<ellipse cx="423.608948" cy="254.886932" rx="4.442535" ry="4.730438" 
	style="fill-opacity:1.0; fill-rule:evenodd; fill:black; stroke:none" />
<ellipse cx="403.225555" cy="277.147797" rx="4.442535" ry="4.730438" 
	style="fill-opacity:1.0; fill-rule:evenodd; fill:black; stroke:none" />
<polygon points="378.399597,295.791290 
	373.695740,301.356476 379.967560,308.034760 384.671448,302.469543 "
	style="fill-opacity:1.0; fill-rule:evenodd; fill:black; stroke:none" />
<ellipse cx="381.796844" cy="299.408676" rx="4.442535" ry="4.730423" 
	style="fill-opacity:1.0; fill-rule:evenodd; fill:black; stroke:none" />
<ellipse cx="377.092987" cy="304.973892" rx="4.442535" ry="4.730423" 
	style="fill-opacity:1.0; fill-rule:evenodd; fill:black; stroke:none" />
<polyline points="371.082489,220.104340 
	449.480225,304.139099 "
	style="stroke-width:5.395865; stroke-linecap:round; stroke-linejoin:round; stroke-dasharray:none; stroke:black" />
<polyline points="371.082489,220.104340 
	370.037170,216.765182 370.037170,213.982605 371.605133,210.086945 377.354309,208.973892 
	381.535522,209.530426 460.978546,293.565186 "
	style="stroke-width:5.395865; stroke-linecap:round; stroke-linejoin:round; stroke-dasharray:none; stroke:black" />
<polyline points="450.002869,304.695648 
	455.229401,306.365204 459.933197,306.365204 462.023834,301.356476 461.501190,294.678253 "
	style="stroke-width:5.395865; stroke-linecap:round; stroke-linejoin:round; stroke-dasharray:none; stroke:black" />
<polygon points="400.350983,248.486923 
	427.006195,276.869537 434.323303,269.078247 407.668091,240.695633 "
	style="fill-opacity:1.0; fill-rule:evenodd; fill:white; stroke:none" />
<ellipse cx="404.270859" cy="244.869545" rx="5.487839" ry="5.843483" 
	style="fill-opacity:1.0; fill-rule:evenodd; fill:white; stroke:none" />
<ellipse cx="430.926071" cy="273.252167" rx="5.487839" ry="5.843475" 
	style="fill-opacity:1.0; fill-rule:evenodd; fill:white; stroke:none" />
<polyline points="292.684784,306.365204 
	286.935608,308.034760 282.754425,307.478241 280.663788,302.469543 281.186462,295.791290 "
	style="stroke-width:5.395865; stroke-linecap:round; stroke-linejoin:round; stroke-dasharray:none; stroke:black" />
<polygon points="293.207428,300.243469 
	313.068176,280.208649 306.796387,273.530426 286.935608,293.565186 "
	style="fill-opacity:1.0; fill-rule:evenodd; fill:black; stroke:none" />
<ellipse cx="290.332855" cy="297.182587" rx="4.442535" ry="4.730438" 
	style="fill-opacity:1.0; fill-rule:evenodd; fill:black; stroke:none" />
<polygon points="313.068176,280.208649 
	314.113495,279.095642 307.841675,272.417358 306.796387,273.530426 306.796387,273.530426 
	313.068176,280.208649 "
	style="fill-opacity:1.0; fill-rule:evenodd; fill:black; stroke:none" />
<ellipse cx="311.238922" cy="276.034760" rx="4.442535" ry="4.730438" 
	style="fill-opacity:1.0; fill-rule:evenodd; fill:black; stroke:none" />
<polygon points="335.019562,256.834778 
	335.542206,255.721710 329.270386,249.043472 328.747711,250.156494 "
	style="fill-opacity:1.0; fill-rule:evenodd; fill:black; stroke:none" />
<ellipse cx="332.144974" cy="253.773903" rx="4.442520" ry="4.730431" 
	style="fill-opacity:1.0; fill-rule:evenodd; fill:black; stroke:none" />
<polygon points="336.064850,255.165207 
	355.402954,234.573883 349.131134,227.895645 329.793030,248.486923 329.270386,249.043472 
	335.542206,255.721710 "
	style="fill-opacity:1.0; fill-rule:evenodd; fill:black; stroke:none" />
<ellipse cx="352.528366" cy="231.513023" rx="4.442520" ry="4.730431" 
	style="fill-opacity:1.0; fill-rule:evenodd; fill:black; stroke:none" />
<polygon points="376.309021,212.313019 
	377.876953,210.643448 371.605133,203.965210 370.037170,205.634766 "
	style="fill-opacity:1.0; fill-rule:evenodd; fill:black; stroke:none" />
<ellipse cx="373.434433" cy="209.252159" rx="4.442520" ry="4.730446" 
	style="fill-opacity:1.0; fill-rule:evenodd; fill:black; stroke:none" />
<ellipse cx="375.002380" cy="207.582588" rx="4.442535" ry="4.730431" 
	style="fill-opacity:1.0; fill-rule:evenodd; fill:black; stroke:none" />
<polygon points="291.639465,300.799988 
	293.730103,286.330414 284.322357,285.217377 282.231781,299.686920 "
	style="fill-opacity:1.0; fill-rule:evenodd; fill:white; stroke:none" />
<ellipse cx="287.196960" cy="300.521698" rx="4.965179" ry="5.286957" 
	style="fill-opacity:1.0; fill-rule:evenodd; fill:white; stroke:none" />
<ellipse cx="289.287552" cy="286.052155" rx="4.965195" ry="5.286957" 
	style="fill-opacity:1.0; fill-rule:evenodd; fill:white; stroke:none" />
<polygon points="313.068176,251.269547 
	339.723419,279.652161 347.040527,271.860840 320.385284,243.478241 "
	style="fill-opacity:1.0; fill-rule:evenodd; fill:white; stroke:none" />
<ellipse cx="316.988083" cy="247.652161" rx="5.487839" ry="5.843475" 
	style="fill-opacity:1.0; fill-rule:evenodd; fill:white; stroke:none" />
<ellipse cx="343.643295" cy="276.034760" rx="5.487839" ry="5.843475" 
	style="fill-opacity:1.0; fill-rule:evenodd; fill:white; stroke:none" />
<polyline points="281.186462,220.660858 
	360.106812,304.695648 "
	style="stroke-width:5.395865; stroke-linecap:round; stroke-linejoin:round; stroke-dasharray:none; stroke:black" />
<polyline points="281.186462,220.104340 
	280.141144,214.539124 281.709106,210.643448 287.980927,209.530426 292.162140,210.086945 
	371.082489,294.121735 "
	style="stroke-width:5.395865; stroke-linecap:round; stroke-linejoin:round; stroke-dasharray:none; stroke:black" />
<polyline points="371.082489,294.121735 
	373.173096,299.130402 373.695740,301.913025 372.650452,304.139099 368.991913,306.921722 
	365.333313,307.478241 "
	style="stroke-width:5.395865; stroke-linecap:round; stroke-linejoin:round; stroke-dasharray:none; stroke:black" />
<polygon points="299.479248,209.530426 
	291.639465,249.599976 300.001892,251.269547 307.841675,211.199997 "
	style="fill-opacity:1.0; fill-rule:evenodd; fill:white; stroke:none" />
<ellipse cx="303.921783" cy="210.921722" rx="4.442535" ry="4.730438" 
	style="fill-opacity:1.0; fill-rule:evenodd; fill:white; stroke:none" />
<ellipse cx="296.082001" cy="250.991280" rx="4.442535" ry="4.730431" 
	style="fill-opacity:1.0; fill-rule:evenodd; fill:white; stroke:none" />
<polyline points="364.288025,229.008667 
	366.901276,274.643463 "
	style="stroke-width:7.014625; stroke-linecap:round; stroke-linejoin:round; stroke-dasharray:none; stroke:white" />
</svg>
