<?xml version="1.0" standalone="no"?>
<!DOCTYPE svg PUBLIC "-//W3C//DTD SVG 20001102//EN"
"http://www.w3.org/TR/2000/CR-SVG-20001102/DTD/svg-20001102.dtd">
<svg width="768" height="344"
	xmlns:sodipodi="http://sodipodi.sourceforge.net/DTD/sodipodi-0.dtd">
<desc>wmf2svg</desc>
<polyline points="18.941313,165.945740 
	9.470656,165.945740 2.104591,165.548737 20.695137,172.297729 "
	style="stroke-width:4.486587; stroke-linecap:round; stroke-linejoin:round; stroke-dasharray:none; stroke:black" />
<polyline points="196.779175,218.349655 
	190.465393,242.566620 183.450104,265.989594 166.262619,314.026520 161.001129,325.142487 
	157.493500,329.906494 152.933548,333.479492 148.373596,336.258484 142.410599,337.846497 
	135.746063,337.846497 128.029236,335.861481 121.715454,333.082489 115.401695,329.112488 
	110.140213,324.348511 106.983337,318.790497 104.878738,308.865509 104.177216,300.131531 
	104.878738,292.588562 106.983337,285.839569 114.349388,273.929596 125.573868,261.622589 
	138.552185,248.918610 151.530472,237.405640 180.293228,212.791672 "
	style="stroke-width:4.860469; stroke-linecap:round; stroke-linejoin:round; stroke-dasharray:4.860469 9.720938; stroke:black" />
<polyline points="186.606979,146.095779 
	183.099350,139.743774 178.188614,132.200790 165.210327,115.526817 150.478180,98.058846 
	136.447601,80.193878 125.924644,63.122898 122.767754,55.182919 121.364700,47.639931 
	122.066231,40.890938 125.223114,34.935947 131.186111,30.171951 139.955231,26.201962 
	147.672058,25.010960 154.336594,26.201962 159.948837,29.377953 164.508789,34.538948 
	168.367203,41.287937 171.524078,48.830925 176.084030,67.092903 182.748566,108.777832 
	186.256226,127.833801 191.166931,142.522781 "
	style="stroke-width:4.486587; stroke-linecap:round; stroke-linejoin:round; stroke-dasharray:none; stroke:black" />
<polyline points="179.942444,152.844757 
	147.672058,115.923820 132.589188,96.470848 117.506287,74.635887 112.946335,66.298897 
	110.140213,58.755909 109.087921,45.257927 113.297096,33.347946 121.715454,22.628963 
	126.626167,18.261971 129.432281,16.276976 145.918259,12.306980 154.687378,11.512981 
	162.404205,14.291981 165.911865,16.673973 169.068741,19.849968 174.680984,27.392958 
	179.591690,36.126945 183.099350,46.051926 185.554688,55.579910 186.606979,64.313904 
	190.816177,99.646843 197.129929,137.361786 "
	style="stroke-width:4.486587; stroke-linecap:round; stroke-linejoin:round; stroke-dasharray:none; stroke:black" />
<polygon points="135.395309,32.553947 
	132.589188,21.040970 131.887650,8.336985 132.589188,5.954993 134.342987,4.366995 
	139.253723,2.381997 144.515182,3.572996 146.269012,5.160994 146.619766,6.748992 
	148.022842,20.643969 149.075134,24.216961 150.127426,32.553947 149.776672,34.935947 
	148.373596,36.523945 143.462891,37.317944 138.552185,35.729946 136.447601,34.141945 
	135.395309,32.553947 "
	style="fill:none; stroke-width:4.486587; stroke-linecap:round; stroke-linejoin:round; stroke-dasharray:none; stroke:black" />
<polyline points="135.395309,32.553947 
	132.589188,21.040970 131.887650,8.336985 132.589188,5.954993 134.342987,4.366995 
	139.253723,2.381997 144.515182,3.572996 146.269012,5.160994 146.619766,6.748992 
	148.022842,20.643969 149.075134,24.216961 150.127426,32.553947 149.776672,34.935947 
	148.373596,36.523945 143.462891,37.317944 138.552185,35.729946 136.447601,34.141945 
	135.395309,32.553947 "
	style="stroke-width:4.486587; stroke-linecap:round; stroke-linejoin:round; stroke-dasharray:none; stroke:black" />
<polygon points="147.672058,28.980955 
	145.918259,11.115984 134.342987,12.306980 136.096817,30.171951 "
	style="fill-opacity:1.0; fill-rule:evenodd; fill:white; stroke:none" />
<ellipse cx="142.235207" cy="29.973453" rx="6.138390" ry="6.947488" 
	style="fill-opacity:1.0; fill-rule:evenodd; fill:white; stroke:none" />
<ellipse cx="140.481377" cy="12.108482" rx="6.138390" ry="6.947488" 
	style="fill-opacity:1.0; fill-rule:evenodd; fill:white; stroke:none" />
<polygon points="58.577759,177.855743 
	267.282959,206.836670 267.984467,198.499695 59.279285,169.518738 "
	style="fill-opacity:1.0; fill-rule:evenodd; fill:black; stroke:none" />
<polygon points="268.335266,206.836670 
	279.208954,204.851700 278.156677,196.911697 267.282959,198.896698 267.984467,198.499695 
	267.282959,206.836670 "
	style="fill-opacity:1.0; fill-rule:evenodd; fill:black; stroke:none" />
<polygon points="278.858185,205.248688 
	289.030365,204.454681 288.679596,195.720703 278.507416,196.514694 278.156677,196.911697 
	279.208954,204.851700 "
	style="fill-opacity:1.0; fill-rule:evenodd; fill:black; stroke:none" />
<polygon points="288.679596,204.454681 
	298.501007,205.248688 298.851807,196.514694 289.030365,195.720703 288.679596,195.720703 
	289.030365,204.454681 "
	style="fill-opacity:1.0; fill-rule:evenodd; fill:black; stroke:none" />
<polygon points="298.501007,205.248688 
	303.762512,206.439682 305.516327,198.896698 298.851807,196.514694 "
	style="fill-opacity:1.0; fill-rule:evenodd; fill:black; stroke:none" />
<polygon points="303.762512,206.439682 
	307.971680,208.821671 310.777802,201.675705 305.516327,198.896698 "
	style="fill-opacity:1.0; fill-rule:evenodd; fill:black; stroke:none" />
<polygon points="307.620911,208.424683 
	317.091583,214.776672 320.599243,208.027664 311.128571,201.675705 310.777802,201.675705 
	307.971680,208.821671 "
	style="fill-opacity:1.0; fill-rule:evenodd; fill:black; stroke:none" />
<polygon points="265.879883,207.233688 
	278.858185,213.982666 281.313538,207.630676 268.335266,200.881699 "
	style="fill-opacity:1.0; fill-rule:evenodd; fill:black; stroke:none" />
<ellipse cx="267.458313" cy="204.256172" rx="3.332275" ry="3.771492" 
	style="fill-opacity:1.0; fill-rule:evenodd; fill:black; stroke:none" />
<polygon points="278.858185,213.982666 
	282.015076,215.570663 284.470428,208.821671 281.313538,207.630676 "
	style="fill-opacity:1.0; fill-rule:evenodd; fill:black; stroke:none" />
<polygon points="282.015076,215.570663 
	285.522736,216.761673 287.276520,210.012665 284.470428,208.821671 "
	style="fill-opacity:1.0; fill-rule:evenodd; fill:black; stroke:none" />
<polygon points="285.522736,216.761673 
	287.978088,217.952667 290.082672,211.600677 287.276520,210.012665 "
	style="fill-opacity:1.0; fill-rule:evenodd; fill:black; stroke:none" />
<polygon points="287.978088,217.952667 
	291.485748,218.746658 292.187256,211.600677 290.082672,211.600677 "
	style="fill-opacity:1.0; fill-rule:evenodd; fill:black; stroke:none" />
<polygon points="291.836487,219.143661 
	299.904083,219.143661 299.904083,210.806671 291.836487,210.806671 292.187256,211.600677 
	291.485748,218.746658 "
	style="fill-opacity:1.0; fill-rule:evenodd; fill:black; stroke:none" />
<polygon points="300.254852,219.143661 
	307.270172,218.349655 306.568634,210.409683 299.553314,211.203659 299.904083,210.806671 
	299.904083,219.143661 "
	style="fill-opacity:1.0; fill-rule:evenodd; fill:black; stroke:none" />
<polygon points="307.620911,217.952667 
	319.546906,215.173660 318.494629,208.027664 306.568634,210.806671 306.568634,210.409683 
	307.270172,218.349655 "
	style="fill-opacity:1.0; fill-rule:evenodd; fill:black; stroke:none" />
<ellipse cx="319.371567" cy="211.799164" rx="3.332260" ry="3.771500" 
	style="fill-opacity:1.0; fill-rule:evenodd; fill:black; stroke:none" />
<polygon points="291.485748,212.394684 
	269.738281,206.042694 268.686005,211.600677 290.433441,217.952667 "
	style="fill-opacity:1.0; fill-rule:evenodd; fill:black; stroke:none" />
<ellipse cx="291.310349" cy="215.372169" rx="2.630753" ry="2.977486" 
	style="fill-opacity:1.0; fill-rule:evenodd; fill:black; stroke:none" />
<polygon points="269.738281,206.042694 
	260.267639,203.263687 259.215332,208.424683 268.686005,211.203659 268.686005,211.600677 
	269.738281,206.042694 "
	style="fill-opacity:1.0; fill-rule:evenodd; fill:black; stroke:none" />
<polygon points="259.916870,203.263687 
	244.483215,199.690704 243.781677,205.248688 259.215332,208.821671 259.215332,208.424683 
	260.267639,203.263687 "
	style="fill-opacity:1.0; fill-rule:evenodd; fill:black; stroke:none" />
<ellipse cx="244.307838" cy="202.668190" rx="2.630745" ry="2.977486" 
	style="fill-opacity:1.0; fill-rule:evenodd; fill:black; stroke:none" />
<polygon points="292.888763,196.911697 
	270.439850,196.117691 270.439850,202.072693 292.888763,202.866699 "
	style="fill-opacity:1.0; fill-rule:evenodd; fill:black; stroke:none" />
<ellipse cx="293.064178" cy="200.286194" rx="2.630737" ry="2.977493" 
	style="fill-opacity:1.0; fill-rule:evenodd; fill:black; stroke:none" />
<polygon points="270.439850,196.117691 
	242.378632,195.323700 242.378632,201.278687 270.439850,202.072693 270.439850,202.072693 
	270.439850,196.117691 "
	style="fill-opacity:1.0; fill-rule:evenodd; fill:black; stroke:none" />
<ellipse cx="242.554008" cy="198.698204" rx="2.630745" ry="2.977501" 
	style="fill-opacity:1.0; fill-rule:evenodd; fill:black; stroke:none" />
<polygon points="248.692383,195.720703 
	22.098198,163.960754 21.045900,173.885742 247.640091,205.645676 "
	style="fill-opacity:1.0; fill-rule:evenodd; fill:black; stroke:none" />
<ellipse cx="248.517021" cy="201.080193" rx="4.384560" ry="4.962502" 
	style="fill-opacity:1.0; fill-rule:evenodd; fill:black; stroke:none" />
<ellipse cx="21.922813" cy="169.320236" rx="4.384562" ry="4.962494" 
	style="fill-opacity:1.0; fill-rule:evenodd; fill:black; stroke:none" />
<polygon points="295.694916,209.615677 
	294.642609,221.922653 299.904083,222.319656 300.956390,210.012665 "
	style="fill-opacity:1.0; fill-rule:evenodd; fill:white; stroke:none" />
<ellipse cx="298.676422" cy="210.211174" rx="2.630737" ry="2.977486" 
	style="fill-opacity:1.0; fill-rule:evenodd; fill:white; stroke:none" />
<ellipse cx="297.624130" cy="222.518166" rx="2.630722" ry="2.977501" 
	style="fill-opacity:1.0; fill-rule:evenodd; fill:white; stroke:none" />
<polyline points="350.765015,91.706856 
	347.958893,94.088860 343.749725,98.455849 333.928314,112.350830 322.002289,131.406799 
	317.793091,149.668762 314.285461,163.960754 311.128571,172.694733 307.270172,183.413727 
	304.464020,195.720703 301.307159,227.083649 299.904083,239.787628 297.097992,252.094604 
	294.993408,258.843597 291.836487,265.592590 288.328857,270.753601 283.067352,274.326569 
	276.402832,277.105591 268.686005,278.296570 250.446213,279.090576 229.400314,276.708557 
	207.302124,272.341583 185.905472,266.783600 149.776672,256.461609 138.902939,252.491623 
	124.872353,246.139618 92.601959,228.274643 77.519073,217.952667 64.540756,207.630676 
	59.279285,202.866699 55.070110,197.705704 52.263992,193.338699 50.510162,188.971710 
	48.756336,182.619720 47.704041,178.649719 48.405575,173.488724 50.860931,160.784760 
	52.263992,156.020752 54.368576,152.050781 56.823929,148.874771 59.980820,146.095779 
	67.346878,142.522781 75.765244,140.934784 94.005020,142.919785 110.140213,148.477768 
	125.223114,154.829758 139.604477,159.196747 172.225616,168.327744 "
	style="stroke-width:4.112704; stroke-linecap:round; stroke-linejoin:round; stroke-dasharray:none; stroke:black" />
<polyline points="318.845398,80.987869 
	316.390045,103.616837 314.285461,123.466805 303.060974,165.548737 297.799500,191.750702 
	295.344147,202.469681 293.590332,214.776672 291.485748,238.596634 290.082672,246.139618 
	287.978088,252.491623 285.171936,258.049591 284.119659,259.637604 282.015076,260.828583 
	273.947449,264.401611 266.932190,266.783600 256.409241,267.577606 243.781677,267.577606 
	228.698776,265.989594 194.323807,259.637604 175.733276,255.270599 157.142715,249.315613 
	138.902939,242.963623 121.364700,235.420639 105.229507,227.083649 90.848145,217.555664 
	78.220596,207.630676 68.749939,196.911697 64.891525,191.353699 62.085407,185.398697 
	59.980820,179.443726 58.928528,173.091736 59.279285,164.754745 61.734646,158.799759 
	65.242294,154.829758 70.503769,152.447769 84.885132,152.050781 102.072617,156.020752 
	141.007523,169.121735 158.896545,174.679733 166.613373,176.267731 173.277908,176.664719 "
	style="stroke-width:4.112704; stroke-linecap:round; stroke-linejoin:round; stroke-dasharray:none; stroke:black" />
<polygon points="129.081528,246.139618 
	133.992233,248.521622 135.746063,243.757629 130.835358,241.375626 "
	style="fill-opacity:1.0; fill-rule:evenodd; fill:white; stroke:none" />
<ellipse cx="130.309212" cy="243.956123" rx="2.279976" ry="2.580498" 
	style="fill-opacity:1.0; fill-rule:evenodd; fill:white; stroke:none" />
<polygon points="133.992233,248.521622 
	140.656769,250.903610 142.059845,246.139618 135.395309,243.757629 135.746063,243.757629 
	133.992233,248.521622 "
	style="fill-opacity:1.0; fill-rule:evenodd; fill:white; stroke:none" />
<polygon points="140.656769,250.903610 
	156.441208,256.858612 157.844254,252.094604 142.059845,246.139618 142.059845,246.139618 
	140.656769,250.903610 "
	style="fill-opacity:1.0; fill-rule:evenodd; fill:white; stroke:none" />
<polygon points="156.791962,256.858612 
	174.680984,262.416595 175.733276,257.255615 157.844254,251.697617 157.844254,252.094604 
	156.441208,256.858612 "
	style="fill-opacity:1.0; fill-rule:evenodd; fill:white; stroke:none" />
<polygon points="174.680984,262.416595 
	183.450104,264.798584 184.502396,259.637604 175.733276,257.255615 175.733276,257.255615 
	174.680984,262.416595 "
	style="fill-opacity:1.0; fill-rule:evenodd; fill:white; stroke:none" />
<polygon points="183.450104,264.798584 
	191.868469,266.386597 192.570007,261.225586 184.151642,259.637604 184.502396,259.637604 
	183.450104,264.798584 "
	style="fill-opacity:1.0; fill-rule:evenodd; fill:white; stroke:none" />
<ellipse cx="192.394615" cy="264.203094" rx="2.279976" ry="2.580505" 
	style="fill-opacity:1.0; fill-rule:evenodd; fill:white; stroke:none" />
<polygon points="63.137707,183.016708 
	116.103218,190.559692 117.857040,173.488724 64.891525,165.945740 "
	style="fill-opacity:1.0; fill-rule:evenodd; fill:white; stroke:none" />
<polygon points="116.103218,190.559692 
	169.419495,198.102692 171.173325,181.031708 117.857040,173.488724 117.857040,173.488724 
	116.103218,190.559692 "
	style="fill-opacity:1.0; fill-rule:evenodd; fill:white; stroke:none" />
<polyline points="319.897705,116.320824 
	324.808411,97.661842 326.912994,88.530861 326.912994,79.399872 "
	style="stroke-width:4.112704; stroke-linecap:round; stroke-linejoin:round; stroke-dasharray:none; stroke:black" />
<polyline points="321.651489,122.275810 
	331.823700,103.219841 338.137482,94.485847 345.503540,87.339867 "
	style="stroke-width:4.112704; stroke-linecap:round; stroke-linejoin:round; stroke-dasharray:none; stroke:black" />
<polyline points="327.965302,103.616837 
	332.174469,88.927864 334.980560,82.178879 338.839020,76.620880 "
	style="stroke-width:4.112704; stroke-linecap:round; stroke-linejoin:round; stroke-dasharray:none; stroke:black" />
<polygon points="439.859314,223.113647 
	645.758423,173.488724 644.355286,165.548737 438.456268,215.173660 "
	style="fill-opacity:1.0; fill-rule:evenodd; fill:black; stroke:none" />
<polygon points="646.810730,173.091736 
	656.632080,167.533737 653.475220,160.387741 643.653809,165.945740 644.355286,165.548737 
	645.758423,173.488724 "
	style="fill-opacity:1.0; fill-rule:evenodd; fill:black; stroke:none" />
<polygon points="656.632080,167.533737 
	660.841248,165.151749 658.035156,158.005753 653.475220,160.387741 "
	style="fill-opacity:1.0; fill-rule:evenodd; fill:black; stroke:none" />
<polygon points="660.841248,165.151749 
	665.401245,163.166748 663.296631,156.020752 658.035156,158.005753 "
	style="fill-opacity:1.0; fill-rule:evenodd; fill:black; stroke:none" />
<polygon points="665.401245,163.166748 
	670.311951,161.181747 668.207397,154.035751 663.296631,156.020752 "
	style="fill-opacity:1.0; fill-rule:evenodd; fill:black; stroke:none" />
<polygon points="670.311951,161.181747 
	674.521118,159.990753 673.118103,152.447769 668.207397,154.035751 "
	style="fill-opacity:1.0; fill-rule:evenodd; fill:black; stroke:none" />
<polygon points="674.521118,159.990753 
	679.782593,160.784760 679.782593,151.653763 673.118103,152.447769 "
	style="fill-opacity:1.0; fill-rule:evenodd; fill:black; stroke:none" />
<polygon points="679.782593,160.784760 
	685.044067,160.784760 685.394897,152.447769 679.782593,151.653763 "
	style="fill-opacity:1.0; fill-rule:evenodd; fill:black; stroke:none" />
<polygon points="684.693298,160.784760 
	695.216248,162.769760 696.268555,154.829758 685.745605,152.844757 685.394897,152.447769 
	685.044067,160.784760 "
	style="fill-opacity:1.0; fill-rule:evenodd; fill:black; stroke:none" />
<polygon points="644.355286,175.076736 
	658.736755,176.664719 659.087463,168.724731 644.706116,167.136749 "
	style="fill-opacity:1.0; fill-rule:evenodd; fill:black; stroke:none" />
<ellipse cx="644.881500" cy="171.305237" rx="3.332245" ry="3.771500" 
	style="fill-opacity:1.0; fill-rule:evenodd; fill:black; stroke:none" />
<polygon points="658.736755,176.664719 
	665.401245,176.664719 665.751953,169.121735 659.087463,168.724731 "
	style="fill-opacity:1.0; fill-rule:evenodd; fill:black; stroke:none" />
<polygon points="665.401245,176.664719 
	668.908875,176.267731 668.207397,169.121735 665.751953,169.121735 "
	style="fill-opacity:1.0; fill-rule:evenodd; fill:black; stroke:none" />
<polygon points="668.908875,176.267731 
	672.065735,175.473724 670.662720,168.327744 668.207397,169.121735 "
	style="fill-opacity:1.0; fill-rule:evenodd; fill:black; stroke:none" />
<polygon points="672.065735,175.473724 
	674.170410,175.076736 673.118103,167.930740 670.662720,168.327744 "
	style="fill-opacity:1.0; fill-rule:evenodd; fill:black; stroke:none" />
<polygon points="674.170410,175.076736 
	676.625732,173.885742 674.170410,167.136749 673.118103,167.930740 "
	style="fill-opacity:1.0; fill-rule:evenodd; fill:black; stroke:none" />
<polygon points="676.625732,173.885742 
	679.782593,172.694733 678.028748,165.945740 674.170410,167.136749 "
	style="fill-opacity:1.0; fill-rule:evenodd; fill:black; stroke:none" />
<polygon points="680.133362,172.694733 
	686.447083,169.121735 683.641052,162.769760 677.327271,166.342743 678.028748,165.945740 
	679.782593,172.694733 "
	style="fill-opacity:1.0; fill-rule:evenodd; fill:black; stroke:none" />
<polygon points="686.797913,169.121735 
	697.320862,161.975754 694.163940,155.623764 683.641052,162.769760 683.641052,162.769760 
	686.447083,169.121735 "
	style="fill-opacity:1.0; fill-rule:evenodd; fill:black; stroke:none" />
<ellipse cx="696.093170" cy="158.998268" rx="3.332245" ry="3.771492" 
	style="fill-opacity:1.0; fill-rule:evenodd; fill:black; stroke:none" />
<polygon points="670.311951,169.518738 
	647.512268,171.503738 647.862976,177.458725 670.662720,175.473724 "
	style="fill-opacity:1.0; fill-rule:evenodd; fill:black; stroke:none" />
<ellipse cx="670.838135" cy="172.893242" rx="2.630737" ry="2.977501" 
	style="fill-opacity:1.0; fill-rule:evenodd; fill:black; stroke:none" />
<polygon points="647.512268,171.503738 
	638.041565,172.297729 638.392334,178.252731 647.862976,177.458725 647.862976,177.458725 
	647.512268,171.503738 "
	style="fill-opacity:1.0; fill-rule:evenodd; fill:black; stroke:none" />
<polygon points="637.690796,172.694733 
	622.257141,175.076736 622.958679,180.634720 638.392334,178.252731 638.392334,178.252731 
	638.041565,172.297729 "
	style="fill-opacity:1.0; fill-rule:evenodd; fill:black; stroke:none" />
<ellipse cx="622.783295" cy="178.054222" rx="2.630707" ry="2.977486" 
	style="fill-opacity:1.0; fill-rule:evenodd; fill:black; stroke:none" />
<polygon points="667.155090,154.829758 
	645.758423,162.372742 647.161438,167.533737 668.558105,159.990753 "
	style="fill-opacity:1.0; fill-rule:evenodd; fill:black; stroke:none" />
<ellipse cx="668.031982" cy="157.807259" rx="2.630737" ry="2.977501" 
	style="fill-opacity:1.0; fill-rule:evenodd; fill:black; stroke:none" />
<polygon points="645.758423,162.372742 
	635.586243,165.945740 636.989258,171.106735 647.161438,167.533737 647.161438,167.533737 
	645.758423,162.372742 "
	style="fill-opacity:1.0; fill-rule:evenodd; fill:black; stroke:none" />
<polygon points="635.586243,165.945740 
	619.100281,171.900742 620.503296,177.061737 636.989258,171.106735 636.989258,171.106735 
	635.586243,165.945740 "
	style="fill-opacity:1.0; fill-rule:evenodd; fill:black; stroke:none" />
<ellipse cx="619.977173" cy="174.878242" rx="2.630737" ry="2.977501" 
	style="fill-opacity:1.0; fill-rule:evenodd; fill:black; stroke:none" />
<polygon points="633.481628,167.930740 
	389.349182,225.892654 391.102997,235.420639 635.235474,177.458725 "
	style="fill-opacity:1.0; fill-rule:evenodd; fill:black; stroke:none" />
<ellipse cx="634.709320" cy="172.893242" rx="4.384552" ry="4.962502" 
	style="fill-opacity:1.0; fill-rule:evenodd; fill:black; stroke:none" />
<ellipse cx="390.576843" cy="230.855141" rx="4.384583" ry="4.962486" 
	style="fill-opacity:1.0; fill-rule:evenodd; fill:black; stroke:none" />
<polyline points="389.349182,228.274643 
	372.863190,234.229645 390.401489,233.435638 "
	style="stroke-width:4.486587; stroke-linecap:round; stroke-linejoin:round; stroke-dasharray:none; stroke:black" />
<polygon points="663.296631,149.668762 
	666.102783,161.181747 674.871887,158.402740 672.065735,146.889771 "
	style="fill-opacity:1.0; fill-rule:evenodd; fill:white; stroke:none" />
<ellipse cx="668.031952" cy="148.676262" rx="4.735321" ry="5.359489" 
	style="fill-opacity:1.0; fill-rule:evenodd; fill:white; stroke:none" />
<ellipse cx="670.838104" cy="160.189247" rx="4.735321" ry="5.359489" 
	style="fill-opacity:1.0; fill-rule:evenodd; fill:white; stroke:none" />
<polyline points="451.434601,136.964798 
	456.696045,131.803802 461.957520,124.657806 473.532776,106.792831 485.809570,86.942863 
	498.437073,67.489891 504.750885,59.549911 511.064636,52.403915 517.378418,47.242928 
	523.341370,44.066933 529.304382,43.669930 534.916626,45.654930 540.528870,51.212917 
	545.439636,60.343906 548.245728,68.680901 548.596497,75.826881 547.193420,82.575867 
	543.685791,88.530861 538.775024,94.088860 532.812073,99.249847 525.445984,104.013840 
	517.378418,108.380829 500.190918,116.717827 483.003418,124.260811 467.569763,132.200790 
	455.643768,140.934784 "
	style="stroke-width:4.486587; stroke-linecap:round; stroke-linejoin:round; stroke-dasharray:none; stroke:black" />
<polyline points="444.419281,130.612793 
	469.674347,87.339867 483.354187,66.298897 498.787842,45.257927 505.101624,38.508938 
	511.415405,33.744949 517.027649,30.965950 522.639893,29.774954 528.252136,30.568954 
	533.513611,32.156952 539.125854,35.332947 544.738098,39.302937 549.648804,43.669930 
	551.753357,46.448929 558.768677,63.519901 561.223999,73.444885 560.522522,82.575867 
	557.365601,91.309860 551.753357,98.852852 548.596497,102.822845 545.088867,105.998840 
	537.722778,111.953827 530.005920,116.717827 522.289124,119.893822 492.824829,131.406799 
	461.256012,146.492767 "
	style="stroke-width:4.486587; stroke-linecap:round; stroke-linejoin:round; stroke-dasharray:none; stroke:black" />
<polygon points="538.775024,55.976913 
	548.245728,50.815918 559.470215,47.639931 561.925598,48.036922 563.679382,49.227928 
	565.783997,54.388916 566.134766,60.343906 565.433167,62.328907 563.679382,63.519901 
	554.910278,66.298897 551.753357,67.886894 549.298035,69.474892 541.931946,72.253883 
	539.827393,72.253883 538.424316,71.062889 536.670471,65.901894 537.021240,59.946903 
	538.775024,55.976913 "
	style="fill:none; stroke-width:4.486587; stroke-linecap:round; stroke-linejoin:round; stroke-dasharray:none; stroke:black" />
<polyline points="538.775024,55.976913 
	548.245728,50.815918 559.470215,47.639931 561.925598,48.036922 563.679382,49.227928 
	565.783997,54.388916 566.134766,60.343906 565.433167,62.328907 563.679382,63.519901 
	554.910278,66.298897 551.753357,67.886894 549.298035,69.474892 541.931946,72.253883 
	539.827393,72.253883 538.424316,71.062889 536.670471,65.901894 537.021240,59.946903 
	538.775024,55.976913 "
	style="stroke-width:4.486587; stroke-linecap:round; stroke-linejoin:round; stroke-dasharray:none; stroke:black" />
<polygon points="544.738098,68.680901 
	559.470215,62.725906 555.962524,50.815918 541.230408,56.770916 "
	style="fill-opacity:1.0; fill-rule:evenodd; fill:white; stroke:none" />
<ellipse cx="543.159637" cy="62.924404" rx="6.138397" ry="6.947491" 
	style="fill-opacity:1.0; fill-rule:evenodd; fill:white; stroke:none" />
<ellipse cx="557.891754" cy="56.969414" rx="6.138397" ry="6.947491" 
	style="fill-opacity:1.0; fill-rule:evenodd; fill:white; stroke:none" />
<polyline points="565.082458,187.780716 
	562.977844,188.177704 560.873291,186.986710 559.119446,184.207703 558.417908,181.428726 
	560.873291,175.473724 565.433167,170.312744 568.239319,166.342743 578.762329,141.728775 
	592.442139,111.159828 600.509705,97.264854 608.928101,85.751862 618.047974,77.811882 
	627.518616,75.429886 633.130798,76.620880 638.041565,79.002884 642.601501,82.178879 
	646.810730,86.545868 654.176758,98.058846 660.139771,111.556824 671.013428,142.919785 
	675.924194,158.799759 681.536438,173.488724 686.447083,185.398697 690.656372,198.499695 
	699.425415,224.701660 705.037720,237.405640 711.351440,248.521622 719.419067,258.446594 
	723.979004,262.813599 728.538879,265.989594 745.024902,273.532562 761.160095,279.487579 "
	style="stroke-width:4.486587; stroke-linecap:round; stroke-linejoin:round; stroke-dasharray:none; stroke:black" />
<polygon points="586.128357,174.679733 
	446.874634,206.439682 450.382294,226.289642 589.635986,194.529694 "
	style="fill-opacity:1.0; fill-rule:evenodd; fill:white; stroke:none" />
<polyline points="453.188385,174.679733 
	495.630981,156.814758 517.729126,149.271774 541.230408,143.713776 549.999512,142.919785 
	557.365601,143.316772 563.679382,145.698776 568.940857,148.874771 573.500793,153.638763 
	577.359192,159.196747 580.516113,165.945740 582.971497,173.885742 585.777588,185.398697 
	582.971497,206.042694 582.269958,211.600677 580.516113,216.364655 575.254639,223.510666 
	568.239319,228.274643 559.820923,230.656631 551.051819,231.450638 541.581177,230.656631 
	532.812073,228.671661 524.744446,225.495667 493.877136,212.791672 459.852936,201.278687 "
	style="stroke-width:4.486587; stroke-linecap:round; stroke-linejoin:round; stroke-dasharray:none; stroke:black" />
<polyline points="455.994537,185.398697 
	463.009827,185.001709 471.077423,183.016708 489.317169,176.664719 509.661560,169.121735 
	529.655212,162.372742 547.894958,158.799759 555.962524,159.196747 562.627075,161.181747 
	567.888550,165.151749 571.747009,171.503738 573.500793,180.634720 573.150024,192.544693 
	571.747009,201.675705 568.239319,208.424683 563.679382,212.791672 557.716370,215.570663 
	551.051819,216.761673 543.335022,216.364655 526.147522,212.394684 488.966431,199.293686 
	471.778931,194.132706 464.062103,192.544693 457.397583,192.147705 "
	style="stroke-width:4.486587; stroke-linecap:round; stroke-linejoin:round; stroke-dasharray:none; stroke:black" />
<polyline points="567.187012,187.780716 
	582.971497,160.784760 586.829834,154.432770 591.389832,144.507782 601.562012,120.687813 
	612.786499,99.249847 618.398743,92.500862 623.660156,89.721863 632.429321,91.309860 
	636.287781,93.691856 639.444641,96.470848 644.706116,104.410843 648.915283,113.938828 
	655.579773,134.582794 660.841248,152.050781 667.155090,167.533737 674.521118,189.368698 
	691.357849,236.611633 699.074707,254.476624 704.336182,264.401611 712.754517,275.120575 
	726.785156,297.352539 735.905029,311.247528 744.674133,322.760498 "
	style="stroke-width:4.486587; stroke-linecap:round; stroke-linejoin:round; stroke-dasharray:none; stroke:black" />
<polygon points="568.239319,180.634720 
	586.128357,151.256775 580.516113,146.889771 562.627075,176.267731 "
	style="fill-opacity:1.0; fill-rule:evenodd; fill:white; stroke:none" />
<polyline points="724.680542,271.547577 
	744.674133,283.854553 754.846313,289.412567 766.070801,292.191528 "
	style="stroke-width:4.112704; stroke-linecap:round; stroke-linejoin:round; stroke-dasharray:none; stroke:black" />
<polyline points="725.382019,278.693573 
	744.323364,291.794556 748.883301,295.764557 752.741699,300.131531 755.898621,304.498535 
	758.003174,309.262512 "
	style="stroke-width:4.112704; stroke-linecap:round; stroke-linejoin:round; stroke-dasharray:none; stroke:black" />
<polyline points="722.225159,282.266571 
	737.658813,299.734528 744.674133,309.262512 749.935608,319.187500 "
	style="stroke-width:4.486587; stroke-linecap:round; stroke-linejoin:round; stroke-dasharray:none; stroke:black" />
<polyline points="447.225372,214.776672 
	466.166687,228.671661 483.704926,242.963623 519.482971,275.914551 527.199829,285.045563 
	530.005920,290.206573 531.759766,295.764557 532.812073,302.116547 532.461304,308.865509 
	530.707458,316.011536 526.849060,323.554474 517.378418,335.464478 511.766144,339.831482 
	506.153900,341.419495 497.033997,341.022461 489.317169,339.037445 483.354187,336.258484 
	478.443481,331.891479 470.726654,320.378510 463.360596,304.498535 456.345276,287.030548 
	450.382294,269.562592 437.754730,231.053650 "
	style="stroke-width:4.860469; stroke-linecap:round; stroke-linejoin:round; stroke-dasharray:4.860469 9.720938; stroke:black" />
</svg>
