<?xml version="1.0" standalone="no"?>
<!DOCTYPE svg PUBLIC "-//W3C//DTD SVG 20001102//EN"
"http://www.w3.org/TR/2000/CR-SVG-20001102/DTD/svg-20001102.dtd">
<svg width="768" height="365"
	xmlns:sodipodi="http://sodipodi.sourceforge.net/DTD/sodipodi-0.dtd">
<desc>wmf2svg</desc>
<polygon points="594.274414,198.875687 
	249.354752,13.416217 243.658844,30.778378 588.578491,216.237869 "
	style="fill-opacity:1.0; fill-rule:evenodd; fill:black; stroke:none" />
<ellipse cx="592.059326" cy="207.951370" rx="7.911011" ry="9.864868" 
	style="fill-opacity:1.0; fill-rule:evenodd; fill:black; stroke:none" />
<ellipse cx="247.139679" cy="22.491889" rx="7.911011" ry="9.864866" 
	style="fill-opacity:1.0; fill-rule:evenodd; fill:black; stroke:none" />
<polygon points="244.924606,26.832434 
	592.375732,210.713516 595.540161,200.454071 248.089020,16.572975 "
	style="fill-opacity:1.0; fill-rule:evenodd; fill:black; stroke:none" />
<polygon points="593.641541,211.502716 
	613.260803,214.659470 613.893738,202.821640 594.274414,199.664871 595.540161,200.454071 
	592.375732,210.713516 "
	style="fill-opacity:1.0; fill-rule:evenodd; fill:black; stroke:none" />
<polygon points="612.627930,214.659470 
	630.348572,219.394623 632.247192,208.345963 614.526611,203.610825 613.893738,202.821640 
	613.260803,214.659470 "
	style="fill-opacity:1.0; fill-rule:evenodd; fill:black; stroke:none" />
<polygon points="629.715698,218.605423 
	646.170593,225.708115 648.702087,215.448669 632.247192,208.345963 632.247192,208.345963 
	630.348572,219.394623 "
	style="fill-opacity:1.0; fill-rule:evenodd; fill:black; stroke:none" />
<polygon points="645.537720,225.708115 
	655.030945,232.810822 659.461060,223.340546 649.967834,216.237869 648.702087,215.448669 
	646.170593,225.708115 "
	style="fill-opacity:1.0; fill-rule:evenodd; fill:black; stroke:none" />
<polygon points="655.030945,232.810822 
	658.828186,235.967590 663.891235,227.286499 659.461060,223.340546 "
	style="fill-opacity:1.0; fill-rule:evenodd; fill:black; stroke:none" />
<polygon points="658.828186,235.967590 
	661.359680,239.913544 667.688477,232.021637 663.891235,227.286499 "
	style="fill-opacity:1.0; fill-rule:evenodd; fill:black; stroke:none" />
<polygon points="661.359680,239.913544 
	674.650146,256.486511 680.979004,248.594620 667.688477,232.021637 667.688477,232.021637 
	661.359680,239.913544 "
	style="fill-opacity:1.0; fill-rule:evenodd; fill:black; stroke:none" />
<polygon points="587.312744,213.081100 
	606.932068,234.389221 614.526611,223.340546 594.907288,202.032440 "
	style="fill-opacity:1.0; fill-rule:evenodd; fill:black; stroke:none" />
<ellipse cx="591.426453" cy="207.951370" rx="6.012390" ry="7.497299" 
	style="fill-opacity:1.0; fill-rule:evenodd; fill:black; stroke:none" />
<polygon points="607.564880,234.389221 
	617.058105,243.070297 624.019775,231.232452 614.526611,222.551376 614.526611,223.340546 
	606.932068,234.389221 "
	style="fill-opacity:1.0; fill-rule:evenodd; fill:black; stroke:none" />
<polygon points="617.058105,243.070297 
	622.754028,247.016235 627.817078,234.389221 624.019775,231.232452 "
	style="fill-opacity:1.0; fill-rule:evenodd; fill:black; stroke:none" />
<polygon points="622.754028,247.016235 
	625.285522,248.594620 630.348572,235.967590 627.817078,234.389221 "
	style="fill-opacity:1.0; fill-rule:evenodd; fill:black; stroke:none" />
<polygon points="625.285522,248.594620 
	628.449951,248.594620 631.614380,236.756775 630.348572,235.967590 "
	style="fill-opacity:1.0; fill-rule:evenodd; fill:black; stroke:none" />
<polygon points="628.449951,249.383820 
	642.373291,254.908127 645.537720,241.491913 631.614380,235.967590 631.614380,236.756775 
	628.449951,248.594620 "
	style="fill-opacity:1.0; fill-rule:evenodd; fill:black; stroke:none" />
<polygon points="643.006165,255.697311 
	655.663818,258.064880 656.929504,243.070297 644.271912,240.702713 645.537720,241.491913 
	642.373291,254.908127 "
	style="fill-opacity:1.0; fill-rule:evenodd; fill:black; stroke:none" />
<polygon points="655.663818,258.064880 
	667.055603,259.643250 668.321350,244.648666 656.929504,243.070297 "
	style="fill-opacity:1.0; fill-rule:evenodd; fill:black; stroke:none" />
<polygon points="667.055603,259.643250 
	677.814575,260.432465 677.814575,243.859467 668.321350,244.648666 "
	style="fill-opacity:1.0; fill-rule:evenodd; fill:black; stroke:none" />
<ellipse cx="678.131042" cy="252.935165" rx="6.012329" ry="7.497299" 
	style="fill-opacity:1.0; fill-rule:evenodd; fill:black; stroke:none" />
<polyline points="627.817078,243.859467 
	593.641541,217.027039 578.452393,205.978394 553.137207,190.194595 "
	style="stroke-width:8.532416; stroke-linecap:round; stroke-linejoin:round; stroke-dasharray:none; stroke:black" />
<polyline points="638.576050,216.237869 
	599.337402,199.664871 551.238525,180.724350 "
	style="stroke-width:8.532416; stroke-linecap:round; stroke-linejoin:round; stroke-dasharray:none; stroke:black" />
<polyline points="246.823242,15.783780 
	216.444992,4.735137 244.924606,26.832434 "
	style="stroke-width:8.532416; stroke-linecap:round; stroke-linejoin:round; stroke-dasharray:none; stroke:black" />
<polygon points="639.208923,239.124344 
	632.880066,261.221649 641.107544,264.378418 647.436340,242.281097 "
	style="fill-opacity:1.0; fill-rule:evenodd; fill:white; stroke:none" />
<ellipse cx="643.955505" cy="241.097313" rx="4.746582" ry="5.918922" 
	style="fill-opacity:1.0; fill-rule:evenodd; fill:white; stroke:none" />
<ellipse cx="637.626678" cy="263.194611" rx="4.746613" ry="5.918915" 
	style="fill-opacity:1.0; fill-rule:evenodd; fill:white; stroke:none" />
<polyline points="278.467224,46.562168 
	275.302826,48.140545 273.404205,51.297306 274.037109,64.713524 276.568604,79.708115 
	281.631653,96.281090 290.491943,124.691895 305.048218,155.470276 322.135986,186.248672 
	338.590851,214.659470 356.944366,244.648666 368.336212,261.221649 384.791107,282.529755 
	411.372040,315.675720 421.498138,327.513519 433.522858,338.562164 451.243530,350.400024 
	468.964142,356.713562 504.405457,362.237854 521.493225,362.237854 537.948120,359.081116 
	567.693420,349.610870 583.515442,340.929749 597.438843,329.881104 610.096436,316.464874 
	620.855408,303.048676 629.082825,290.421661 635.411621,277.005432 646.170593,248.594620 
	656.929504,221.762177 663.258362,208.345963 670.852905,196.508118 695.535217,166.518921 
	714.521606,148.367569 737.938232,147.578400 753.127319,149.156769 762.620544,152.313522 "
	style="stroke-width:4.977242; stroke-linecap:round; stroke-linejoin:round; stroke-dasharray:none; stroke:black" />
<polyline points="279.733002,50.508110 
	283.530273,52.875683 285.428925,59.189190 289.226196,78.918922 296.820770,101.016220 
	307.579712,127.059456 333.527802,179.935150 372.133514,244.648666 395.550049,278.583801 
	417.067993,305.416229 432.889984,322.778412 446.813354,334.616272 460.736694,341.718964 
	475.925842,346.454071 509.468445,350.400024 541.112427,346.454071 564.529053,338.562164 
	585.414062,325.145966 604.400513,308.572968 612.627930,298.313568 620.222473,287.264862 
	632.247192,265.167572 637.943176,247.805420 641.740417,232.810822 647.436340,217.027039 
	658.195251,196.508118 669.587158,180.724350 695.535217,153.102722 708.192810,141.264877 
	720.217590,127.059456 731.609375,112.064865 741.102600,93.913528 "
	style="stroke-width:4.977242; stroke-linecap:round; stroke-linejoin:round; stroke-dasharray:none; stroke:black" />
<polygon points="319.604431,78.129738 
	368.336212,99.437851 374.665009,75.762161 325.933258,54.454052 "
	style="fill-opacity:1.0; fill-rule:evenodd; fill:white; stroke:none" />
<polygon points="227.836838,59.978386 
	222.773804,56.032433 220.242264,51.297306 222.140900,47.351353 228.469711,46.562168 
	250.620514,50.508110 272.771332,58.400005 294.289246,66.291901 313.908539,68.659462 
	320.237305,71.816223 321.503082,78.918922 317.072937,86.810822 308.212585,89.967575 
	297.453644,88.389198 281.631653,82.864868 227.836838,59.978386 "
	style="fill:none; stroke-width:6.399312; stroke-linecap:round; stroke-linejoin:round; stroke-dasharray:none; stroke:black" />
<polyline points="227.836838,59.978386 
	222.773804,56.032433 220.242264,51.297306 222.140900,47.351353 228.469711,46.562168 
	250.620514,50.508110 272.771332,58.400005 294.289246,66.291901 313.908539,68.659462 
	320.237305,71.816223 321.503082,78.918922 317.072937,86.810822 308.212585,89.967575 
	297.453644,88.389198 281.631653,82.864868 227.836838,59.978386 "
	style="stroke-width:6.399312; stroke-linecap:round; stroke-linejoin:round; stroke-dasharray:none; stroke:black" />
<polygon points="173.409149,59.189190 
	167.713226,55.243248 165.814575,50.508110 167.080353,46.562168 173.409149,44.983788 
	196.192841,48.929729 218.976532,56.821625 258.847961,74.972984 265.176758,79.708115 
	265.809631,84.443245 262.012360,87.600006 253.152023,88.389198 242.393066,86.810822 
	226.571075,82.075684 173.409149,59.189190 "
	style="fill:none; stroke-width:7.110347; stroke-linecap:round; stroke-linejoin:round; stroke-dasharray:none; stroke:black" />
<polyline points="173.409149,59.189190 
	167.713226,55.243248 165.814575,50.508110 167.080353,46.562168 173.409149,44.983788 
	196.192841,48.929729 218.976532,56.821625 258.847961,74.972984 265.176758,79.708115 
	265.809631,84.443245 262.012360,87.600006 253.152023,88.389198 242.393066,86.810822 
	226.571075,82.075684 173.409149,59.189190 "
	style="stroke-width:7.110347; stroke-linecap:round; stroke-linejoin:round; stroke-dasharray:none; stroke:black" />
<polygon points="119.614342,58.400005 
	113.918419,54.454052 112.019783,49.718925 113.285530,45.772972 119.614342,44.194595 
	142.398026,48.140545 165.181717,56.032433 205.053146,74.183784 211.381943,78.918922 
	212.014832,83.654060 208.217560,86.810822 199.357224,87.600006 188.598267,86.021622 
	172.776260,81.286499 119.614342,58.400005 "
	style="fill:none; stroke-width:7.110347; stroke-linecap:round; stroke-linejoin:round; stroke-dasharray:none; stroke:black" />
<polyline points="119.614342,58.400005 
	113.918419,54.454052 112.019783,49.718925 113.285530,45.772972 119.614342,44.194595 
	142.398026,48.140545 165.181717,56.032433 205.053146,74.183784 211.381943,78.918922 
	212.014832,83.654060 208.217560,86.810822 199.357224,87.600006 188.598267,86.021622 
	172.776260,81.286499 119.614342,58.400005 "
	style="stroke-width:7.110347; stroke-linecap:round; stroke-linejoin:round; stroke-dasharray:none; stroke:black" />
<polygon points="65.186653,57.610809 
	59.490726,53.664867 57.592091,48.929729 58.857849,44.983788 65.186653,43.405411 
	87.970337,47.351353 110.754013,55.243248 150.625473,73.394600 156.954269,78.129738 
	157.587143,82.864868 153.789856,86.021622 144.929535,86.810822 134.170593,85.232437 
	118.348572,80.497299 65.186653,57.610809 "
	style="fill:none; stroke-width:7.110347; stroke-linecap:round; stroke-linejoin:round; stroke-dasharray:none; stroke:black" />
<polyline points="65.186653,57.610809 
	59.490726,53.664867 57.592091,48.929729 58.857849,44.983788 65.186653,43.405411 
	87.970337,47.351353 110.754013,55.243248 150.625473,73.394600 156.954269,78.129738 
	157.587143,82.864868 153.789856,86.021622 144.929535,86.810822 134.170593,85.232437 
	118.348572,80.497299 65.186653,57.610809 "
	style="stroke-width:7.110347; stroke-linecap:round; stroke-linejoin:round; stroke-dasharray:none; stroke:black" />
<polygon points="10.758962,55.243248 
	5.063043,51.297306 3.164402,46.562168 4.430162,42.616215 10.758962,41.037834 
	33.542645,44.983788 56.326328,52.875683 96.197769,71.027031 102.526581,75.762161 
	103.159462,80.497299 99.362175,83.654060 90.501854,84.443245 79.742889,82.864868 
	63.920891,78.129738 10.758962,55.243248 "
	style="fill:none; stroke-width:7.110347; stroke-linecap:round; stroke-linejoin:round; stroke-dasharray:none; stroke:black" />
<polyline points="10.758962,55.243248 
	5.063043,51.297306 3.164402,46.562168 4.430162,42.616215 10.758962,41.037834 
	33.542645,44.983788 56.326328,52.875683 96.197769,71.027031 102.526581,75.762161 
	103.159462,80.497299 99.362175,83.654060 90.501854,84.443245 79.742889,82.864868 
	63.920891,78.129738 10.758962,55.243248 "
	style="stroke-width:7.110347; stroke-linecap:round; stroke-linejoin:round; stroke-dasharray:none; stroke:black" />
<polygon points="332.262024,74.183784 
	368.336212,75.762161 368.336212,61.556763 332.262024,59.978386 "
	style="fill-opacity:1.0; fill-rule:evenodd; fill:black; stroke:none" />
<polygon points="368.336212,75.762161 
	380.360931,75.762161 380.360931,60.767570 368.336212,60.767570 368.336212,61.556763 
	368.336212,75.762161 "
	style="fill-opacity:1.0; fill-rule:evenodd; fill:black; stroke:none" />
<polygon points="406.309052,75.762161 
	449.344879,75.762161 449.344879,61.556763 406.309052,61.556763 "
	style="fill-opacity:1.0; fill-rule:evenodd; fill:black; stroke:none" />
<polygon points="482.254639,75.762161 
	491.747833,75.762161 491.747833,61.556763 482.254639,61.556763 "
	style="fill-opacity:1.0; fill-rule:evenodd; fill:black; stroke:none" />
<polygon points="492.380737,74.972984 
	530.986450,74.972984 530.986450,60.767570 492.380737,60.767570 491.747833,61.556763 
	491.747833,75.762161 "
	style="fill-opacity:1.0; fill-rule:evenodd; fill:black; stroke:none" />
<polygon points="557.567322,74.972984 
	578.452393,74.972984 578.452393,60.767570 557.567322,60.767570 "
	style="fill-opacity:1.0; fill-rule:evenodd; fill:black; stroke:none" />
<polygon points="579.085266,74.183784 
	606.299133,74.183784 606.299133,59.978386 579.085266,59.978386 578.452393,60.767570 
	578.452393,74.972984 "
	style="fill-opacity:1.0; fill-rule:evenodd; fill:black; stroke:none" />
<polygon points="632.880066,74.183784 
	652.499390,74.183784 652.499390,59.978386 632.880066,59.978386 "
	style="fill-opacity:1.0; fill-rule:evenodd; fill:black; stroke:none" />
<polyline points="750.595764,99.437851 
	738.571106,116.800011 724.014832,132.583801 "
	style="stroke-width:4.977242; stroke-linecap:round; stroke-linejoin:round; stroke-dasharray:none; stroke:black" />
<polyline points="760.088989,112.854057 
	724.014832,139.686493 "
	style="stroke-width:4.977242; stroke-linecap:round; stroke-linejoin:round; stroke-dasharray:none; stroke:black" />
<polyline points="765.784912,137.318924 
	757.557434,135.740555 748.697144,135.740555 732.875122,139.686493 "
	style="stroke-width:4.977242; stroke-linecap:round; stroke-linejoin:round; stroke-dasharray:none; stroke:black" />
<polygon points="290.491943,93.124336 
	286.061829,74.972984 278.467224,77.340546 282.897400,95.491898 "
	style="fill-opacity:1.0; fill-rule:evenodd; fill:white; stroke:none" />
<ellipse cx="287.011124" cy="95.097301" rx="4.113724" ry="5.129726" 
	style="fill-opacity:1.0; fill-rule:evenodd; fill:white; stroke:none" />
<polygon points="286.694672,74.972984 
	284.163177,63.924328 275.935730,66.291901 278.467224,77.340546 278.467224,77.340546 
	286.061829,74.972984 "
	style="fill-opacity:1.0; fill-rule:evenodd; fill:white; stroke:none" />
<polygon points="284.163177,64.713524 
	282.264496,53.664867 274.037109,55.243248 275.935730,66.291901 275.935730,66.291901 
	284.163177,63.924328 "
	style="fill-opacity:1.0; fill-rule:evenodd; fill:white; stroke:none" />
<ellipse cx="278.783676" cy="54.848656" rx="4.113724" ry="5.129730" 
	style="fill-opacity:1.0; fill-rule:evenodd; fill:white; stroke:none" />
</svg>
