<?xml version="1.0" standalone="no"?>
<!DOCTYPE svg PUBLIC "-//W3C//DTD SVG 20001102//EN"
"http://www.w3.org/TR/2000/CR-SVG-20001102/DTD/svg-20001102.dtd">
<svg width="660" height="445"
	xmlns:sodipodi="http://sodipodi.sourceforge.net/DTD/sodipodi-0.dtd">
<desc>wmf2svg</desc>
<polyline points="45.592110,91.781242 
	70.197372,101.052094 91.907898,115.885406 112.171043,127.010414 132.434204,130.718750 
	157.039474,123.302078 177.302643,110.322922 199.013168,97.343758 219.276306,91.781242 
	239.539490,99.197914 256.907898,112.177078 271.381592,125.156258 285.855255,130.718750 
	306.118408,127.010414 327.828949,114.031258 349.539459,101.052094 368.355255,95.489578 
	390.065796,104.760429 407.434235,117.739586 423.355286,130.718750 437.828949,136.281265 
	459.539459,130.718750 479.802643,114.031258 501.513184,95.489578 523.223694,88.072906 
	544.934204,93.635422 568.092102,106.614586 611.513184,136.281265 "
	style="stroke-width:14.856908; stroke-linecap:round; stroke-linejoin:round; stroke-dasharray:none; stroke:black" />
<path d="M269.934204,323.552094L
	269.934204,292.031281 227.960541,292.031281 227.960541,279.052063 271.381592,199.322937 
	281.513153,199.322937 281.513153,279.052063 294.539459,279.052063 294.539459,292.031281 
	281.513153,292.031281 281.513153,323.552094 269.934204,323.552094 ZM269.934204,279.052063L
	269.934204,221.572922 239.539490,279.052063 269.934204,279.052063 Z"
	style="fill-opacity:1.0; fill-rule:evenodd; fill:black; stroke:none" />
<path d="M309.013184,262.364594L
	309.013184,241.968765 313.355255,227.135437 317.697357,214.156250 323.486847,204.885422 
	330.723694,199.322937 340.855255,197.468750 353.881592,201.177094 364.013184,214.156250 
	369.802643,232.697922 372.697357,262.364594 368.355255,297.593781 358.223694,317.989594 
	340.855255,325.406281 327.828949,321.697906 319.144745,312.427094 310.460541,292.031281 
	309.013184,262.364594 309.013184,262.364594 ZM320.592133,262.364594L
	326.381592,303.156250 333.618408,310.572937 340.855255,312.427094 348.092133,310.572937 
	353.881592,303.156250 358.223694,288.322906 359.671082,262.364594 358.223694,236.406281 
	353.881592,219.718765 348.092133,212.302094 340.855255,208.593750 333.618408,212.302094 
	326.381592,219.718765 320.592133,262.364594 320.592133,262.364594 Z"
	style="fill-opacity:1.0; fill-rule:evenodd; fill:black; stroke:none" />
<ellipse cx="396.578949" cy="203.958336" rx="13.750000" ry="17.614586" 
	style="fill:none; stroke-width:8.253839; stroke-linecap:round; stroke-linejoin:round; stroke-dasharray:none; stroke:black" />
<polygon points="2.171049,26.885422 
	81.776321,423.677094 113.618423,414.406250 34.013157,17.614584 "
	style="fill-opacity:1.0; fill-rule:evenodd; fill:black; stroke:none" />
<ellipse cx="18.815787" cy="24.104164" rx="18.092108" ry="23.177086" 
	style="fill-opacity:1.0; fill-rule:evenodd; fill:black; stroke:none" />
<polygon points="97.697372,444.072937 
	562.302612,444.072937 562.302612,395.864594 97.697372,395.864594 113.618423,414.406250 
	81.776321,423.677094 "
	style="fill-opacity:1.0; fill-rule:evenodd; fill:black; stroke:none" />
<ellipse cx="97.697372" cy="419.968765" rx="18.815788" ry="24.104172" 
	style="fill-opacity:1.0; fill-rule:evenodd; fill:black; stroke:none" />
<polygon points="579.671082,423.677094 
	656.381592,26.885422 623.092163,17.614584 546.381592,414.406250 562.302612,395.864594 
	562.302612,444.072937 "
	style="fill-opacity:1.0; fill-rule:evenodd; fill:black; stroke:none" />
<ellipse cx="641.184235" cy="24.104164" rx="18.092072" ry="23.177086" 
	style="fill-opacity:1.0; fill-rule:evenodd; fill:black; stroke:none" />
<ellipse cx="562.302643" cy="419.968765" rx="18.815765" ry="24.104172" 
	style="fill-opacity:1.0; fill-rule:evenodd; fill:black; stroke:none" />
</svg>
