<?xml version="1.0" standalone="no"?>
<!DOCTYPE svg PUBLIC "-//W3C//DTD SVG 20001102//EN"
"http://www.w3.org/TR/2000/CR-SVG-20001102/DTD/svg-20001102.dtd">
<svg width="659" height="444"
	xmlns:sodipodi="http://sodipodi.sourceforge.net/DTD/sodipodi-0.dtd">
<desc>wmf2svg</desc>
<polyline points="44.174728,91.574997 
	68.796707,100.825012 90.521980,115.624992 110.798889,126.724998 131.075821,130.425003 
	154.249466,123.024994 175.974731,110.075005 196.251648,97.125008 217.976913,91.574997 
	238.253860,98.974998 254.185730,111.924988 270.117584,124.875008 284.601105,130.425003 
	304.878021,126.724998 326.603271,113.775002 348.328552,100.825012 367.157135,95.274994 
	388.882416,104.525009 406.262634,117.475006 422.194519,130.425003 436.678009,135.975006 
	458.403290,130.425003 478.680237,113.775002 498.957123,95.274994 520.682434,87.874992 
	542.407715,93.425011 565.581299,106.375000 610.480225,135.975006 "
	style="stroke-width:14.842583; stroke-linecap:round; stroke-linejoin:round; stroke-dasharray:none; stroke:black" />
<ellipse cx="393.951660" cy="203.500000" rx="13.759338" ry="17.574997" 
	style="fill:none; stroke-width:8.245880; stroke-linecap:round; stroke-linejoin:round; stroke-dasharray:none; stroke:black" />
<polygon points="0.724171,26.825005 
	78.935165,422.725037 112.247253,413.475006 34.036255,17.575001 "
	style="fill-opacity:1.0; fill-rule:evenodd; fill:black; stroke:none" />
<ellipse cx="18.828564" cy="24.049999" rx="18.104393" ry="23.125004" 
	style="fill-opacity:1.0; fill-rule:evenodd; fill:black; stroke:none" />
<polygon points="94.867027,443.075012 
	561.236267,443.075012 561.236267,394.975037 94.867027,394.975037 112.247253,413.475006 
	78.935165,422.725037 "
	style="fill-opacity:1.0; fill-rule:evenodd; fill:black; stroke:none" />
<ellipse cx="94.867027" cy="419.025024" rx="18.828568" ry="24.049988" 
	style="fill-opacity:1.0; fill-rule:evenodd; fill:black; stroke:none" />
<polygon points="578.616516,422.725037 
	655.379089,26.825005 622.067078,17.575001 545.304382,413.475006 561.236267,394.975037 
	561.236267,443.075012 "
	style="fill-opacity:1.0; fill-rule:evenodd; fill:black; stroke:none" />
<ellipse cx="640.171448" cy="24.049999" rx="18.104370" ry="23.125004" 
	style="fill-opacity:1.0; fill-rule:evenodd; fill:black; stroke:none" />
<ellipse cx="561.236267" cy="419.025024" rx="18.828552" ry="24.049988" 
	style="fill-opacity:1.0; fill-rule:evenodd; fill:black; stroke:none" />
<path d="M300.532959,261.775024L
	300.532959,241.425018 304.878021,226.625015 309.223083,211.825012 315.016510,202.575012 
	332.396698,195.175018 345.431885,200.725006 355.570343,213.675003 361.363739,230.324997 
	364.260468,261.775024 359.915375,296.925018 349.776917,317.275024 332.396698,324.675018 
	319.361542,320.975006 310.671417,311.725037 303.429688,291.375031 300.532959,261.775024 
	300.532959,261.775024 ZM312.119781,261.775024L
	317.913177,302.475006 325.154968,309.875000 332.396698,311.725037 339.638458,309.875000 
	345.431885,302.475006 351.225281,285.824982 352.673645,261.775024 351.225281,235.875031 
	345.431885,219.225006 339.638458,211.825012 332.396698,208.125000 325.154968,211.825012 
	317.913177,219.225006 312.119781,261.775024 312.119781,261.775024 Z"
	style="fill-opacity:1.0; fill-rule:evenodd; fill:black; stroke:none" />
<path d="M284.601105,228.475021L
	273.014282,228.475021 268.669250,215.525009 257.082428,208.125000 246.943954,213.675003 
	241.150558,219.225006 236.805511,228.475021 235.357147,258.074982 239.702194,250.674988 
	245.495605,246.975006 251.289001,241.425018 258.530792,241.425018 270.117584,243.274979 
	278.807678,250.674988 284.601105,263.625031 286.049469,282.125000 281.704407,304.325012 
	273.014282,319.125031 257.082428,324.675018 242.598907,320.975006 231.012100,309.875000 
	225.218689,291.375031 223.770325,263.625031 225.218689,232.175003 232.460464,211.825012 
	242.598907,198.875015 257.082428,195.175018 267.220886,198.875015 275.911011,206.275024 
	281.704407,215.525009 284.601105,228.475021 284.601105,228.475021 ZM236.805511,282.125000L
	238.253860,296.925018 246.943954,306.175049 257.082428,311.725037 268.669250,304.325012 
	274.462646,282.125000 273.014282,271.025024 268.669250,261.775024 254.185730,254.375015 
	241.150558,261.775024 236.805511,282.125000 236.805511,282.125000 Z"
	style="fill-opacity:1.0; fill-rule:evenodd; fill:black; stroke:none" />
</svg>
