<?xml version="1.0" standalone="no"?>
<!DOCTYPE svg PUBLIC "-//W3C//DTD SVG 20001102//EN"
"http://www.w3.org/TR/2000/CR-SVG-20001102/DTD/svg-20001102.dtd">
<svg width="530" height="478"
	xmlns:sodipodi="http://sodipodi.sourceforge.net/DTD/sodipodi-0.dtd">
<desc>wmf2svg</desc>
<polyline points="519.334351,466.535034 
	10.665633,466.535034 50.046444,376.579346 74.659447,339.538727 99.272446,307.789673 
	127.167183,281.332092 156.702774,260.166046 212.492279,226.653137 265.000000,207.250916 
	307.662537,196.667892 348.684235,191.376389 519.334351,191.376389 519.334351,101.420670 
	519.334351,101.420670 516.052612,73.199257 506.207428,50.269375 493.080505,34.394840 
	476.671814,22.047960 445.495361,13.228782 432.368408,11.464943 179.674927,11.464943 "
	style="stroke-width:22.130581; stroke-linecap:round; stroke-linejoin:round; stroke-dasharray:none; stroke:black" />
<polyline points="516.052612,466.535034 
	516.052612,193.140213 "
	style="stroke-width:22.130581; stroke-linecap:round; stroke-linejoin:round; stroke-dasharray:none; stroke:black" />
<polygon points="319.148621,313.081177 
	330.634705,314.845032 338.838989,321.900391 347.043335,332.483368 348.684235,343.066437 
	347.043335,355.413300 338.838989,364.232452 330.634705,373.051666 319.148621,374.815491 
	309.303406,373.051666 299.458221,364.232452 292.894745,355.413300 291.253876,343.066437 
	299.458221,321.900391 319.148621,313.081177 "
	style="fill:none; stroke-width:22.130581; stroke-linecap:round; stroke-linejoin:round; stroke-dasharray:none; stroke:black" />
<polyline points="319.148621,313.081177 
	330.634705,314.845032 338.838989,321.900391 347.043335,332.483368 348.684235,343.066437 
	347.043335,355.413300 338.838989,364.232452 330.634705,373.051666 319.148621,374.815491 
	309.303406,373.051666 299.458221,364.232452 292.894745,355.413300 291.253876,343.066437 
	299.458221,321.900391 319.148621,313.081177 "
	style="stroke-width:22.130581; stroke-linecap:round; stroke-linejoin:round; stroke-dasharray:none; stroke:black" />
<polygon points="215.773987,311.317322 
	237.105270,320.136536 245.309586,330.719543 246.950455,341.302582 245.309586,353.649445 
	237.105270,362.468658 227.260040,371.287811 215.773987,373.051666 205.928802,371.287811 
	196.083603,362.468658 189.520126,353.649445 187.879242,341.302582 196.083603,320.136536 
	215.773987,311.317322 "
	style="fill:none; stroke-width:22.130581; stroke-linecap:round; stroke-linejoin:round; stroke-dasharray:none; stroke:black" />
<polyline points="215.773987,311.317322 
	237.105270,320.136536 245.309586,330.719543 246.950455,341.302582 245.309586,353.649445 
	237.105270,362.468658 227.260040,371.287811 215.773987,373.051666 205.928802,371.287811 
	196.083603,362.468658 189.520126,353.649445 187.879242,341.302582 196.083603,320.136536 
	215.773987,311.317322 "
	style="stroke-width:22.130581; stroke-linecap:round; stroke-linejoin:round; stroke-dasharray:none; stroke:black" />
<polygon points="427.445831,313.081177 
	438.931885,314.845032 447.136230,321.900391 455.340576,332.483368 456.981415,343.066437 
	455.340576,355.413300 447.136230,364.232452 438.931885,373.051666 427.445831,374.815491 
	415.959747,373.051666 407.755402,364.232452 401.191925,355.413300 399.551117,343.066437 
	407.755402,321.900391 415.959747,314.845032 427.445831,313.081177 "
	style="fill:none; stroke-width:22.130581; stroke-linecap:round; stroke-linejoin:round; stroke-dasharray:none; stroke:black" />
<polyline points="427.445831,313.081177 
	438.931885,314.845032 447.136230,321.900391 455.340576,332.483368 456.981415,343.066437 
	455.340576,355.413300 447.136230,364.232452 438.931885,373.051666 427.445831,374.815491 
	415.959747,373.051666 407.755402,364.232452 401.191925,355.413300 399.551117,343.066437 
	407.755402,321.900391 415.959747,314.845032 427.445831,313.081177 "
	style="stroke-width:22.130581; stroke-linecap:round; stroke-linejoin:round; stroke-dasharray:none; stroke:black" />
</svg>
