<?xml version="1.0" standalone="no"?>
<!DOCTYPE svg PUBLIC "-//W3C//DTD SVG 20001102//EN"
"http://www.w3.org/TR/2000/CR-SVG-20001102/DTD/svg-20001102.dtd">
<svg width="547" height="503"
	xmlns:sodipodi="http://sodipodi.sourceforge.net/DTD/sodipodi-0.dtd">
<desc>wmf2svg</desc>
<polygon points="517.410828,453.206421 
	23.191511,453.206421 23.191511,502.156067 517.410828,502.156067 "
	style="fill-opacity:1.0; fill-rule:evenodd; fill:black; stroke:none" />
<ellipse cx="518.210495" cy="479.369141" rx="21.592117" ry="22.786926" 
	style="fill-opacity:1.0; fill-rule:evenodd; fill:black; stroke:none" />
<ellipse cx="23.991225" cy="479.369141" rx="21.592108" ry="22.786926" 
	style="fill-opacity:1.0; fill-rule:evenodd; fill:black; stroke:none" />
<polygon points="541.402039,461.645966 
	291.893250,10.971476 256.706146,32.914436 506.214874,483.588959 "
	style="fill-opacity:1.0; fill-rule:evenodd; fill:black; stroke:none" />
<ellipse cx="524.608154" cy="474.305389" rx="21.592102" ry="22.786926" 
	style="fill-opacity:1.0; fill-rule:evenodd; fill:black; stroke:none" />
<ellipse cx="275.099396" cy="23.630864" rx="21.592102" ry="22.786909" 
	style="fill-opacity:1.0; fill-rule:evenodd; fill:black; stroke:none" />
<polygon points="251.907867,14.347316 
	3.998534,465.021851 39.185669,486.964752 287.095032,36.290276 "
	style="fill-opacity:1.0; fill-rule:evenodd; fill:black; stroke:none" />
<ellipse cx="270.301147" cy="27.006706" rx="21.592102" ry="22.786911" 
	style="fill-opacity:1.0; fill-rule:evenodd; fill:black; stroke:none" />
<ellipse cx="22.391804" cy="477.681213" rx="21.592102" ry="22.786926" 
	style="fill-opacity:1.0; fill-rule:evenodd; fill:black; stroke:none" />
<path d="M250.308472,367.122498L
	232.714920,242.216461 232.714920,189.890961 296.691498,189.890961 296.691498,242.216461 
	279.097931,367.122498 250.308472,367.122498 ZM237.513153,424.511749L
	237.513153,392.441284 293.492645,392.441284 293.492645,424.511749 237.513153,424.511749 Z"
	style="fill-opacity:1.0; fill-rule:evenodd; fill:black; stroke:none" />
</svg>
